<svg width="48" height="48" viewBox="0 0 48 48" fill="none" xmlns="http://www.w3.org/2000/svg">
<path fill-rule="evenodd" clip-rule="evenodd" d="M15.0868 39.9035C16.5148 39.9035 17.6768 41.0635 17.6768 42.4915C17.6768 43.9195 16.5148 45.0815 15.0868 45.0815C13.6588 45.0815 12.4988 43.9195 12.4988 42.4915C12.4988 41.0635 13.6588 39.9035 15.0868 39.9035ZM37.6474 39.9035C39.0774 39.9035 40.2394 41.0635 40.2394 42.4915C40.2394 43.9195 39.0774 45.0815 37.6474 45.0815C36.2194 45.0815 35.0594 43.9195 35.0594 42.4915C35.0594 41.0635 36.2194 39.9035 37.6474 39.9035ZM6.53519 6.01873L10.6952 6.73873C11.3652 6.85673 11.8752 7.41273 11.9332 8.09273L12.4032 13.6947L14.1509 13.6955C14.4361 13.6956 14.7182 13.6957 14.9974 13.6959L18.206 13.6974C18.4618 13.6975 18.7147 13.6976 18.9648 13.6978L22.5076 13.6997C22.7301 13.6998 22.95 13.7 23.1673 13.7001L25.65 13.7017C25.8466 13.7018 26.0408 13.702 26.2325 13.7021L28.4161 13.7037C28.5885 13.7038 28.7586 13.704 28.9263 13.7041L30.8302 13.7057C30.98 13.7059 31.1275 13.706 31.2729 13.7062L32.5243 13.7074C32.6571 13.7075 32.7878 13.7077 32.9165 13.7078L34.3656 13.7095C34.4786 13.7096 34.5897 13.7098 34.699 13.7099L35.9225 13.7116C36.0174 13.7118 36.1105 13.7119 36.2019 13.7121L36.9795 13.7134C37.061 13.7135 37.1409 13.7136 37.2192 13.7138L38.0854 13.7155C38.1516 13.7157 38.2164 13.7158 38.2798 13.716L38.8129 13.7173C38.8681 13.7175 38.922 13.7176 38.9746 13.7178L39.5461 13.7196C39.5889 13.7197 39.6306 13.7199 39.6712 13.72L40.0067 13.7214C40.0408 13.7215 40.0739 13.7217 40.106 13.7219L40.4455 13.7237C40.4701 13.7239 40.4939 13.724 40.5169 13.7242L40.7019 13.7256C40.7201 13.7257 40.7377 13.7259 40.7545 13.726L40.8877 13.7275C40.9005 13.7276 40.9128 13.7278 40.9245 13.7279L41.0151 13.7294C41.0237 13.7295 41.0317 13.7297 41.0393 13.7299L41.0967 13.7313C41.1019 13.7315 41.1068 13.7316 41.1113 13.7318L41.1529 13.7338C41.1554 13.7339 41.1578 13.7341 41.16 13.7342C41.1795 13.7361 41.1823 13.7364 41.1852 13.7367C42.2992 13.8987 43.2792 14.4807 43.9472 15.3767C44.6152 16.2707 44.8952 17.3727 44.7352 18.4767L42.8372 31.5927C42.4792 34.0887 40.3112 35.9707 37.7912 35.9707H15.9492C13.3152 35.9707 11.0852 33.9147 10.8712 31.2847L9.03919 9.49673L6.02519 8.97673C5.20719 8.83273 4.66119 8.05873 4.80119 7.24073C4.94519 6.42273 5.73519 5.89073 6.53519 6.01873ZM13.7497 16.6954L12.6552 16.6947L13.8612 31.0387C13.9492 32.1427 14.8512 32.9707 15.9532 32.9707H37.7872C38.8292 32.9707 39.7192 32.1947 39.8672 31.1647L41.7672 18.0467C41.8112 17.7347 41.7332 17.4227 41.5432 17.1707C41.3552 16.9167 41.0792 16.7527 40.7672 16.7087C40.7528 16.7093 40.7182 16.7098 40.6645 16.7102L40.447 16.7115C40.4015 16.7117 40.3515 16.7119 40.297 16.712L39.164 16.7137C39.0684 16.7138 38.969 16.7139 38.8659 16.7139L36.202 16.7138C36.0533 16.7137 35.9019 16.7137 35.7477 16.7136L32.7075 16.7118C32.5253 16.7116 32.3412 16.7115 32.1552 16.7114L30.4349 16.71C30.239 16.7098 30.0416 16.7097 29.8428 16.7095L28.0207 16.7079C27.8149 16.7077 27.6081 16.7075 27.4005 16.7073L26.1453 16.7062C25.9347 16.706 25.7235 16.7058 25.5118 16.7056L23.5964 16.7038C23.3828 16.7036 23.1691 16.7034 22.9554 16.7032L21.6741 16.702C21.4609 16.7018 21.2479 16.7016 21.0353 16.7014L19.7649 16.7003C19.5542 16.7001 19.3441 16.6999 19.1348 16.6997L17.2737 16.6981C17.0699 16.6979 16.8671 16.6978 16.6656 16.6976L14.3138 16.6958C14.124 16.6957 13.9359 16.6955 13.7497 16.6954ZM34.575 21.0873C35.403 21.0873 36.075 21.7593 36.075 22.5873C36.075 23.4153 35.403 24.0873 34.575 24.0873H29.031C28.201 24.0873 27.531 23.4153 27.531 22.5873C27.531 21.7593 28.201 21.0873 29.031 21.0873H34.575Z" fill="#202020"/>
<circle cx="42.5" cy="12.5" r="4.5" fill="#FD4B5C"/>
</svg>
