<svg width="43" height="40" viewBox="0 0 43 40" fill="none" xmlns="http://www.w3.org/2000/svg">
<path fill-rule="evenodd" clip-rule="evenodd" d="M11.087 33.9035C12.515 33.9035 13.677 35.0635 13.677 36.4915C13.677 37.9195 12.515 39.0815 11.087 39.0815C9.659 39.0815 8.499 37.9195 8.499 36.4915C8.499 35.0635 9.659 33.9035 11.087 33.9035ZM33.6476 33.9035C35.0776 33.9035 36.2396 35.0635 36.2396 36.4915C36.2396 37.9195 35.0776 39.0815 33.6476 39.0815C32.2196 39.0815 31.0596 37.9195 31.0596 36.4915C31.0596 35.0635 32.2196 33.9035 33.6476 33.9035ZM2.5354 0.0187299L6.6954 0.73873C7.3654 0.85673 7.8754 1.41273 7.9334 2.09273L8.4034 7.69473L10.1511 7.69548C10.4363 7.69561 10.7185 7.69574 10.9976 7.69586L14.2062 7.69739C14.462 7.69752 14.7149 7.69764 14.965 7.69777L18.5078 7.69972C18.7303 7.69985 18.9502 7.69998 19.1675 7.70011L21.6502 7.70169C21.8468 7.70182 22.041 7.70196 22.2327 7.70209L24.4163 7.7037C24.5887 7.70384 24.7588 7.70397 24.9266 7.70411L26.8305 7.70574C26.9802 7.70588 27.1278 7.70602 27.2732 7.70615L28.5245 7.7074C28.6573 7.70754 28.788 7.70768 28.9167 7.70781L30.3658 7.7095C30.4788 7.70964 30.5899 7.70978 30.6992 7.70992L31.9227 7.71163C32.0176 7.71177 32.1107 7.71192 32.2021 7.71206L32.9797 7.71336C33.0612 7.7135 33.1411 7.71365 33.2194 7.71379L34.0856 7.71555C34.1519 7.7157 34.2166 7.71584 34.28 7.71599L34.8131 7.71733C34.8683 7.71747 34.9222 7.71762 34.9748 7.71777L35.5463 7.71957C35.5891 7.71973 35.6308 7.71988 35.6714 7.72003L36.007 7.7214C36.0411 7.72155 36.0741 7.7217 36.1062 7.72186L36.4457 7.72371C36.4703 7.72386 36.4941 7.72402 36.5171 7.72417L36.7021 7.72558C36.7204 7.72573 36.7379 7.72589 36.7547 7.72605L36.8879 7.72747C36.9007 7.72762 36.913 7.72778 36.9247 7.72794L37.0153 7.72938C37.0239 7.72954 37.0319 7.7297 37.0395 7.72986L37.0969 7.73131C37.1021 7.73147 37.107 7.73163 37.1115 7.7318L37.1531 7.73375C37.1556 7.73392 37.158 7.73408 37.1602 7.73425C37.1797 7.73606 37.1825 7.7364 37.1854 7.73673C38.2994 7.89873 39.2794 8.48073 39.9474 9.37673C40.6154 10.2707 40.8954 11.3727 40.7354 12.4767L38.8374 25.5927C38.4794 28.0887 36.3114 29.9707 33.7914 29.9707H11.9494C9.3154 29.9707 7.0854 27.9147 6.8714 25.2847L5.0394 3.49673L2.0254 2.97673C1.2074 2.83273 0.661401 2.05873 0.801401 1.24073C0.945401 0.42273 1.7354 -0.10927 2.5354 0.0187299ZM9.74986 10.6954L8.6554 10.6947L9.8614 25.0387C9.9494 26.1427 10.8514 26.9707 11.9534 26.9707H33.7874C34.8294 26.9707 35.7194 26.1947 35.8674 25.1647L37.7674 12.0467C37.8114 11.7347 37.7334 11.4227 37.5434 11.1707C37.3554 10.9167 37.0794 10.7527 36.7674 10.7087C36.753 10.7093 36.7184 10.7098 36.6647 10.7102L36.4472 10.7115C36.4017 10.7117 36.3517 10.7119 36.2972 10.712L35.1642 10.7137C35.0686 10.7138 34.9692 10.7139 34.8661 10.7139L32.2022 10.7138C32.0535 10.7137 31.9021 10.7137 31.7479 10.7136L28.7077 10.7118C28.5256 10.7116 28.3414 10.7115 28.1554 10.7114L26.4351 10.71C26.2392 10.7098 26.0418 10.7097 25.843 10.7095L24.0209 10.7079C23.8151 10.7077 23.6083 10.7075 23.4007 10.7073L22.1455 10.7062C21.9349 10.706 21.7237 10.7058 21.512 10.7056L19.5966 10.7038C19.383 10.7036 19.1693 10.7034 18.9556 10.7032L17.6743 10.702C17.4611 10.7018 17.2481 10.7016 17.0355 10.7014L15.7651 10.7003C15.5544 10.7001 15.3443 10.6999 15.135 10.6997L13.274 10.6981C13.0701 10.6979 12.8674 10.6978 12.6658 10.6976L10.314 10.6958C10.1242 10.6957 9.93611 10.6955 9.74986 10.6954ZM30.5752 15.0873C31.4032 15.0873 32.0752 15.7593 32.0752 16.5873C32.0752 17.4153 31.4032 18.0873 30.5752 18.0873H25.0312C24.2012 18.0873 23.5312 17.4153 23.5312 16.5873C23.5312 15.7593 24.2012 15.0873 25.0312 15.0873H30.5752Z" fill="#202020"/>
<circle cx="38.5" cy="6.5" r="4.5" fill="#FD4B5C"/>
</svg>
