<svg width="37" height="33" viewBox="0 0 37 33" fill="none" xmlns="http://www.w3.org/2000/svg">
<path fill-rule="evenodd" clip-rule="evenodd" d="M26.7648 0.333252C32.3148 0.333252 36.4998 4.86159 36.4998 10.8666V22.3133C36.4998 25.3866 35.4132 28.1632 33.4382 30.1332C31.6665 31.8983 29.3682 32.8333 26.7915 32.8333H10.3698C7.79817 32.8333 5.5015 31.8999 3.72817 30.1332C1.75317 28.1632 0.666504 25.3866 0.666504 22.3133V10.8666C0.666504 4.86159 4.8515 0.333252 10.4015 0.333252H26.7648ZM26.7648 2.83325H10.4015C6.20984 2.83325 3.1665 6.21159 3.1665 10.8666V22.3133C3.1665 24.7183 3.99317 26.8666 5.49317 28.3616C6.7865 29.6532 8.47484 30.3333 10.3748 30.3333H26.7648C26.7682 30.3299 26.7815 30.3333 26.7915 30.3333C28.6932 30.3333 30.3798 29.6532 31.6732 28.3616C33.1748 26.8666 33.9998 24.7183 33.9998 22.3133V10.8666C33.9998 6.21159 30.9565 2.83325 26.7648 2.83325ZM29.3915 10.5479C29.8265 11.0829 29.7448 11.8696 29.2098 12.3063L21.8032 18.3263C20.8665 19.0696 19.7465 19.4413 18.6282 19.4413C17.5132 19.4413 16.4015 19.0729 15.4715 18.3363L7.9965 12.3096C7.45817 11.8763 7.37484 11.0879 7.8065 10.5513C8.2415 10.0163 9.02817 9.93125 9.56484 10.3629L17.0332 16.3829C17.9715 17.1263 19.2932 17.1263 20.2382 16.3763L27.6315 10.3663C28.1682 9.92792 28.9548 10.0113 29.3915 10.5479Z" fill="#AAAAAA"/>
</svg>
