<svg width="29" height="27" viewBox="0 0 29 27" fill="none" xmlns="http://www.w3.org/2000/svg">
<path fill-rule="evenodd" clip-rule="evenodd" d="M14.8226 1.61092C17.0583 0.197416 20.0283 -0.193084 22.5941 0.629166C28.1752 2.42904 29.9077 8.51342 28.3581 13.3548C25.9669 20.9585 15.7548 26.6304 15.3217 26.8683C15.1677 26.9535 14.9972 26.9962 14.8267 26.9962C14.6562 26.9962 14.4871 26.9549 14.3331 26.871C13.9027 26.6359 3.76483 21.0479 1.29395 13.3562C1.29258 13.3562 1.29258 13.3548 1.29258 13.3548C-0.258423 8.51204 1.46858 2.42629 7.0442 0.629166C9.6622 -0.217834 12.5153 0.154791 14.8226 1.61092ZM7.6767 2.59267C3.16533 4.04742 2.03233 8.89979 3.25745 12.7264C5.1852 18.7242 12.8013 23.5738 14.8253 24.7742C16.8562 23.5614 24.5273 18.6582 26.3932 12.7319C27.6183 8.90117 26.4812 4.04879 21.963 2.59267C19.774 1.89004 17.2206 2.31767 15.4578 3.68167C15.0893 3.96492 14.5778 3.97042 14.2066 3.68992C12.3393 2.28604 9.90008 1.87492 7.6767 2.59267ZM20.643 5.32328C22.5171 5.92965 23.8302 7.58928 23.9911 9.5514C24.0365 10.1193 23.6143 10.617 23.0465 10.6624C23.0176 10.6652 22.9901 10.6665 22.9612 10.6665C22.4291 10.6665 21.9781 10.2582 21.9341 9.71916C21.8433 8.5889 21.0871 7.63465 20.0105 7.28678C19.4673 7.11078 19.1703 6.52915 19.345 5.98878C19.5223 5.44703 20.0985 5.15278 20.643 5.32328Z" fill="white"/>
</svg>
