<svg width="28" height="26" viewBox="0 0 28 26" fill="none" xmlns="http://www.w3.org/2000/svg">
<path d="M13.4307 1.32526C13.7348 0.413986 15.0238 0.413986 15.3279 1.32526L17.8286 8.8192C17.9648 9.22738 18.3469 9.50265 18.7772 9.50265H26.8118C27.787 9.50265 28.1855 10.7558 27.3894 11.319L20.9355 15.8847C20.5756 16.1392 20.4249 16.5994 20.5644 17.0176L23.0404 24.4371C23.3462 25.3538 22.3031 26.1281 21.5143 25.5701L14.9568 20.9312C14.6107 20.6864 14.1479 20.6864 13.8018 20.9312L7.24437 25.5701C6.45548 26.1281 5.41238 25.3538 5.71827 24.4371L8.19419 17.0176C8.33373 16.5994 8.183 16.1392 7.82313 15.8847L1.36926 11.319C0.573153 10.7558 0.971607 9.50265 1.94678 9.50265H9.98142C10.4117 9.50265 10.7938 9.22738 10.93 8.81919L13.4307 1.32526Z" fill="#EDC128"/>
</svg>
