<svg width="29" height="35" viewBox="0 0 29 35" fill="none" xmlns="http://www.w3.org/2000/svg">
<path fill-rule="evenodd" clip-rule="evenodd" d="M14.4365 0.5C22.3973 0.5 28.874 7.02575 28.874 15.0477C28.874 24.909 17.576 34.625 14.4365 34.625C11.297 34.625 -0.000976562 24.909 -0.000976562 15.0477C-0.000976562 7.02575 6.47577 0.5 14.4365 0.5ZM14.4365 3.125C7.92302 3.125 2.62402 8.47475 2.62402 15.0477C2.62402 23.411 12.466 31.559 14.4365 31.993C16.407 31.5573 26.249 23.4092 26.249 15.0477C26.249 8.47475 20.95 3.125 14.4365 3.125ZM14.4383 9.25C17.5743 9.25 20.1258 11.8015 20.1258 14.9393C20.1258 18.0753 17.5743 20.625 14.4383 20.625C11.3023 20.625 8.75077 18.0753 8.75077 14.9393C8.75077 11.8015 11.3023 9.25 14.4383 9.25ZM14.4383 11.875C12.7495 11.875 11.3758 13.2488 11.3758 14.9393C11.3758 16.628 12.7495 18 14.4383 18C16.127 18 17.5008 16.628 17.5008 14.9393C17.5008 13.2488 16.127 11.875 14.4383 11.875Z" fill="#AAAAAA"/>
</svg>
