<svg width="21" height="25" viewBox="0 0 21 25" fill="none" xmlns="http://www.w3.org/2000/svg">
<path fill-rule="evenodd" clip-rule="evenodd" d="M10.3125 0C15.9988 0 20.625 4.66125 20.625 10.3912C20.625 17.435 12.555 24.375 10.3125 24.375C8.07 24.375 0 17.435 0 10.3912C0 4.66125 4.62625 0 10.3125 0ZM10.3125 1.875C5.66 1.875 1.875 5.69625 1.875 10.3912C1.875 16.365 8.905 22.185 10.3125 22.495C11.72 22.1837 18.75 16.3637 18.75 10.3912C18.75 5.69625 14.965 1.875 10.3125 1.875ZM10.3138 6.25C12.5538 6.25 14.3763 8.0725 14.3763 10.3137C14.3763 12.5537 12.5538 14.375 10.3138 14.375C8.07375 14.375 6.25125 12.5537 6.25125 10.3137C6.25125 8.0725 8.07375 6.25 10.3138 6.25ZM10.3138 8.125C9.1075 8.125 8.12625 9.10625 8.12625 10.3137C8.12625 11.52 9.1075 12.5 10.3138 12.5C11.52 12.5 12.5013 11.52 12.5013 10.3137C12.5013 9.10625 11.52 8.125 10.3138 8.125Z" fill="white"/>
</svg>
