<svg width="111" height="48" viewBox="0 0 111 48" fill="none" xmlns="http://www.w3.org/2000/svg">
<path d="M6.072 29.584H17.352V34H0.6V0.639997H6.072V29.584ZM33.4001 34.432C30.9041 34.432 28.6481 33.872 26.6321 32.752C24.6161 31.6 23.0321 30 21.8801 27.952C20.7281 25.872 20.1521 23.472 20.1521 20.752C20.1521 18.064 20.7441 15.68 21.9281 13.6C23.1121 11.52 24.7281 9.92 26.7761 8.8C28.8241 7.68 31.1121 7.12 33.6401 7.12C36.1681 7.12 38.4561 7.68 40.5041 8.8C42.5521 9.92 44.1681 11.52 45.3521 13.6C46.5361 15.68 47.1281 18.064 47.1281 20.752C47.1281 23.44 46.5201 25.824 45.3041 27.904C44.0881 29.984 42.4241 31.6 40.3121 32.752C38.2321 33.872 35.9281 34.432 33.4001 34.432ZM33.4001 29.68C34.8081 29.68 36.1201 29.344 37.3361 28.672C38.5841 28 39.5921 26.992 40.3601 25.648C41.1281 24.304 41.5121 22.672 41.5121 20.752C41.5121 18.832 41.1441 17.216 40.4081 15.904C39.6721 14.56 38.6961 13.552 37.4801 12.88C36.2641 12.208 34.9521 11.872 33.5441 11.872C32.1361 11.872 30.8241 12.208 29.6081 12.88C28.4241 13.552 27.4801 14.56 26.7761 15.904C26.0721 17.216 25.7201 18.832 25.7201 20.752C25.7201 23.6 26.4401 25.808 27.8801 27.376C29.3521 28.912 31.1921 29.68 33.4001 29.68ZM63.1935 7.12C65.2415 7.12 67.0495 7.536 68.6175 8.368C70.2175 9.168 71.4655 10.176 72.3615 11.392V7.552H77.8815V34.432C77.8815 36.864 77.3695 39.024 76.3455 40.912C75.3215 42.832 73.8335 44.336 71.8815 45.424C69.9615 46.512 67.6575 47.056 64.9695 47.056C61.3855 47.056 58.4095 46.208 56.0415 44.512C53.6735 42.848 52.3295 40.576 52.0095 37.696H57.4335C57.8495 39.072 58.7295 40.176 60.0735 41.008C61.4495 41.872 63.0815 42.304 64.9695 42.304C67.1775 42.304 68.9535 41.632 70.2975 40.288C71.6735 38.944 72.3615 36.992 72.3615 34.432V30.016C71.4335 31.264 70.1695 32.32 68.5695 33.184C67.0015 34.016 65.2095 34.432 63.1935 34.432C60.8895 34.432 58.7775 33.856 56.8575 32.704C54.9695 31.52 53.4655 29.888 52.3455 27.808C51.2575 25.696 50.7135 23.312 50.7135 20.656C50.7135 18 51.2575 15.648 52.3455 13.6C53.4655 11.552 54.9695 9.968 56.8575 8.848C58.7775 7.696 60.8895 7.12 63.1935 7.12ZM72.3615 20.752C72.3615 18.928 71.9775 17.344 71.2095 16C70.4735 14.656 69.4975 13.632 68.2815 12.928C67.0655 12.224 65.7535 11.872 64.3455 11.872C62.9375 11.872 61.6255 12.224 60.4095 12.928C59.1935 13.6 58.2015 14.608 57.4335 15.952C56.6975 17.264 56.3295 18.832 56.3295 20.656C56.3295 22.48 56.6975 24.08 57.4335 25.456C58.2015 26.832 59.1935 27.888 60.4095 28.624C61.6575 29.328 62.9695 29.68 64.3455 29.68C65.7535 29.68 67.0655 29.328 68.2815 28.624C69.4975 27.92 70.4735 26.896 71.2095 25.552C71.9775 24.176 72.3615 22.576 72.3615 20.752ZM96.5408 34.432C94.0448 34.432 91.7888 33.872 89.7728 32.752C87.7568 31.6 86.1728 30 85.0208 27.952C83.8688 25.872 83.2928 23.472 83.2928 20.752C83.2928 18.064 83.8848 15.68 85.0688 13.6C86.2528 11.52 87.8688 9.92 89.9168 8.8C91.9648 7.68 94.2528 7.12 96.7808 7.12C99.3088 7.12 101.597 7.68 103.645 8.8C105.693 9.92 107.309 11.52 108.493 13.6C109.677 15.68 110.269 18.064 110.269 20.752C110.269 23.44 109.661 25.824 108.445 27.904C107.229 29.984 105.565 31.6 103.453 32.752C101.373 33.872 99.0688 34.432 96.5408 34.432ZM96.5408 29.68C97.9488 29.68 99.2608 29.344 100.477 28.672C101.725 28 102.733 26.992 103.501 25.648C104.269 24.304 104.653 22.672 104.653 20.752C104.653 18.832 104.285 17.216 103.549 15.904C102.813 14.56 101.837 13.552 100.621 12.88C99.4048 12.208 98.0928 11.872 96.6848 11.872C95.2768 11.872 93.9648 12.208 92.7488 12.88C91.5648 13.552 90.6208 14.56 89.9168 15.904C89.2128 17.216 88.8608 18.832 88.8608 20.752C88.8608 23.6 89.5808 25.808 91.0208 27.376C92.4928 28.912 94.3328 29.68 96.5408 29.68Z" fill="#202020"/>
</svg>
