<svg width="92" height="39" viewBox="0 0 92 39" fill="none" xmlns="http://www.w3.org/2000/svg">
<path d="M4.56 24.32H13.96V28H1.19209e-07V0.199998H4.56V24.32ZM27.3334 28.36C25.2534 28.36 23.3734 27.8933 21.6934 26.96C20.0134 26 18.6934 24.6667 17.7334 22.96C16.7734 21.2267 16.2934 19.2267 16.2934 16.96C16.2934 14.72 16.7868 12.7333 17.7734 11C18.7601 9.26667 20.1068 7.93333 21.8134 7C23.5201 6.06667 25.4268 5.6 27.5334 5.6C29.6401 5.6 31.5468 6.06667 33.2534 7C34.9601 7.93333 36.3068 9.26667 37.2934 11C38.2801 12.7333 38.7734 14.72 38.7734 16.96C38.7734 19.2 38.2668 21.1867 37.2534 22.92C36.2401 24.6533 34.8534 26 33.0934 26.96C31.3601 27.8933 29.4401 28.36 27.3334 28.36ZM27.3334 24.4C28.5068 24.4 29.6001 24.12 30.6134 23.56C31.6534 23 32.4934 22.16 33.1334 21.04C33.7734 19.92 34.0934 18.56 34.0934 16.96C34.0934 15.36 33.7868 14.0133 33.1734 12.92C32.5601 11.8 31.7468 10.96 30.7334 10.4C29.7201 9.84 28.6268 9.56 27.4534 9.56C26.2801 9.56 25.1868 9.84 24.1734 10.4C23.1868 10.96 22.4001 11.8 21.8134 12.92C21.2268 14.0133 20.9334 15.36 20.9334 16.96C20.9334 19.3333 21.5334 21.1733 22.7334 22.48C23.9601 23.76 25.4934 24.4 27.3334 24.4ZM52.1613 5.6C53.8679 5.6 55.3746 5.94667 56.6813 6.64C58.0146 7.30667 59.0546 8.14667 59.8013 9.16V5.96H64.4013V28.36C64.4013 30.3867 63.9746 32.1867 63.1213 33.76C62.2679 35.36 61.0279 36.6133 59.4013 37.52C57.8013 38.4267 55.8813 38.88 53.6413 38.88C50.6546 38.88 48.1746 38.1733 46.2013 36.76C44.2279 35.3733 43.1079 33.48 42.8413 31.08H47.3613C47.7079 32.2267 48.4413 33.1467 49.5613 33.84C50.7079 34.56 52.0679 34.92 53.6413 34.92C55.4813 34.92 56.9613 34.36 58.0813 33.24C59.2279 32.12 59.8013 30.4933 59.8013 28.36V24.68C59.0279 25.72 57.9746 26.6 56.6413 27.32C55.3346 28.0133 53.8413 28.36 52.1613 28.36C50.2413 28.36 48.4813 27.88 46.8813 26.92C45.3079 25.9333 44.0546 24.5733 43.1213 22.84C42.2146 21.08 41.7613 19.0933 41.7613 16.88C41.7613 14.6667 42.2146 12.7067 43.1213 11C44.0546 9.29333 45.3079 7.97333 46.8813 7.04C48.4813 6.08 50.2413 5.6 52.1613 5.6ZM59.8013 16.96C59.8013 15.44 59.4813 14.12 58.8413 13C58.2279 11.88 57.4146 11.0267 56.4013 10.44C55.3879 9.85333 54.2946 9.56 53.1213 9.56C51.9479 9.56 50.8546 9.85333 49.8413 10.44C48.8279 11 48.0013 11.84 47.3613 12.96C46.7479 14.0533 46.4413 15.36 46.4413 16.88C46.4413 18.4 46.7479 19.7333 47.3613 20.88C48.0013 22.0267 48.8279 22.9067 49.8413 23.52C50.8813 24.1067 51.9746 24.4 53.1213 24.4C54.2946 24.4 55.3879 24.1067 56.4013 23.52C57.4146 22.9333 58.2279 22.08 58.8413 20.96C59.4813 19.8133 59.8013 18.48 59.8013 16.96ZM79.9506 28.36C77.8706 28.36 75.9906 27.8933 74.3106 26.96C72.6306 26 71.3106 24.6667 70.3506 22.96C69.3906 21.2267 68.9106 19.2267 68.9106 16.96C68.9106 14.72 69.404 12.7333 70.3906 11C71.3773 9.26667 72.724 7.93333 74.4306 7C76.1373 6.06667 78.044 5.6 80.1506 5.6C82.2573 5.6 84.164 6.06667 85.8706 7C87.5773 7.93333 88.924 9.26667 89.9106 11C90.8973 12.7333 91.3906 14.72 91.3906 16.96C91.3906 19.2 90.884 21.1867 89.8706 22.92C88.8573 24.6533 87.4706 26 85.7106 26.96C83.9773 27.8933 82.0573 28.36 79.9506 28.36ZM79.9506 24.4C81.124 24.4 82.2173 24.12 83.2306 23.56C84.2706 23 85.1106 22.16 85.7506 21.04C86.3906 19.92 86.7106 18.56 86.7106 16.96C86.7106 15.36 86.404 14.0133 85.7906 12.92C85.1773 11.8 84.364 10.96 83.3506 10.4C82.3373 9.84 81.244 9.56 80.0706 9.56C78.8973 9.56 77.804 9.84 76.7906 10.4C75.804 10.96 75.0173 11.8 74.4306 12.92C73.844 14.0133 73.5506 15.36 73.5506 16.96C73.5506 19.3333 74.1506 21.1733 75.3506 22.48C76.5773 23.76 78.1106 24.4 79.9506 24.4Z" fill="white"/>
</svg>
