<svg width="35" height="30" viewBox="0 0 35 30" fill="none" xmlns="http://www.w3.org/2000/svg">
<path fill-rule="evenodd" clip-rule="evenodd" d="M32.2297 0.381648C32.7425 0.890513 32.7425 1.71546 32.2297 2.22433L4.62585 29.6179C4.37035 29.8732 4.03436 30 3.69837 30C3.36237 30 3.02638 29.8732 2.77089 29.6179C2.25815 29.1091 2.25815 28.2858 2.77089 27.777L6.22172 24.3543C3.7476 22.1084 1.64884 19.0809 0.107623 15.5159C-0.0358742 15.186 -0.0358742 14.8143 0.107623 14.4861C1.89433 10.3804 4.41078 6.98161 7.38571 4.65958C13.148 0.133727 20.7236 -0.106506 26.7196 4.00888L30.3748 0.381648C30.8875 -0.127216 31.717 -0.127216 32.2297 0.381648ZM31.5819 8.75447C32.8489 10.4235 33.9618 12.353 34.8911 14.4822C35.0363 14.8122 35.0363 15.1874 34.8911 15.5156C31.2231 23.9509 24.722 28.9857 17.5 28.9857C15.8602 28.9857 14.2293 28.7218 12.6543 28.2025C11.9666 27.975 11.5938 27.2368 11.8231 26.5543C12.0523 25.87 12.7926 25.5071 13.4838 25.7294C14.791 26.1618 16.142 26.3806 17.5 26.3806C23.4988 26.3806 28.9814 22.1395 32.2521 14.9998C31.4541 13.2648 30.5249 11.693 29.4854 10.321C29.0497 9.74615 29.1652 8.92814 29.7444 8.49569C30.3219 8.06325 31.1461 8.18134 31.5819 8.75447ZM9.01142 6.70546C6.49848 8.66798 4.34078 11.5267 2.74831 15.0036C4.13681 18.0471 5.96093 20.6139 8.07966 22.5094L11.8207 18.7969C11.0596 17.6855 10.6501 16.3752 10.6501 15.0029C10.6501 11.2516 13.723 8.2001 17.4994 8.2001C18.8696 8.2001 20.2099 8.61415 21.3258 9.3625L24.8284 5.88659C19.8361 2.68365 13.7599 2.97584 9.01142 6.70546ZM23.1651 14.6955C23.8791 14.8223 24.3533 15.4996 24.2256 16.2082C23.7233 18.9748 21.5149 21.1701 18.729 21.6737C18.6502 21.6876 18.5697 21.6946 18.4927 21.6946C17.8715 21.6946 17.3185 21.2534 17.203 20.6247C17.0735 19.9179 17.546 19.2388 18.26 19.1103C19.9749 18.8012 21.3329 17.45 21.6409 15.7462C21.7704 15.0394 22.4529 14.5739 23.1651 14.6955ZM17.4994 10.8052C15.1702 10.8052 13.275 12.6878 13.275 15.0029C13.275 15.6722 13.4338 16.3183 13.7331 16.8985L19.4128 11.261C18.8281 10.9653 18.1704 10.8052 17.4994 10.8052Z" fill="#AAAAAA"/>
</svg>
