<svg width="34" height="40" viewBox="0 0 34 40" fill="none" xmlns="http://www.w3.org/2000/svg">
<path fill-rule="evenodd" clip-rule="evenodd" d="M17.0252 0.00353326C22.9612 0.00353326 27.7954 4.75916 27.7954 10.6047L27.7952 13.7576C31.404 14.9932 34 18.3729 34 22.3394V30.9167C34 35.9263 29.859 40 24.7666 40H9.23336C4.14099 40 0 35.9263 0 30.9167V22.3394C0 18.3736 2.59502 14.9944 6.20275 13.7583L6.20416 10.6047C6.21636 7.72492 7.34868 5.06713 9.39173 3.07529C11.4368 1.08145 14.1365 -0.0724607 17.0252 0.00353326ZM24.7666 16.2558H9.23336C5.82218 16.2558 3.04933 18.9836 3.04933 22.3394V30.9167C3.04933 34.2724 5.82218 37.0002 9.23336 37.0002H24.7666C28.1758 37.0002 30.9507 34.2724 30.9507 30.9167V22.3394C30.9507 18.9836 28.1758 16.2558 24.7666 16.2558ZM16.9996 22.9069C17.8412 22.9069 18.5243 23.5789 18.5243 24.4068V28.8484C18.5243 29.6764 17.8412 30.3483 16.9996 30.3483C16.158 30.3483 15.4749 29.6764 15.4749 28.8484V24.4068C15.4749 23.5789 16.158 22.9069 16.9996 22.9069ZM17.0191 3.0033H16.9866C14.9273 3.0033 12.9981 3.78323 11.5405 5.20512C10.0727 6.63301 9.26162 8.53886 9.25349 10.5707L9.25166 13.255H24.7443L24.7461 10.6047C24.7461 6.41303 21.28 3.0033 17.0191 3.0033Z" fill="#AAAAAA"/>
</svg>
