<svg width="35" height="35" viewBox="0 0 35 35" fill="none" xmlns="http://www.w3.org/2000/svg">
<path fill-rule="evenodd" clip-rule="evenodd" d="M4.26583 5.43445C4.26916 5.43445 4.18583 5.52111 4.08083 5.62445C3.6775 6.01611 2.8425 6.83111 2.83408 8.53611C2.82083 10.9211 4.38916 15.3494 11.9408 22.8994C19.4575 30.4128 23.8792 31.9994 26.2692 31.9994H26.3042C28.0092 31.9911 28.8225 31.1544 29.2158 30.7528C29.3358 30.6294 29.4325 30.5394 29.5008 30.4828C31.1608 28.8128 32.0108 27.5694 32.0026 26.7728C31.9908 25.9594 30.9792 24.9978 29.5808 23.6678C29.1358 23.2444 28.6525 22.7844 28.1425 22.2744C26.8208 20.9561 26.1658 21.1811 24.7258 21.6878C22.7342 22.3861 20.0008 23.3361 15.7542 19.0878C11.5008 14.8378 12.4525 12.1078 13.1492 10.1161C13.6525 8.67611 13.8825 8.01945 12.5592 6.69611C12.0408 6.17945 11.5758 5.68945 11.1475 5.23945C9.82583 3.84945 8.8725 2.84445 8.06416 2.83278H8.05083C7.2525 2.83278 6.0125 3.68611 4.2575 5.44111C4.2625 5.43611 4.26416 5.43445 4.26583 5.43445ZM26.2708 34.4994C22.1175 34.4994 16.7025 31.1928 10.1742 24.6678C3.62083 18.1161 0.309165 12.6844 0.334024 8.52278C0.349165 5.77278 1.79083 4.36445 2.3325 3.83611C2.36083 3.80111 2.4575 3.70611 2.49083 3.67278C4.88083 1.28111 6.4925 0.314446 8.09583 0.332524C9.9575 0.35778 11.2825 1.75111 12.9592 3.51611C13.3742 3.95278 13.8242 4.42778 14.3258 4.92778C16.7592 7.36111 16.0658 9.34611 15.5092 10.9394C14.9025 12.6778 14.3775 14.1778 17.5208 17.3211C20.6675 20.4644 22.1675 19.9394 23.8992 19.3278C25.4942 18.7711 27.4742 18.0744 29.9108 20.5078C30.4042 21.0011 30.8725 21.4461 31.3042 21.8578C33.0775 23.5428 34.4775 24.8744 34.5011 26.7411C34.5208 28.3328 33.5542 29.9544 31.1675 32.3428L30.1108 31.6261L31.0042 32.4994C30.4758 33.0411 29.0692 34.4844 26.3175 34.4994H26.2708Z" fill="#AAAAAA"/>
</svg>
