<svg width="98" height="98" viewBox="0 0 98 98" fill="none" xmlns="http://www.w3.org/2000/svg">
<rect width="98" height="98" rx="49" fill="#F1A09D"/>
<path fill-rule="evenodd" clip-rule="evenodd" d="M29.3454 33.1345C28.7729 33.3907 28.2412 34.0805 28.1775 34.6496L28.1215 35.1509H25.8687C24.6297 35.1509 23.4822 35.2021 23.3187 35.2648C22.9058 35.4228 22.6367 36.0888 22.7976 36.5539C23.0337 37.2357 22.6624 37.2053 30.8032 37.2092C35.6496 37.2116 38.3656 37.2539 38.5054 37.3293C38.6243 37.3933 38.7804 37.6438 38.8524 37.8856C38.961 38.251 38.9512 38.3935 38.794 38.7271C38.6899 38.9479 38.4769 39.1873 38.3206 39.259C38.1154 39.3532 35.4545 39.3895 28.76 39.3895H19.4837L19.1538 39.7453C18.7282 40.2041 18.6992 40.8355 19.087 41.2024L19.3503 41.4515H27.4308H35.5114L35.8124 41.7324C36.2493 42.1402 36.2353 42.8356 35.7808 43.2932L35.4484 43.6281L28.4726 43.6322L21.4968 43.6363L21.1755 43.901C20.9511 44.086 20.8355 44.3066 20.7921 44.6328C20.7394 45.0286 20.7745 45.1449 21.0229 45.395L21.3159 45.6901L30.2218 45.6937C37.0432 45.6965 39.1698 45.73 39.3081 45.8369C39.7344 46.1665 39.8552 46.7142 39.6173 47.2398C39.3228 47.8908 39.7569 47.8666 28.3767 47.8666C20.8837 47.8666 17.828 47.9031 17.6504 47.9946C16.9794 48.3402 16.7827 49.2213 17.2731 49.6852L17.5423 49.94L25.1668 49.9317L32.7912 49.9236L33.1442 50.2227C33.597 50.6064 33.6233 51.1949 33.2103 51.7043L32.9317 52.0479L29.8597 52.0818C26.7963 52.1156 26.7877 52.1164 26.7377 52.3682C26.5871 53.1285 26.1171 59.9934 26.1854 60.4361C26.2471 60.8373 26.6872 61.3514 27.1063 61.5123C27.2511 61.5679 28.3644 61.6134 29.5803 61.6134C31.711 61.6134 31.7909 61.6051 31.7909 61.3855C31.7909 60.7932 32.3129 59.3091 32.8188 58.4631C34.056 56.3942 35.5671 55.3368 37.8195 54.964C39.3466 54.7111 41.1074 55.2545 42.2905 56.3434C43.4891 57.4467 44.1426 58.853 44.2652 60.5931L44.3371 61.6134H54.273C59.7377 61.6134 64.2089 61.5971 64.2089 61.5772C64.2089 61.291 64.5002 60.1161 64.675 59.6971C65.7878 57.0298 67.5915 55.4616 70.0744 55.0025C70.9659 54.8375 71.1301 54.8378 71.9803 55.0063C73.3608 55.2799 74.1518 55.7061 75.1008 56.6875C76.1208 57.7423 76.7171 59.2298 76.7196 60.7256L76.721 61.6134H77.3523C78.488 61.6134 79.1187 61.0561 79.322 59.8729C79.452 59.1166 79.8672 53.8375 79.9825 51.4752C80.0621 49.8426 79.8755 48.9026 79.3113 48.0957C79.113 47.8122 78.9215 47.5545 78.8855 47.523C78.8497 47.4915 77.603 46.036 76.1153 44.2887C73.856 41.6351 73.2942 41.0406 72.7054 40.6802L72.0005 40.2486L68.1485 40.213L64.2963 40.1774L64.3712 38.9529C64.4122 38.2794 64.528 36.9931 64.6284 36.0944C64.8023 34.5366 64.801 34.4388 64.6032 33.997C64.4891 33.7421 64.2385 33.4206 64.0464 33.2826L63.697 33.0316L46.6918 33.0066C32.7249 32.9861 29.6257 33.009 29.3454 33.1345ZM71.8875 42.2658C72.138 42.4301 72.5219 42.7724 72.7406 43.0265C73.3276 43.7089 73.6278 44.062 74.3235 44.8882C74.6684 45.2977 74.9807 45.6586 75.0177 45.6901C75.0546 45.7216 75.5345 46.2886 76.0842 46.9502L77.0834 48.153L71.2538 48.1827C68.0476 48.1991 65.4009 48.1889 65.3725 48.1602C65.3439 48.1316 65.4009 47.1645 65.499 46.0113C65.5969 44.858 65.7115 43.4594 65.7534 42.9034L65.8296 41.8924L68.6308 41.9296C71.4287 41.967 71.4322 41.9673 71.8875 42.2658ZM37.0615 56.5112C35.747 56.884 34.3036 58.1523 33.6745 59.4876C32.3638 62.2693 33.2053 65.2697 35.6407 66.4981C37.1203 67.2444 38.6481 67.1579 40.1636 66.2421C41.3613 65.5185 42.1754 64.508 42.6916 63.1043C43.223 61.6593 43.0196 59.5165 42.2425 58.3727C41.8342 57.772 40.918 56.9549 40.3452 56.6809C39.655 56.3508 37.9394 56.2621 37.0615 56.5112ZM69.407 56.5288C67.9661 56.9748 66.3713 58.5618 65.8702 60.0485C65.4746 61.2222 65.4016 62.0781 65.6134 63.0595C65.8603 64.204 66.2561 64.9984 66.9141 65.6705C68.9245 67.7241 72.2578 67.3438 74.2138 64.8377C75.901 62.676 75.8734 59.4147 74.1531 57.6889C73.554 57.088 72.7742 56.6075 72.1711 56.468C71.444 56.2996 70.0483 56.3303 69.407 56.5288ZM39.5201 59.3968C41.1747 60.5706 40.6506 63.3755 38.6336 64.1399C38.0666 64.3548 37.9208 64.3682 37.4058 64.2533C36.3329 64.0139 35.5446 63.0043 35.5446 61.8695C35.5446 61.1981 35.9923 60.1511 36.4716 59.7017C37.3134 58.9125 38.649 58.7789 39.5201 59.3968ZM71.9625 59.3869C73.0945 60.1923 73.2895 62.0159 72.3719 63.2172C71.7415 64.0424 70.5754 64.4514 69.6455 64.1734C68.6308 63.8699 68.0763 63.0728 68.0763 61.9179C68.0763 60.7112 68.5764 59.8436 69.5928 59.2866C70.3859 58.852 71.2629 58.8891 71.9625 59.3869Z" fill="white"/>
</svg>
