<svg width="98" height="98" viewBox="0 0 98 98" fill="none" xmlns="http://www.w3.org/2000/svg">
<rect width="98" height="98" rx="49" fill="#F1A09D"/>
<path fill-rule="evenodd" clip-rule="evenodd" d="M67.1043 46.0342C63.2163 49.3162 61.8407 50.6739 61.1334 51.3137C59.7521 52.5698 61.2772 54.4481 62.624 53.1154C63.8568 51.8932 67.9615 48.322 68.7079 47.6534C69.4949 46.9472 68.3687 45.0825 67.1043 46.0342V46.0342ZM52.6766 31.0635H50.8184V32.6641C49.14 32.9062 47.8533 33.8318 47.7823 35.8125L49.9122 35.885C50.0325 35.1564 50.3258 34.7337 50.818 34.5254V36.8686C48.9958 37.3383 47.473 38.0343 47.473 40.242C47.473 41.5129 48.2217 42.6194 49.3961 43.107C49.8022 43.2785 50.2769 43.3923 50.818 43.4489V45.0244H52.6763V43.4254C54.5652 43.1594 55.7609 42.0631 56.0205 39.896L53.949 39.6892C53.782 40.6189 53.3825 41.2442 52.6763 41.5273V38.5986C54.2093 38.1592 55.6228 37.3855 55.6228 35.5383C55.6228 33.7449 54.2168 32.8873 52.6763 32.6604V31.0636L52.6766 31.0635ZM50.8184 39.0641V41.5906C50.1702 41.4156 49.6025 41.0111 49.6025 40.2541C49.6025 39.6246 50.1691 39.2807 50.8184 39.0641ZM52.6766 36.3668V34.4661C53.1623 34.5978 53.598 34.871 53.598 35.395C53.598 35.861 53.176 36.1616 52.6766 36.3665V36.3668ZM51.7477 28C57.2947 28 61.7913 32.4963 61.7913 38.0436C61.7913 43.5907 57.2931 48.0882 51.7477 48.0882C46.2006 48.0882 41.7041 43.5904 41.7041 38.0436C41.7041 32.4985 46.2011 28 51.7477 28V28ZM51.7477 29.7398C47.1615 29.7398 43.4416 33.4586 43.4416 38.0433C43.4416 42.6303 47.1611 46.3486 51.7477 46.3486C56.3335 46.3486 60.0515 42.6303 60.0515 38.0433C60.0515 33.4583 56.3346 29.7398 51.7477 29.7398V29.7398ZM73.428 51.6582C69.2646 57.0572 66.9923 60.1677 63.9938 62.5712C60.3904 65.462 56.0675 66.2517 51.986 65.9784C44.342 65.4703 40.0092 62.8706 37.7652 61.5455C35.523 60.2185 31.5477 60.0155 31.5477 60.0155V48.5487C47.0294 45.3494 42.8357 50.9826 49.2831 51.0456L56.9817 51.1226C61.5557 51.1678 60.7862 57.4168 56.8788 57.4168C53.9741 57.4168 44.8312 57.1758 44.6476 57.4168C44.2453 57.9431 45.5514 58.1416 46.2489 58.2399C47.9663 58.4774 53.152 58.6364 57.1133 58.6744C59.1032 58.6956 60.1118 57.6122 61.3629 55.4432C61.3629 55.4432 66.658 50.8592 69.1921 48.3836C71.7037 45.9319 75.4373 49.0507 73.4277 51.6572L73.428 51.6582ZM30.283 47.1372H22.5336V61.5115H30.283V47.1372ZM26.4079 55.9571C25.353 55.9571 24.4969 56.8128 24.4969 57.8685C24.4969 58.9249 25.3526 59.7799 26.4079 59.7799C27.4628 59.7799 28.3189 58.9246 28.3189 57.8685C28.3189 56.8129 27.4632 55.9571 26.4079 55.9571ZM63.873 45.1655C60.7966 47.7615 59.7512 48.8866 59.151 49.3427C57.8865 50.2982 59.2633 51.8202 60.3273 50.7653C61.304 49.8004 64.55 46.9752 65.1416 46.4444C65.7643 45.8862 64.8725 44.412 63.8727 45.1656L63.873 45.1655Z" fill="#FBFAFF"/>
</svg>
