<svg width="98" height="98" viewBox="0 0 98 98" fill="none" xmlns="http://www.w3.org/2000/svg">
<rect width="98" height="98" rx="49" fill="#F1A09D"/>
<path fill-rule="evenodd" clip-rule="evenodd" d="M24.3448 26.3467L24 26.6934V42.1657C24 57.4497 24.0034 57.6414 24.2809 57.9205C24.5532 58.1943 24.749 58.203 30.6713 58.203H36.7809L36.784 57.3202C36.7876 56.2935 37.0581 55.6037 37.8942 54.4902C38.4629 53.7327 38.4663 53.721 38.4694 52.4698C38.4729 51.0631 38.7034 50.3663 39.3942 49.675C40.0051 49.0635 40.3393 48.877 41.4167 48.546C42.3551 48.2579 42.4337 48.1991 43.1368 47.2604C44.5049 45.4338 45.7416 45.0228 47.8413 45.6966L49 46.0685L50.1587 45.6966C52.2551 45.0239 53.4956 45.4345 54.8567 47.2517C55.5617 48.1931 55.6253 48.2394 56.6881 48.5892C58.8174 49.2902 59.5754 50.3361 59.5604 52.5529C59.5525 53.7396 59.5587 53.7615 60.115 54.5026C60.9417 55.6037 61.2125 56.2965 61.216 57.3202L61.2191 58.203H67.3287C73.251 58.203 73.4468 58.1943 73.7191 57.9205C73.9966 57.6414 74 57.4497 74 42.1657V26.6934L73.6552 26.3467L73.3105 26H49H24.6895L24.3448 26.3467ZM64.8305 30.9505C65.2378 31.0933 65.573 31.5742 65.573 32.0159C65.573 32.1323 65.4178 32.3834 65.2282 32.5741L64.8836 32.9208H49H33.1164L32.7718 32.5741C32.5822 32.3834 32.427 32.1116 32.427 31.97C32.427 31.6189 32.8136 31.0906 33.1794 30.9423C33.6303 30.7593 64.3077 30.7672 64.8305 30.9505ZM65.2282 38.4935C65.4178 38.6842 65.573 38.9353 65.573 39.0517C65.573 39.4485 65.2618 39.9514 64.919 40.1086C64.4284 40.3333 33.5659 40.3306 33.0751 40.1057C32.3767 39.7857 32.2976 38.6829 32.9459 38.3036C33.1188 38.2025 38.2364 38.1539 49.0414 38.151L64.8836 38.1467L65.2282 38.4935ZM45.2264 48.0031C44.9459 48.297 44.4951 48.8531 44.2247 49.239C43.7778 49.8767 43.6327 49.9743 42.6272 50.3141C42.019 50.5197 41.3678 50.7581 41.1803 50.844C40.6656 51.0799 40.4326 51.8122 40.4326 53.1937C40.4326 54.5047 40.3635 54.7151 39.6367 55.6197C39.0233 56.3831 38.7185 57.1209 38.8308 57.5708C38.8794 57.7655 39.2295 58.3476 39.6088 58.8644C40.4056 59.9498 40.4101 59.9648 40.4629 61.7104C40.5015 62.9852 40.5171 63.0414 40.9395 63.4207C41.1874 63.6434 41.8222 63.9492 42.4086 64.1283C43.5232 64.4688 43.9851 64.8464 44.9288 66.1879C45.614 67.162 46.0624 67.2616 47.5379 66.7672C48.9084 66.3084 49.1149 66.3069 50.4045 66.748C52.0985 67.3274 52.4074 67.2316 53.3507 65.8349C54.076 64.7606 54.456 64.4752 55.6434 64.1125C56.1837 63.9474 56.8192 63.6375 57.0591 63.422C57.484 63.0402 57.4959 62.9951 57.5659 61.4998C57.6431 59.8508 57.6309 59.8889 58.4211 58.8383C59.4249 57.5034 59.4247 56.9684 58.4206 55.691C57.6258 54.6797 57.5674 54.5087 57.5674 53.1937C57.5674 51.8122 57.3344 51.0799 56.8197 50.844C56.6322 50.7581 55.981 50.5197 55.3728 50.3141C54.3673 49.9743 54.2222 49.8767 53.7753 49.239C53.5049 48.8531 53.0541 48.297 52.7736 48.0031C52.1545 47.3545 51.8421 47.3312 50.3479 47.8217C49.7563 48.0159 49.1466 48.1748 48.993 48.1748C48.8395 48.1748 48.2615 48.0159 47.7088 47.8217C46.2736 47.3175 45.8515 47.3483 45.2264 48.0031ZM50.5949 53.4719C51.3008 53.7686 52.325 54.7344 52.6846 55.4424C53.0888 56.2384 53.1747 57.6811 52.8723 58.5966C52.5607 59.5399 51.7004 60.4985 50.7421 60.97C48.0937 62.2731 44.927 60.2662 44.927 57.2849C44.927 55.411 46.244 53.7259 48.0871 53.2414C48.6736 53.0872 49.961 53.2056 50.5949 53.4719ZM40.8657 66.289C40.7987 66.4639 39.9433 68.4969 38.9646 70.807C37.2986 74.7396 37.1969 75.0317 37.3692 75.3931C37.6162 75.9108 38.1237 76.1571 38.5823 75.9818C38.7771 75.9074 39.4782 75.403 40.1403 74.8612C40.8024 74.3194 41.3581 73.9249 41.3756 73.9844C41.3928 74.0438 41.4676 74.8228 41.5417 75.7154C41.6657 77.2099 41.7056 77.3634 42.0455 77.6575C43.0051 78.4874 43.3152 78.0777 45.3309 73.3157C46.268 71.1018 47.0345 69.258 47.0343 69.2183C47.034 69.1788 46.666 69.1414 46.2166 69.1353C44.9973 69.1186 44.0958 68.5751 43.1459 67.284C42.551 66.4756 42.2892 66.2363 41.8713 66.1197C41.1239 65.9109 41.0027 65.9312 40.8657 66.289ZM56.0225 66.1319C55.6365 66.2391 55.4025 66.464 54.9334 67.1787C54.6048 67.6794 54.0787 68.2763 53.7643 68.5052C53.135 68.9637 51.9056 69.285 51.3333 69.1405C51.1315 69.0895 50.9663 69.0898 50.9663 69.1409C50.9663 69.1921 51.7317 71.058 52.6673 73.2875C54.6829 78.0908 54.9875 78.4939 55.9633 77.6499C56.3125 77.3478 56.3507 77.2055 56.4646 75.7784C56.5326 74.9289 56.6029 74.1525 56.6213 74.0532C56.64 73.9508 57.1767 74.3003 57.859 74.8594C58.5213 75.4022 59.2229 75.9074 59.4177 75.9818C59.8761 76.1571 60.3838 75.9108 60.6305 75.3937C60.8027 75.0325 60.694 74.7235 58.9191 70.525C56.8851 65.7133 56.9848 65.8646 56.0225 66.1319Z" fill="white"/>
</svg>
