<svg width="45" height="45" viewBox="0 0 45 45" fill="none" xmlns="http://www.w3.org/2000/svg">
<path fill-rule="evenodd" clip-rule="evenodd" d="M22.0101 3.75C32.0789 3.75 40.2689 11.94 40.2689 22.0087C40.2689 26.7591 38.4459 31.0918 35.4626 34.3434L41.3328 40.2013C41.8821 40.7507 41.884 41.6394 41.3346 42.1888C41.0609 42.4663 40.699 42.6032 40.339 42.6032C39.9809 42.6032 39.6209 42.4663 39.3453 42.1926L33.4043 36.2681C30.279 38.771 26.3164 40.2694 22.0101 40.2694C11.9414 40.2694 3.74951 32.0775 3.74951 22.0087C3.74951 11.94 11.9414 3.75 22.0101 3.75ZM22.0101 6.5625C13.492 6.5625 6.56201 13.4906 6.56201 22.0087C6.56201 30.5269 13.492 37.4569 22.0101 37.4569C30.5264 37.4569 37.4564 30.5269 37.4564 22.0087C37.4564 13.4906 30.5264 6.5625 22.0101 6.5625Z" fill="#202020"/>
</svg>
