<svg width="98" height="98" viewBox="0 0 98 98" fill="none" xmlns="http://www.w3.org/2000/svg">
<rect width="98" height="98" rx="49" fill="#F1A09D"/>
<path d="M59.5611 40.5961H37.0337C31.9704 40.5961 27.8657 44.7061 27.8657 49.7752V64.4464C27.8657 70.023 32.3808 74.5441 37.9511 74.5441H58.6447C64.2145 74.5441 68.7301 70.0234 68.7301 64.4464L68.7297 49.7752C68.7297 44.7058 64.625 40.5957 59.5617 40.5957L59.5611 40.5961ZM63.9242 64.9117C63.9242 67.8707 61.5282 70.2692 58.5731 70.2692H38.022C35.0666 70.2692 32.671 67.8703 32.671 64.9117V50.2295C32.671 47.2704 35.067 44.8719 38.022 44.8719H58.5731C61.5286 44.8719 63.9242 47.2708 63.9242 50.2295V64.9117Z" fill="white"/>
<path d="M37.0335 38.9571H40.1117V33.5677C40.1117 29.049 43.7835 25.3715 48.298 25.3715C52.8112 25.3715 56.4842 29.0478 56.4842 33.5677V38.9571H59.5624C60.4422 38.9571 61.2969 39.0654 62.1163 39.2649V33.5669C62.1163 25.9388 55.9176 19.7329 48.2992 19.7329C40.6807 19.7329 34.48 25.9392 34.48 33.5669V39.2649C35.2994 39.0654 36.1542 38.9571 37.0339 38.9571H37.0335Z" fill="white"/>
<path d="M57.1965 46.5716H39.3975C36.8385 46.5716 34.7632 48.6486 34.7632 51.2116V63.9281C34.7632 66.4903 36.8377 68.5682 39.3975 68.5682H57.1975C59.7566 68.5682 61.8318 66.4903 61.8318 63.9281L61.8322 51.2116C61.8311 48.6482 59.7569 46.5712 57.1967 46.5712L57.1965 46.5716ZM52.9746 62.9722C52.6574 63.5422 52.2254 64.0046 51.6807 64.3563C51.1361 64.7096 50.5022 64.9632 49.7792 65.1171C49.5589 65.1638 49.335 65.2043 49.1056 65.2357V66.3576H47.4859V65.3471C46.6622 65.3471 45.8796 65.2776 45.1366 65.1379C44.7132 65.0578 44.3215 64.9557 43.9624 64.8301C43.5091 64.6719 43.2037 64.2472 43.2037 63.7663V62.2714C43.2037 61.822 43.693 61.5452 44.0776 61.7756C44.4317 61.9876 44.8006 62.1627 45.1833 62.2997C45.8957 62.5549 46.6156 62.6821 47.3421 62.6821C47.3903 62.6821 47.4378 62.6821 47.4852 62.6805C47.8514 62.6734 48.1757 62.6349 48.4576 62.567C48.7054 62.5074 48.9202 62.4289 49.1049 62.3331C49.1574 62.306 49.2068 62.2777 49.2535 62.2467C49.4668 62.1105 49.626 61.9496 49.7303 61.7639C49.8357 61.5782 49.8883 61.3768 49.8883 61.1605C49.8883 60.8669 49.804 60.6047 49.6362 60.3742C49.5001 60.1862 49.3225 60.0103 49.1049 59.8451C49.0559 59.8062 49.0037 59.7705 48.9504 59.7336C48.6607 59.5385 48.3164 59.3493 47.9185 59.1683C47.7781 59.1039 47.6331 59.0399 47.4856 58.974C47.2135 58.8554 46.9281 58.7337 46.6293 58.6116C45.4559 58.1229 44.5804 57.5247 44.0044 56.8188C43.4285 56.1126 43.1403 55.2589 43.1403 54.2589C43.1403 53.4754 43.2983 52.803 43.612 52.2392C43.9264 51.6763 44.3542 51.2131 44.894 50.85C45.4359 50.4868 46.062 50.2187 46.7752 50.0472C47.0081 49.9918 47.2441 49.9451 47.4848 49.9074V48.78H49.1045V49.7905C49.8609 49.7932 50.5317 49.8415 51.1194 49.9322C51.4013 49.9769 51.6746 50.0315 51.9369 50.0982C52.4376 50.225 52.7896 50.6733 52.7896 51.1895V52.5093C52.7896 52.9333 52.3533 53.2163 51.9667 53.042C51.6699 52.9093 51.364 52.7994 51.0496 52.7122C50.7352 52.6251 50.4227 52.5599 50.1117 52.5179C49.8016 52.4767 49.5068 52.4555 49.2272 52.4555C49.1861 52.4555 49.1445 52.4555 49.1041 52.4571C48.7677 52.4634 48.4595 52.4995 48.1792 52.5654C47.9122 52.6271 47.6813 52.7115 47.4844 52.8178C47.4492 52.8363 47.4158 52.8555 47.3825 52.8759C47.1665 53.0086 46.9987 53.1668 46.8803 53.3525C46.7607 53.5382 46.7011 53.7466 46.7011 53.9767C46.7011 54.2291 46.7677 54.4532 46.9002 54.653C47.0335 54.8525 47.2217 55.0417 47.466 55.2203C47.4723 55.2246 47.4782 55.2289 47.4844 55.2336C47.7252 55.4067 48.0157 55.5775 48.3564 55.7443C48.5858 55.8578 48.8344 55.972 49.1037 56.089C49.2441 56.1498 49.3899 56.2111 49.5401 56.2747C50.1415 56.5271 50.681 56.7936 51.1598 57.0775C51.6377 57.3605 52.0486 57.6808 52.391 58.0369C52.7325 58.3937 52.9944 58.8012 53.1763 59.2593C53.3582 59.7174 53.4496 60.2501 53.4496 60.8598C53.4519 61.6979 53.2935 62.4021 52.9748 62.9721L52.9746 62.9722Z" fill="white"/>
</svg>
