<svg width="98" height="98" viewBox="0 0 98 98" fill="none" xmlns="http://www.w3.org/2000/svg">
<rect width="98" height="98" rx="49" fill="#F1A09D"/>
<path d="M25.4317 67.5396V74.4175H55.5634V67.5396C55.5634 63.3677 52.3889 60.1545 48.2673 60.1545H32.7837C28.8291 60.1545 25.4316 63.4243 25.4316 67.5396H25.4317Z" fill="white"/>
<path d="M40.5253 57.1101C45.148 57.1101 48.9353 53.2767 48.9353 48.5974C48.9353 43.9181 45.1481 40.0848 40.5253 40.0848C35.9025 40.0848 32.1152 43.9181 32.1152 48.5974C32.1708 53.2766 35.8469 57.1101 40.5253 57.1101V57.1101Z" fill="white"/>
<path d="M60.1862 58.3504C63.8623 58.3504 66.7582 55.3063 66.7582 51.6982C66.7582 48.0902 63.7508 45.0457 60.1862 45.0457C56.5102 45.0457 53.6143 48.0898 53.6143 51.6978C53.6143 55.3063 56.5662 58.3504 60.1862 58.3504Z" fill="white"/>
<path d="M66.257 60.8309H54.895C56.7886 62.4656 57.9584 64.9462 57.9584 67.6525L58.237 74.4742H72.0496V66.6376C72.0496 63.3678 69.543 60.8309 66.257 60.8309H66.257Z" fill="white"/>
<path d="M67.705 28.1894C66.3126 22.8334 60.9656 19.6764 55.6746 21.0858C50.4391 22.4952 47.2646 27.9637 48.657 33.263C49.3252 35.7998 50.8846 37.8294 52.8898 39.1259L50.3276 43.1288L60.7428 40.3663C65.9783 38.9569 69.0976 33.4888 67.7052 28.1891L67.705 28.1894ZM59.3506 35.2364C55.2848 33.2068 54.2265 29.5425 54.0595 28.2457C53.8925 26.8925 56.1761 25.765 56.1761 25.765L57.6241 28.2457C57.6241 28.2457 56.0646 29.0911 56.2873 29.5422C57.4011 31.9662 58.905 32.8683 58.905 32.8683C59.4062 33.0374 60.4645 31.8537 60.4645 31.8537L62.5251 33.8271C62.4696 33.7142 60.7431 35.9129 59.3507 35.2365L59.3506 35.2364Z" fill="white"/>
</svg>
