<svg xmlns="http://www.w3.org/2000/svg" width="46.525" height="44.253" viewBox="0 0 46.525 44.253">
  <g id="_4096584_favorite_star_icon" data-name="4096584_favorite_star_icon" transform="translate(-6.6 -10.2)">
    <g id="Group_216" data-name="Group 216" transform="translate(6.6 10.2)">
      <path id="Path_25392" data-name="Path 25392" d="M32.073,10.2l6.084,12.372,13.629,1.988c.608,1.906.73,2.231,1.339,4.137L43.268,38.31,29.883,48.045,17.674,54.453c-1.622-1.176-1.906-1.379-3.529-2.555L16.5,38.31,6.6,28.7c.608-1.906.73-2.231,1.339-4.137l13.629-1.988L27.652,10.2Z" transform="translate(-6.6 -10.2)" fill="#ffd952"/>
    </g>
    <g id="Group_217" data-name="Group 217" transform="translate(29.883 38.512)">
      <path id="Path_25393" data-name="Path 25393" d="M77.386,80H64v9.735l12.169,6.084,3.651-2.434Z" transform="translate(-64 -80)" fill="#ff9d00"/>
    </g>
    <g id="Group_218" data-name="Group 218" transform="translate(25.827 34.456)">
      <rect id="Rectangle_4841" data-name="Rectangle 4841" width="4.056" height="4.056" transform="translate(0 0)" fill="#fff"/>
    </g>
  </g>
</svg>
