<svg xmlns="http://www.w3.org/2000/svg" width="407.33" height="308.59" viewBox="0 0 407.33 308.59">
  <g id="Asset_5" data-name="Asset 5" transform="translate(0)">
    <g id="Layer_2" data-name="Layer 2">
      <g id="DESIGNED_BY_FREEPIK" data-name="DESIGNED BY FREEPIK">
        <path id="Path_24459" data-name="Path 24459" d="M390.37,188.14a187.32,187.32,0,0,1-43.62,120.45h-289A187.33,187.33,0,0,1,14.1,188.14C14.1,84.24,98.34,0,202.24,0S390.37,84.24,390.37,188.14Z" fill="#323b4a"/>
        <rect id="Rectangle_4693" data-name="Rectangle 4693" width="76.71" height="19.17" rx="7.93" transform="translate(43.57 139.36)" fill="#d3ede8"/>
        <rect id="Rectangle_4694" data-name="Rectangle 4694" width="29.22" height="19.17" rx="7.93" transform="translate(72.38 125.89)" fill="#d3ede8"/>
        <rect id="Rectangle_4695" data-name="Rectangle 4695" width="76.71" height="19.17" rx="7.93" transform="translate(365.11 208.45) rotate(180)" fill="#d3ede8"/>
        <rect id="Rectangle_4696" data-name="Rectangle 4696" width="29.22" height="19.17" rx="7.93" transform="translate(336.31 194.98) rotate(180)" fill="#d3ede8"/>
        <rect id="Rectangle_4697" data-name="Rectangle 4697" width="275.39" height="15.94" rx="6.59" transform="translate(64.54 292.47)" fill="#f1f1f1"/>
        <path id="Path_24460" data-name="Path 24460" d="M98.71,163H305.77V280a16.48,16.48,0,0,1-16.47,16.5H115.18A16.48,16.48,0,0,1,98.71,280Z" fill="#f49600"/>
        <path id="Path_24461" data-name="Path 24461" d="M305.77,163H98.71l92.82-98a14.76,14.76,0,0,1,21.42,0Z" fill="#bf932d"/>
        <rect id="Rectangle_4698" data-name="Rectangle 4698" width="176.45" height="129.31" rx="6.83" transform="translate(105.15 84)" fill="#ededed"/>
        <rect id="Rectangle_4699" data-name="Rectangle 4699" width="81.21" height="26.71" rx="11.05" transform="translate(155.91 98.07) rotate(180)" fill="#fff"/>
        <rect id="Rectangle_4700" data-name="Rectangle 4700" width="40.71" height="26.71" rx="11.05" transform="translate(141.45 79.31) rotate(180)" fill="#fff"/>
        <rect id="Rectangle_4701" data-name="Rectangle 4701" width="176.45" height="129.32" rx="6.83" transform="translate(126.2 87.47)" fill="#020202" opacity="0.1"/>
        <rect id="Rectangle_4702" data-name="Rectangle 4702" width="176.45" height="129.32" rx="6.83" transform="translate(121.67 92.46)" fill="#f7f7f7"/>
        <rect id="Rectangle_4703" data-name="Rectangle 4703" width="176.45" height="129.32" rx="6.83" transform="translate(114.02 110.18)" fill="#020202" opacity="0.1"/>
        <rect id="Rectangle_4704" data-name="Rectangle 4704" width="176.45" height="129.32" rx="6.83" transform="translate(109.79 115.62)" fill="#fff"/>
        <rect id="Rectangle_4705" data-name="Rectangle 4705" width="129.52" height="3.63" rx="1.5" transform="translate(133.25 170.81)" fill="#b5bbc1"/>
        <rect id="Rectangle_4706" data-name="Rectangle 4706" width="129.52" height="3.63" rx="1.5" transform="translate(133.25 182.9)" fill="#b5bbc1"/>
        <rect id="Rectangle_4707" data-name="Rectangle 4707" width="129.52" height="3.63" rx="1.5" transform="translate(133.25 194.98)" fill="#b5bbc1"/>
        <rect id="Rectangle_4708" data-name="Rectangle 4708" width="129.52" height="3.63" rx="1.5" transform="translate(133.25 207.07)" fill="#b5bbc1"/>
        <rect id="Rectangle_4709" data-name="Rectangle 4709" width="129.52" height="3.63" rx="1.5" transform="translate(133.25 219.15)" fill="#b5bbc1"/>
        <path id="Path_24462" data-name="Path 24462" d="M305.78,163V276.6a19.92,19.92,0,0,1-19.92,19.92H118.62A19.92,19.92,0,0,1,98.7,276.59V163l103.54,67Z" fill="#bf932d"/>
        <path id="Path_24463" data-name="Path 24463" d="M277.57,181.23v67.16a19.9,19.9,0,0,1-19.91,19.91H98.7v8.29a19.92,19.92,0,0,0,19.92,19.92H285.86a19.92,19.92,0,0,0,19.92-19.92V163Z" fill="#f3dc53" opacity="0.33"/>
        <rect id="Rectangle_4710" data-name="Rectangle 4710" width="12.69" height="24.99" rx="5.25" transform="translate(110.99 231.4)" fill="#f3dc53"/>
        <rect id="Rectangle_4711" data-name="Rectangle 4711" width="12.69" height="14.35" rx="5.25" transform="translate(110.99 212.49)" fill="#f3dc53"/>
        <text id="_" data-name="@" transform="translate(131.74 156.48)" fill="#b5bbc1" font-size="31.48" font-family="Rubik" font-weight="700"><tspan x="0" y="0">@</tspan></text>
        <rect id="Rectangle_4712" data-name="Rectangle 4712" width="63.25" height="3.63" rx="1.5" transform="translate(166.69 144.98)" fill="#b5bbc1"/>
        <rect id="Rectangle_4713" data-name="Rectangle 4713" width="94.98" height="3.63" rx="1.5" transform="translate(166.69 157.07)" fill="#b5bbc1"/>
        <circle id="Ellipse_256" data-name="Ellipse 256" cx="32.23" cy="32.23" r="32.23" transform="translate(262.81 239.699) rotate(-45)" fill="#020202" opacity="0.15"/>
        <circle id="Ellipse_257" data-name="Ellipse 257" cx="32.23" cy="32.23" r="32.23" transform="translate(258.583 234.464) rotate(-45)" fill="#f3dc53"/>
        <path id="Path_24464" data-name="Path 24464" d="M336.39,234.46A32.22,32.22,0,0,1,277.6,252.7a32.22,32.22,0,0,0,44.79-44.79A32.13,32.13,0,0,1,336.39,234.46Z" fill="#bf932d" opacity="0.31"/>
        <path id="Path_24465" data-name="Path 24465" d="M316.44,223.68a8.43,8.43,0,0,0-10.86-.9,8.27,8.27,0,0,0-1.06.9l-.36.38-.36-.38a8.271,8.271,0,0,0-1.06-.9A8.43,8.43,0,0,0,291,234.54l1.95,2,11.23,11.23,11.23-11.23,1.95-2a8.43,8.43,0,0,0-.9-10.86Z" fill="#fff"/>
        <g id="Group_123" data-name="Group 123">
          <path id="Path_24466" data-name="Path 24466" d="M279.16,236.32h-.05a3,3,0,0,1-3-3.06c.12-8.71,5.63-25.27,25.64-25.54h0a3.025,3.025,0,1,1,0,6.05c-19.08.25-19.66,18.8-19.68,19.58A3,3,0,0,1,279.16,236.32Z" fill="#f3dc53"/>
        </g>
        <g id="Group_124" data-name="Group 124">
          <rect id="Rectangle_4714" data-name="Rectangle 4714" width="73.02" height="24.02" rx="9.94" transform="translate(76.88 249.37) rotate(180)" fill="#d3dcdc"/>
          <rect id="Rectangle_4715" data-name="Rectangle 4715" width="36.61" height="24.02" rx="9.94" transform="translate(54.66 232.5) rotate(180)" fill="#d3dcdc"/>
        </g>
        <rect id="Rectangle_4716" data-name="Rectangle 4716" width="73.02" height="24.02" rx="9.94" transform="translate(73.02 245.94) rotate(180)" fill="#d3ede8"/>
        <rect id="Rectangle_4717" data-name="Rectangle 4717" width="36.61" height="24.02" rx="9.94" transform="translate(50.8 229.07) rotate(180)" fill="#d3ede8"/>
        <path id="Path_24467" data-name="Path 24467" d="M103.16,123.57l-3.31,2.24" fill="none" stroke="#0284c4" stroke-width="1"/>
        <path id="Path_24469" data-name="Path 24469" d="M348.92,62.51c.75-1.1,1.48-2.22,2.2-3.34" fill="none" stroke="#0284c4" stroke-width="1"/>
        <path id="Path_24474" data-name="Path 24474" d="M63.12,137.07a5.6,5.6,0,1,1-5.6-5.6,5.6,5.6,0,0,1,5.6,5.6Z" fill="#fff" opacity="0.5"/>
        <path id="Path_24475" data-name="Path 24475" d="M174.4,61.24a5.6,5.6,0,1,1-5.6-5.6A5.6,5.6,0,0,1,174.4,61.24Z" fill="#fff" opacity="0.5"/>
        <path id="Path_24476" data-name="Path 24476" d="M85.78,263.47a5.6,5.6,0,1,1-5.6-5.6A5.6,5.6,0,0,1,85.78,263.47Z" fill="#fff" opacity="0.5"/>
        <circle id="Ellipse_258" data-name="Ellipse 258" cx="10.91" cy="10.91" r="10.91" transform="translate(27.06 145.12)" fill="#fff" opacity="0.5"/>
        <circle id="Ellipse_259" data-name="Ellipse 259" cx="8.79" cy="8.79" r="8.79" transform="translate(342.189 212.433) rotate(-45)" fill="#fff" opacity="0.5"/>
        <path id="Path_24477" data-name="Path 24477" d="M360.92,234.58a6.1,6.1,0,1,1-1.787-4.323A6.11,6.11,0,0,1,360.92,234.58Z" fill="#fff" opacity="0.5"/>
        <path id="Path_24478" data-name="Path 24478" d="M102.74,175.65l99.3,66.27,94.87-59.83" fill="none" stroke="#fdad13" stroke-linecap="round" stroke-linejoin="round" stroke-width="2" opacity="0.33"/>
        <g id="Group_125" data-name="Group 125">
          <rect id="Rectangle_4718" data-name="Rectangle 4718" width="87.59" height="28.81" rx="11.92" transform="translate(319.74 159.13)" fill="#ceeded"/>
          <rect id="Rectangle_4719" data-name="Rectangle 4719" width="43.92" height="28.81" rx="11.92" transform="translate(335.34 138.89)" fill="#ceeded"/>
        </g>
        <rect id="Rectangle_4720" data-name="Rectangle 4720" width="87.59" height="28.81" rx="11.92" transform="translate(313.23 153.98)" fill="#fff"/>
        <rect id="Rectangle_4721" data-name="Rectangle 4721" width="43.92" height="28.81" rx="11.92" transform="translate(328.83 133.75)" fill="#fff"/>
        <path id="Path_24479" data-name="Path 24479" d="M335.34,153.3s-4.69-12.9,9.21-15" fill="none" stroke="#323b4a" stroke-linecap="round" stroke-width="4"/>
        <path id="Path_24480" data-name="Path 24480" d="M107.53,72.93s-4.69-12.9,9.2-15" fill="none" stroke="#323b4a" stroke-linecap="round" stroke-width="4"/>
        <path id="Path_24481" data-name="Path 24481" d="M22.13,224s-4.7-12.9,9.2-15" fill="none" stroke="#323b4a" stroke-linecap="round" stroke-width="4"/>
      </g>
    </g>
  </g>
</svg>
