<svg xmlns="http://www.w3.org/2000/svg" width="463" height="299.733" viewBox="0 0 463 299.733">
  <g id="Group_137" data-name="Group 137" transform="translate(-399 -262.267)">
    <g id="Layer_2" data-name="Layer 2" transform="translate(399 142.167)">
      <g id="Слой_1" data-name="Слой 1" transform="translate(0 120.1)">
        <path id="Path_24731" data-name="Path 24731" d="M2360.507,1340s1.206,7.035-7.627,15.735c-9,8.858-10.631,16.664-10.631,16.664l-6.248,2.413s3.039-11.669,10.608-18.446A70.98,70.98,0,0,0,2360.507,1340Z" transform="translate(-1922.992 -1124.32)" fill="#bf932d"/>
        <path id="Path_24732" data-name="Path 24732" d="M2429.884,1386.82s-.829,5.194-9.051,9.961c-8.389,4.846-11.356,10.149-11.356,10.149l-5.127,1.805s5.065-8.909,11.961-12.512A60.968,60.968,0,0,0,2429.884,1386.82Z" transform="translate(-1979.258 -1162.862)" fill="#bf932d"/>
        <path id="Path_24733" data-name="Path 24733" d="M2293.394,1382.7s-5.442,1.508-12.542,12.845c-5.788,9.238-5.338,15.293-8.921,20.94l8.536-4.512c1.906-4.229.111-8.089,4.95-16.718A114.028,114.028,0,0,1,2293.394,1382.7Z" transform="translate(-1870.25 -1159.471)" fill="#bf932d"/>
        <path id="Path_24734" data-name="Path 24734" d="M2082.25,1515.22s-3.685,4.3-3.253,17.659c.354,10.9,4.9,13.93,5.092,16.481l3.854-4.088c-1.347-4.7-4.526-5.3-5.318-15.177A115.072,115.072,0,0,1,2082.25,1515.22Z" transform="translate(-1711.398 -1268.561)" fill="#bf932d"/>
        <path id="Path_24735" data-name="Path 24735" d="M2225.53,1405.92s-6.061,7.636-8.7,12.938c-3.759,7.528-2.122,12.839-5.415,20.806l-6.206,3.748a37.2,37.2,0,0,1,4.169-18.969C2217.79,1409.164,2225.53,1405.92,2225.53,1405.92Z" transform="translate(-1815.285 -1178.586)" fill="#bf932d"/>
        <path id="Path_24736" data-name="Path 24736" d="M2151.849,1399a56.1,56.1,0,0,1-5.067,15.516,44.639,44.639,0,0,0-3.441,29.414l-4.33,1.955s-7.136-11.713-.5-23.955C2145.542,1409,2151.849,1399,2151.849,1399Z" transform="translate(-1758.095 -1172.889)" fill="#bf932d"/>
        <path id="Path_24737" data-name="Path 24737" d="M2280.3,1553.83s4.118,0,18.624,7.321c9.3,4.7,7.756,0,15.96,6.04-7.212-1.864-11.405,2.4-20.3-1.468a148.671,148.671,0,0,0-21.975-7.579Z" transform="translate(-1870.81 -1300.345)" fill="#bf932d"/>
        <path id="Path_24738" data-name="Path 24738" d="M2242.893,1611.236s-8.631,5.394-21.768-.354a80.51,80.51,0,0,0-25.505-6.391l6.475-5.35s7.022-2.072,20.108,5.212C2231.194,1609.359,2242.893,1611.236,2242.893,1611.236Z" transform="translate(-1807.432 -1337.421)" fill="#bf932d"/>
        <path id="Path_24739" data-name="Path 24739" d="M2171.743,1667.572s-8.631,5.4-21.768-.354a80.519,80.519,0,0,0-25.505-6.391l6.474-5.348s7.023-2.074,20.11,5.21C2160.046,1665.695,2171.743,1667.572,2171.743,1667.572Z" transform="translate(-1748.861 -1383.797)" fill="#a9b9eb"/>
        <path id="Path_24740" data-name="Path 24740" d="M2430.779,1511.968s-5.684,2.371-13.849-1.57A44.569,44.569,0,0,0,2401.66,1506l3.322-1.678s4.439-1.31,12.712,3.291A46.5,46.5,0,0,0,2430.779,1511.968Z" transform="translate(-1977.044 -1259.452)" fill="#bf932d"/>
        <path id="Path_24741" data-name="Path 24741" d="M2338.683,1530.79a101.755,101.755,0,0,1,16.322,6c5.969,2.7,15.467,1.9,15.467,1.9s-9.437,6.577-18.156,1.956a89.727,89.727,0,0,0-20.926-7.574Z" transform="translate(-1919.198 -1281.378)" fill="#bf932d"/>
        <path id="Path_24742" data-name="Path 24742" d="M2414.77,1484.279s8.575-6.692,18.437-5.127a53.118,53.118,0,0,0,17.629-.311s-8.283,7.109-17.18,4.7a25.818,25.818,0,0,0-15.638,1.1Z" transform="translate(-1987.836 -1238.613)" fill="#bf932d"/>
        <path id="Path_24743" data-name="Path 24743" d="M2106.363,1537.583l-1.183-1.073c6.618-7.3,32.62-29.423,57.837-36.11l.408,1.545C2138.564,1508.542,2112.9,1530.386,2106.363,1537.583Z" transform="translate(-1732.982 -1256.361)" fill="#bf932d"/>
        <path id="Path_24744" data-name="Path 24744" d="M2165.644,1350.515q-6.77-9.141-1.819-23.515Q2170.912,1340.462,2165.644,1350.515Z" transform="translate(-1779.536 -1113.619)" fill="#bf932d"/>
        <path id="Path_24745" data-name="Path 24745" d="M2209.519,1285.179q-4.842-9.171,1.605-21.439Q2215.663,1276.855,2209.519,1285.179Z" transform="translate(-1817.164 -1061.543)" fill="#bf932d"/>
        <path id="Path_24746" data-name="Path 24746" d="M2253.5,1218.072q-3.268-9.295,4.5-19.922Q2260.455,1211.1,2253.5,1218.072Z" transform="translate(-1854.28 -1007.549)" fill="#bf932d"/>
        <path id="Path_24747" data-name="Path 24747" d="M2311.2,1156.67q-.262,11.138-7.249,15.7Q2302.9,1164.076,2311.2,1156.67Z" transform="translate(-1896.514 -973.403)" fill="#bf932d"/>
        <path id="Path_24748" data-name="Path 24748" d="M2362.077,1142q-1.872,9.142-8.287,11.846Q2354.144,1146.889,2362.077,1142Z" transform="translate(-1937.637 -961.327)" fill="#bf932d"/>
        <path id="Path_24749" data-name="Path 24749" d="M2381.21,1173.825q2.816-6.377,11.982-8.1Q2388.167,1173.586,2381.21,1173.825Z" transform="translate(-1960.209 -980.853)" fill="#bf932d"/>
        <path id="Path_24750" data-name="Path 24750" d="M2216.943,1409.9q-9.98,11.669-21.393,10.431Q2201.6,1410.607,2216.943,1409.9Z" transform="translate(-1807.374 -1181.862)" fill="#bf932d"/>
        <path id="Path_24751" data-name="Path 24751" d="M2262.75,1322.214q7.373-5.806,19.372-2.051Q2271.189,1326.326,2262.75,1322.214Z" transform="translate(-1862.693 -1106.776)" fill="#bf932d"/>
        <path id="Path_24752" data-name="Path 24752" d="M2314.424,1274.758q-9.51,5.373-16.854,1.786Q2303.983,1271.487,2314.424,1274.758Z" transform="translate(-1891.357 -1069.556)" fill="#bf932d"/>
        <path id="Path_24753" data-name="Path 24753" d="M2341.77,1235.46q6.418-5.037,16.856-1.784Q2349.106,1239.047,2341.77,1235.46Z" transform="translate(-1927.742 -1035.744)" fill="#bf932d"/>
        <path id="Path_24754" data-name="Path 24754" d="M2167.16,1273.484c4.692-17.525,5.115-16.089,9.687-26.2q1.849-4.1,3.911-7.763a79.446,79.446,0,0,1,10.17-13.838q6.669-7.576,11.465-9.878l.311-.338a.283.283,0,0,1,.32-.177.484.484,0,0,1,.387,0,.913.913,0,0,1,.239.354.5.5,0,0,1,0,.389l-.12.263a1.082,1.082,0,0,1-.354.244v.064l-.29.11q-4.638,2.346-11.123,9.664a77.791,77.791,0,0,0-9.956,13.771,82.838,82.838,0,0,0-3.916,7.6l-.3.679q6.692-7.866,20.467-6.453-10.451,9.064-20.467,6.453c-4.433,9.963-4.724,8.227-9.294,25.314Z" transform="translate(-1784.004 -1021.627)" fill="#bf932d"/>
        <g id="Group_135" data-name="Group 135" transform="translate(72.886 208.585)">
          <path id="Path_24755" data-name="Path 24755" d="M1028.352,1614.112q-10.785,3.63-22.942-5.5Q1020.4,1606.008,1028.352,1614.112Z" transform="translate(-986.112 -1553.503)" fill="#f3dc53"/>
          <path id="Path_24756" data-name="Path 24756" d="M982,1548.092q-10.216,1.786-19.906-8.133Q975.962,1539.683,982,1548.092Z" transform="translate(-950.451 -1497.504)" fill="#f3dc53"/>
          <path id="Path_24757" data-name="Path 24757" d="M934.19,1477.735q-9.85.249-17.57-10.415Q929.705,1468.973,934.19,1477.735Z" transform="translate(-913.02 -1437.715)" fill="#f3dc53"/>
          <path id="Path_24758" data-name="Path 24758" d="M896.26,1395.55q10.523,3.679,12.707,11.724Q900.754,1405.725,896.26,1395.55Z" transform="translate(-896.26 -1378.634)" fill="#f3dc53"/>
          <path id="Path_24759" data-name="Path 24759" d="M899.28,1338.56q8.122,4.6,8.729,11.529Q901.487,1347.612,899.28,1338.56Z" transform="translate(-898.746 -1331.72)" fill="#f3dc53"/>
          <path id="Path_24760" data-name="Path 24760" d="M939.719,1313.765q-5.2-4.643-4.028-13.895Q941.632,1307.073,939.719,1313.765Z" transform="translate(-928.541 -1299.87)" fill="#f3dc53"/>
          <path id="Path_24761" data-name="Path 24761" d="M1121.642,1501q8.025,13.083,3.341,23.566Q1117.595,1515.814,1121.642,1501Z" transform="translate(-1080.615 -1465.44)" fill="#f3dc53"/>
          <path id="Path_24762" data-name="Path 24762" d="M1039.254,1441.5q-3.253-8.8,4.008-19.064Q1045.763,1434.738,1039.254,1441.5Z" transform="translate(-1013.143 -1400.77)" fill="#f3dc53"/>
          <path id="Path_24763" data-name="Path 24763" d="M1008.567,1388.61q2.185,10.707-3.488,16.587Q1002.241,1397.542,1008.567,1388.61Z" transform="translate(-985.116 -1372.921)" fill="#f3dc53"/>
          <path id="Path_24764" data-name="Path 24764" d="M979.584,1350.5q-2.82-7.654,3.488-16.586Q985.256,1344.619,979.584,1350.5Z" transform="translate(-964.135 -1327.892)" fill="#f3dc53"/>
          <path id="Path_24765" data-name="Path 24765" d="M1003.927,1440.092c-15.231-9.855-13.729-9.816-21.946-17.277q-3.335-3.02-6.188-6.109a79.418,79.418,0,0,1-10.039-13.934q-5.157-8.681-5.872-13.95l-.226-.4a.279.279,0,0,1-.065-.354.479.479,0,0,1,.124-.368.883.883,0,0,1,.4-.12.489.489,0,0,1,.37.124l.212.2a1.043,1.043,0,0,1,.126.4l.062.021.014.309q.81,5.127,5.774,13.555a77.791,77.791,0,0,0,10.041,13.711,83.108,83.108,0,0,0,6.036,6.066l.553.5q-5.426-8.789.155-21.458,5.41,12.73-.155,21.458c8.117,7.282,6.365,7.026,21.227,16.632Z" transform="translate(-948.363 -1372.073)" fill="#f3dc53"/>
        </g>
        <g id="Group_136" data-name="Group 136" transform="translate(294.873 212.992)">
          <path id="Path_24766" data-name="Path 24766" d="M1493.4,1324.8s1.4,5.882-5.6,13.714c-7.13,7.979-8.082,14.675-8.082,14.675l-5.152,2.381s1.945-10.035,7.972-16.174A60.374,60.374,0,0,0,1493.4,1324.8Z" transform="translate(-1436.676 -1324.8)" fill="#f3dc53"/>
          <path id="Path_24767" data-name="Path 24767" d="M1551.306,1360.33s-.419,4.438-7.111,8.914c-6.832,4.552-9.052,9.194-9.052,9.194l-4.243,1.805s3.8-7.809,9.441-11.227A51.685,51.685,0,0,0,1551.306,1360.33Z" transform="translate(-1483.046 -1354.048)" fill="#f3dc53"/>
          <path id="Path_24768" data-name="Path 24768" d="M1438.737,1365.29s-4.521,1.572-9.9,11.543c-4.392,8.133-3.683,13.223-6.406,18.193l6.973-4.28c1.383-3.679-.354-6.846,3.28-14.406A95.773,95.773,0,0,1,1438.737,1365.29Z" transform="translate(-1393.754 -1358.131)" fill="#f3dc53"/>
          <path id="Path_24769" data-name="Path 24769" d="M1262.273,1493.43s-2.882,3.836-1.791,15.109c.884,9.194,4.9,11.512,5.2,13.66l3.037-3.667c-1.395-3.9-4.116-4.243-5.322-12.553A97.478,97.478,0,0,1,1262.273,1493.43Z" transform="translate(-1260.235 -1463.616)" fill="#f3dc53"/>
          <path id="Path_24770" data-name="Path 24770" d="M1382.806,1388.9s-4.708,6.786-6.648,11.411c-2.771,6.572-1.1,10.974-3.449,17.889l-5.044,3.508a31.61,31.61,0,0,1,2.5-16.266C1376.437,1392.063,1382.806,1388.9,1382.806,1388.9Z" transform="translate(-1348.509 -1377.567)" fill="#f3dc53"/>
          <path id="Path_24771" data-name="Path 24771" d="M1319.781,1388.1a47.5,47.5,0,0,1-3.441,13.394,37.821,37.821,0,0,0-1.31,25.06l-3.559,1.888s-6.671-9.516-1.724-20.228C1314.988,1396.9,1319.781,1388.1,1319.781,1388.1Z" transform="translate(-1299.49 -1376.909)" fill="#f3dc53"/>
          <path id="Path_24772" data-name="Path 24772" d="M1429.475,1514.184s3.479-.224,16.145,5.18c8.115,3.465,6.558-.424,13.824,4.243-6.2-1.183-9.514,2.652-17.25-.138a125.892,125.892,0,0,0-18.994-5.214Z" transform="translate(-1394.388 -1480.7)" fill="#f3dc53"/>
          <path id="Path_24773" data-name="Path 24773" d="M1401.332,1564.248s-7,5.032-18.426.884a68.282,68.282,0,0,0-21.906-4.015l5.184-4.875s5.824-2.134,17.286,3.313C1391.339,1563.3,1401.332,1564.248,1401.332,1564.248Z" transform="translate(-1343.185 -1514.984)" fill="#f3dc53"/>
          <path id="Path_24774" data-name="Path 24774" d="M1344.179,1615.728s-7,5.032-18.426.884a68.19,68.19,0,0,0-21.913-4.019l5.184-4.874s5.834-2.136,17.286,3.311C1334.19,1614.777,1344.179,1615.728,1344.179,1615.728Z" transform="translate(-1296.131 -1557.359)" fill="#f3dc53"/>
          <path id="Path_24775" data-name="Path 24775" d="M1553.847,1471.264s-4.677,2.313-11.8-.576a37.775,37.775,0,0,0-13.151-2.884l2.719-1.591s3.681-1.351,10.926,2.09A39.744,39.744,0,0,0,1553.847,1471.264Z" transform="translate(-1481.4 -1440.996)" fill="#f3dc53"/>
          <path id="Path_24776" data-name="Path 24776" d="M1477.083,1491.64a86.287,86.287,0,0,1,14.126,4.183c5.194,1.963,13.182.767,13.182.767s-7.622,6.075-15.247,2.643a76.081,76.081,0,0,0-18.1-5.269Z" transform="translate(-1433.77 -1462.143)" fill="#f3dc53"/>
          <path id="Path_24777" data-name="Path 24777" d="M1539.68,1440.906s6.9-6.124,15.313-5.336a44.968,44.968,0,0,0,14.888-1.22s-6.616,6.462-14.27,4.9a21.912,21.912,0,0,0-13.165,1.782Z" transform="translate(-1490.274 -1414.981)" fill="#f3dc53"/>
          <path id="Path_24778" data-name="Path 24778" d="M1289.551,1497.271l-1.061-.842c5.2-6.542,25.99-26.653,46.943-33.679l.431,1.285C1315.2,1470.955,1294.687,1490.814,1289.551,1497.271Z" transform="translate(-1283.495 -1438.36)" fill="#f3dc53"/>
        </g>
        <path id="Path_24779" data-name="Path 24779" d="M144.305,1330.77s-1.945,6.109,4.83,14.943c6.908,9,7.385,16.145,7.385,16.145l5.258,2.926s-1.254-10.762-7.148-17.731A63.851,63.851,0,0,1,144.305,1330.77Z" transform="translate(-118.579 -1116.722)" fill="#bf932d"/>
        <path id="Path_24780" data-name="Path 24780" d="M73.72,1363.17s.092,4.724,6.812,9.987c6.86,5.354,8.84,10.442,8.84,10.442l4.34,2.244s-3.4-8.557-9.091-12.617A54.867,54.867,0,0,1,73.72,1363.17Z" transform="translate(-60.686 -1143.394)" fill="#bf932d"/>
        <path id="Path_24781" data-name="Path 24781" d="M212.52,1378.84s4.653,2.019,9.561,12.988c4,8.939,2.845,14.27,5.332,19.74l-7.03-5.076c-1.169-4,.909-7.21-2.327-15.491A102.287,102.287,0,0,0,212.52,1378.84Z" transform="translate(-174.946 -1156.293)" fill="#bf932d"/>
        <path id="Path_24782" data-name="Path 24782" d="M418.185,1533.54s2.742,4.284.7,16.115c-1.664,9.651-6.1,11.782-6.581,14.029l-2.921-4.116c1.784-4.017,4.687-4.162,6.619-12.841A104.846,104.846,0,0,0,418.185,1533.54Z" transform="translate(-337.001 -1283.642)" fill="#bf932d"/>
        <path id="Path_24783" data-name="Path 24783" d="M274.55,1408.58s4.441,7.548,6.124,12.592c2.408,7.166.3,11.687,2.231,19.183l5.055,4.109a33.426,33.426,0,0,0-1.351-17.4C281.031,1412.429,274.55,1408.58,274.55,1408.58Z" transform="translate(-226.009 -1180.775)" fill="#bf932d"/>
        <path id="Path_24784" data-name="Path 24784" d="M358.39,1414a50.387,50.387,0,0,0,2.583,14.434,40.1,40.1,0,0,1-.6,26.6l3.6,2.284s7.806-9.533,3.423-21.25C362.755,1423.685,358.39,1414,358.39,1414Z" transform="translate(-295.026 -1185.237)" fill="#bf932d"/>
        <path id="Path_24785" data-name="Path 24785" d="M108.911,1540.614s-3.662-.513-17.48,4.2c-8.854,3.022-6.9-.967-14.95,3.388,6.648-.76,9.85,3.552,18.248,1.22a133.52,133.52,0,0,1,20.493-4.008Z" transform="translate(-62.958 -1289.452)" fill="#bf932d"/>
        <path id="Path_24786" data-name="Path 24786" d="M114.94,1594.739s7.008,5.873,19.411,2.4a72.314,72.314,0,0,1,23.486-2.514l-5.1-5.564s-5.99-2.718-18.538,2.134C125.582,1594.525,114.94,1594.739,114.94,1594.739Z" transform="translate(-94.618 -1328.72)" fill="#bf932d"/>
        <path id="Path_24787" data-name="Path 24787" d="M171.23,1653.709s7.008,5.873,19.411,2.4a72.316,72.316,0,0,1,23.486-2.521l-5.1-5.559s-5.99-2.718-18.538,2.134C181.872,1653.495,171.23,1653.709,171.23,1653.709Z" transform="translate(-140.956 -1377.264)" fill="#bf932d"/>
        <path id="Path_24788" data-name="Path 24788" d="M38,1485.742s4.761,2.816,12.516.325a40.058,40.058,0,0,1,14.132-2.008l-2.747-1.906s-3.785-1.719-11.718,1.345A41.814,41.814,0,0,1,38,1485.742Z" transform="translate(-31.282 -1240.945)" fill="#bf932d"/>
        <path id="Path_24789" data-name="Path 24789" d="M76.252,1513.16a91.6,91.6,0,0,0-15.267,3.3c-5.647,1.664-14-.232-14-.232s7.576,7.026,15.912,4a80.639,80.639,0,0,1,19.56-4.137Z" transform="translate(-38.682 -1266.865)" fill="#bf932d"/>
        <path id="Path_24790" data-name="Path 24790" d="M31.411,1445.638s-6.8-7.019-15.765-6.853A47.706,47.706,0,0,1,0,1436.31s6.485,7.355,14.7,6.314a23.192,23.192,0,0,1,13.776,2.926Z" transform="translate(0 -1203.602)" fill="#bf932d"/>
        <path id="Path_24791" data-name="Path 24791" d="M206.384,1518.839l1.186-.808c-4.979-7.318-25.36-30.233-46.964-39.321l-.557,1.323C181.355,1488.995,201.466,1511.615,206.384,1518.839Z" transform="translate(-131.753 -1238.506)" fill="#bf932d"/>
        <path id="Path_24792" data-name="Path 24792" d="M809.192,202.791a9.183,9.183,0,0,1,5.7-1.791c4.782,0,7.314,2.6,7.314,6.259,0,2.109-1.018,4.256-3.094,6.4-2.638,2.778-4.537,4.15-5.732,4.15a1.982,1.982,0,0,1-2.005-2c0-.985.916-1.97,2.5-3.41a1.462,1.462,0,0,1,.281-.246c1.793-1.653,2.355-2.567,2.355-3.693a2.085,2.085,0,0,0-2.32-2.18,7.542,7.542,0,0,0-2.251.423,7.236,7.236,0,0,1-1.9.423,2.194,2.194,0,0,1-2.111-2.251A2.661,2.661,0,0,1,809.192,202.791Zm4.818,23.454a3.493,3.493,0,0,1-3.587-3.586,3.44,3.44,0,0,1,3.587-3.306,3.372,3.372,0,0,1,3.306,3.306A3.418,3.418,0,0,1,814.01,226.245Z" transform="translate(-665.083 -186.697)" fill="#f3dc53"/>
        <path id="Path_24793" data-name="Path 24793" d="M2169.813,733.164a7.229,7.229,0,0,1,4.464-1.414c3.748,0,5.734,2.04,5.734,4.906a7.334,7.334,0,0,1-2.426,5.016c-2.067,2.176-3.555,3.251-4.492,3.251a1.554,1.554,0,0,1-1.572-1.57c0-.773.718-1.543,1.957-2.673a1.173,1.173,0,0,1,.221-.193c1.406-1.3,1.846-2.012,1.846-2.894a1.638,1.638,0,0,0-1.82-1.71,5.947,5.947,0,0,0-1.768.331,5.656,5.656,0,0,1-1.489.331,1.717,1.717,0,0,1-1.653-1.768A2.1,2.1,0,0,1,2169.813,733.164Zm3.776,18.387a2.739,2.739,0,0,1-2.813-2.811,2.7,2.7,0,0,1,2.813-2.592,2.641,2.641,0,0,1,2.59,2.592,2.675,2.675,0,0,1-2.59,2.808Z" transform="translate(-1785.366 -623.61)" fill="#f3dc53"/>
        <path id="Path_24797" data-name="Path 24797" d="M545.38,264.806a10.138,10.138,0,1,1,10.136-10.137A10.138,10.138,0,0,1,545.38,264.806Zm0-17.482a7.346,7.346,0,1,0,7.344,7.346A7.346,7.346,0,0,0,545.38,247.323Z" transform="translate(-440.609 -222.531)" fill="#f3dc53"/>
        <path id="Path_24798" data-name="Path 24798" d="M2426.35,969.965a8.768,8.768,0,1,1,8.766-8.766A8.768,8.768,0,0,1,2426.35,969.965Zm0-15.118a6.352,6.352,0,1,0,6.353,6.352A6.353,6.353,0,0,0,2426.35,954.847Z" transform="translate(-1990.149 -805.273)" fill="#f3dc53"/>
        <path id="Path_24799" data-name="Path 24799" d="M106.049,983.644a6.667,6.667,0,1,1,6.665-6.666A6.667,6.667,0,0,1,106.049,983.644Zm0-11.492a4.83,4.83,0,1,0,4.83,4.821,4.83,4.83,0,0,0-4.83-4.821Z" transform="translate(-81.81 -819.992)" fill="#fff"/>
        <path id="Path_24800" data-name="Path 24800" d="M2353.405,710.527a4.623,4.623,0,1,1,4.621-4.622A4.623,4.623,0,0,1,2353.405,710.527Zm0-7.972a3.35,3.35,0,1,0,3.348,3.359A3.35,3.35,0,0,0,2353.405,702.555Z" transform="translate(-1933.513 -598.527)" fill="#f3dc53"/>
        <circle id="Ellipse_260" data-name="Ellipse 260" cx="7.132" cy="7.132" r="7.132" transform="translate(47.247 76) rotate(-22.5)" fill="#f3dc53"/>
        <path id="Path_24801" data-name="Path 24801" d="M1545.944,127.232a7.132,7.132,0,1,1-7.136-7.132A7.132,7.132,0,0,1,1545.944,127.232Z" transform="translate(-1260.877 -120.1)" fill="#f3dc53"/>
        <path id="Path_24802" data-name="Path 24802" d="M1899.464,560.187a4.6,4.6,0,1,1-4.6-4.6A4.6,4.6,0,0,1,1899.464,560.187Z" transform="translate(-1556.068 -478.595)" fill="#fff"/>
        <path id="Path_24803" data-name="Path 24803" d="M2508.354,1097.217a4.6,4.6,0,1,1-4.6-4.6A4.6,4.6,0,0,1,2508.354,1097.217Z" transform="translate(-2057.306 -920.677)" fill="#f3dc53"/>
        <path id="Path_24804" data-name="Path 24804" d="M2316.445,614.472a7.132,7.132,0,1,1-7.133-7.132,7.132,7.132,0,0,1,7.133,7.132Z" transform="translate(-1895.152 -521.195)" fill="#f3dc53"/>
        <path id="Path_24805" data-name="Path 24805" d="M667.233,183.688a5.787,5.787,0,1,1-5.787-5.788,5.787,5.787,0,0,1,5.787,5.788Z" transform="translate(-539.739 -167.681)" fill="#f3dc53"/>
        <path id="Path_24806" data-name="Path 24806" d="M953.577,895.517a5.788,5.788,0,1,1-5.788-5.787,5.788,5.788,0,0,1,5.788,5.787Z" transform="translate(-775.453 -753.659)" fill="#fff"/>
        <ellipse id="Ellipse_261" data-name="Ellipse 261" cx="194.669" cy="15.988" rx="194.669" ry="15.988" transform="translate(41.318 267.757)" fill="#323b4a"/>
        <path id="Path_24894" data-name="Path 24894" d="M774.762,1149.457a3.059,3.059,0,1,0,3.844-2.4A3.209,3.209,0,0,0,774.762,1149.457Z" transform="translate(-637.667 -965.398)" fill="#f3dc53"/>
        <rect id="Rectangle_4737" data-name="Rectangle 4737" width="5.903" height="2.767" transform="matrix(0.931, 0.364, -0.364, 0.931, 337.028, 32.052)" fill="#f3dc53"/>
        <rect id="Rectangle_4738" data-name="Rectangle 4738" width="5.903" height="2.767" transform="matrix(0.931, 0.364, -0.364, 0.931, 333.852, 40.186)" fill="#f3dc53"/>
      </g>
    </g>
    <g id="Group_134" data-name="Group 134" transform="translate(-35 57)">
      <g id="Layer_2-2" data-name="Layer 2" transform="translate(521 269)">
        <g id="Objects">
          <path id="Path_24547" data-name="Path 24547" d="M130.6,10.28,13.94,32.411v70.876L130.6,81.156Z" transform="translate(21.359 15.751)" fill="#bf932d"/>
          <path id="Path_24548" data-name="Path 24548" d="M60.01,10.28l84.043,28.994v70.9L60.01,81.156Z" transform="translate(91.947 15.751)" fill="#9f8262"/>
          <path id="Path_24549" data-name="Path 24549" d="M13.94,19.02,99.477,55.509V206.858L13.94,170.369Z" transform="translate(21.359 29.142)" fill="#bf932d"/>
          <path id="Path_24550" data-name="Path 24550" d="M13.94,19.02,99.477,55.509,65.09,84.5,13.94,59.383Z" transform="translate(21.359 29.142)" fill="#bf932d"/>
          <path id="Path_24551" data-name="Path 24551" d="M162.884,21.73,47.72,51.357V202.706l115.164-29.93Z" transform="translate(73.116 33.294)" fill="#f3dc53"/>
          <path id="Path_24552" data-name="Path 24552" d="M162.884,21.73,47.72,51.357l30.513,29.6,84.651-25.727Z" transform="translate(73.116 33.294)" fill="#bf932d"/>
          <path id="Path_24553" data-name="Path 24553" d="M35.3,19.02l85.537,36.489L85.841,77.64,0,41.455Z" transform="translate(0 29.142)" fill="#d7be85"/>
          <path id="Path_24554" data-name="Path 24554" d="M162.884,21.73,47.72,51.357,82.715,73.488l115.164-29.6Z" transform="translate(73.116 33.294)" fill="#d7be85"/>
          <path id="Path_24555" data-name="Path 24555" d="M95,1.42l84.043,29.019-34.995,22.41L60.01,23.855Z" transform="translate(91.947 2.176)" fill="#c7a67b"/>
          <path id="Path_24556" data-name="Path 24556" d="M122.072,0,1.54,19.143l31.4,29.019L149.6,26.031Z" transform="translate(2.36)" fill="#d7be85"/>
          <path id="Path_24557" data-name="Path 24557" d="M35.3,19.02l53.53,22.714L53.53,64.169,0,41.455Z" transform="translate(0 29.142)" fill="#c7a67b"/>
          <path id="Path_24558" data-name="Path 24558" d="M92.394,0,20.91,11.37l29.905,27.8,69.1-13.142Z" transform="translate(32.038)" fill="#c7a67b"/>
        </g>
      </g>
      <g id="Group_133" data-name="Group 133" transform="translate(-20 4.146)">
        <g id="c" transform="translate(690.076 273.074)">
          <g id="c-2" data-name="c" transform="translate(32.643 26.042)">
            <path id="Path_24692" data-name="Path 24692" d="M772.044,941.433c-1.311-1.36-2.827-1.948-2.844-4.43,0-.9.069-1.843.124-2.937.078-1.689.412-3.109.766-3.178.8-.161,1.061.279,1.188,1.277.1.772-.343,1.8.205,2.238.486.391,1.179.643,2.86-1.315,2.147-2.5,2.473-3.751,3.367-3.141.587.4-.382,1.731-2.358,4.133,1.484-.831,3.281-4.655,4.374-3.654.794.726-2.7,4.285-3.747,4.995,2.207-.866,3.763-4.1,4.378-3.766,1.251.754-1.415,3.861-3.339,4.756,2.078-.361,2.771-2.3,3.312-1.9,1.007.742-2.039,3.946-4.328,5.037Z" transform="translate(-744.707 -929.796)" fill="#f37a50"/>
            <path id="Path_24693" data-name="Path 24693" d="M785.051,975.28a2.6,2.6,0,0,1-.115,2.273,2.41,2.41,0,0,1-1.616.93,1.771,1.771,0,0,0,1.979-.669A2.1,2.1,0,0,0,785.051,975.28Z" transform="translate(-757.081 -969.655)" fill="#de623c"/>
            <path id="c-3" data-name="c" d="M583.875,982.677c4.489-3.417,10.992-11,10.992-11a9.073,9.073,0,0,1,3.936,3.977c-3.106,11.193-12.737,20.471-17.126,21.146-4,.611-14.135-18.7-9.218-28.059l2.054-.454C580.1,971.033,583.875,982.677,583.875,982.677Z" transform="translate(-571.141 -963.53)" fill="#c4204a"/>
          </g>
          <path id="Path_24694" data-name="Path 24694" d="M837.784,1631.611l4.786,1.213,1.955-4.263a29,29,0,0,1-.709-5.142l-7.727,1.061A58.024,58.024,0,0,0,837.784,1631.611Z" transform="translate(-770.683 -1511.602)" fill="#f37a50"/>
          <path id="Path_24695" data-name="Path 24695" d="M846.995,1678.469s1.656-2.784,3.753-2.959c0,0,3.957.227,5.346,1.892.437.523.27,1.639.1,2.35-.108.446-.486.93-1.656,1.3-1.731.544-4.057.877-8.351-.236-5.151-1.336-5.973-.785-7.876-1.4-1.979-.636-1.339-3.047-.8-5.4C837.507,1674.017,838.945,1676.895,846.995,1678.469Z" transform="translate(-771.447 -1555.944)" fill="#201d40"/>
          <path id="Path_24696" data-name="Path 24696" d="M846.189,1661.384a20.031,20.031,0,0,0,5.305,2.082c1.681.387,6.163,1.256,5.441,4.244-.109.446-.486.93-1.656,1.3-1.731.543-4.059.877-8.352-.236-5.149-1.336-5.972-.785-7.875-1.4-1.979-.636-1.063-3.372-.524-5.722h0c.048.6.324,2.16,3.9,3.563C843.5,1665.636,842.627,1660.921,846.189,1661.384Z" transform="translate(-772.217 -1544.843)" fill="#2c2858"/>
          <path id="Path_24697" data-name="Path 24697" d="M896.89,1671.675a.4.4,0,0,0,.371-.308,2.155,2.155,0,0,1,1.939-1.569.406.406,0,0,0-.042-.811,2.947,2.947,0,0,0-2.686,2.185.407.407,0,0,0,.3.495A.435.435,0,0,0,896.89,1671.675Z" transform="translate(-823.587 -1551.533)" fill="#494c7f"/>
          <path id="Path_24698" data-name="Path 24698" d="M912.158,1677.795a.408.408,0,0,0,.371-.308,2.154,2.154,0,0,1,1.938-1.569.406.406,0,0,0-.042-.811,2.943,2.943,0,0,0-2.685,2.185.406.406,0,0,0,.3.495A.434.434,0,0,0,912.158,1677.795Z" transform="translate(-836.966 -1556.896)" fill="#494c7f"/>
          <path id="Path_24699" data-name="Path 24699" d="M690.157,1648.347l4.691,1.547,2.249-4.117a18.64,18.64,0,0,1-.905-5.318l-7.222.663A58.554,58.554,0,0,0,690.157,1648.347Z" transform="translate(-641.756 -1526.535)" fill="#f37a50"/>
          <path id="Path_24700" data-name="Path 24700" d="M532.156,1262.8c10.692,1.953,25.878,8.879,27.375,10.454,3.092,3.255,4.61,14.448,6.069,34.385l-9.358.618c-3.454-15.574-6.7-22.364-7.234-28.69,0,0-8.2.568-20.539-4.195-6.082-2.35-12.421-5.085-10.6-10.581C519.327,1260.416,521.961,1260.933,532.156,1262.8Z" transform="translate(-491.538 -1194.368)" fill="#201d40"/>
          <path id="Path_24701" data-name="Path 24701" d="M393.665,1267.579c8.883.918,20.732,11.083,22.23,12.658,3.092,3.255,3.484,14.368,4.947,34.305l-9.313.858c-1.507-10.328-5.915-22.162-5.9-29.746,0,0-8.336-1.807-21.239-4.709-7.059-1.588-9.177-2.681-10.527-7.3-.459-1.568-1.081-5.2-.377-6.013C376.6,1264.057,385.256,1266.711,393.665,1267.579Z" transform="translate(-365.005 -1198.22)" fill="#2c2858"/>
          <path id="Path_24702" data-name="Path 24702" d="M694.89,1693.11s1.848-2.66,3.957-2.687c0,0,3.932.506,5.194,2.263.4.553.152,1.653-.07,2.35-.138.438-.549.894-1.742,1.178-1.762.422-4.109.589-8.314-.824-5.044-1.693-5.9-1.2-7.759-1.949-1.923-.773-1.12-3.134-.418-5.441C685.739,1688.006,686.968,1690.974,694.89,1693.11Z" transform="translate(-638.24 -1568.196)" fill="#201d40"/>
          <path id="Path_24703" data-name="Path 24703" d="M694.936,1678.251a20.035,20.035,0,0,0,5.144,2.451c1.651.5,6.06,1.686,5.131,4.616-.14.438-.55.893-1.744,1.178-1.762.42-4.109.589-8.314-.824-5.044-1.694-5.9-1.2-7.757-1.949-1.924-.773-.822-3.439-.124-5.744h0c.007.6.172,2.178,3.643,3.834C691.952,1682.3,691.413,1677.539,694.936,1678.251Z" transform="translate(-639.433 -1559.415)" fill="#2c2858"/>
          <path id="Path_24704" data-name="Path 24704" d="M739.123,1691.045a.406.406,0,0,0,.371-.308,2.155,2.155,0,0,1,1.939-1.569.406.406,0,1,0-.042-.811,2.945,2.945,0,0,0-2.686,2.184.41.41,0,0,0,.3.495.434.434,0,0,0,.121.01Z" transform="translate(-685.33 -1568.507)" fill="#494c7f"/>
          <path id="Path_24705" data-name="Path 24705" d="M754.4,1697.155a.411.411,0,0,0,.371-.308,2.152,2.152,0,0,1,1.938-1.569.407.407,0,1,0-.042-.812,2.946,2.946,0,0,0-2.685,2.185.409.409,0,0,0,.422.5Z" transform="translate(-698.716 -1573.861)" fill="#494c7f"/>
          <path id="v-2" d="M461.738,895.84h0l3.544.014.8,8.371-4.138,2.185-4.412-2.16.714-8.4Z" transform="translate(-438.945 -873.997)" fill="#de623c"/>
          <path id="Path_24706" data-name="Path 24706" d="M416.126,740.069c-3.056,1.076-5.595-2.565-5.595-2.565a1.946,1.946,0,0,1-2.1-1.875,2.535,2.535,0,0,1-2.409-2.611c0-1.548,1.463-1.8,1.261-3.57-.161-1.418-1.916-4.59,2.447-5.844a3.621,3.621,0,0,1,2.049-3.809c3.092-1.484,4.328.293,5.836.324,1.682.036,4.782-2.2,6.06,1.391a4.5,4.5,0,0,1,3.71.966,3.949,3.949,0,0,1,.7,4.3,3.757,3.757,0,0,1,2.771,1.848,3.3,3.3,0,0,1-.568,3.68,3.441,3.441,0,0,1-1.318.826c-.719.289-.319,2.3-.889,2.828a15.455,15.455,0,0,1-3.048,2.154Z" transform="translate(-393.797 -719.205)" fill="#2c2858"/>
          <path id="Path_24707" data-name="Path 24707" d="M437.779,770.015c.584,5.842,5.5,10.591,10.088,10.132s7.112-5.951,6.528-11.794-4.777-10.206-9.366-9.747S437.2,764.173,437.779,770.015Z" transform="translate(-421.569 -753.704)" fill="#f37a50"/>
          <path id="Path_24708" data-name="Path 24708" d="M553.087,847.3a.8.8,0,1,0,.5-1.018.8.8,0,0,0-.5,1.018Z" transform="translate(-522.64 -830.534)"/>
          <path id="Path_24709" data-name="Path 24709" d="M503.021,847.691a.866.866,0,1,0,.043-.664A.866.866,0,0,0,503.021,847.691Z" transform="translate(-478.761 -830.798)"/>
          <path id="Path_24710" data-name="Path 24710" d="M531.887,856.11c.805,1.122,1.822,2.489,1.822,2.489a2.107,2.107,0,0,1-1.979,1.38c.67-.329,1.321-.835.982-1.731S531.887,856.11,531.887,856.11Z" transform="translate(-503.961 -839.18)" fill="#de623c"/>
          <path id="Path_24711" data-name="Path 24711" d="M492.564,835.217a.4.4,0,0,1-.237-.581,2.137,2.137,0,0,1,2.35-1.1.4.4,0,0,1-.219.769c-.866-.247-1.423.712-1.43.722A.4.4,0,0,1,492.564,835.217Z" transform="translate(-469.384 -819.337)" fill="#2c2858"/>
          <path id="Path_24712" data-name="Path 24712" d="M551.223,834.838a.339.339,0,0,1-.15-.091.334.334,0,0,1,.012-.471,1.647,1.647,0,0,1,1.191-.42,1.706,1.706,0,0,1,1.213.809.333.333,0,1,1-.544.385,1.085,1.085,0,0,0-.735-.529.964.964,0,0,0-.665.24A.337.337,0,0,1,551.223,834.838Z" transform="translate(-520.832 -819.672)" fill="#2c2858"/>
          <path id="Path_24713" data-name="Path 24713" d="M439.715,748.482l-10.264-5.812-9.711,7.955,3.067,7.589c-.514-3.7,1.972-3.014,2.894-4.328.934-1.334,1.075-3.13,4.149-2.24,0,0,1.9-2.022,3.513-.106,1.249,1.484,2.382.9,3.6.726,1.436-.2,1.4,1.237,2.252,1.009Z" transform="translate(-405.82 -739.768)" fill="#2c2858"/>
          <path id="Path_24714" data-name="Path 24714" d="M421.964,840.666a2.088,2.088,0,1,1-3.215-.345A2.3,2.3,0,0,1,421.964,840.666Z" transform="translate(-404.488 -824.9)" fill="#f37a50"/>
          <path id="Path_24715" data-name="Path 24715" d="M431.06,851.583a.3.3,0,0,0,.117-.074,1.364,1.364,0,0,0,.323-1.645,1.452,1.452,0,0,0-1.507-.751.3.3,0,1,0,.113.592.866.866,0,0,1,.866.443.774.774,0,0,1-.223.937.3.3,0,0,0,.314.495Z" transform="translate(-414.579 -833.033)" fill="#de623c"/>
          <path id="Path_24716" data-name="Path 24716" d="M509.084,897.474a.266.266,0,0,0-.224-.434,18.865,18.865,0,0,1-5-.247.265.265,0,0,0-.263.411,3.315,3.315,0,0,0,5.483.271Z" transform="translate(-479.269 -874.828)" fill="#fff"/>
          <g id="v" transform="translate(8.475 29.516)">
            <path id="Path_24717" data-name="Path 24717" d="M375.71,997.957s7.42.766,14.368.811a97.147,97.147,0,0,0,14.368-1.4s-.935-12.765-.84-17.667c.136-5.629-.361-13.092-.361-20.528,0,0-4.929-.794-7.71-1.136-.453-.056-.847-.1-1.156-.124,0,0-1.584,3.324-8.489,0a8.638,8.638,0,0,0-1.313,0A58.718,58.718,0,0,0,377,959.181c0,7.42-.3,14.69-.2,20.319C376.5,984.51,375.71,997.957,375.71,997.957Z" transform="translate(-375.71 -957.888)" fill="#e62552"/>
          </g>
          <g id="c-4" data-name="c" transform="translate(0 30.794)">
            <path id="Path_24718" data-name="Path 24718" d="M524.125,1062.684c-.559-1.712-1.619-2.834-.612-4.968.371-.775.82-1.551,1.315-2.473.762-1.415,1.634-2.492,1.965-2.406.752.193.794.678.495,1.585-.234.7-1.035,1.4-.748,2,.255.535.742,1.037,2.993.054,2.87-1.254,3.665-2.193,4.18-1.3.338.585-1.041,1.324-3.725,2.567,1.608-.1,4.73-2.634,5.254-1.326.381.949-4.081,2.557-5.271,2.733,2.247.169,4.913-1.956,5.3-1.421.761,1.164-2.8,2.721-4.823,2.7,1.928.548,3.322-.826,3.62-.261.555,1.055-3.375,2.54-5.787,2.528Z" transform="translate(-496.394 -1042.368)" fill="#f37a50"/>
            <path id="c-5" data-name="c" d="M318.367,986.855c5.624-.393,15.219-3.171,15.219-3.171a9.083,9.083,0,0,1,1.113,5.483c-8.734,7.657-21.88,10.133-25.914,8.285-3.681-1.682-1.082-24.1,8.162-29.233l.32.031C320.436,973.617,318.367,986.855,318.367,986.855Z" transform="translate(-307.176 -968.22)" fill="#c4204a"/>
          </g>
          <path id="Path_24719" data-name="Path 24719" d="M447.41,957.816h0a4.915,4.915,0,0,0,2.118,1.89,10.3,10.3,0,0,0,4.849.989,5.616,5.616,0,0,0,2.836-1.056,3.3,3.3,0,0,0,1.156-1.7c-.453-.056-.916-.124-1.225-.153,0,0-1.515,3.351-8.42.027A8.655,8.655,0,0,0,447.41,957.816Z" transform="translate(-430.068 -928.286)" fill="#c4204a"/>
        </g>
        <g id="Group_128" data-name="Group 128" transform="translate(706.307 316.306)">
          <path id="Path_24720" data-name="Path 24720" d="M602.72,1090.847h32.135l6.343-20.167a1.446,1.446,0,0,0-1.379-1.88h-29.1a1.447,1.447,0,0,0-1.379,1.013Z" transform="translate(-582.403 -1068.8)" fill="#7f95db"/>
          <path id="Path_24721" data-name="Path 24721" d="M622.43,1090.847h32.135l6.343-20.167a1.446,1.446,0,0,0-1.379-1.88h-29.1a1.447,1.447,0,0,0-1.379,1.013Z" transform="translate(-599.676 -1068.8)" fill="#95a6db"/>
          <path id="Path_24722" data-name="Path 24722" d="M774.719,1148.7a2.139,2.139,0,1,0,2.688-1.681A2.245,2.245,0,0,0,774.719,1148.7Z" transform="translate(-733.046 -1137.281)" fill="#b4c2f0"/>
          <path id="Path_24723" data-name="Path 24723" d="M440.49,1230.05h20.694v2.055H438.43a2.055,2.055,0,0,1,2.06-2.055Z" transform="translate(-438.43 -1210.109)" fill="#7f95db"/>
        </g>
      </g>
      <g id="Group_132" data-name="Group 132" transform="translate(410.172 118.632)">
        <g id="Group_129" data-name="Group 129" transform="translate(143.034 109.63)">
          <path id="Path_24639" data-name="Path 24639" d="M1409.891,959.75c2.817.822,13.662,12.454,16.258,21.059-1.407,7.74-13.693,11.758-13.693,11.758l-.2-6s4.034-2.687,5.88-5.761c-2.939-2.118-8.731-9.248-8.731-9.248Z" transform="translate(-1356.803 -932.89)" fill="#201d40"/>
          <path id="Path_24640" data-name="Path 24640" d="M975.561,959.75c-2.817.822-9.8,12-12.666,22.109a117.016,117.016,0,0,0-13.366,10.228l6.957.458s9.129-2.25,13.964-7.5c2.014-4.106,5.6-13.489,5.6-13.489Z" transform="translate(-949.53 -932.89)" fill="#201d40"/>
          <path id="Path_24641" data-name="Path 24641" d="M1254.654,940.94l-9.478.421-.956,9.275,1.034,26.465,10-.125,2.612-29.626Z" transform="translate(-1210.515 -916.231)" fill="#95a6db"/>
          <path id="Path_24642" data-name="Path 24642" d="M1201.393,735.6c1.32-1.518,2.362-.046,4.243-1.924s3.392-3.23,5-1.249,2.441,2.26,3.613,2.147,1.165,4.709,1.165,4.709a4.406,4.406,0,0,0,3.095-3.968c.27-3.786-1.487-3.217-2.434-6.242s-4.617-4.73-6.291-4c-1.769.765-2.7,1.608-5.274.981s-4.8.133-4.792,3.474-3.925,2.345-2.667,6.519c.487,1.618,1.855,3.108,2.49,2.974C1200.391,738.84,1200.542,736.577,1201.393,735.6Z" transform="translate(-1168.526 -724.899)" fill="#2c2858"/>
          <path id="Path_24643" data-name="Path 24643" d="M1350.243,836.31a2.749,2.749,0,0,0,.4,3.367c.859.64,2.059.172,2.691-1.047a2.748,2.748,0,0,0-.4-3.367C1352.073,834.623,1350.874,835.094,1350.243,836.31Z" transform="translate(-1304.076 -822.388)" fill="#f37a50"/>
          <path id="Path_24644" data-name="Path 24644" d="M1360.974,848.005a.19.19,0,0,0,.071-.007.308.308,0,0,0,.189-.35,2.237,2.237,0,0,1,.192-1.686,1.028,1.028,0,0,1,.949-.3.256.256,0,0,0,.284-.236.283.283,0,0,0-.181-.343,1.451,1.451,0,0,0-1.384.457,2.8,2.8,0,0,0-.329,2.223A.248.248,0,0,0,1360.974,848.005Z" transform="translate(-1313.667 -831.317)" fill="#de623c"/>
          <path id="Path_24645" data-name="Path 24645" d="M1262.714,911.994l3.3,2.609,3.348-2.609.443-6.374h-7.531Z" transform="translate(-1226.501 -884.951)" fill="#de623c"/>
          <path id="Path_24646" data-name="Path 24646" d="M1176.21,951.142l.172,34.009c3.228,2.649,9.552,3.373,9.552,3.373l-1.144-38.493Z" transform="translate(-1150.284 -924.281)" fill="#2c2858"/>
          <path id="Path_24647" data-name="Path 24647" d="M1343.167,951.115l-.173,34.009c-3.226,2.649-9.264,3.445-9.264,3.445l.862-38.569Z" transform="translate(-1289.788 -924.255)" fill="#2c2858"/>
          <path id="Path_24648" data-name="Path 24648" d="M1210.67,952.266l5.448,23.506-.827-29.372Z" transform="translate(-1180.803 -921.066)" fill="#494c7f"/>
          <path id="Path_24649" data-name="Path 24649" d="M1341.036,953.854l-5.586,25.4.666-29.226Z" transform="translate(-1291.311 -924.281)" fill="#494c7f"/>
          <path id="Path_24650" data-name="Path 24650" d="M1235.781,762.577c-9.722-.229-7.5,12.865-6.792,14.921.386,1.122,2.852,5.425,6.818,5.49,3.965-.061,6.379-4.363,6.765-5.49C1243.283,775.442,1245.838,762.73,1235.781,762.577Z" transform="translate(-1196.383 -758.265)" fill="#f37a50"/>
          <path id="Path_24651" data-name="Path 24651" d="M1251.787,836.659a.448.448,0,0,0-.071-.822,3.893,3.893,0,0,0-3.286.541.45.45,0,0,0,.524.73,2.987,2.987,0,0,1,2.481-.417A.446.446,0,0,0,1251.787,836.659Z" transform="translate(-1214.091 -823.015)" fill="#2c2858"/>
          <path id="Path_24652" data-name="Path 24652" d="M1314.918,836.659a.448.448,0,0,1,.072-.822,3.89,3.89,0,0,1,3.285.541.45.45,0,0,1-.524.73,2.987,2.987,0,0,0-2.481-.417A.448.448,0,0,1,1314.918,836.659Z" transform="translate(-1272.917 -823.015)" fill="#2c2858"/>
          <path id="Path_24653" data-name="Path 24653" d="M1320.265,850.643a.793.793,0,1,1-.792-.793A.793.793,0,0,1,1320.265,850.643Z" transform="translate(-1276.459 -835.559)"/>
          <path id="Path_24654" data-name="Path 24654" d="M1262.318,849.633a.794.794,0,1,1-.793-.793A.794.794,0,0,1,1262.318,849.633Z" transform="translate(-1225.137 -834.665)"/>
          <path id="Path_24655" data-name="Path 24655" d="M1292.2,861.1c.488,1.092,1.113,2.429,1.113,2.429a1.825,1.825,0,0,1-1.916.828c.627-.162,1.267-.479,1.136-1.3S1292.2,861.1,1292.2,861.1Z" transform="translate(-1252.299 -845.522)" fill="#de623c"/>
          <path id="Path_24656" data-name="Path 24656" d="M1276.814,1005.47l1.662,22.324-2.492,2.943-2.493-2.943,1.7-22.266Z" transform="translate(-1236.438 -973.38)" fill="#201d40"/>
          <path id="Path_24657" data-name="Path 24657" d="M1284.553,981.126l-1.658-.436-1.7.51.817,2.424,1.63-.029Z" transform="translate(-1243.266 -951.435)" fill="#201d40"/>
          <path id="Path_24658" data-name="Path 24658" d="M1246.385,948.732a8.269,8.269,0,0,1-3.047,2.516l-3.268-4.96,1.431-1.688Z" transform="translate(-1206.84 -919.472)" fill="#fff"/>
          <path id="Path_24659" data-name="Path 24659" d="M1295.28,945.544a9.6,9.6,0,0,0,3.134,2.41l2.96-5.353-1.394-1.6Z" transform="translate(-1255.735 -916.284)" fill="#fff"/>
          <path id="Path_24660" data-name="Path 24660" d="M1226.531,765.405c1.1.365,1.454-5.65,5.719-2.8,3.006,2,8.606,1.687,7.486-1.029a24.933,24.933,0,0,1,2.205,1.989l-1.975-6.539s-8.15-2.561-11.044.033S1226.531,765.405,1226.531,765.405Z" transform="translate(-1194.82 -752.349)" fill="#2c2858"/>
          <path id="Path_24661" data-name="Path 24661" d="M1208.005,837.185a2.276,2.276,0,1,1-3.182-1.271A2.428,2.428,0,0,1,1208.005,837.185Z" transform="translate(-1174.6 -823.025)" fill="#f37a50"/>
          <path id="Path_24662" data-name="Path 24662" d="M1213.109,848.485a.317.317,0,0,1-.086-.013.294.294,0,0,1-.194-.366,1.865,1.865,0,0,0-.061-1.7,1.442,1.442,0,0,0-1.131-.374.293.293,0,0,1-.065-.581,2.019,2.019,0,0,1,1.644.579,2.343,2.343,0,0,1,.173,2.243A.293.293,0,0,1,1213.109,848.485Z" transform="translate(-1181.385 -831.661)" fill="#de623c"/>
          <path id="Path_24663" data-name="Path 24663" d="M1276.45,899.041a5.05,5.05,0,0,1-2.663-.838.363.363,0,0,1,.477-.544c.1.067,2.524,1.553,4.117-.194a.362.362,0,1,1,.535.487,3.2,3.2,0,0,1-2.353,1.088Z" transform="translate(-1236.606 -877.622)" fill="#de623c"/>
          <path id="Path_24664" data-name="Path 24664" d="M1169.546,1258.587l-6.747-6.217h-22.287l-8.083,6.177,9.128,6.612h20.213Z" transform="translate(-1111.511 -1192.042)" fill="#201d40"/>
        </g>
        <g id="c-6" data-name="c" transform="translate(161.381 173.588)">
          <path id="Path_24665" data-name="Path 24665" d="M1118.332,1621.61c-2.059,4.474-9.551,3.725-8.235,8.692s15-2.956,15-2.956a39.511,39.511,0,0,0-1.5-5.147Z" transform="translate(-1109.943 -1583.009)"/>
          <path id="Path_24666" data-name="Path 24666" d="M1354.162,1619.64c2.155,4.669,9.968,3.889,8.589,9.074s-15.652-3.088-15.652-3.088a41.587,41.587,0,0,1,1.565-5.364Z" transform="translate(-1319.976 -1581.264)"/>
          <path id="c-7" data-name="c" d="M1128.576,1295.606c-.05-7.146-6.082-15.083-12.108-9.759-6.319,5.584,3.889,37.3,3.889,37.3,3.758,2.245,5.554,2.173,9.439,0C1129.8,1323.148,1128.624,1302.5,1128.576,1295.606Z" transform="translate(-1113.894 -1284.106)" fill="#2c2858"/>
          <path id="c-8" data-name="c" d="M1353.685,1308.047c.05-7.146,6-12.086,10.761-8.912,5.147,3.431-3.28,37.183-3.28,37.183a15.759,15.759,0,0,1-8.666.312S1353.635,1314.942,1353.685,1308.047Z" transform="translate(-1324.758 -1296.547)" fill="#2c2858"/>
        </g>
        <g id="Group_130" data-name="Group 130" transform="translate(141.276 146.887)">
          <path id="Path_24728" data-name="Path 24728" d="M1166.674,1071.977h-32.987l-1.232-18.994a2.191,2.191,0,0,1,2.187-2.333h31.078a2.191,2.191,0,0,1,2.187,2.333Z" transform="translate(-1109.77 -1050.65)" fill="#b4c2f0"/>
          <path id="Path_24729" data-name="Path 24729" d="M1166.674,1081.156h-32.987l-1.232-18.993a2.191,2.191,0,0,1,2.187-2.333h31.078a2.191,2.191,0,0,1,2.187,2.333Z" transform="translate(-1109.77 -1058.78)" fill="#95a6db"/>
          <path id="Path_24730" data-name="Path 24730" d="M1269.552,1145.846a1.966,1.966,0,1,1-1.966-1.966A1.966,1.966,0,0,1,1269.552,1145.846Z" transform="translate(-1227.709 -1133.217)" fill="#b4c2f0"/>
          <path id="c-9" data-name="c" d="M1416.957,1185.306a.906.906,0,0,1,.207-.2l-.042-.027a1.606,1.606,0,0,1-.7-2.093.934.934,0,0,1,.249-.229,1.327,1.327,0,0,1-.137-1.525.991.991,0,0,1,.476-.343,1.33,1.33,0,0,1-.137-1.6,1.555,1.555,0,0,1,2.481,1.8,1.116,1.116,0,0,1-.4.343,1.509,1.509,0,0,1,.483,1.916.934.934,0,0,1-.249.229,1.326,1.326,0,0,1,.137,1.525,1,1,0,0,1-.435.333,1.132,1.132,0,0,1,.158,1.4,1.316,1.316,0,0,1-2.1-1.527Z" transform="translate(-1361.102 -1164.153)" fill="#f37a50"/>
          <path id="c-10" data-name="c" d="M940.6,1233.883a.893.893,0,0,1-.189-.216c-.01.014-.019.027-.031.04a1.6,1.6,0,0,1-2.125.591.966.966,0,0,1-.222-.261,1.325,1.325,0,0,1-1.528.06.98.98,0,0,1-.324-.493,1.322,1.322,0,0,1-1.6.056,1.554,1.554,0,0,1,1.918-2.386,1.1,1.1,0,0,1,.317.414,1.518,1.518,0,0,1,1.944-.387.958.958,0,0,1,.222.262,1.323,1.323,0,0,1,1.528-.061.992.992,0,0,1,.311.458,1.137,1.137,0,0,1,1.407-.087,1.312,1.312,0,0,1-1.628,2.01Z" transform="translate(-934.15 -1210.396)" fill="#f37a50"/>
        </g>
      </g>
    </g>
  </g>
</svg>
