<svg xmlns="http://www.w3.org/2000/svg" xmlns:xlink="http://www.w3.org/1999/xlink" width="37" height="37" viewBox="0 0 37 37">
  <defs>
    <clipPath id="clip-path">
      <path id="Path_25381" data-name="Path 25381" d="M37,148.31a18.5,18.5,0,1,1-18.5-18.5A18.5,18.5,0,0,1,37,148.31Z" transform="translate(0 -129.81)" fill="#f7daa2"/>
    </clipPath>
  </defs>
  <g id="Group_214" data-name="Group 214" transform="translate(-879 -712.243)">
    <path id="Path_25372" data-name="Path 25372" d="M37,148.31a18.5,18.5,0,1,1-18.5-18.5A18.5,18.5,0,0,1,37,148.31Z" transform="translate(879 582.433)" fill="#f7daa2"/>
    <g id="Group_210" data-name="Group 210" transform="translate(879 712.243)" clip-path="url(#clip-path)">
      <path id="Path_25373" data-name="Path 25373" d="M42.153,212.911c-1.164-1.45-10.367-4.631-10.367-4.631s-9.008,3.514-10.364,4.631-1.863,8.139-1.863,8.139H43.752S43.314,214.355,42.153,212.911Z" transform="translate(-13.406 -183.591)" fill="#293033"/>
      <path id="Path_25374" data-name="Path 25374" d="M55.009,204.2s-.352,1.705-2.851,1.705-2.832-1.705-2.832-1.705a3.813,3.813,0,0,0,0-3c-.7-1.62,6.547-1.948,5.7,0S55.009,204.2,55.009,204.2Z" transform="translate(-33.775 -177.82)" fill="#dda778"/>
      <path id="Path_25375" data-name="Path 25375" d="M46.934,155.007a23.27,23.27,0,0,1,1.727-5.937c2.2-4.908-.085-12.308-4.339-10.033-5.267-4.811-13.6,1.916-10.779,9.967a21.809,21.809,0,0,1,1.466,5.663c.129,2.4,4.452,7.218,5.839,7.3S46.755,157.427,46.934,155.007Z" transform="translate(-22.601 -135.028)" fill="#442928"/>
      <path id="Path_25376" data-name="Path 25376" d="M78.245,175.041c0,1.287-.912,3.052-1.526,3.052s-1.114-1.041-1.114-2.328a2.756,2.756,0,0,1,1.114-2.328C77.323,172.971,78.245,173.436,78.245,175.041Z" transform="translate(-51.816 -159.593)" fill="#f9bb8d"/>
      <path id="Path_25377" data-name="Path 25377" d="M33.41,175.041c0,1.287.909,3.052,1.526,3.052s1.111-1.041,1.111-2.328a2.756,2.756,0,0,0-1.111-2.328C34.341,172.971,33.41,173.436,33.41,175.041Z" transform="translate(-22.898 -159.593)" fill="#f9bb8d"/>
      <path id="Path_25378" data-name="Path 25378" d="M45.23,146.5c-4.32,0-6.23,3.027-6.23,7.551v5.663c0,3.933,4.543,7.3,5.978,7.3s6.481-3.933,6.481-7.658v-5.308C51.459,149.527,49.549,146.5,45.23,146.5Z" transform="translate(-26.73 -141.249)" fill="#f9bb8d"/>
      <path id="Path_25379" data-name="Path 25379" d="M50.527,156.376l.39-3.294c0-4.518-2.3-7.881-6.607-7.881s-6.67,3.848-6.67,8.366l.428,3.527a2.41,2.41,0,0,0,.975-1.966c-.1-2.9,1.416-3.326,3.776-3.775,3.744-.708,4.776-2.942,4.776-2.942a3.868,3.868,0,0,1,2,2.234c.507,1.177-.154,2.457-.2,3.2A7.43,7.43,0,0,0,50.527,156.376Z" transform="translate(-25.797 -140.358)" fill="#442928"/>
      <path id="Path_25380" data-name="Path 25380" d="M57.232,204.14a4.913,4.913,0,0,1-1.312,0,3.064,3.064,0,0,1,0,2.6h1.312A3.514,3.514,0,0,1,57.232,204.14Z" transform="translate(-38.326 -180.754)" fill="#442928"/>
    </g>
  </g>
</svg>
