<svg xmlns="http://www.w3.org/2000/svg" width="515.973" height="304.5" viewBox="0 0 515.973 304.5">
  <g id="Layer_2" data-name="Layer 2" transform="translate(0.001)">
    <g id="_1" data-name=" 1" transform="translate(-0.001)">
      <path id="Path_812" data-name="Path 812" d="M203.878,544a4.4,4.4,0,1,1-4.4,4.4A4.4,4.4,0,0,1,203.878,544Z" transform="translate(-165.741 -451.991)" fill="#cacaca"/>
      <path id="Path_813" data-name="Path 813" d="M203.878,267.36a4.4,4.4,0,1,1-4.4,4.4A4.4,4.4,0,0,1,203.878,267.36Z" transform="translate(-165.741 -222.14)" fill="#cacaca"/>
      <path id="Path_814" data-name="Path 814" d="M195.933,5.833h-5.1L196.665,0,202.5,5.833h-5.044V283.348H664.6v1.522H195.933Z" transform="translate(-158.554)" fill="#cacaca"/>
      <path id="Path_815" data-name="Path 815" d="M482.005,1658.238a4.4,4.4,0,1,1-4.4-4.4A4.4,4.4,0,0,1,482.005,1658.238Z" transform="translate(-393.174 -1374.12)" fill="#cacaca"/>
      <path id="Path_816" data-name="Path 816" d="M758.645,1658.238a4.4,4.4,0,1,1-4.4-4.4A4.4,4.4,0,0,1,758.645,1658.238Z" transform="translate(-623.025 -1374.12)" fill="#cacaca"/>
      <path id="Path_817" data-name="Path 817" d="M1035.275,1658.238a4.4,4.4,0,1,1-4.4-4.4A4.4,4.4,0,0,1,1035.275,1658.238Z" transform="translate(-852.868 -1374.12)" fill="#cacaca"/>
      <path id="Path_818" data-name="Path 818" d="M1311.915,1658.238a4.4,4.4,0,1,1-4.4-4.4A4.4,4.4,0,0,1,1311.915,1658.238Z" transform="translate(-1082.719 -1374.12)" fill="#cacaca"/>
      <path id="Path_819" data-name="Path 819" d="M1588.544,1658.238a4.4,4.4,0,1,1-4.4-4.4A4.4,4.4,0,0,1,1588.544,1658.238Z" transform="translate(-1312.561 -1374.12)" fill="#cacaca"/>
      <path id="Path_820" data-name="Path 820" d="M1865.185,1658.238a4.4,4.4,0,1,1-4.4-4.4A4.4,4.4,0,0,1,1865.185,1658.238Z" transform="translate(-1542.411 -1374.12)" fill="#cacaca"/>
      <path id="Path_821" data-name="Path 821" d="M2141.794,1658.238a4.4,4.4,0,1,1-4.4-4.4A4.4,4.4,0,0,1,2141.794,1658.238Z" transform="translate(-1772.237 -1374.12)" fill="#cacaca"/>
      <path id="Path_822" data-name="Path 822" d="M2418.465,1658.238a4.4,4.4,0,1,1-4.4-4.4A4.4,4.4,0,0,1,2418.465,1658.238Z" transform="translate(-2002.113 -1374.12)" fill="#cacaca"/>
      <path id="Path_823" data-name="Path 823" d="M2695.1,1658.238a4.4,4.4,0,1,1-4.4-4.4A4.4,4.4,0,0,1,2695.1,1658.238Z" transform="translate(-2231.957 -1374.12)" fill="#cacaca"/>
      <path id="Path_824" data-name="Path 824" d="M2971.725,1658.238a4.4,4.4,0,1,1-4.4-4.4A4.4,4.4,0,0,1,2971.725,1658.238Z" transform="translate(-2461.799 -1374.12)" fill="#cacaca"/>
      <path id="Path_825" data-name="Path 825" d="M497.252,298.451a.494.494,0,0,1-.986,0v-.988a.494.494,0,0,1,.986,0v.986Zm-.986-280.735a.494.494,0,0,1,.986,0V18.7a.494.494,0,0,1-.986,0Zm0,3.941a.494.494,0,1,1,.986,0v.984a.494.494,0,0,1-.986,0V21.66Zm0,3.939a.494.494,0,0,1,.986,0v.984a.494.494,0,1,1-.986,0V25.6Zm0,3.941a.494.494,0,1,1,.986,0v.984a.494.494,0,0,1-.986,0V29.54Zm0,3.939a.494.494,0,0,1,.986,0v.984a.494.494,0,0,1-.986,0v-.981Zm0,3.941a.494.494,0,0,1,.986,0V38.4a.494.494,0,0,1-.986,0V37.42Zm0,3.939a.494.494,0,0,1,.986,0v.986a.494.494,0,0,1-.986,0Zm0,3.941a.494.494,0,0,1,.986,0v.984a.494.494,0,0,1-.986,0Zm0,3.939a.494.494,0,0,1,.986,0v.986a.494.494,0,0,1-.986,0Zm0,3.941a.494.494,0,0,1,.986,0v.984a.494.494,0,0,1-.986,0Zm0,3.941a.494.494,0,1,1,.986,0V58.1a.494.494,0,0,1-.986,0v-.978Zm0,3.939a.494.494,0,0,1,.986,0v.986a.494.494,0,0,1-.986,0Zm0,3.941a.494.494,0,1,1,.986,0v.984a.494.494,0,0,1-.986,0Zm0,3.939a.494.494,0,0,1,.986,0v.986a.494.494,0,0,1-.986,0Zm0,3.941a.494.494,0,0,1,.986,0v.991a.494.494,0,0,1-.986,0v-.984Zm0,3.939a.494.494,0,0,1,.986,0V77.8a.494.494,0,0,1-.986,0Zm0,3.941a.494.494,0,0,1,.986,0v.984a.494.494,0,1,1-.986,0Zm0,3.941a.494.494,0,1,1,.986,0v.984a.494.494,0,0,1-.986,0Zm0,3.939a.494.494,0,0,1,.986,0v.986a.494.494,0,0,1-.986,0Zm0,3.941a.494.494,0,0,1,.986,0v.984a.494.494,0,0,1-.986,0Zm0,3.939a.494.494,0,0,1,.986,0V97.5a.494.494,0,0,1-.986,0Zm0,3.941a.494.494,0,0,1,.986,0v.984a.494.494,0,0,1-.986,0Zm0,3.939a.494.494,0,0,1,.986,0v.986a.494.494,0,0,1-.986,0Zm0,3.941a.494.494,0,0,1,.986,0v.984a.494.494,0,0,1-.986,0Zm0,3.941a.494.494,0,1,1,.986,0v.984a.494.494,0,0,1-.986,0Zm0,3.939a.494.494,0,0,1,.986,0v.986a.494.494,0,0,1-.986,0Zm0,3.941a.494.494,0,1,1,.986,0v.984a.494.494,0,0,1-.986,0Zm0,3.939a.494.494,0,0,1,.986,0v.986a.494.494,0,0,1-.986,0V124.1Zm0,3.941a.494.494,0,0,1,.986,0v.984a.494.494,0,0,1-.986,0v-.981Zm0,3.939a.494.494,0,0,1,.986,0v.986a.494.494,0,0,1-.986,0Zm0,3.941a.494.494,0,0,1,.986,0v.984a.494.494,0,0,1-.986,0Zm0,3.941a.494.494,0,1,1,.986,0v.986a.494.494,0,0,1-.986,0v-.984Zm0,3.939a.494.494,0,0,1,.986,0v.986a.494.494,0,0,1-.986,0Zm0,3.941a.494.494,0,1,1,.986,0v.984a.494.494,0,0,1-.986,0Zm0,3.939a.494.494,0,0,1,.986,0v.986a.494.494,0,0,1-.986,0Zm0,3.941a.494.494,0,0,1,.986,0v.984a.494.494,0,0,1-.986,0Zm0,3.939a.494.494,0,0,1,.986,0v.986a.494.494,0,0,1-.986,0Zm0,3.941a.494.494,0,0,1,.986,0v.984a.494.494,0,0,1-.986,0v-.974Zm0,3.939a.494.494,0,0,1,.986,0v.986a.494.494,0,0,1-.986,0Zm0,3.941a.494.494,0,1,1,.986,0v.984a.494.494,0,0,1-.986,0Zm0,3.941a.494.494,0,1,1,.986,0v.984a.494.494,0,1,1-.986,0Zm0,3.939a.494.494,0,0,1,.986,0v.995a.494.494,0,1,1-.986,0v-.984Zm0,3.941a.494.494,0,0,1,.986,0v.986a.494.494,0,0,1-.986,0Zm0,3.939a.494.494,0,0,1,.986,0v.986a.494.494,0,0,1-.986,0Zm0,3.939a.494.494,0,0,1,.986,0v.986a.494.494,0,0,1-.986,0Zm0,3.941a.494.494,0,0,1,.986,0V196a.494.494,0,0,1-.986,0Zm0,3.941a.494.494,0,1,1,.986,0v.984a.494.494,0,0,1-.986,0Zm0,3.941a.494.494,0,1,1,.986,0v.984a.494.494,0,1,1-.986,0Zm0,3.939a.494.494,0,0,1,.986,0v.983a.494.494,0,1,1-.986,0v-.984Zm0,3.941a.494.494,0,0,1,.986,0v.984a.494.494,0,0,1-.986,0Zm0,3.939a.494.494,0,0,1,.986,0v.986a.494.494,0,0,1-.986,0Zm0,3.939a.494.494,0,0,1,.986,0v.986a.494.494,0,0,1-.986,0Zm0,3.941a.494.494,0,0,1,.986,0v.986a.494.494,0,0,1-.986,0Zm0,3.941a.494.494,0,1,1,.986,0v.984a.494.494,0,0,1-.986,0Zm0,3.941a.494.494,0,1,1,.986,0v.984a.494.494,0,1,1-.986,0v-.979Zm0,3.939a.494.494,0,0,1,.986,0v.984a.494.494,0,1,1-.986,0Zm0,3.941a.494.494,0,0,1,.986,0v.983a.494.494,0,1,1-.986,0Zm0,3.939a.494.494,0,0,1,.986,0v.986a.494.494,0,0,1-.986,0Zm0,3.939a.494.494,0,0,1,.986,0v.991a.494.494,0,0,1-.986,0v-.986Zm0,3.941a.494.494,0,0,1,.986,0v.986a.494.494,0,0,1-.986,0Zm0,3.939a.494.494,0,0,1,.986,0v.986a.494.494,0,0,1-.986,0Zm0,3.943a.494.494,0,1,1,.986,0v.984a.494.494,0,0,1-.986,0Zm0,3.939a.494.494,0,1,1,.986,0v.984a.494.494,0,1,1-.986,0Zm0,3.941a.494.494,0,0,1,.986,0v.983a.494.494,0,1,1-.986,0Zm0,3.939a.494.494,0,0,1,.986,0v.984a.494.494,0,1,1-.986,0Zm0,3.939a.494.494,0,0,1,.986,0v.986a.494.494,0,0,1-.986,0Zm0,3.941a.494.494,0,0,1,.986,0v.986a.494.494,0,0,1-.986,0Zm0,3.939a.494.494,0,0,1,.986,0v.986a.494.494,0,0,1-.986,0Zm0,3.943a.494.494,0,1,1,.986,0v1a.494.494,0,0,1-.986,0v-.984Zm0,3.939a.494.494,0,1,1,.986,0v.984a.494.494,0,0,1-.986,0Zm0,3.941a.494.494,0,0,1,.986,0v.983a.494.494,0,1,1-.986,0Z" transform="translate(-412.33 -14.333)" fill="#cacaca"/>
      <path id="Path_826" data-name="Path 826" d="M773.894,298.317a.492.492,0,0,1-.984,0v-.988a.492.492,0,0,1,.984,0v.986ZM772.91,17.582a.492.492,0,0,1,.984,0v.984a.492.492,0,0,1-.984,0Zm0,3.941a.492.492,0,0,1,.984,0v.984a.492.492,0,0,1-.984,0v-.981Zm0,3.939a.492.492,0,0,1,.984,0v.984a.492.492,0,0,1-.984,0v-.981Zm0,3.941a.492.492,0,0,1,.984,0v.984a.492.492,0,0,1-.984,0v-.981Zm0,3.939a.492.492,0,0,1,.984,0v.984a.492.492,0,0,1-.984,0v-.981Zm0,3.941a.492.492,0,0,1,.984,0v.984a.492.492,0,0,1-.984,0v-.981Zm0,3.939a.492.492,0,0,1,.984,0v.986a.492.492,0,0,1-.984,0Zm0,3.941a.492.492,0,0,1,.984,0v.984a.492.492,0,0,1-.984,0Zm0,3.939a.492.492,0,0,1,.984,0v.986a.492.492,0,0,1-.984,0Zm0,3.941a.492.492,0,0,1,.984,0v.984a.492.492,0,0,1-.984,0Zm0,3.941a.492.492,0,0,1,.984,0v.984a.492.492,0,0,1-.984,0V56.99Zm0,3.939a.492.492,0,0,1,.984,0v.986a.492.492,0,0,1-.984,0Zm0,3.941a.492.492,0,0,1,.984,0v.984a.492.492,0,0,1-.984,0Zm0,3.939a.492.492,0,0,1,.984,0v.986a.492.492,0,0,1-.984,0Zm0,3.941a.492.492,0,0,1,.984,0v.991a.492.492,0,0,1-.984,0V72.75Zm0,3.939a.492.492,0,0,1,.984,0v.986a.492.492,0,0,1-.984,0Zm0,3.941a.492.492,0,0,1,.984,0v.984a.492.492,0,0,1-.984,0Zm0,3.941a.492.492,0,0,1,.984,0v.984a.492.492,0,0,1-.984,0Zm0,3.939a.492.492,0,0,1,.984,0v.986a.492.492,0,0,1-.984,0Zm0,3.941a.492.492,0,0,1,.984,0v.984a.492.492,0,0,1-.984,0Zm0,3.939a.492.492,0,0,1,.984,0v.986a.492.492,0,0,1-.984,0Zm0,3.941a.492.492,0,0,1,.984,0v.984a.492.492,0,0,1-.984,0Zm0,3.939a.492.492,0,0,1,.984,0v.986a.492.492,0,0,1-.984,0Zm0,3.941a.492.492,0,0,1,.984,0v.984a.492.492,0,0,1-.984,0Zm0,3.941a.492.492,0,0,1,.984,0v.984a.492.492,0,0,1-.984,0Zm0,3.939a.492.492,0,0,1,.984,0v.986a.492.492,0,0,1-.984,0Zm0,3.941a.492.492,0,0,1,.984,0v.984a.492.492,0,0,1-.984,0Zm0,3.939a.492.492,0,0,1,.984,0v.986a.492.492,0,0,1-.984,0v-.983Zm0,3.941a.492.492,0,0,1,.984,0v.984a.492.492,0,0,1-.984,0v-.981Zm0,3.939a.492.492,0,0,1,.984,0v.986a.492.492,0,0,1-.984,0Zm0,3.941a.492.492,0,0,1,.984,0v.984a.492.492,0,0,1-.984,0Zm0,3.941a.492.492,0,0,1,.984,0v.986a.492.492,0,0,1-.984,0v-.984Zm0,3.939a.492.492,0,0,1,.984,0v.986a.492.492,0,0,1-.984,0Zm0,3.941a.492.492,0,0,1,.984,0v.984a.492.492,0,0,1-.984,0Zm0,3.939a.492.492,0,0,1,.984,0v.986a.492.492,0,0,1-.984,0Zm0,3.941a.492.492,0,0,1,.984,0v.984a.492.492,0,0,1-.984,0Zm0,3.939a.492.492,0,0,1,.984,0v.986a.492.492,0,0,1-.984,0Zm0,3.941a.492.492,0,0,1,.984,0v.984a.492.492,0,0,1-.984,0v-.974Zm0,3.939a.492.492,0,0,1,.984,0v.986a.492.492,0,0,1-.984,0Zm0,3.941a.492.492,0,0,1,.984,0v.984a.492.492,0,0,1-.984,0Zm0,3.941a.492.492,0,0,1,.984,0v.984a.492.492,0,0,1-.984,0Zm0,3.939a.492.492,0,0,1,.984,0v.995a.492.492,0,0,1-.984,0v-.984Zm0,3.941a.492.492,0,0,1,.984,0v.986a.492.492,0,0,1-.984,0Zm0,3.939a.492.492,0,0,1,.984,0v.986a.492.492,0,0,1-.984,0Zm0,3.939a.492.492,0,0,1,.984,0v.986a.492.492,0,0,1-.984,0v-.986Zm0,3.941a.492.492,0,0,1,.984,0v.986a.492.492,0,0,1-.984,0Zm0,3.941a.492.492,0,0,1,.984,0v.984a.492.492,0,0,1-.984,0Zm0,3.941a.492.492,0,0,1,.984,0v.984a.492.492,0,0,1-.984,0Zm0,3.939a.492.492,0,0,1,.984,0v.983a.492.492,0,0,1-.984,0V206.7Zm0,3.941a.492.492,0,0,1,.984,0v.984a.492.492,0,0,1-.984,0Zm0,3.939a.492.492,0,0,1,.984,0v.986a.492.492,0,0,1-.984,0Zm0,3.939a.492.492,0,0,1,.984,0v.986a.492.492,0,0,1-.984,0Zm0,3.941a.492.492,0,0,1,.984,0v.986a.492.492,0,0,1-.984,0Zm0,3.941a.492.492,0,0,1,.984,0v.984a.492.492,0,0,1-.984,0Zm0,3.941a.492.492,0,0,1,.984,0v.984a.492.492,0,0,1-.984,0v-.979Zm0,3.939a.492.492,0,0,1,.984,0v.984a.492.492,0,0,1-.984,0Zm0,3.941a.492.492,0,0,1,.984,0v.983a.492.492,0,0,1-.984,0Zm0,3.939a.492.492,0,0,1,.984,0v.986a.492.492,0,0,1-.984,0Zm0,3.939a.492.492,0,0,1,.984,0v.991a.492.492,0,0,1-.984,0v-.986Zm0,3.941a.492.492,0,0,1,.984,0v.986a.492.492,0,0,1-.984,0Zm0,3.939a.492.492,0,0,1,.984,0v.986a.492.492,0,0,1-.984,0Zm0,3.942a.492.492,0,0,1,.984,0v.984a.492.492,0,0,1-.984,0Zm0,3.939a.492.492,0,0,1,.984,0v.984a.492.492,0,0,1-.984,0Zm0,3.941a.492.492,0,0,1,.984,0v.983a.492.492,0,0,1-.984,0Zm0,3.939a.492.492,0,0,1,.984,0v.984a.492.492,0,0,1-.984,0Zm0,3.939a.492.492,0,0,1,.984,0v.986a.492.492,0,0,1-.984,0Zm0,3.941a.492.492,0,0,1,.984,0v.986a.492.492,0,0,1-.984,0Zm0,3.939a.492.492,0,0,1,.984,0v.986a.492.492,0,0,1-.984,0Zm0,3.943a.492.492,0,0,1,.984,0v1a.492.492,0,0,1-.984,0v-.984Zm0,3.939a.492.492,0,0,1,.984,0v.984a.492.492,0,0,1-.984,0Zm0,3.941a.492.492,0,0,1,.984,0v.983a.492.492,0,0,1-.984,0Z" transform="translate(-642.185 -14.2)" fill="#cacaca"/>
      <path id="Path_827" data-name="Path 827" d="M1050.534,298.317a.492.492,0,1,1-.984,0v-.988a.492.492,0,1,1,.984,0v.986Zm-.984-280.735a.492.492,0,0,1,.984,0v.984a.492.492,0,0,1-.984,0Zm0,3.941a.492.492,0,0,1,.984,0v.984a.492.492,0,0,1-.984,0v-.981Zm0,3.939a.492.492,0,0,1,.984,0v.984a.492.492,0,0,1-.984,0v-.981Zm0,3.941a.492.492,0,0,1,.984,0v.984a.492.492,0,1,1-.984,0v-.981Zm0,3.939a.492.492,0,0,1,.984,0v.984a.492.492,0,1,1-.984,0v-.981Zm0,3.941a.492.492,0,1,1,.984,0v.984a.492.492,0,0,1-.984,0v-.981Zm0,3.939a.492.492,0,1,1,.984,0v.986a.492.492,0,1,1-.984,0Zm0,3.941a.492.492,0,0,1,.984,0v.984a.492.492,0,0,1-.984,0Zm0,3.939a.492.492,0,0,1,.984,0v.986a.492.492,0,0,1-.984,0Zm0,3.941a.492.492,0,0,1,.984,0v.984a.492.492,0,0,1-.984,0Zm0,3.941a.492.492,0,0,1,.984,0v.984a.492.492,0,0,1-.984,0V56.99Zm0,3.939a.492.492,0,0,1,.984,0v.986a.492.492,0,0,1-.984,0Zm0,3.941a.492.492,0,0,1,.984,0v.984a.492.492,0,1,1-.984,0Zm0,3.939a.492.492,0,0,1,.984,0v.986a.492.492,0,0,1-.984,0Zm0,3.941a.492.492,0,0,1,.984,0v.991a.492.492,0,0,1-.984,0V72.75Zm0,3.939a.492.492,0,1,1,.984,0v.986a.492.492,0,1,1-.984,0Zm0,3.941a.492.492,0,0,1,.984,0v.984a.492.492,0,0,1-.984,0Zm0,3.941a.492.492,0,0,1,.984,0v.984a.492.492,0,0,1-.984,0Zm0,3.939a.492.492,0,1,1,.984,0v.986a.492.492,0,1,1-.984,0Zm0,3.941a.492.492,0,1,1,.984,0v.984a.492.492,0,0,1-.984,0Zm0,3.939a.492.492,0,0,1,.984,0v.986a.492.492,0,0,1-.984,0Zm0,3.941a.492.492,0,0,1,.984,0v.984a.492.492,0,0,1-.984,0Zm0,3.939a.492.492,0,0,1,.984,0v.986a.492.492,0,1,1-.984,0Zm0,3.941a.492.492,0,1,1,.984,0v.984a.492.492,0,0,1-.984,0Zm0,3.941a.492.492,0,0,1,.984,0v.984a.492.492,0,0,1-.984,0Zm0,3.939a.492.492,0,0,1,.984,0v.986a.492.492,0,0,1-.984,0Zm0,3.941a.492.492,0,0,1,.984,0v.984a.492.492,0,0,1-.984,0Zm0,3.939a.492.492,0,1,1,.984,0v.986a.492.492,0,1,1-.984,0v-.983Zm0,3.941a.492.492,0,0,1,.984,0v.984a.492.492,0,0,1-.984,0v-.981Zm0,3.939a.492.492,0,0,1,.984,0v.986a.492.492,0,0,1-.984,0Zm0,3.941a.492.492,0,1,1,.984,0v.984a.492.492,0,0,1-.984,0Zm0,3.941a.492.492,0,1,1,.984,0v.986a.492.492,0,0,1-.984,0v-.984Zm0,3.939a.492.492,0,1,1,.984,0v.986a.492.492,0,0,1-.984,0Zm0,3.941a.492.492,0,1,1,.984,0v.984a.492.492,0,1,1-.984,0Zm0,3.939a.492.492,0,0,1,.984,0v.986a.492.492,0,0,1-.984,0Zm0,3.941a.492.492,0,1,1,.984,0v.984a.492.492,0,1,1-.984,0Zm0,3.939a.492.492,0,1,1,.984,0v.986a.492.492,0,0,1-.984,0Zm0,3.941a.492.492,0,1,1,.984,0v.984a.492.492,0,0,1-.984,0v-.974Zm0,3.939a.492.492,0,0,1,.984,0v.986a.492.492,0,0,1-.984,0Zm0,3.941a.492.492,0,0,1,.984,0v.984a.492.492,0,1,1-.984,0Zm0,3.941a.492.492,0,1,1,.984,0v.984a.492.492,0,1,1-.984,0Zm0,3.939a.492.492,0,1,1,.984,0v.995a.492.492,0,0,1-.984,0v-.984Zm0,3.941a.492.492,0,0,1,.984,0v.986a.492.492,0,1,1-.984,0Zm0,3.939a.492.492,0,1,1,.984,0v.986a.492.492,0,1,1-.984,0Zm0,3.939a.492.492,0,1,1,.984,0v.986a.492.492,0,1,1-.984,0v-.986Zm0,3.941a.492.492,0,1,1,.984,0v.986a.492.492,0,1,1-.984,0Zm0,3.941a.492.492,0,1,1,.984,0v.984a.492.492,0,1,1-.984,0Zm0,3.941a.492.492,0,0,1,.984,0v.984a.492.492,0,1,1-.984,0Zm0,3.939a.492.492,0,1,1,.984,0v.983a.492.492,0,1,1-.984,0V206.7Zm0,3.941a.492.492,0,0,1,.984,0v.984a.492.492,0,0,1-.984,0Zm0,3.939a.492.492,0,1,1,.984,0v.986a.492.492,0,0,1-.984,0Zm0,3.939a.492.492,0,0,1,.984,0v.986a.492.492,0,1,1-.984,0Zm0,3.941a.492.492,0,0,1,.984,0v.986a.492.492,0,1,1-.984,0Zm0,3.941a.492.492,0,1,1,.984,0v.984a.492.492,0,0,1-.984,0Zm0,3.941a.492.492,0,1,1,.984,0v.984a.492.492,0,1,1-.984,0v-.979Zm0,3.939a.492.492,0,1,1,.984,0v.984a.492.492,0,0,1-.984,0Zm0,3.941a.492.492,0,1,1,.984,0v.983a.492.492,0,1,1-.984,0Zm0,3.939a.492.492,0,1,1,.984,0v.986a.492.492,0,1,1-.984,0Zm0,3.939a.492.492,0,1,1,.984,0v.991a.492.492,0,1,1-.984,0v-.986Zm0,3.941a.492.492,0,1,1,.984,0v.986a.492.492,0,0,1-.984,0Zm0,3.939a.492.492,0,1,1,.984,0v.986a.492.492,0,1,1-.984,0Zm0,3.942a.492.492,0,1,1,.984,0v.984a.492.492,0,1,1-.984,0Zm0,3.939a.492.492,0,1,1,.984,0v.984a.492.492,0,0,1-.984,0Zm0,3.941a.492.492,0,1,1,.984,0v.983a.492.492,0,1,1-.984,0Zm0,3.939a.492.492,0,1,1,.984,0v.984a.492.492,0,1,1-.984,0Zm0,3.939a.492.492,0,1,1,.984,0v.986a.492.492,0,1,1-.984,0Zm0,3.941a.492.492,0,1,1,.984,0v.986a.492.492,0,0,1-.984,0Zm0,3.939a.492.492,0,1,1,.984,0v.986a.492.492,0,1,1-.984,0Zm0,3.943a.492.492,0,1,1,.984,0v1a.492.492,0,0,1-.984,0v-.984Zm0,3.939a.492.492,0,1,1,.984,0v.984a.492.492,0,1,1-.984,0Zm0,3.941a.492.492,0,1,1,.984,0v.983a.492.492,0,1,1-.984,0Z" transform="translate(-872.036 -14.2)" fill="#cacaca"/>
      <path id="Path_828" data-name="Path 828" d="M1327.156,298.451a.494.494,0,0,1-.986,0v-.988a.494.494,0,0,1,.986,0v.986Zm-.984-280.735a.494.494,0,0,1,.986,0V18.7a.494.494,0,0,1-.986,0Zm0,3.941a.494.494,0,1,1,.986,0v.984a.494.494,0,0,1-.986,0V21.66Zm0,3.939a.494.494,0,0,1,.986,0v.984a.494.494,0,1,1-.986,0V25.6Zm0,3.941a.494.494,0,1,1,.986,0v.984a.494.494,0,0,1-.986,0V29.54Zm0,3.939a.494.494,0,0,1,.986,0v.984a.494.494,0,0,1-.986,0V33.48Zm0,3.941a.494.494,0,0,1,.986,0V38.4a.494.494,0,0,1-.986,0V37.42Zm0,3.939a.494.494,0,0,1,.986,0v.986a.494.494,0,0,1-.986,0Zm0,3.941a.494.494,0,0,1,.986,0v.984a.494.494,0,0,1-.986,0Zm0,3.939a.494.494,0,0,1,.986,0v.986a.494.494,0,0,1-.986,0Zm0,3.941a.494.494,0,0,1,.986,0v.984a.494.494,0,0,1-.986,0Zm0,3.941a.494.494,0,1,1,.986,0V58.1a.494.494,0,0,1-.986,0v-.978Zm0,3.939a.494.494,0,0,1,.986,0v.986a.494.494,0,0,1-.986,0Zm0,3.941a.494.494,0,1,1,.986,0v.984a.494.494,0,0,1-.986,0Zm0,3.939a.494.494,0,0,1,.986,0v.986a.494.494,0,0,1-.986,0Zm0,3.941a.494.494,0,0,1,.986,0v.991a.494.494,0,0,1-.986,0v-.984Zm0,3.939a.494.494,0,0,1,.986,0V77.8a.494.494,0,0,1-.986,0Zm0,3.941a.494.494,0,0,1,.986,0v.984a.494.494,0,1,1-.986,0Zm0,3.941a.494.494,0,1,1,.986,0v.984a.494.494,0,0,1-.986,0Zm0,3.939a.494.494,0,0,1,.986,0v.986a.494.494,0,0,1-.986,0Zm0,3.941a.494.494,0,0,1,.986,0v.984a.494.494,0,0,1-.986,0Zm0,3.939a.494.494,0,0,1,.986,0V97.5a.494.494,0,0,1-.986,0Zm0,3.941a.494.494,0,0,1,.986,0v.984a.494.494,0,0,1-.986,0Zm0,3.939a.494.494,0,0,1,.986,0v.986a.494.494,0,0,1-.986,0Zm0,3.941a.494.494,0,0,1,.986,0v.984a.494.494,0,0,1-.986,0Zm0,3.941a.494.494,0,1,1,.986,0v.984a.494.494,0,0,1-.986,0Zm0,3.939a.494.494,0,0,1,.986,0v.986a.494.494,0,0,1-.986,0Zm0,3.941a.494.494,0,1,1,.986,0v.984a.494.494,0,0,1-.986,0Zm0,3.939a.494.494,0,0,1,.986,0v.986a.494.494,0,0,1-.986,0V124.1Zm0,3.941a.494.494,0,0,1,.986,0v.984a.494.494,0,0,1-.986,0v-.981Zm0,3.939a.494.494,0,0,1,.986,0v.986a.494.494,0,0,1-.986,0Zm0,3.941a.494.494,0,0,1,.986,0v.984a.494.494,0,0,1-.986,0Zm0,3.941a.494.494,0,1,1,.986,0v.986a.494.494,0,0,1-.986,0v-.984Zm0,3.939a.494.494,0,0,1,.986,0v.986a.494.494,0,0,1-.986,0Zm0,3.941a.494.494,0,1,1,.986,0v.984a.494.494,0,0,1-.986,0Zm0,3.939a.494.494,0,0,1,.986,0v.986a.494.494,0,0,1-.986,0Zm0,3.941a.494.494,0,0,1,.986,0v.984a.494.494,0,0,1-.986,0Zm0,3.939a.494.494,0,0,1,.986,0v.986a.494.494,0,0,1-.986,0Zm0,3.941a.494.494,0,0,1,.986,0v.984a.494.494,0,0,1-.986,0v-.974Zm0,3.939a.494.494,0,0,1,.986,0v.986a.494.494,0,0,1-.986,0Zm0,3.941a.494.494,0,1,1,.986,0v.984a.494.494,0,0,1-.986,0Zm0,3.941a.494.494,0,1,1,.986,0v.984a.494.494,0,1,1-.986,0Zm0,3.939a.494.494,0,0,1,.986,0v.995a.494.494,0,1,1-.986,0v-.984Zm0,3.941a.494.494,0,0,1,.986,0v.986a.494.494,0,0,1-.986,0Zm0,3.939a.494.494,0,0,1,.986,0v.986a.494.494,0,0,1-.986,0Zm0,3.939a.494.494,0,0,1,.986,0v.986a.494.494,0,0,1-.986,0v-.986Zm0,3.941a.494.494,0,0,1,.986,0v.986a.494.494,0,0,1-.986,0Zm0,3.941a.494.494,0,1,1,.986,0v.984a.494.494,0,0,1-.986,0Zm0,3.941a.494.494,0,1,1,.986,0v.984a.494.494,0,1,1-.986,0Zm0,3.939a.494.494,0,0,1,.986,0v.983a.494.494,0,1,1-.986,0v-.984Zm0,3.941a.494.494,0,0,1,.986,0v.984a.494.494,0,0,1-.986,0Zm0,3.939a.494.494,0,0,1,.986,0v.986a.494.494,0,0,1-.986,0Zm0,3.939a.494.494,0,0,1,.986,0v.986a.494.494,0,0,1-.986,0Zm0,3.941a.494.494,0,0,1,.986,0v.986a.494.494,0,0,1-.986,0Zm0,3.941a.494.494,0,1,1,.986,0v.984a.494.494,0,0,1-.986,0Zm0,3.941a.494.494,0,1,1,.986,0v.984a.494.494,0,1,1-.986,0v-.979Zm0,3.939a.494.494,0,0,1,.986,0v.984a.494.494,0,1,1-.986,0Zm0,3.941a.494.494,0,0,1,.986,0v.983a.494.494,0,1,1-.986,0Zm0,3.939a.494.494,0,0,1,.986,0v.986a.494.494,0,0,1-.986,0Zm0,3.939a.494.494,0,0,1,.986,0v.991a.494.494,0,0,1-.986,0v-.986Zm0,3.941a.494.494,0,0,1,.986,0v.986a.494.494,0,0,1-.986,0Zm0,3.939a.494.494,0,0,1,.986,0v.986a.494.494,0,0,1-.986,0Zm0,3.942a.494.494,0,1,1,.986,0v.984a.494.494,0,0,1-.986,0Zm0,3.939a.494.494,0,1,1,.986,0v.984a.494.494,0,1,1-.986,0Zm0,3.941a.494.494,0,0,1,.986,0v.983a.494.494,0,1,1-.986,0Zm0,3.939a.494.494,0,0,1,.986,0v.984a.494.494,0,1,1-.986,0Zm0,3.939a.494.494,0,0,1,.986,0v.986a.494.494,0,0,1-.986,0Zm0,3.941a.494.494,0,0,1,.986,0v.986a.494.494,0,0,1-.986,0Zm0,3.939a.494.494,0,0,1,.986,0v.986a.494.494,0,0,1-.986,0Zm0,3.943a.494.494,0,1,1,.986,0v1a.494.494,0,0,1-.986,0v-.984Zm0,3.939a.494.494,0,1,1,.986,0v.984a.494.494,0,0,1-.986,0Zm0,3.941a.494.494,0,0,1,.986,0v.983a.494.494,0,1,1-.986,0Z" transform="translate(-1101.87 -14.334)" fill="#cacaca"/>
      <path id="Path_829" data-name="Path 829" d="M1603.8,298.317a.492.492,0,1,1-.984,0v-.988a.492.492,0,1,1,.984,0v.986Zm-.984-280.735a.492.492,0,1,1,.984,0v.984a.492.492,0,1,1-.984,0Zm0,3.941a.492.492,0,1,1,.984,0v.984a.492.492,0,1,1-.984,0v-.981Zm0,3.939a.492.492,0,1,1,.984,0v.984a.492.492,0,1,1-.984,0v-.981Zm0,3.941a.492.492,0,1,1,.984,0v.984a.492.492,0,1,1-.984,0v-.981Zm0,3.939a.492.492,0,1,1,.984,0v.984a.492.492,0,1,1-.984,0v-.981Zm0,3.941a.492.492,0,1,1,.984,0v.984a.492.492,0,1,1-.984,0v-.981Zm0,3.939a.492.492,0,1,1,.984,0v.986a.492.492,0,1,1-.984,0Zm0,3.941a.492.492,0,1,1,.984,0v.984a.492.492,0,1,1-.984,0Zm0,3.939a.492.492,0,1,1,.984,0v.986a.492.492,0,1,1-.984,0Zm0,3.941a.492.492,0,1,1,.984,0v.984a.492.492,0,1,1-.984,0Zm0,3.941a.492.492,0,1,1,.984,0v.984a.492.492,0,1,1-.984,0V56.99Zm0,3.939a.492.492,0,1,1,.984,0v.986a.492.492,0,1,1-.984,0Zm0,3.941a.492.492,0,1,1,.984,0v.984a.492.492,0,1,1-.984,0Zm0,3.939a.492.492,0,1,1,.984,0v.986a.492.492,0,1,1-.984,0Zm0,3.941a.492.492,0,1,1,.984,0v.991a.492.492,0,1,1-.984,0V72.75Zm0,3.939a.492.492,0,1,1,.984,0v.986a.492.492,0,1,1-.984,0Zm0,3.941a.492.492,0,1,1,.984,0v.984a.492.492,0,1,1-.984,0Zm0,3.941a.492.492,0,1,1,.984,0v.984a.492.492,0,1,1-.984,0Zm0,3.939a.492.492,0,1,1,.984,0v.986a.492.492,0,1,1-.984,0Zm0,3.941a.492.492,0,1,1,.984,0v.984a.492.492,0,1,1-.984,0Zm0,3.939a.492.492,0,1,1,.984,0v.986a.492.492,0,1,1-.984,0Zm0,3.941a.492.492,0,1,1,.984,0v.984a.492.492,0,1,1-.984,0Zm0,3.939a.492.492,0,1,1,.984,0v.986a.492.492,0,1,1-.984,0Zm0,3.941a.492.492,0,1,1,.984,0v.984a.492.492,0,1,1-.984,0Zm0,3.941a.492.492,0,1,1,.984,0v.984a.492.492,0,1,1-.984,0Zm0,3.939a.492.492,0,1,1,.984,0v.986a.492.492,0,1,1-.984,0Zm0,3.941a.492.492,0,1,1,.984,0v.984a.492.492,0,1,1-.984,0Zm0,3.939a.492.492,0,1,1,.984,0v.986a.492.492,0,1,1-.984,0v-.983Zm0,3.941a.492.492,0,1,1,.984,0v.984a.492.492,0,1,1-.984,0v-.981Zm0,3.939a.492.492,0,1,1,.984,0v.986a.492.492,0,1,1-.984,0Zm0,3.941a.492.492,0,1,1,.984,0v.984a.492.492,0,1,1-.984,0Zm0,3.941a.492.492,0,1,1,.984,0v.986a.492.492,0,1,1-.984,0v-.984Zm0,3.939a.492.492,0,1,1,.984,0v.986a.492.492,0,1,1-.984,0Zm0,3.941a.492.492,0,1,1,.984,0v.984a.492.492,0,1,1-.984,0Zm0,3.939a.492.492,0,1,1,.984,0v.986a.492.492,0,1,1-.984,0Zm0,3.941a.492.492,0,1,1,.984,0v.984a.492.492,0,1,1-.984,0Zm0,3.939a.492.492,0,1,1,.984,0v.986a.492.492,0,1,1-.984,0Zm0,3.941a.492.492,0,1,1,.984,0v.984a.492.492,0,1,1-.984,0v-.974Zm0,3.939a.492.492,0,1,1,.984,0v.986a.492.492,0,1,1-.984,0Zm0,3.941a.492.492,0,1,1,.984,0v.984a.492.492,0,1,1-.984,0Zm0,3.941a.492.492,0,1,1,.984,0v.984a.492.492,0,1,1-.984,0Zm0,3.939a.492.492,0,1,1,.984,0v.995a.492.492,0,1,1-.984,0v-.984Zm0,3.941a.492.492,0,1,1,.984,0v.986a.492.492,0,1,1-.984,0Zm0,3.939a.492.492,0,1,1,.984,0v.986a.492.492,0,1,1-.984,0Zm0,3.939a.492.492,0,1,1,.984,0v.986a.492.492,0,1,1-.984,0v-.986Zm0,3.941a.492.492,0,1,1,.984,0v.986a.492.492,0,1,1-.984,0Zm0,3.941a.492.492,0,1,1,.984,0v.984a.492.492,0,1,1-.984,0Zm0,3.941a.492.492,0,1,1,.984,0v.984a.492.492,0,1,1-.984,0Zm0,3.939a.492.492,0,1,1,.984,0v.983a.492.492,0,1,1-.984,0V206.7Zm0,3.941a.492.492,0,1,1,.984,0v.984a.492.492,0,1,1-.984,0Zm0,3.939a.492.492,0,1,1,.984,0v.986a.492.492,0,1,1-.984,0Zm0,3.939a.492.492,0,1,1,.984,0v.986a.492.492,0,1,1-.984,0Zm0,3.941a.492.492,0,1,1,.984,0v.986a.492.492,0,1,1-.984,0Zm0,3.941a.492.492,0,1,1,.984,0v.984a.492.492,0,1,1-.984,0Zm0,3.941a.492.492,0,1,1,.984,0v.984a.492.492,0,1,1-.984,0v-.979Zm0,3.939a.492.492,0,1,1,.984,0v.984a.492.492,0,1,1-.984,0Zm0,3.941a.492.492,0,1,1,.984,0v.983a.492.492,0,1,1-.984,0Zm0,3.939a.492.492,0,1,1,.984,0v.986a.492.492,0,1,1-.984,0Zm0,3.939a.492.492,0,1,1,.984,0v.991a.492.492,0,1,1-.984,0v-.986Zm0,3.941a.492.492,0,1,1,.984,0v.986a.492.492,0,1,1-.984,0Zm0,3.939a.492.492,0,1,1,.984,0v.986a.492.492,0,1,1-.984,0Zm0,3.942a.492.492,0,1,1,.984,0v.984a.492.492,0,1,1-.984,0Zm0,3.939a.492.492,0,1,1,.984,0v.984a.492.492,0,1,1-.984,0Zm0,3.941a.492.492,0,1,1,.984,0v.983a.492.492,0,1,1-.984,0Zm0,3.939a.492.492,0,1,1,.984,0v.984a.492.492,0,1,1-.984,0Zm0,3.939a.492.492,0,1,1,.984,0v.986a.492.492,0,1,1-.984,0Zm0,3.941a.492.492,0,1,1,.984,0v.986a.492.492,0,1,1-.984,0Zm0,3.939a.492.492,0,1,1,.984,0v.986a.492.492,0,1,1-.984,0Zm0,3.943a.492.492,0,1,1,.984,0v1a.492.492,0,1,1-.984,0v-.984Zm0,3.939a.492.492,0,1,1,.984,0v.984a.492.492,0,1,1-.984,0Zm0,3.941a.492.492,0,1,1,.984,0v.983a.492.492,0,1,1-.984,0Z" transform="translate(-1331.729 -14.2)" fill="#cacaca"/>
      <path id="Path_830" data-name="Path 830" d="M1880.432,298.452a.494.494,0,0,1-.987,0v-.988a.494.494,0,0,1,.987,0v.986Zm-.987-280.735a.494.494,0,0,1,.986,0V18.7a.494.494,0,0,1-.986,0Zm0,3.941a.494.494,0,1,1,.986,0v.984a.494.494,0,0,1-.986,0v-.981Zm0,3.939a.494.494,0,0,1,.986,0v.984a.494.494,0,1,1-.986,0V25.6Zm0,3.941a.494.494,0,1,1,.986,0v.984a.494.494,0,0,1-.986,0v-.981Zm0,3.939a.494.494,0,0,1,.986,0v.984a.494.494,0,0,1-.986,0V33.48Zm0,3.941a.494.494,0,0,1,.986,0V38.4a.494.494,0,0,1-.986,0v-.981Zm0,3.939a.494.494,0,0,1,.986,0v.986a.494.494,0,0,1-.986,0Zm0,3.941a.494.494,0,0,1,.986,0v.984a.494.494,0,0,1-.986,0Zm0,3.939a.494.494,0,0,1,.986,0v.986a.494.494,0,0,1-.986,0Zm0,3.941a.494.494,0,0,1,.986,0v.984a.494.494,0,0,1-.986,0Zm0,3.941a.494.494,0,1,1,.986,0V58.1a.494.494,0,0,1-.986,0v-.978Zm0,3.939a.494.494,0,0,1,.986,0v.986a.494.494,0,0,1-.986,0Zm0,3.941a.494.494,0,1,1,.986,0v.984a.494.494,0,0,1-.986,0Zm0,3.939a.494.494,0,0,1,.986,0v.986a.494.494,0,0,1-.986,0Zm0,3.941a.494.494,0,0,1,.986,0v.991a.494.494,0,0,1-.986,0v-.984Zm0,3.939a.494.494,0,0,1,.986,0V77.8a.494.494,0,0,1-.986,0Zm0,3.941a.494.494,0,0,1,.986,0v.984a.494.494,0,1,1-.986,0Zm0,3.941a.494.494,0,1,1,.986,0v.984a.494.494,0,0,1-.986,0Zm0,3.939a.494.494,0,0,1,.986,0v.986a.494.494,0,0,1-.986,0Zm0,3.941a.494.494,0,0,1,.986,0v.984a.494.494,0,0,1-.986,0Zm0,3.939a.494.494,0,0,1,.986,0V97.5a.494.494,0,0,1-.986,0Zm0,3.941a.494.494,0,0,1,.986,0v.984a.494.494,0,0,1-.986,0Zm0,3.939a.494.494,0,0,1,.986,0v.986a.494.494,0,0,1-.986,0Zm0,3.941a.494.494,0,0,1,.986,0v.984a.494.494,0,0,1-.986,0Zm0,3.941a.494.494,0,1,1,.986,0v.984a.494.494,0,0,1-.986,0Zm0,3.939a.494.494,0,0,1,.986,0v.986a.494.494,0,0,1-.986,0Zm0,3.941a.494.494,0,1,1,.986,0v.984a.494.494,0,0,1-.986,0Zm0,3.939a.494.494,0,0,1,.986,0v.986a.494.494,0,0,1-.986,0V124.1Zm0,3.941a.494.494,0,0,1,.986,0v.984a.494.494,0,0,1-.986,0v-.981Zm0,3.939a.494.494,0,0,1,.986,0v.986a.494.494,0,0,1-.986,0Zm0,3.941a.494.494,0,0,1,.986,0v.984a.494.494,0,0,1-.986,0Zm0,3.941a.494.494,0,1,1,.986,0v.986a.494.494,0,0,1-.986,0v-.984Zm0,3.939a.494.494,0,0,1,.986,0v.986a.494.494,0,0,1-.986,0Zm0,3.941a.494.494,0,1,1,.986,0v.984a.494.494,0,0,1-.986,0Zm0,3.939a.494.494,0,0,1,.986,0v.986a.494.494,0,0,1-.986,0Zm0,3.941a.494.494,0,0,1,.986,0v.984a.494.494,0,0,1-.986,0Zm0,3.939a.494.494,0,0,1,.986,0v.986a.494.494,0,0,1-.986,0Zm0,3.941a.494.494,0,0,1,.986,0v.984a.494.494,0,0,1-.986,0v-.974Zm0,3.939a.494.494,0,0,1,.986,0v.986a.494.494,0,0,1-.986,0Zm0,3.941a.494.494,0,1,1,.986,0v.984a.494.494,0,0,1-.986,0Zm0,3.941a.494.494,0,1,1,.986,0v.984a.494.494,0,1,1-.986,0Zm0,3.939a.494.494,0,0,1,.986,0v.995a.494.494,0,1,1-.986,0v-.984Zm0,3.941a.494.494,0,0,1,.986,0v.986a.494.494,0,0,1-.986,0Zm0,3.939a.494.494,0,0,1,.986,0v.986a.494.494,0,0,1-.986,0Zm0,3.939a.494.494,0,0,1,.986,0v.986a.494.494,0,0,1-.986,0v-.986Zm0,3.941a.494.494,0,0,1,.986,0v.986a.494.494,0,0,1-.986,0Zm0,3.941a.494.494,0,1,1,.986,0v.984a.494.494,0,0,1-.986,0Zm0,3.941a.494.494,0,1,1,.986,0v.984a.494.494,0,1,1-.986,0Zm0,3.939a.494.494,0,0,1,.986,0v.983a.494.494,0,1,1-.986,0v-.984Zm0,3.941a.494.494,0,0,1,.986,0v.984a.494.494,0,0,1-.986,0Zm0,3.939a.494.494,0,0,1,.986,0v.986a.494.494,0,0,1-.986,0Zm0,3.939a.494.494,0,0,1,.986,0v.986a.494.494,0,0,1-.986,0Zm0,3.941a.494.494,0,0,1,.986,0v.986a.494.494,0,0,1-.986,0Zm0,3.941a.494.494,0,1,1,.986,0v.984a.494.494,0,0,1-.986,0Zm0,3.941a.494.494,0,1,1,.986,0v.984a.494.494,0,1,1-.986,0v-.979Zm0,3.939a.494.494,0,0,1,.986,0v.984a.494.494,0,1,1-.986,0Zm0,3.941a.494.494,0,0,1,.986,0v.983a.494.494,0,1,1-.986,0Zm0,3.939a.494.494,0,0,1,.986,0v.986a.494.494,0,0,1-.986,0Zm0,3.939a.494.494,0,0,1,.986,0v.991a.494.494,0,0,1-.986,0v-.986Zm0,3.941a.494.494,0,0,1,.986,0v.986a.494.494,0,0,1-.986,0Zm0,3.939a.494.494,0,0,1,.986,0v.986a.494.494,0,0,1-.986,0Zm0,3.943a.494.494,0,1,1,.986,0v.984a.494.494,0,0,1-.986,0Zm0,3.939a.494.494,0,1,1,.986,0v.984a.494.494,0,1,1-.986,0Zm0,3.941a.494.494,0,0,1,.986,0v.983a.494.494,0,1,1-.986,0Zm0,3.939a.494.494,0,0,1,.986,0v.984a.494.494,0,1,1-.986,0Zm0,3.939a.494.494,0,0,1,.986,0v.986a.494.494,0,0,1-.986,0Zm0,3.941a.494.494,0,0,1,.986,0v.986a.494.494,0,0,1-.986,0Zm0,3.939a.494.494,0,0,1,.986,0v.986a.494.494,0,0,1-.986,0Zm0,3.943a.494.494,0,1,1,.986,0v1a.494.494,0,0,1-.986,0v-.984Zm0,3.939a.494.494,0,1,1,.986,0v.984a.494.494,0,0,1-.986,0Zm0,3.941a.494.494,0,0,1,.986,0v.983a.494.494,0,1,1-.986,0Z" transform="translate(-1561.568 -14.334)" fill="#cacaca"/>
      <path id="Path_831" data-name="Path 831" d="M2157.062,298.45a.494.494,0,0,1-.986,0v-.988a.494.494,0,0,1,.986,0v.986Zm-.986-280.735a.494.494,0,0,1,.986,0V18.7a.494.494,0,0,1-.986,0Zm0,3.941a.494.494,0,1,1,.986,0v.984a.494.494,0,0,1-.986,0V21.66Zm0,3.939a.494.494,0,0,1,.986,0v.984a.494.494,0,1,1-.986,0V25.6Zm0,3.941a.494.494,0,1,1,.986,0v.984a.494.494,0,0,1-.986,0V29.54Zm0,3.939a.494.494,0,0,1,.986,0v.984a.494.494,0,0,1-.986,0v-.981Zm0,3.941a.494.494,0,0,1,.986,0V38.4a.494.494,0,0,1-.986,0V37.42Zm0,3.939a.494.494,0,0,1,.986,0v.986a.494.494,0,0,1-.986,0Zm0,3.941a.494.494,0,0,1,.986,0v.984a.494.494,0,0,1-.986,0Zm0,3.939a.494.494,0,0,1,.986,0v.986a.494.494,0,0,1-.986,0Zm0,3.941a.494.494,0,0,1,.986,0v.984a.494.494,0,0,1-.986,0Zm0,3.941a.494.494,0,1,1,.986,0V58.1a.494.494,0,0,1-.986,0v-.978Zm0,3.939a.494.494,0,0,1,.986,0v.986a.494.494,0,0,1-.986,0Zm0,3.941a.494.494,0,1,1,.986,0v.984a.494.494,0,0,1-.986,0Zm0,3.939a.494.494,0,0,1,.986,0v.986a.494.494,0,0,1-.986,0Zm0,3.941a.494.494,0,0,1,.986,0v.991a.494.494,0,0,1-.986,0v-.984Zm0,3.939a.494.494,0,0,1,.986,0V77.8a.494.494,0,0,1-.986,0Zm0,3.941a.494.494,0,0,1,.986,0v.984a.494.494,0,1,1-.986,0Zm0,3.941a.494.494,0,1,1,.986,0v.984a.494.494,0,0,1-.986,0Zm0,3.939a.494.494,0,0,1,.986,0v.986a.494.494,0,0,1-.986,0Zm0,3.941a.494.494,0,0,1,.986,0v.984a.494.494,0,0,1-.986,0Zm0,3.939a.494.494,0,0,1,.986,0V97.5a.494.494,0,0,1-.986,0Zm0,3.941a.494.494,0,0,1,.986,0v.984a.494.494,0,0,1-.986,0Zm0,3.939a.494.494,0,0,1,.986,0v.986a.494.494,0,0,1-.986,0Zm0,3.941a.494.494,0,0,1,.986,0v.984a.494.494,0,0,1-.986,0Zm0,3.941a.494.494,0,1,1,.986,0v.984a.494.494,0,0,1-.986,0Zm0,3.939a.494.494,0,0,1,.986,0v.986a.494.494,0,0,1-.986,0Zm0,3.941a.494.494,0,1,1,.986,0v.984a.494.494,0,0,1-.986,0Zm0,3.939a.494.494,0,0,1,.986,0v.986a.494.494,0,0,1-.986,0V124.1Zm0,3.941a.494.494,0,0,1,.986,0v.984a.494.494,0,0,1-.986,0v-.981Zm0,3.939a.494.494,0,0,1,.986,0v.986a.494.494,0,0,1-.986,0Zm0,3.941a.494.494,0,0,1,.986,0v.984a.494.494,0,0,1-.986,0Zm0,3.941a.494.494,0,1,1,.986,0v.986a.494.494,0,0,1-.986,0v-.984Zm0,3.939a.494.494,0,0,1,.986,0v.986a.494.494,0,0,1-.986,0Zm0,3.941a.494.494,0,1,1,.986,0v.984a.494.494,0,0,1-.986,0Zm0,3.939a.494.494,0,0,1,.986,0v.986a.494.494,0,0,1-.986,0Zm0,3.941a.494.494,0,0,1,.986,0v.984a.494.494,0,0,1-.986,0Zm0,3.939a.494.494,0,0,1,.986,0v.986a.494.494,0,0,1-.986,0Zm0,3.941a.494.494,0,0,1,.986,0v.984a.494.494,0,0,1-.986,0v-.974Zm0,3.939a.494.494,0,0,1,.986,0v.986a.494.494,0,0,1-.986,0Zm0,3.941a.494.494,0,1,1,.986,0v.984a.494.494,0,0,1-.986,0Zm0,3.941a.494.494,0,1,1,.986,0v.984a.494.494,0,1,1-.986,0Zm0,3.939a.494.494,0,0,1,.986,0v.995a.494.494,0,1,1-.986,0v-.984Zm0,3.941a.494.494,0,0,1,.986,0v.986a.494.494,0,0,1-.986,0Zm0,3.939a.494.494,0,0,1,.986,0v.986a.494.494,0,0,1-.986,0Zm0,3.939a.494.494,0,0,1,.986,0v.986a.494.494,0,0,1-.986,0v-.986Zm0,3.941a.494.494,0,0,1,.986,0V196a.494.494,0,0,1-.986,0Zm0,3.941a.494.494,0,1,1,.986,0v.984a.494.494,0,0,1-.986,0Zm0,3.941a.494.494,0,1,1,.986,0v.984a.494.494,0,1,1-.986,0Zm0,3.939a.494.494,0,0,1,.986,0v.983a.494.494,0,1,1-.986,0v-.984Zm0,3.941a.494.494,0,0,1,.986,0v.984a.494.494,0,0,1-.986,0Zm0,3.939a.494.494,0,0,1,.986,0v.986a.494.494,0,0,1-.986,0Zm0,3.939a.494.494,0,0,1,.986,0v.986a.494.494,0,0,1-.986,0Zm0,3.941a.494.494,0,0,1,.986,0v.986a.494.494,0,0,1-.986,0Zm0,3.941a.494.494,0,1,1,.986,0v.984a.494.494,0,0,1-.986,0Zm0,3.941a.494.494,0,1,1,.986,0v.984a.494.494,0,1,1-.986,0v-.979Zm0,3.939a.494.494,0,0,1,.986,0v.984a.494.494,0,1,1-.986,0Zm0,3.941a.494.494,0,0,1,.986,0v.983a.494.494,0,1,1-.986,0Zm0,3.939a.494.494,0,0,1,.986,0v.986a.494.494,0,0,1-.986,0Zm0,3.939a.494.494,0,0,1,.986,0v.991a.494.494,0,0,1-.986,0v-.986Zm0,3.941a.494.494,0,0,1,.986,0v.986a.494.494,0,0,1-.986,0Zm0,3.939a.494.494,0,0,1,.986,0v.986a.494.494,0,0,1-.986,0Zm0,3.942a.494.494,0,1,1,.986,0v.984a.494.494,0,0,1-.986,0Zm0,3.939a.494.494,0,1,1,.986,0v.984a.494.494,0,1,1-.986,0Zm0,3.941a.494.494,0,0,1,.986,0v.983a.494.494,0,1,1-.986,0Zm0,3.939a.494.494,0,0,1,.986,0v.984a.494.494,0,1,1-.986,0Zm0,3.939a.494.494,0,0,1,.986,0v.986a.494.494,0,0,1-.986,0Zm0,3.941a.494.494,0,0,1,.986,0v.986a.494.494,0,0,1-.986,0Zm0,3.939a.494.494,0,0,1,.986,0v.986a.494.494,0,0,1-.986,0Zm0,3.942a.494.494,0,1,1,.986,0v1a.494.494,0,0,1-.986,0v-.984Zm0,3.939a.494.494,0,1,1,.986,0v.984a.494.494,0,0,1-.986,0Zm0,3.941a.494.494,0,0,1,.986,0v.983a.494.494,0,1,1-.986,0Z" transform="translate(-1791.41 -14.333)" fill="#cacaca"/>
      <path id="Path_832" data-name="Path 832" d="M2433.7,298.317a.492.492,0,0,1-.985,0v-.988a.492.492,0,0,1,.985,0v.986Zm-.985-280.735a.492.492,0,0,1,.985,0v.984a.492.492,0,0,1-.985,0Zm0,3.941a.492.492,0,0,1,.985,0v.984a.492.492,0,0,1-.985,0v-.981Zm0,3.939a.492.492,0,0,1,.985,0v.984a.492.492,0,0,1-.985,0v-.981Zm0,3.941a.492.492,0,0,1,.985,0v.984a.492.492,0,0,1-.985,0v-.981Zm0,3.939a.492.492,0,0,1,.985,0v.984a.492.492,0,0,1-.985,0v-.981Zm0,3.941a.492.492,0,0,1,.985,0v.984a.492.492,0,0,1-.985,0v-.981Zm0,3.939a.492.492,0,0,1,.985,0v.986a.492.492,0,0,1-.985,0Zm0,3.941a.492.492,0,0,1,.985,0v.984a.492.492,0,0,1-.985,0Zm0,3.939a.492.492,0,0,1,.985,0v.986a.492.492,0,0,1-.985,0Zm0,3.941a.492.492,0,0,1,.985,0v.984a.492.492,0,0,1-.985,0Zm0,3.941a.492.492,0,0,1,.985,0v.984a.492.492,0,0,1-.985,0V56.99Zm0,3.939a.492.492,0,0,1,.985,0v.986a.492.492,0,0,1-.985,0Zm0,3.941a.492.492,0,0,1,.985,0v.984a.492.492,0,0,1-.985,0Zm0,3.939a.492.492,0,0,1,.985,0v.986a.492.492,0,0,1-.985,0Zm0,3.941a.492.492,0,0,1,.985,0v.991a.492.492,0,0,1-.985,0V72.75Zm0,3.939a.492.492,0,0,1,.985,0v.986a.492.492,0,0,1-.985,0Zm0,3.941a.492.492,0,0,1,.985,0v.984a.492.492,0,0,1-.985,0Zm0,3.941a.492.492,0,0,1,.985,0v.984a.492.492,0,0,1-.985,0Zm0,3.939a.492.492,0,0,1,.985,0v.986a.492.492,0,0,1-.985,0Zm0,3.941a.492.492,0,0,1,.985,0v.984a.492.492,0,0,1-.985,0Zm0,3.939a.492.492,0,0,1,.985,0v.986a.492.492,0,0,1-.985,0Zm0,3.941a.492.492,0,0,1,.985,0v.984a.492.492,0,0,1-.985,0Zm0,3.939a.492.492,0,0,1,.985,0v.986a.492.492,0,0,1-.985,0Zm0,3.941a.492.492,0,0,1,.985,0v.984a.492.492,0,0,1-.985,0Zm0,3.941a.492.492,0,0,1,.985,0v.984a.492.492,0,0,1-.985,0Zm0,3.939a.492.492,0,0,1,.985,0v.986a.492.492,0,0,1-.985,0Zm0,3.941a.492.492,0,0,1,.985,0v.984a.492.492,0,0,1-.985,0Zm0,3.939a.492.492,0,0,1,.985,0v.986a.492.492,0,0,1-.985,0v-.983Zm0,3.941a.492.492,0,0,1,.985,0v.984a.492.492,0,0,1-.985,0v-.981Zm0,3.939a.492.492,0,0,1,.985,0v.986a.492.492,0,0,1-.985,0Zm0,3.941a.492.492,0,0,1,.985,0v.984a.492.492,0,0,1-.985,0Zm0,3.941a.492.492,0,0,1,.985,0v.986a.492.492,0,0,1-.985,0v-.984Zm0,3.939a.492.492,0,0,1,.985,0v.986a.492.492,0,0,1-.985,0Zm0,3.941a.492.492,0,0,1,.985,0v.984a.492.492,0,0,1-.985,0Zm0,3.939a.492.492,0,0,1,.985,0v.986a.492.492,0,0,1-.985,0Zm0,3.941a.492.492,0,0,1,.985,0v.984a.492.492,0,0,1-.985,0Zm0,3.939a.492.492,0,0,1,.985,0v.986a.492.492,0,0,1-.985,0Zm0,3.941a.492.492,0,0,1,.985,0v.984a.492.492,0,0,1-.985,0v-.974Zm0,3.939a.492.492,0,0,1,.985,0v.986a.492.492,0,0,1-.985,0Zm0,3.941a.492.492,0,0,1,.985,0v.984a.492.492,0,0,1-.985,0Zm0,3.941a.492.492,0,0,1,.985,0v.984a.492.492,0,0,1-.985,0Zm0,3.939a.492.492,0,0,1,.985,0v.995a.492.492,0,0,1-.985,0v-.984Zm0,3.941a.492.492,0,0,1,.985,0v.986a.492.492,0,0,1-.985,0Zm0,3.939a.492.492,0,0,1,.985,0v.986a.492.492,0,0,1-.985,0Zm0,3.939a.492.492,0,0,1,.985,0v.986a.492.492,0,0,1-.985,0v-.986Zm0,3.941a.492.492,0,0,1,.985,0v.986a.492.492,0,0,1-.985,0Zm0,3.941a.492.492,0,0,1,.985,0v.984a.492.492,0,0,1-.985,0Zm0,3.941a.492.492,0,0,1,.985,0v.984a.492.492,0,0,1-.985,0Zm0,3.939a.492.492,0,0,1,.985,0v.983a.492.492,0,0,1-.985,0V206.7Zm0,3.941a.492.492,0,0,1,.985,0v.984a.492.492,0,0,1-.985,0Zm0,3.939a.492.492,0,0,1,.985,0v.986a.492.492,0,0,1-.985,0Zm0,3.939a.492.492,0,0,1,.985,0v.986a.492.492,0,0,1-.985,0Zm0,3.941a.492.492,0,0,1,.985,0v.986a.492.492,0,0,1-.985,0Zm0,3.941a.492.492,0,0,1,.985,0v.984a.492.492,0,0,1-.985,0Zm0,3.941a.492.492,0,0,1,.985,0v.984a.492.492,0,0,1-.985,0v-.979Zm0,3.939a.492.492,0,0,1,.985,0v.984a.492.492,0,0,1-.985,0Zm0,3.941a.492.492,0,0,1,.985,0v.983a.492.492,0,0,1-.985,0Zm0,3.939a.492.492,0,0,1,.985,0v.986a.492.492,0,0,1-.985,0Zm0,3.939a.492.492,0,0,1,.985,0v.991a.492.492,0,0,1-.985,0v-.986Zm0,3.941a.492.492,0,0,1,.985,0v.986a.492.492,0,0,1-.985,0Zm0,3.939a.492.492,0,0,1,.985,0v.986a.492.492,0,0,1-.985,0Zm0,3.943a.492.492,0,0,1,.985,0v.984a.492.492,0,0,1-.985,0Zm0,3.939a.492.492,0,0,1,.985,0v.984a.492.492,0,0,1-.985,0Zm0,3.941a.492.492,0,0,1,.985,0v.983a.492.492,0,0,1-.985,0Zm0,3.939a.492.492,0,0,1,.985,0v.984a.492.492,0,0,1-.985,0Zm0,3.939a.492.492,0,0,1,.985,0v.986a.492.492,0,0,1-.985,0Zm0,3.941a.492.492,0,0,1,.985,0v.986a.492.492,0,0,1-.985,0Zm0,3.939a.492.492,0,0,1,.985,0v.986a.492.492,0,0,1-.985,0Zm0,3.943a.492.492,0,0,1,.985,0v1a.492.492,0,0,1-.985,0v-.984Zm0,3.939a.492.492,0,0,1,.985,0v.984a.492.492,0,0,1-.985,0Zm0,3.941a.492.492,0,0,1,.985,0v.983a.492.492,0,0,1-.985,0Z" transform="translate(-2021.265 -14.199)" fill="#cacaca"/>
      <path id="Path_833" data-name="Path 833" d="M2710.343,298.449a.494.494,0,0,1-.987,0v-.988a.494.494,0,0,1,.987,0v.986Zm-.987-280.735a.494.494,0,0,1,.987,0V18.7a.494.494,0,0,1-.987,0Zm0,3.941a.494.494,0,1,1,.987,0v.984a.494.494,0,0,1-.987,0v-.981Zm0,3.939a.494.494,0,0,1,.987,0v.984a.494.494,0,1,1-.987,0V25.6Zm0,3.941a.494.494,0,1,1,.987,0v.984a.494.494,0,0,1-.987,0v-.981Zm0,3.939a.494.494,0,0,1,.987,0v.984a.494.494,0,0,1-.987,0v-.981Zm0,3.941a.494.494,0,0,1,.987,0V38.4a.494.494,0,0,1-.987,0v-.981Zm0,3.939a.494.494,0,0,1,.987,0v.986a.494.494,0,0,1-.987,0Zm0,3.941a.494.494,0,0,1,.987,0v.984a.494.494,0,0,1-.987,0Zm0,3.939a.494.494,0,0,1,.987,0v.986a.494.494,0,0,1-.987,0Zm0,3.941a.494.494,0,0,1,.987,0v.984a.494.494,0,0,1-.987,0Zm0,3.941a.494.494,0,1,1,.987,0V58.1a.494.494,0,0,1-.987,0v-.978Zm0,3.939a.494.494,0,0,1,.987,0v.986a.494.494,0,0,1-.987,0Zm0,3.941a.494.494,0,1,1,.987,0v.984a.494.494,0,0,1-.987,0Zm0,3.939a.494.494,0,0,1,.987,0v.986a.494.494,0,0,1-.987,0Zm0,3.941a.494.494,0,0,1,.987,0v.991a.494.494,0,0,1-.987,0v-.984Zm0,3.939a.494.494,0,0,1,.987,0V77.8a.494.494,0,0,1-.987,0Zm0,3.941a.494.494,0,0,1,.987,0v.984a.494.494,0,1,1-.987,0Zm0,3.941a.494.494,0,1,1,.987,0v.984a.494.494,0,0,1-.987,0Zm0,3.939a.494.494,0,0,1,.987,0v.986a.494.494,0,0,1-.987,0Zm0,3.941a.494.494,0,0,1,.987,0v.984a.494.494,0,0,1-.987,0Zm0,3.939a.494.494,0,0,1,.987,0V97.5a.494.494,0,0,1-.987,0Zm0,3.941a.494.494,0,0,1,.987,0v.984a.494.494,0,0,1-.987,0Zm0,3.939a.494.494,0,0,1,.987,0v.986a.494.494,0,0,1-.987,0Zm0,3.941a.494.494,0,0,1,.987,0v.984a.494.494,0,0,1-.987,0Zm0,3.941a.494.494,0,1,1,.987,0v.984a.494.494,0,0,1-.987,0Zm0,3.939a.494.494,0,0,1,.987,0v.986a.494.494,0,0,1-.987,0Zm0,3.941a.494.494,0,1,1,.987,0v.984a.494.494,0,0,1-.987,0Zm0,3.939a.494.494,0,0,1,.987,0v.986a.494.494,0,0,1-.987,0V124.1Zm0,3.941a.494.494,0,0,1,.987,0v.984a.494.494,0,0,1-.987,0v-.981Zm0,3.939a.494.494,0,0,1,.987,0v.986a.494.494,0,0,1-.987,0Zm0,3.941a.494.494,0,0,1,.987,0v.984a.494.494,0,0,1-.987,0Zm0,3.941a.494.494,0,1,1,.987,0v.986a.494.494,0,0,1-.987,0v-.984Zm0,3.939a.494.494,0,0,1,.987,0v.986a.494.494,0,0,1-.987,0Zm0,3.941a.494.494,0,1,1,.987,0v.984a.494.494,0,0,1-.987,0Zm0,3.939a.494.494,0,0,1,.987,0v.986a.494.494,0,0,1-.987,0Zm0,3.941a.494.494,0,0,1,.987,0v.984a.494.494,0,0,1-.987,0Zm0,3.939a.494.494,0,0,1,.987,0v.986a.494.494,0,0,1-.987,0Zm0,3.941a.494.494,0,0,1,.987,0v.984a.494.494,0,0,1-.987,0v-.974Zm0,3.939a.494.494,0,0,1,.987,0v.986a.494.494,0,0,1-.987,0Zm0,3.941a.494.494,0,1,1,.987,0v.984a.494.494,0,0,1-.987,0Zm0,3.941a.494.494,0,1,1,.987,0v.984a.494.494,0,1,1-.987,0Zm0,3.939a.494.494,0,0,1,.987,0v.995a.494.494,0,1,1-.987,0v-.984Zm0,3.941a.494.494,0,0,1,.987,0v.986a.494.494,0,0,1-.987,0Zm0,3.939a.494.494,0,0,1,.987,0v.986a.494.494,0,0,1-.987,0Zm0,3.939a.494.494,0,0,1,.987,0v.986a.494.494,0,0,1-.987,0v-.986Zm0,3.941a.494.494,0,0,1,.987,0V196a.494.494,0,0,1-.987,0Zm0,3.941a.494.494,0,1,1,.987,0v.984a.494.494,0,0,1-.987,0Zm0,3.941a.494.494,0,1,1,.987,0v.984a.494.494,0,1,1-.987,0Zm0,3.939a.494.494,0,0,1,.987,0v.983a.494.494,0,1,1-.987,0v-.984Zm0,3.941a.494.494,0,0,1,.987,0v.984a.494.494,0,0,1-.987,0Zm0,3.939a.494.494,0,0,1,.987,0v.986a.494.494,0,0,1-.987,0Zm0,3.939a.494.494,0,0,1,.987,0v.986a.494.494,0,0,1-.987,0Zm0,3.941a.494.494,0,0,1,.987,0v.986a.494.494,0,0,1-.987,0Zm0,3.941a.494.494,0,1,1,.987,0v.984a.494.494,0,0,1-.987,0Zm0,3.941a.494.494,0,1,1,.987,0v.984a.494.494,0,1,1-.987,0v-.979Zm0,3.939a.494.494,0,0,1,.987,0v.984a.494.494,0,1,1-.987,0Zm0,3.941a.494.494,0,0,1,.987,0v.983a.494.494,0,1,1-.987,0Zm0,3.939a.494.494,0,0,1,.987,0v.986a.494.494,0,0,1-.987,0Zm0,3.939a.494.494,0,0,1,.987,0v.991a.494.494,0,0,1-.987,0v-.986Zm0,3.941a.494.494,0,0,1,.987,0v.986a.494.494,0,0,1-.987,0Zm0,3.939a.494.494,0,0,1,.987,0v.986a.494.494,0,0,1-.987,0Zm0,3.942a.494.494,0,1,1,.987,0v.984a.494.494,0,0,1-.987,0Zm0,3.939a.494.494,0,1,1,.987,0v.984a.494.494,0,1,1-.987,0Zm0,3.941a.494.494,0,0,1,.987,0v.983a.494.494,0,1,1-.987,0Zm0,3.939a.494.494,0,0,1,.987,0v.984a.494.494,0,1,1-.987,0Zm0,3.939a.494.494,0,0,1,.987,0v.986a.494.494,0,0,1-.987,0Zm0,3.941a.494.494,0,0,1,.987,0v.986a.494.494,0,0,1-.987,0Zm0,3.939a.494.494,0,0,1,.987,0v.986a.494.494,0,0,1-.987,0Zm0,3.943a.494.494,0,1,1,.987,0v1a.494.494,0,0,1-.987,0v-.984Zm0,3.939a.494.494,0,1,1,.987,0v.984a.494.494,0,0,1-.987,0Zm0,3.941a.494.494,0,0,1,.987,0v.983a.494.494,0,1,1-.987,0Z" transform="translate(-2251.113 -14.332)" fill="#cacaca"/>
      <path id="Path_834" data-name="Path 834" d="M2986.984,298.317a.492.492,0,0,1-.985,0v-.988a.492.492,0,0,1,.985,0v.986ZM2986,17.582a.492.492,0,0,1,.985,0v.984a.492.492,0,0,1-.985,0Zm0,3.941a.492.492,0,0,1,.985,0v.984a.492.492,0,0,1-.985,0v-.981Zm0,3.939a.492.492,0,0,1,.985,0v.984a.492.492,0,0,1-.985,0v-.981Zm0,3.941a.492.492,0,0,1,.985,0v.984a.492.492,0,0,1-.985,0v-.981Zm0,3.939a.492.492,0,0,1,.985,0v.984a.492.492,0,0,1-.985,0v-.981Zm0,3.941a.492.492,0,0,1,.985,0v.984a.492.492,0,0,1-.985,0v-.981Zm0,3.939a.492.492,0,0,1,.985,0v.986a.492.492,0,0,1-.985,0Zm0,3.941a.492.492,0,0,1,.985,0v.984a.492.492,0,0,1-.985,0Zm0,3.939a.492.492,0,0,1,.985,0v.986a.492.492,0,0,1-.985,0Zm0,3.941a.492.492,0,0,1,.985,0v.984a.492.492,0,0,1-.985,0Zm0,3.941a.492.492,0,0,1,.985,0v.984a.492.492,0,0,1-.985,0V56.99Zm0,3.939a.492.492,0,0,1,.985,0v.986a.492.492,0,0,1-.985,0Zm0,3.941a.492.492,0,0,1,.985,0v.984a.492.492,0,0,1-.985,0Zm0,3.939a.492.492,0,0,1,.985,0v.986a.492.492,0,0,1-.985,0Zm0,3.941a.492.492,0,0,1,.985,0v.991a.492.492,0,0,1-.985,0V72.75Zm0,3.939a.492.492,0,0,1,.985,0v.986a.492.492,0,0,1-.985,0Zm0,3.941a.492.492,0,0,1,.985,0v.984a.492.492,0,0,1-.985,0Zm0,3.941a.492.492,0,0,1,.985,0v.984a.492.492,0,0,1-.985,0Zm0,3.939a.492.492,0,0,1,.985,0v.986a.492.492,0,0,1-.985,0Zm0,3.941a.492.492,0,0,1,.985,0v.984a.492.492,0,0,1-.985,0Zm0,3.939a.492.492,0,0,1,.985,0v.986a.492.492,0,0,1-.985,0Zm0,3.941a.492.492,0,0,1,.985,0v.984a.492.492,0,0,1-.985,0Zm0,3.939a.492.492,0,0,1,.985,0v.986a.492.492,0,0,1-.985,0Zm0,3.941a.492.492,0,0,1,.985,0v.984a.492.492,0,0,1-.985,0Zm0,3.941a.492.492,0,0,1,.985,0v.984a.492.492,0,0,1-.985,0Zm0,3.939a.492.492,0,0,1,.985,0v.986a.492.492,0,0,1-.985,0Zm0,3.941a.492.492,0,0,1,.985,0v.984a.492.492,0,0,1-.985,0Zm0,3.939a.492.492,0,0,1,.985,0v.986a.492.492,0,0,1-.985,0v-.983Zm0,3.941a.492.492,0,0,1,.985,0v.984a.492.492,0,0,1-.985,0v-.981Zm0,3.939a.492.492,0,0,1,.985,0v.986a.492.492,0,0,1-.985,0Zm0,3.941a.492.492,0,0,1,.985,0v.984a.492.492,0,0,1-.985,0Zm0,3.941a.492.492,0,0,1,.985,0v.986a.492.492,0,0,1-.985,0v-.984Zm0,3.939a.492.492,0,0,1,.985,0v.986a.492.492,0,0,1-.985,0Zm0,3.941a.492.492,0,0,1,.985,0v.984a.492.492,0,0,1-.985,0Zm0,3.939a.492.492,0,0,1,.985,0v.986a.492.492,0,0,1-.985,0Zm0,3.941a.492.492,0,0,1,.985,0v.984a.492.492,0,0,1-.985,0Zm0,3.939a.492.492,0,0,1,.985,0v.986a.492.492,0,0,1-.985,0Zm0,3.941a.492.492,0,0,1,.985,0v.984a.492.492,0,0,1-.985,0v-.974Zm0,3.939a.492.492,0,0,1,.985,0v.986a.492.492,0,0,1-.985,0Zm0,3.941a.492.492,0,0,1,.985,0v.984a.492.492,0,0,1-.985,0Zm0,3.941a.492.492,0,0,1,.985,0v.984a.492.492,0,0,1-.985,0Zm0,3.939a.492.492,0,0,1,.985,0v.995a.492.492,0,0,1-.985,0v-.984Zm0,3.941a.492.492,0,0,1,.985,0v.986a.492.492,0,0,1-.985,0Zm0,3.939a.492.492,0,0,1,.985,0v.986a.492.492,0,0,1-.985,0Zm0,3.939a.492.492,0,0,1,.985,0v.986a.492.492,0,0,1-.985,0v-.986Zm0,3.941a.492.492,0,0,1,.985,0v.986a.492.492,0,0,1-.985,0Zm0,3.941a.492.492,0,0,1,.985,0v.984a.492.492,0,0,1-.985,0Zm0,3.941a.492.492,0,0,1,.985,0v.984a.492.492,0,0,1-.985,0Zm0,3.939a.492.492,0,0,1,.985,0v.983a.492.492,0,0,1-.985,0V206.7Zm0,3.941a.492.492,0,0,1,.985,0v.984a.492.492,0,0,1-.985,0Zm0,3.939a.492.492,0,0,1,.985,0v.986a.492.492,0,0,1-.985,0Zm0,3.939a.492.492,0,0,1,.985,0v.986a.492.492,0,0,1-.985,0Zm0,3.941a.492.492,0,0,1,.985,0v.986a.492.492,0,0,1-.985,0Zm0,3.941a.492.492,0,0,1,.985,0v.984a.492.492,0,0,1-.985,0Zm0,3.941a.492.492,0,0,1,.985,0v.984a.492.492,0,0,1-.985,0v-.979Zm0,3.939a.492.492,0,0,1,.985,0v.984a.492.492,0,0,1-.985,0Zm0,3.941a.492.492,0,0,1,.985,0v.983a.492.492,0,0,1-.985,0Zm0,3.939a.492.492,0,0,1,.985,0v.986a.492.492,0,0,1-.985,0Zm0,3.939a.492.492,0,0,1,.985,0v.991a.492.492,0,0,1-.985,0v-.986Zm0,3.941a.492.492,0,0,1,.985,0v.986a.492.492,0,0,1-.985,0Zm0,3.939a.492.492,0,0,1,.985,0v.986a.492.492,0,0,1-.985,0Zm0,3.943a.492.492,0,0,1,.985,0v.984a.492.492,0,0,1-.985,0Zm0,3.939a.492.492,0,0,1,.985,0v.984a.492.492,0,0,1-.985,0Zm0,3.941a.492.492,0,0,1,.985,0v.983a.492.492,0,0,1-.985,0Zm0,3.939a.492.492,0,0,1,.985,0v.984a.492.492,0,0,1-.985,0Zm0,3.939a.492.492,0,0,1,.985,0v.986a.492.492,0,0,1-.985,0Zm0,3.941a.492.492,0,0,1,.985,0v.986a.492.492,0,0,1-.985,0Zm0,3.939a.492.492,0,0,1,.985,0v.986a.492.492,0,0,1-.985,0Zm0,3.943a.492.492,0,0,1,.985,0v1a.492.492,0,0,1-.985,0v-.984Zm0,3.939a.492.492,0,0,1,.985,0v.984a.492.492,0,0,1-.985,0Zm0,3.941a.492.492,0,0,1,.985,0v.983a.492.492,0,0,1-.985,0Z" transform="translate(-2480.967 -14.199)" fill="#cacaca"/>
      <path id="Path_835" data-name="Path 835" d="M694.244,220.853c-118.2,48.3-163.566,29.091-203.425,12.218-50.311-21.3-91.76-38.845-263,90.864l-1.111-1.472c172.082-130.348,213.976-112.612,264.814-91.087,39.533,16.744,84.528,35.787,202.02-12.227l.692,1.7Z" transform="translate(-188.366 -179.745)" fill="#a0e13a"/>
      <path id="Path_836" data-name="Path 836" d="M477.588,625.92a4.4,4.4,0,1,1-4.4,4.4A4.4,4.4,0,0,1,477.588,625.92Z" transform="translate(-393.157 -520.056)" fill="#a0e13a"/>
      <path id="Path_837" data-name="Path 837" d="M754.217,445.14a4.4,4.4,0,1,1-4.4,4.4A4.4,4.4,0,0,1,754.217,445.14Z" transform="translate(-623 -369.852)" fill="#a0e13a"/>
      <path id="Path_838" data-name="Path 838" d="M1030.857,297.49a4.4,4.4,0,1,1-4.4,4.4A4.4,4.4,0,0,1,1030.857,297.49Z" transform="translate(-852.851 -247.174)" fill="#a0e13a"/>
      <path id="Path_839" data-name="Path 839" d="M1307.487,206.88a4.4,4.4,0,1,1-4.4,4.4A4.4,4.4,0,0,1,1307.487,206.88Z" transform="translate(-1082.694 -171.89)" fill="#a0e13a"/>
      <path id="Path_840" data-name="Path 840" d="M1584.127,216.24a4.4,4.4,0,1,1-4.4,4.4A4.4,4.4,0,0,1,1584.127,216.24Z" transform="translate(-1312.544 -179.667)" fill="#a0e13a"/>
      <path id="Path_841" data-name="Path 841" d="M1860.757,318.47a4.4,4.4,0,1,1-4.4,4.4A4.4,4.4,0,0,1,1860.757,318.47Z" transform="translate(-1542.387 -264.606)" fill="#a0e13a"/>
      <path id="Path_842" data-name="Path 842" d="M2137.4,388.9a4.4,4.4,0,1,1-4.4,4.4A4.4,4.4,0,0,1,2137.4,388.9Z" transform="translate(-1772.237 -323.124)" fill="#a0e13a"/>
      <path id="Path_843" data-name="Path 843" d="M2414.027,378.44a4.4,4.4,0,1,1-4.4,4.4A4.4,4.4,0,0,1,2414.027,378.44Z" transform="translate(-2002.08 -314.433)" fill="#a0e13a"/>
      <path id="Path_844" data-name="Path 844" d="M2690.678,306.83a4.4,4.4,0,1,1-4.4,4.4,4.4,4.4,0,0,1,4.4-4.4Z" transform="translate(-2231.939 -254.935)" fill="#a0e13a"/>
      <path id="Path_845" data-name="Path 845" d="M2966.518,212.28a4.4,4.4,0,1,1-4.4,4.4A4.4,4.4,0,0,1,2966.518,212.28Z" transform="translate(-2461.126 -176.376)" fill="#a0e13a"/>
      <path id="Path_846" data-name="Path 846" d="M203.878,820.63a4.4,4.4,0,1,1-4.4,4.4A4.4,4.4,0,0,1,203.878,820.63Z" transform="translate(-165.741 -681.834)" fill="#a0e13a"/>
      <path id="Path_847" data-name="Path 847" d="M695.877,1349.406C426.388,1236.023,383.235,1366.2,230,1366.2v-1.848c154.363,0,194.3-130.591,466.5-16.663Z" transform="translate(-191.099 -1080.991)" fill="#5359a6"/>
      <path id="Path_848" data-name="Path 848" d="M1030.857,1457.81a4.4,4.4,0,1,1-4.4,4.4A4.4,4.4,0,0,1,1030.857,1457.81Z" transform="translate(-852.851 -1211.246)" fill="#5359a6"/>
      <path id="Path_849" data-name="Path 849" d="M754.217,1559.38a4.4,4.4,0,1,1-4.4,4.4A4.4,4.4,0,0,1,754.217,1559.38Z" transform="translate(-623 -1295.636)" fill="#5359a6"/>
      <path id="Path_850" data-name="Path 850" d="M1307.487,1357.11a4.4,4.4,0,1,1-4.4,4.4A4.4,4.4,0,0,1,1307.487,1357.11Z" transform="translate(-1082.694 -1127.577)" fill="#5359a6"/>
      <path id="Path_851" data-name="Path 851" d="M1584.127,1299.88a4.4,4.4,0,1,1-4.4,4.4A4.4,4.4,0,0,1,1584.127,1299.88Z" transform="translate(-1312.544 -1080.027)" fill="#5359a6"/>
      <path id="Path_852" data-name="Path 852" d="M1860.757,1277.48a4.4,4.4,0,1,1-4.4,4.4A4.4,4.4,0,0,1,1860.757,1277.48Z" transform="translate(-1542.387 -1061.415)" fill="#5359a6"/>
      <path id="Path_853" data-name="Path 853" d="M2414.027,1367.82a4.4,4.4,0,1,1-4.4,4.4,4.4,4.4,0,0,1,4.4-4.4Z" transform="translate(-2002.08 -1136.475)" fill="#5359a6"/>
      <path id="Path_854" data-name="Path 854" d="M2690.678,1444.5a4.4,4.4,0,1,1-4.4,4.4A4.4,4.4,0,0,1,2690.678,1444.5Z" transform="translate(-2231.939 -1200.186)" fill="#5359a6"/>
      <path id="Path_855" data-name="Path 855" d="M2966.518,1550.83a4.4,4.4,0,1,1-4.4,4.4A4.4,4.4,0,0,1,2966.518,1550.83Z" transform="translate(-2461.126 -1288.533)" fill="#5359a6"/>
      <path id="Path_856" data-name="Path 856" d="M203.878,1650.53a4.4,4.4,0,1,1-4.4,4.4A4.4,4.4,0,0,1,203.878,1650.53Z" transform="translate(-165.741 -1371.37)" fill="#5359a6"/>
      <path id="Path_857" data-name="Path 857" d="M228,904.454c118.377-48.372,163.7-28.516,203.61-11.03,50.221,22.006,91.769,40.212,262.807-89.345l1.109,1.473c-171.894,130.2-213.89,111.8-264.652,89.56-39.577-17.339-84.526-37.04-202.182,11.045Z" transform="translate(-189.437 -668.083)" fill="#5c9ebc"/>
      <path id="Path_858" data-name="Path 858" d="M477.588,1278.65a4.4,4.4,0,1,1-4.4,4.4A4.4,4.4,0,0,1,477.588,1278.65Z" transform="translate(-393.157 -1062.387)" fill="#5c9ebc"/>
      <path id="Path_859" data-name="Path 859" d="M754.217,1212.57a4.4,4.4,0,1,1-4.4,4.4A4.4,4.4,0,0,1,754.217,1212.57Z" transform="translate(-623 -1007.483)" fill="#5c9ebc"/>
      <path id="Path_860" data-name="Path 860" d="M1030.857,1202.08a4.4,4.4,0,1,1-4.4,4.4A4.4,4.4,0,0,1,1030.857,1202.08Z" transform="translate(-852.851 -998.768)" fill="#5c9ebc"/>
      <path id="Path_861" data-name="Path 861" d="M1307.487,1260.8a4.4,4.4,0,1,1-4.4,4.4A4.4,4.4,0,0,1,1307.487,1260.8Z" transform="translate(-1082.694 -1047.556)" fill="#5c9ebc"/>
      <path id="Path_862" data-name="Path 862" d="M1584.127,1377.75a4.4,4.4,0,1,1-4.4,4.4A4.4,4.4,0,0,1,1584.127,1377.75Z" transform="translate(-1312.544 -1144.726)" fill="#5c9ebc"/>
      <path id="Path_863" data-name="Path 863" d="M1860.757,1398.13a4.4,4.4,0,1,1-4.4,4.4A4.4,4.4,0,0,1,1860.757,1398.13Z" transform="translate(-1542.387 -1161.659)" fill="#5c9ebc"/>
      <path id="Path_864" data-name="Path 864" d="M2137.4,1308.58a4.4,4.4,0,1,1-4.4,4.4A4.4,4.4,0,0,1,2137.4,1308.58Z" transform="translate(-1772.237 -1087.255)" fill="#5c9ebc"/>
      <path id="Path_865" data-name="Path 865" d="M2414.027,1163.25a4.4,4.4,0,1,1-4.4,4.4A4.4,4.4,0,0,1,2414.027,1163.25Z" transform="translate(-2002.08 -966.505)" fill="#5c9ebc"/>
      <path id="Path_866" data-name="Path 866" d="M2690.678,984.38a4.4,4.4,0,1,1-4.4,4.4A4.4,4.4,0,0,1,2690.678,984.38Z" transform="translate(-2231.939 -817.888)" fill="#5c9ebc"/>
      <path id="Path_867" data-name="Path 867" d="M2966.518,785.87a4.4,4.4,0,1,1-4.4,4.4A4.4,4.4,0,0,1,2966.518,785.87Z" transform="translate(-2461.126 -652.953)" fill="#5c9ebc"/>
      <path id="Path_868" data-name="Path 868" d="M203.878,1373.9a4.4,4.4,0,1,1-4.4,4.4A4.4,4.4,0,0,1,203.878,1373.9Z" transform="translate(-165.741 -1141.527)" fill="#5c9ebc"/>
      <path id="Path_869" data-name="Path 869" d="M230.612,883.974c269.492-113.384,312.64,16.794,465.88,16.794v-1.849c-154.365,0-194.3-130.59-466.5-16.661Z" transform="translate(-191.091 -694.279)" fill="#73ca9b"/>
      <path id="Path_870" data-name="Path 870" d="M477.588,984.38a4.4,4.4,0,1,1-4.4,4.4A4.4,4.4,0,0,1,477.588,984.38Z" transform="translate(-393.157 -817.888)" fill="#73ca9b"/>
      <path id="Path_871" data-name="Path 871" d="M754.217,898.81a4.4,4.4,0,1,1-4.4,4.4A4.4,4.4,0,0,1,754.217,898.81Z" transform="translate(-623 -746.791)" fill="#73ca9b"/>
      <path id="Path_872" data-name="Path 872" d="M1030.857,836.13a4.4,4.4,0,1,1-4.4,4.4A4.4,4.4,0,0,1,1030.857,836.13Z" transform="translate(-852.851 -694.712)" fill="#73ca9b"/>
      <path id="Path_873" data-name="Path 873" d="M1307.487,809.59a4.4,4.4,0,1,1-4.4,4.4A4.4,4.4,0,0,1,1307.487,809.59Z" transform="translate(-1082.694 -672.661)" fill="#73ca9b"/>
      <path id="Path_874" data-name="Path 874" d="M1584.127,829.54a4.4,4.4,0,1,1-4.4,4.4A4.4,4.4,0,0,1,1584.127,829.54Z" transform="translate(-1312.544 -689.237)" fill="#73ca9b"/>
      <path id="Path_875" data-name="Path 875" d="M1860.757,890.25a4.4,4.4,0,1,1-4.4,4.4A4.4,4.4,0,0,1,1860.757,890.25Z" transform="translate(-1542.387 -739.679)" fill="#73ca9b"/>
      <path id="Path_876" data-name="Path 876" d="M2137.4,981.87a4.4,4.4,0,1,1-4.4,4.4A4.4,4.4,0,0,1,2137.4,981.87Z" transform="translate(-1772.237 -815.803)" fill="#73ca9b"/>
      <path id="Path_877" data-name="Path 877" d="M2414.027,1090.75a4.4,4.4,0,1,1-4.4,4.4A4.4,4.4,0,0,1,2414.027,1090.75Z" transform="translate(-2002.08 -906.267)" fill="#73ca9b"/>
      <path id="Path_878" data-name="Path 878" d="M2690.678,1163.84a4.4,4.4,0,1,1-4.4,4.4A4.4,4.4,0,0,1,2690.678,1163.84Z" transform="translate(-2231.939 -966.995)" fill="#73ca9b"/>
      <path id="Path_879" data-name="Path 879" d="M2966.518,1185.41a4.4,4.4,0,1,1-4.4,4.4A4.4,4.4,0,0,1,2966.518,1185.41Z" transform="translate(-2461.126 -984.917)" fill="#73ca9b"/>
      <path id="Path_880" data-name="Path 880" d="M203.878,1097.26a4.4,4.4,0,1,1-4.4,4.4A4.4,4.4,0,0,1,203.878,1097.26Z" transform="translate(-165.741 -911.677)" fill="#73ca9b"/>
      <path id="Path_897" data-name="Path 897" d="M10.289,1114.234a5.216,5.216,0,0,1,.085-.991,2.669,2.669,0,0,1,.3-.822,2.776,2.776,0,0,1,.584-.706,5.2,5.2,0,0,1,.942-.643q.507-.272.883-.468a7.013,7.013,0,0,0,.638-.372,1.535,1.535,0,0,0,.389-.339.653.653,0,0,0,.134-.406.817.817,0,0,0-.291-.629,1.226,1.226,0,0,0-.846-.26,1.736,1.736,0,0,0-.536.079,1.945,1.945,0,0,0-.455.213,2.569,2.569,0,0,0-.389.3,3.3,3.3,0,0,0-.323.347l-1.038-1.221a2.635,2.635,0,0,1,.45-.372,4.273,4.273,0,0,1,.687-.378,4.984,4.984,0,0,1,.876-.291,4.244,4.244,0,0,1,1.027-.116,3.69,3.69,0,0,1,1.108.152,2.472,2.472,0,0,1,.82.425,1.836,1.836,0,0,1,.507.658,1.978,1.978,0,0,1,.169.832,1.735,1.735,0,0,1-.157.756,2.289,2.289,0,0,1-.4.583,3.213,3.213,0,0,1-.529.443c-.191.125-.375.236-.555.338l-.5.281a6.333,6.333,0,0,0-.553.338,6.043,6.043,0,0,0-.507.389,1.787,1.787,0,0,0-.352.4h3.7v1.472Z" transform="translate(-8.548 -919.9)" fill="#73ca9b"/>
      <path id="Path_898" data-name="Path 898" d="M57.907,1109.727a4.462,4.462,0,0,1-.237,1.479,3.637,3.637,0,0,1-.658,1.167,2.942,2.942,0,0,1-1,.766,2.985,2.985,0,0,1-2.5,0,2.955,2.955,0,0,1-.991-.766,3.637,3.637,0,0,1-.658-1.167,4.738,4.738,0,0,1,0-2.957,3.633,3.633,0,0,1,.658-1.167,3.027,3.027,0,0,1,.991-.771,2.919,2.919,0,0,1,2.5,0,3,3,0,0,1,1,.771,3.633,3.633,0,0,1,.658,1.167A4.458,4.458,0,0,1,57.907,1109.727Zm-1.642,0a3.458,3.458,0,0,0-.11-.895,2.253,2.253,0,0,0-.31-.7,1.462,1.462,0,0,0-.475-.451,1.192,1.192,0,0,0-.6-.157,1.213,1.213,0,0,0-.614.157,1.456,1.456,0,0,0-.474.451,2.253,2.253,0,0,0-.31.7,3.385,3.385,0,0,0-.11.895,3.309,3.309,0,0,0,.11.888,2.27,2.27,0,0,0,.31.693,1.464,1.464,0,0,0,.474.45,1.207,1.207,0,0,0,.614.157,1.186,1.186,0,0,0,.6-.157,1.47,1.47,0,0,0,.475-.45,2.269,2.269,0,0,0,.31-.693A3.383,3.383,0,0,0,56.265,1109.727Z" transform="translate(-42.898 -918.963)" fill="#73ca9b"/>
      <path id="Path_899" data-name="Path 899" d="M100.685,1113.34v1.472H95.747v-1.472h1.727v-3.685a1.332,1.332,0,0,1-.338.3,4.511,4.511,0,0,1-.507.286,3.517,3.517,0,0,1-.578.218,1.873,1.873,0,0,1-.529.086v-1.522a1.345,1.345,0,0,0,.536-.14,4.6,4.6,0,0,0,.621-.338,5.2,5.2,0,0,0,.528-.384,1.238,1.238,0,0,0,.286-.3h1.668v5.473Z" transform="translate(-79.364 -920.483)" fill="#73ca9b"/>
      <path id="Path_900" data-name="Path 900" d="M132.772,1116.391v-1.815H129.22v-1.446l4.074-5.229H134.4v5.216h1.071v1.459H134.4v1.815Zm-1.921-3.275h2.1v-2.748Z" transform="translate(-107.364 -920.517)" fill="#73ca9b"/>
      <path id="Path_901" data-name="Path 901" d="M7.409,1392.864a5.231,5.231,0,0,1,.085-.991,2.69,2.69,0,0,1,.3-.82,2.743,2.743,0,0,1,.584-.705,5.279,5.279,0,0,1,.944-.646q.5-.267.881-.467c.255-.135.469-.259.639-.372a1.621,1.621,0,0,0,.389-.346.659.659,0,0,0,.134-.408.815.815,0,0,0-.293-.626,1.215,1.215,0,0,0-.846-.26,1.731,1.731,0,0,0-.534.078,2.014,2.014,0,0,0-.457.213,2.683,2.683,0,0,0-.389.3,3.124,3.124,0,0,0-.323.349l-1.045-1.206a2.705,2.705,0,0,1,.45-.37,4.162,4.162,0,0,1,.687-.378,5.225,5.225,0,0,1,.876-.292,4.443,4.443,0,0,1,1.027-.115,3.691,3.691,0,0,1,1.108.152,2.45,2.45,0,0,1,.82.424,1.832,1.832,0,0,1,.507.658,1.954,1.954,0,0,1,.178.833,1.692,1.692,0,0,1-.159.753,2.245,2.245,0,0,1-.4.585,3.035,3.035,0,0,1-.529.443q-.288.191-.553.338l-.5.281q-.279.157-.553.338a6.065,6.065,0,0,0-.507.389,1.8,1.8,0,0,0-.352.4h3.7v1.472Z" transform="translate(-6.155 -1151.412)" fill="#5c9ebc"/>
      <path id="Path_902" data-name="Path 902" d="M55.036,1388.347a4.448,4.448,0,0,1-.237,1.478,3.658,3.658,0,0,1-.658,1.167,2.938,2.938,0,0,1-1,.766,2.922,2.922,0,0,1-3.491-.766,3.653,3.653,0,0,1-.656-1.167,4.736,4.736,0,0,1,0-2.956,3.631,3.631,0,0,1,.656-1.167,3.071,3.071,0,0,1,.991-.773,2.94,2.94,0,0,1,2.5,0,3.042,3.042,0,0,1,1,.773,3.636,3.636,0,0,1,.658,1.167A4.465,4.465,0,0,1,55.036,1388.347Zm-1.642,0a3.441,3.441,0,0,0-.108-.893,2.3,2.3,0,0,0-.311-.7,1.478,1.478,0,0,0-.474-.45,1.253,1.253,0,0,0-1.216,0,1.462,1.462,0,0,0-.475.45,2.254,2.254,0,0,0-.31.7,3.44,3.44,0,0,0-.11.893,3.385,3.385,0,0,0,.11.888,2.291,2.291,0,0,0,.31.694,1.481,1.481,0,0,0,.475.449,1.241,1.241,0,0,0,1.216,0,1.49,1.49,0,0,0,.474-.449,2.33,2.33,0,0,0,.311-.694A3.385,3.385,0,0,0,53.393,1388.347Z" transform="translate(-40.514 -1150.459)" fill="#5c9ebc"/>
      <path id="Path_903" data-name="Path 903" d="M97.772,1391.96v1.471H92.837v-1.471h1.725v-3.686a1.314,1.314,0,0,1-.338.3,4.658,4.658,0,0,1-.518.286,3.683,3.683,0,0,1-.578.22,1.983,1.983,0,0,1-.528.085v-1.522a1.376,1.376,0,0,0,.534-.14,4.715,4.715,0,0,0,.621-.339,5.318,5.318,0,0,0,.529-.384,1.284,1.284,0,0,0,.286-.3h1.666v5.474Z" transform="translate(-76.938 -1151.979)" fill="#5c9ebc"/>
      <path id="Path_904" data-name="Path 904" d="M127.639,1392.864a5.373,5.373,0,0,1,.085-.991,2.691,2.691,0,0,1,.3-.82,2.743,2.743,0,0,1,.584-.705,5.311,5.311,0,0,1,.944-.646q.5-.267.881-.467c.255-.135.468-.259.639-.372a1.625,1.625,0,0,0,.389-.346.648.648,0,0,0,.134-.408.815.815,0,0,0-.293-.626,1.215,1.215,0,0,0-.846-.26,1.731,1.731,0,0,0-.534.078,2.015,2.015,0,0,0-.457.213,2.8,2.8,0,0,0-.389.3,2.957,2.957,0,0,0-.321.349l-1.047-1.206a2.707,2.707,0,0,1,.45-.37,4.251,4.251,0,0,1,.687-.378,5.23,5.23,0,0,1,.876-.292,4.457,4.457,0,0,1,1.028-.115,3.68,3.68,0,0,1,1.106.152,2.459,2.459,0,0,1,.822.424,1.871,1.871,0,0,1,.507.658,1.978,1.978,0,0,1,.169.833,1.692,1.692,0,0,1-.159.753,2.243,2.243,0,0,1-.4.585,3.034,3.034,0,0,1-.529.443c-.189.127-.376.239-.553.338l-.507.281q-.279.157-.553.338a6.056,6.056,0,0,0-.507.389,1.812,1.812,0,0,0-.353.4H133.5v1.472Z" transform="translate(-106.051 -1151.412)" fill="#5c9ebc"/>
      <path id="Path_905" data-name="Path 905" d="M7.479,1665.66a5.342,5.342,0,0,1,.085-.99,2.627,2.627,0,0,1,.883-1.522,5.228,5.228,0,0,1,.942-.647l.881-.466c.255-.135.469-.259.639-.372a1.588,1.588,0,0,0,.389-.339.649.649,0,0,0,.134-.408.815.815,0,0,0-.291-.625,1.221,1.221,0,0,0-.846-.26,1.728,1.728,0,0,0-.534.078,2.032,2.032,0,0,0-.457.214,2.633,2.633,0,0,0-.389.3,3.311,3.311,0,0,0-.321.339l-1.047-1.2a2.6,2.6,0,0,1,.45-.369,4.289,4.289,0,0,1,.687-.378,5.18,5.18,0,0,1,.876-.293,4.437,4.437,0,0,1,1.028-.115,3.675,3.675,0,0,1,1.106.152,2.4,2.4,0,0,1,.822.426,1.819,1.819,0,0,1,.507.656,1.982,1.982,0,0,1,.169.834,1.69,1.69,0,0,1-.159.752,2.2,2.2,0,0,1-.392.578,2.98,2.98,0,0,1-.529.445q-.284.19-.553.338l-.492.283c-.186.107-.37.221-.553.338a5.955,5.955,0,0,0-.507.389,1.817,1.817,0,0,0-.353.4h3.689v1.472Z" transform="translate(-6.214 -1378.073)" fill="#5359a6"/>
      <path id="Path_906" data-name="Path 906" d="M55.1,1661.117a4.43,4.43,0,0,1-.237,1.476,3.646,3.646,0,0,1-.656,1.17,2.943,2.943,0,0,1-3.5.765,3,3,0,0,1-.991-.765,3.646,3.646,0,0,1-.656-1.17,4.722,4.722,0,0,1,0-2.953,3.622,3.622,0,0,1,.656-1.168,3.1,3.1,0,0,1,.991-.773,2.942,2.942,0,0,1,2.5,0,3.06,3.06,0,0,1,1,.773,3.621,3.621,0,0,1,.656,1.168A4.447,4.447,0,0,1,55.1,1661.117Zm-1.641,0a3.433,3.433,0,0,0-.11-.893,2.257,2.257,0,0,0-.311-.7,1.455,1.455,0,0,0-.474-.449,1.181,1.181,0,0,0-.6-.157,1.2,1.2,0,0,0-.614.157,1.453,1.453,0,0,0-.475.449,2.255,2.255,0,0,0-.309.7,3.433,3.433,0,0,0-.11.893,3.382,3.382,0,0,0,.11.888,2.274,2.274,0,0,0,.31.694,1.477,1.477,0,0,0,.475.449,1.2,1.2,0,0,0,.614.159,1.176,1.176,0,0,0,.6-.159,1.466,1.466,0,0,0,.474-.45,2.271,2.271,0,0,0,.311-.694A3.382,3.382,0,0,0,53.464,1661.117Z" transform="translate(-40.571 -1377.094)" fill="#5359a6"/>
      <path id="Path_907" data-name="Path 907" d="M97.884,1664.73v1.471H92.947v-1.471h1.727v-3.686a1.276,1.276,0,0,1-.338.3,4.7,4.7,0,0,1-.507.288,4.018,4.018,0,0,1-.578.218,1.981,1.981,0,0,1-.529.084v-1.522a1.405,1.405,0,0,0,.536-.141,4.59,4.59,0,0,0,.619-.338,5.282,5.282,0,0,0,.529-.384,1.276,1.276,0,0,0,.286-.3h1.666v5.473Z" transform="translate(-77.038 -1378.615)" fill="#5359a6"/>
      <path id="Path_908" data-name="Path 908" d="M134.777,1661.117a4.429,4.429,0,0,1-.237,1.476,3.644,3.644,0,0,1-.658,1.17,2.929,2.929,0,0,1-4.487,0,3.645,3.645,0,0,1-.658-1.17,4.723,4.723,0,0,1,0-2.953,3.622,3.622,0,0,1,.658-1.168,3.074,3.074,0,0,1,.991-.773,2.942,2.942,0,0,1,2.5,0,3.053,3.053,0,0,1,1,.773,3.618,3.618,0,0,1,.658,1.168A4.447,4.447,0,0,1,134.777,1661.117Zm-1.642,0a3.437,3.437,0,0,0-.11-.893,2.255,2.255,0,0,0-.31-.7,1.476,1.476,0,0,0-.474-.449,1.175,1.175,0,0,0-.6-.157,1.2,1.2,0,0,0-.614.157,1.455,1.455,0,0,0-.474.449,2.255,2.255,0,0,0-.309.7,3.358,3.358,0,0,0-.11.893,3.306,3.306,0,0,0,.11.888,2.275,2.275,0,0,0,.31.694,1.47,1.47,0,0,0,.474.449,1.2,1.2,0,0,0,.614.159,1.183,1.183,0,0,0,.6-.159,1.49,1.49,0,0,0,.474-.45,2.265,2.265,0,0,0,.31-.694A3.384,3.384,0,0,0,133.134,1661.117Z" transform="translate(-106.766 -1377.094)" fill="#5359a6"/>
      <path id="Path_909" data-name="Path 909" d="M5.539,837.753a5.337,5.337,0,0,1,.085-.989,2.654,2.654,0,0,1,.3-.822,2.726,2.726,0,0,1,.582-.705,5.288,5.288,0,0,1,.944-.644q.5-.269.874-.469a6.956,6.956,0,0,0,.638-.37,1.546,1.546,0,0,0,.391-.348A.658.658,0,0,0,9.485,833a.809.809,0,0,0-.293-.626,1.208,1.208,0,0,0-.846-.262,1.721,1.721,0,0,0-.534.08,2.024,2.024,0,0,0-.457.213,2.467,2.467,0,0,0-.389.3,3.308,3.308,0,0,0-.323.338l-1.027-1.2a2.721,2.721,0,0,1,.45-.372,4.449,4.449,0,0,1,.687-.377,5.218,5.218,0,0,1,.876-.291,4.359,4.359,0,0,1,1.028-.115,3.711,3.711,0,0,1,1.106.152,2.388,2.388,0,0,1,.822.424,1.843,1.843,0,0,1,.507.656,1.966,1.966,0,0,1,.169.834,1.729,1.729,0,0,1-.159.755,2.265,2.265,0,0,1-.4.583,2.973,2.973,0,0,1-.519.443q-.288.191-.553.339c-.145.081-.313.169-.5.281s-.37.22-.553.338a5.543,5.543,0,0,0-.507.391,1.8,1.8,0,0,0-.353.4H11.4v1.47Z" transform="translate(-4.602 -690.19)" fill="#a0e13a"/>
      <path id="Path_910" data-name="Path 910" d="M53.158,833.237a4.464,4.464,0,0,1-.237,1.478,3.7,3.7,0,0,1-.656,1.167,2.924,2.924,0,0,1-4.49-.007,3.668,3.668,0,0,1-.656-1.167,4.7,4.7,0,0,1,0-2.957,3.632,3.632,0,0,1,.656-1.167,3.028,3.028,0,0,1,.986-.766,2.94,2.94,0,0,1,2.5,0,3.019,3.019,0,0,1,1,.773,3.661,3.661,0,0,1,.656,1.167A4.448,4.448,0,0,1,53.158,833.237Zm-1.642,0a3.383,3.383,0,0,0-.11-.895,2.246,2.246,0,0,0-.311-.7,1.482,1.482,0,0,0-.474-.451,1.182,1.182,0,0,0-.6-.157,1.2,1.2,0,0,0-.614.157,1.489,1.489,0,0,0-.475.451,2.244,2.244,0,0,0-.31.7,3.457,3.457,0,0,0-.11.895,3.374,3.374,0,0,0,.11.886,2.277,2.277,0,0,0,.31.692,1.5,1.5,0,0,0,.475.45,1.207,1.207,0,0,0,.614.157,1.186,1.186,0,0,0,.6-.157,1.489,1.489,0,0,0,.474-.45,2.279,2.279,0,0,0,.31-.695,3.305,3.305,0,0,0,.11-.886Z" transform="translate(-38.951 -689.237)" fill="#a0e13a"/>
      <path id="Path_911" data-name="Path 911" d="M95.9,836.866v1.47H90.965v-1.47h1.727v-3.682a1.355,1.355,0,0,1-.338.3,4.978,4.978,0,0,1-.518.286,3.574,3.574,0,0,1-.577.218,2,2,0,0,1-.529.086V832.55a1.382,1.382,0,0,0,.534-.14,4.566,4.566,0,0,0,.621-.338,5.36,5.36,0,0,0,.529-.383,1.237,1.237,0,0,0,.286-.3h1.666v5.474Z" transform="translate(-75.384 -690.774)" fill="#a0e13a"/>
      <path id="Path_912" data-name="Path 912" d="M132.64,826.87a2.877,2.877,0,0,1-.244,1.184,2.965,2.965,0,0,1-.677.954,3.066,3.066,0,0,1-1,.638,3.3,3.3,0,0,1-1.246.233,3.15,3.15,0,0,1-1.319-.269,2.726,2.726,0,0,1-1-.778,3.561,3.561,0,0,1-.633-1.246,5.879,5.879,0,0,1-.218-1.673,8.482,8.482,0,0,1,.23-2.085,4.508,4.508,0,0,1,.677-1.522,2.925,2.925,0,0,1,1.057-.93,3,3,0,0,1,1.387-.317,3.215,3.215,0,0,1,2.664,1.362l-.937,1.015a2.066,2.066,0,0,0-.754-.717,2.021,2.021,0,0,0-1-.255,1.55,1.55,0,0,0-1.3.644,3.068,3.068,0,0,0-.507,1.825,1.835,1.835,0,0,1,.724-.694,2.235,2.235,0,0,1,1.089-.255,3.177,3.177,0,0,1,1.184.22,2.927,2.927,0,0,1,.961.607,2.827,2.827,0,0,1,.869,2.055Zm-3.149,1.63a1.487,1.487,0,0,0,.607-.128,1.573,1.573,0,0,0,.507-.352,1.7,1.7,0,0,0,.338-.524,1.583,1.583,0,0,0,.128-.626,1.5,1.5,0,0,0-.128-.614,1.678,1.678,0,0,0-.338-.508,1.609,1.609,0,0,0-.507-.338,1.558,1.558,0,0,0-.614-.122,1.575,1.575,0,0,0-1.466.968,1.549,1.549,0,0,0-.12.614,1.579,1.579,0,0,0,.127.626,1.623,1.623,0,0,0,.338.518,1.76,1.76,0,0,0,.507.354,1.454,1.454,0,0,0,.616.133Z" transform="translate(-104.934 -682.189)" fill="#a0e13a"/>
      <path id="Path_913" data-name="Path 913" d="M211.566,1750.089a4.452,4.452,0,0,1-.237,1.487,3.632,3.632,0,0,1-.656,1.167,2.957,2.957,0,0,1-1,.766,2.923,2.923,0,0,1-3.491-.766,3.628,3.628,0,0,1-.656-1.167,4.7,4.7,0,0,1,0-2.956,3.65,3.65,0,0,1,.656-1.167,3.038,3.038,0,0,1,.991-.771,2.921,2.921,0,0,1,2.5,0,3.039,3.039,0,0,1,1,.771,3.65,3.65,0,0,1,.656,1.167,4.464,4.464,0,0,1,.237,1.478Zm-1.642,0a3.468,3.468,0,0,0-.108-.895,2.3,2.3,0,0,0-.311-.7,1.474,1.474,0,0,0-.473-.45,1.189,1.189,0,0,0-.6-.157,1.21,1.21,0,0,0-.614.157,1.48,1.48,0,0,0-.475.45,2.265,2.265,0,0,0-.309.7,3.468,3.468,0,0,0-.11.895,3.384,3.384,0,0,0,.11.888,2.262,2.262,0,0,0,.309.693,1.466,1.466,0,0,0,.475.451,1.2,1.2,0,0,0,.614.158,1.186,1.186,0,0,0,.6-.158,1.459,1.459,0,0,0,.473-.451,2.3,2.3,0,0,0,.311-.693,3.381,3.381,0,0,0,.108-.888Z" transform="translate(-170.568 -1451.025)" fill="#cacaca"/>
      <path id="Path_914" data-name="Path 914" d="M465.332,1753.668v1.471h-4.939v-1.471h1.727v-3.685a1.323,1.323,0,0,1-.347.3,4.417,4.417,0,0,1-.516.284,3.637,3.637,0,0,1-.578.22,1.9,1.9,0,0,1-.529.085v-1.522a1.388,1.388,0,0,0,.536-.14,5.239,5.239,0,0,0,1.149-.723,1.228,1.228,0,0,0,.286-.3h1.668v5.471Z" transform="translate(-382.323 -1452.512)" fill="#cacaca"/>
      <path id="Path_915" data-name="Path 915" d="M502.316,1750.047a4.452,4.452,0,0,1-.237,1.479,3.628,3.628,0,0,1-.656,1.166,2.952,2.952,0,0,1-1,.767,2.923,2.923,0,0,1-3.491-.766,3.636,3.636,0,0,1-.656-1.167,4.737,4.737,0,0,1,0-2.957,3.647,3.647,0,0,1,.656-1.167,3.059,3.059,0,0,1,.991-.771,2.921,2.921,0,0,1,2.5,0,3.034,3.034,0,0,1,1,.771,3.651,3.651,0,0,1,.656,1.167,4.459,4.459,0,0,1,.237,1.478Zm-1.642,0a3.474,3.474,0,0,0-.108-.895,2.252,2.252,0,0,0-.311-.7,1.478,1.478,0,0,0-.474-.45,1.181,1.181,0,0,0-.6-.157,1.215,1.215,0,0,0-.614.157,1.487,1.487,0,0,0-.475.45,2.256,2.256,0,0,0-.31.7,3.469,3.469,0,0,0-.11.895,3.378,3.378,0,0,0,.11.888,2.273,2.273,0,0,0,.31.693,1.468,1.468,0,0,0,.475.45,1.213,1.213,0,0,0,.614.158,1.181,1.181,0,0,0,.6-.158,1.462,1.462,0,0,0,.474-.45,2.272,2.272,0,0,0,.311-.693A3.386,3.386,0,0,0,500.673,1750.047Z" transform="translate(-412.144 -1450.984)" fill="#cacaca"/>
      <path id="Path_916" data-name="Path 916" d="M737.1,1754.557a5.38,5.38,0,0,1,.085-.991,2.744,2.744,0,0,1,.3-.822,2.709,2.709,0,0,1,.584-.7,5.2,5.2,0,0,1,.942-.645c.338-.179.626-.338.881-.468a7.154,7.154,0,0,0,.639-.372,1.638,1.638,0,0,0,.389-.338.656.656,0,0,0,.133-.408.809.809,0,0,0-.291-.625,1.218,1.218,0,0,0-.846-.262,1.725,1.725,0,0,0-.534.078,1.92,1.92,0,0,0-.457.215,2.605,2.605,0,0,0-.389.3,3.626,3.626,0,0,0-.323.338l-1.045-1.2a2.669,2.669,0,0,1,.45-.373,4.313,4.313,0,0,1,.687-.377,5.122,5.122,0,0,1,.876-.291,4.367,4.367,0,0,1,1.029-.117,3.777,3.777,0,0,1,1.106.152,2.464,2.464,0,0,1,.822.425,1.859,1.859,0,0,1,.507.658,1.986,1.986,0,0,1,.169.833,1.709,1.709,0,0,1-.159.756,2.236,2.236,0,0,1-.4.584,3.243,3.243,0,0,1-.53.445c-.189.125-.374.235-.553.338-.146.079-.311.169-.507.281s-.371.22-.553.339a5.978,5.978,0,0,0-.508.388,1.848,1.848,0,0,0-.353.4h3.685v1.472Z" transform="translate(-612.431 -1451.929)" fill="#cacaca"/>
      <path id="Path_917" data-name="Path 917" d="M784.726,1750.047a4.41,4.41,0,0,1-.237,1.479,3.63,3.63,0,0,1-.656,1.166,2.95,2.95,0,0,1-1,.767,2.922,2.922,0,0,1-3.491-.766,3.636,3.636,0,0,1-.656-1.167,4.738,4.738,0,0,1,0-2.957,3.65,3.65,0,0,1,.656-1.167,3.058,3.058,0,0,1,.991-.771,2.921,2.921,0,0,1,2.5,0,3.035,3.035,0,0,1,1,.771,3.655,3.655,0,0,1,.656,1.167,4.427,4.427,0,0,1,.237,1.478Zm-1.641,0a3.451,3.451,0,0,0-.11-.895,2.251,2.251,0,0,0-.311-.7,1.479,1.479,0,0,0-.474-.45,1.181,1.181,0,0,0-.6-.157,1.215,1.215,0,0,0-.614.157,1.485,1.485,0,0,0-.475.45,2.243,2.243,0,0,0-.31.7,3.465,3.465,0,0,0-.11.895,3.375,3.375,0,0,0,.11.888,2.27,2.27,0,0,0,.309.693,1.467,1.467,0,0,0,.475.45,1.212,1.212,0,0,0,.614.158,1.182,1.182,0,0,0,.6-.158,1.462,1.462,0,0,0,.474-.45,2.269,2.269,0,0,0,.311-.693A3.383,3.383,0,0,0,783.085,1750.047Z" transform="translate(-646.789 -1450.984)" fill="#cacaca"/>
      <path id="Path_918" data-name="Path 918" d="M1018.571,1752.02a1.94,1.94,0,0,1,1.223.724,2.246,2.246,0,0,1,.469,1.441,2.348,2.348,0,0,1-.225,1.034,2.241,2.241,0,0,1-.633.784,2.966,2.966,0,0,1-.991.508,4.584,4.584,0,0,1-1.314.169,4.228,4.228,0,0,1-1.635-.3,3.047,3.047,0,0,1-1.184-.871l.924-1.155a2.2,2.2,0,0,0,.754.621,2.439,2.439,0,0,0,1.094.219,1.874,1.874,0,0,0,1.132-.291,1.058,1.058,0,0,0,.389-.9,1.151,1.151,0,0,0-.45-.973,2.263,2.263,0,0,0-1.364-.338h-.338v-1.218h.377a1.773,1.773,0,0,0,1.167-.338,1.057,1.057,0,0,0,.415-.858.845.845,0,0,0-.338-.74,1.485,1.485,0,0,0-.888-.246,1.946,1.946,0,0,0-1,.257,1.985,1.985,0,0,0-.734.726l-1.015-1.144a2,2,0,0,1,.487-.508,3.532,3.532,0,0,1,.687-.389,4.388,4.388,0,0,1,.834-.255,4.767,4.767,0,0,1,.924-.091,3.835,3.835,0,0,1,1.132.159,2.822,2.822,0,0,1,.883.438,1.881,1.881,0,0,1,.771,1.558,2.183,2.183,0,0,1-.108.692,2.05,2.05,0,0,1-.316.6,1.915,1.915,0,0,1-.494.45,1.689,1.689,0,0,1-.626.243Z" transform="translate(-842.731 -1452.262)" fill="#cacaca"/>
      <path id="Path_919" data-name="Path 919" d="M1062.167,1750.047a4.407,4.407,0,0,1-.239,1.479,3.6,3.6,0,0,1-.656,1.167,2.95,2.95,0,0,1-1,.766,2.988,2.988,0,0,1-2.5,0,2.954,2.954,0,0,1-.992-.767,3.635,3.635,0,0,1-.657-1.166,4.739,4.739,0,0,1,0-2.957,3.667,3.667,0,0,1,.657-1.167,3.037,3.037,0,0,1,.992-.771,2.921,2.921,0,0,1,2.5,0,3.024,3.024,0,0,1,1,.771,3.619,3.619,0,0,1,.656,1.167A4.413,4.413,0,0,1,1062.167,1750.047Zm-1.642,0a3.47,3.47,0,0,0-.11-.895,2.257,2.257,0,0,0-.31-.7,1.483,1.483,0,0,0-.475-.45,1.179,1.179,0,0,0-.6-.157,1.215,1.215,0,0,0-.614.157,1.48,1.48,0,0,0-.474.45,2.256,2.256,0,0,0-.31.7,3.4,3.4,0,0,0-.11.895,3.343,3.343,0,0,0,.11.888,2.273,2.273,0,0,0,.31.693,1.464,1.464,0,0,0,.474.45,1.212,1.212,0,0,0,.614.158,1.181,1.181,0,0,0,.6-.158,1.468,1.468,0,0,0,.475-.45,2.273,2.273,0,0,0,.31-.693A3.385,3.385,0,0,0,1060.525,1750.047Z" transform="translate(-877.304 -1450.984)" fill="#cacaca"/>
      <path id="Path_920" data-name="Path 920" d="M1296.842,1756.719v-1.813h-3.552v-1.448l4.075-5.228h1.108v5.216h1.071v1.46h-1.071v1.813Zm-1.921-3.273h2.1V1750.7Z" transform="translate(-1074.551 -1452.545)" fill="#cacaca"/>
      <path id="Path_921" data-name="Path 921" d="M1342.717,1750.048a4.465,4.465,0,0,1-.237,1.478,3.627,3.627,0,0,1-.658,1.167,2.939,2.939,0,0,1-1,.766,2.984,2.984,0,0,1-2.5,0,2.952,2.952,0,0,1-.991-.766,3.6,3.6,0,0,1-.656-1.167,4.7,4.7,0,0,1,0-2.957,3.617,3.617,0,0,1,.656-1.167,3.033,3.033,0,0,1,.991-.771,2.919,2.919,0,0,1,2.5,0,3.023,3.023,0,0,1,1,.771,3.646,3.646,0,0,1,.658,1.167A4.485,4.485,0,0,1,1342.717,1750.048Zm-1.643,0a3.463,3.463,0,0,0-.109-.9,2.278,2.278,0,0,0-.31-.7,1.462,1.462,0,0,0-.476-.45,1.181,1.181,0,0,0-.6-.157,1.211,1.211,0,0,0-.614.158,1.479,1.479,0,0,0-.473.45,2.294,2.294,0,0,0-.312.7,3.478,3.478,0,0,0-.11.895,3.4,3.4,0,0,0,.11.888,2.3,2.3,0,0,0,.312.693,1.471,1.471,0,0,0,.473.45,1.206,1.206,0,0,0,.614.159,1.181,1.181,0,0,0,.6-.159,1.44,1.44,0,0,0,.476-.45,2.28,2.28,0,0,0,.31-.693A3.384,3.384,0,0,0,1341.074,1750.048Z" transform="translate(-1110.402 -1450.984)" fill="#cacaca"/>
      <path id="Path_922" data-name="Path 922" d="M1570.963,1751.293a3.092,3.092,0,0,1,1.131.2,2.627,2.627,0,0,1,.9.565,2.58,2.58,0,0,1,.588.877,2.89,2.89,0,0,1,.213,1.13,2.93,2.93,0,0,1-.237,1.184,2.744,2.744,0,0,1-.663.918,3.126,3.126,0,0,1-1.015.6,3.668,3.668,0,0,1-1.265.213,3.512,3.512,0,0,1-1.691-.4,2.762,2.762,0,0,1-1.136-1.094l.937-.975a2.5,2.5,0,0,0,.846.756,2.186,2.186,0,0,0,1.059.28,1.509,1.509,0,0,0,1.076-.395,1.377,1.377,0,0,0,.42-1.052,1.353,1.353,0,0,0-1.4-1.412,1.592,1.592,0,0,0-.748.182,1.476,1.476,0,0,0-.553.507H1568a2.488,2.488,0,0,1,.047-.274c.032-.159.075-.36.124-.607s.1-.522.157-.828.117-.613.183-.93c.147-.744.307-1.582.485-2.5h4.257v1.483h-3.065l-.351,1.935a1.013,1.013,0,0,1,.431-.255,2.142,2.142,0,0,1,.7-.1Z" transform="translate(-1302.624 -1452.545)" fill="#cacaca"/>
      <path id="Path_923" data-name="Path 923" d="M1615.337,1750.048a4.394,4.394,0,0,1-.239,1.478,3.594,3.594,0,0,1-.656,1.167,2.94,2.94,0,0,1-1,.766,2.92,2.92,0,0,1-3.489-.766,3.63,3.63,0,0,1-.657-1.167,4.728,4.728,0,0,1,0-2.957,3.645,3.645,0,0,1,.657-1.167,3.042,3.042,0,0,1,.991-.771,2.918,2.918,0,0,1,2.5,0,3.031,3.031,0,0,1,1,.771,3.615,3.615,0,0,1,.656,1.167A4.415,4.415,0,0,1,1615.337,1750.048Zm-1.642,0a3.446,3.446,0,0,0-.108-.9,2.311,2.311,0,0,0-.311-.7,1.475,1.475,0,0,0-.475-.45,1.184,1.184,0,0,0-.6-.158,1.214,1.214,0,0,0-.614.158,1.469,1.469,0,0,0-.474.45,2.261,2.261,0,0,0-.311.7,3.5,3.5,0,0,0-.108.9,3.394,3.394,0,0,0,.108.887,2.269,2.269,0,0,0,.311.693,1.458,1.458,0,0,0,.474.45,1.208,1.208,0,0,0,.614.159,1.178,1.178,0,0,0,.6-.159,1.464,1.464,0,0,0,.475-.45,2.316,2.316,0,0,0,.311-.693A3.388,3.388,0,0,0,1613.695,1750.048Z" transform="translate(-1336.914 -1450.984)" fill="#cacaca"/>
      <path id="Path_924" data-name="Path 924" d="M1852.83,1743.69a2.9,2.9,0,0,1-.244,1.184,2.994,2.994,0,0,1-.676.956,3.151,3.151,0,0,1-1,.64,3.338,3.338,0,0,1-1.248.229,3.124,3.124,0,0,1-1.319-.269,2.726,2.726,0,0,1-1-.776,3.616,3.616,0,0,1-.63-1.247,5.871,5.871,0,0,1-.218-1.674,8.474,8.474,0,0,1,.23-2.084,4.5,4.5,0,0,1,.677-1.522,2.927,2.927,0,0,1,1.059-.93,3.024,3.024,0,0,1,1.386-.318,3.216,3.216,0,0,1,2.664,1.364l-.937,1.014a2.09,2.09,0,0,0-.754-.718,2.026,2.026,0,0,0-1-.254,1.549,1.549,0,0,0-1.3.644,3.074,3.074,0,0,0-.508,1.825,1.852,1.852,0,0,1,.724-.7,2.256,2.256,0,0,1,1.089-.255,3.193,3.193,0,0,1,1.184.219,2.921,2.921,0,0,1,.963.607,2.827,2.827,0,0,1,.87,2.056Zm-3.15,1.629a1.515,1.515,0,0,0,.608-.127,1.6,1.6,0,0,0,.508-.353,1.678,1.678,0,0,0,.338-.523,1.518,1.518,0,0,0,.129-.626,1.45,1.45,0,0,0-.129-.613,1.674,1.674,0,0,0-.338-.508,1.561,1.561,0,0,0-.508-.338,1.515,1.515,0,0,0-.614-.124,1.563,1.563,0,0,0-.621.124,1.505,1.505,0,0,0-.507.338,1.562,1.562,0,0,0-.339.507,1.545,1.545,0,0,0-.12.614,1.622,1.622,0,0,0,.474,1.142,1.691,1.691,0,0,0,.508.354,1.412,1.412,0,0,0,.614.133Z" transform="translate(-1534.183 -1443.945)" fill="#cacaca"/>
      <path id="Path_925" data-name="Path 925" d="M1896.635,1750.047a4.474,4.474,0,0,1-.237,1.479,3.628,3.628,0,0,1-.656,1.166,2.95,2.95,0,0,1-1,.767,2.921,2.921,0,0,1-3.491-.766,3.622,3.622,0,0,1-.656-1.167,4.732,4.732,0,0,1,0-2.957,3.641,3.641,0,0,1,.656-1.167,3.063,3.063,0,0,1,.99-.771,2.922,2.922,0,0,1,2.5,0,3.037,3.037,0,0,1,1,.771,3.649,3.649,0,0,1,.656,1.167,4.469,4.469,0,0,1,.237,1.478Zm-1.642,0a3.458,3.458,0,0,0-.109-.895,2.239,2.239,0,0,0-.309-.7,1.5,1.5,0,0,0-.476-.45,1.181,1.181,0,0,0-.6-.157,1.22,1.22,0,0,0-.616.157,1.488,1.488,0,0,0-.472.45,2.226,2.226,0,0,0-.311.7,3.49,3.49,0,0,0-.108.895,3.363,3.363,0,0,0,.108.888,2.229,2.229,0,0,0,.311.693,1.485,1.485,0,0,0,.472.45,1.226,1.226,0,0,0,.616.158,1.181,1.181,0,0,0,.6-.158,1.476,1.476,0,0,0,.476-.45,2.266,2.266,0,0,0,.309-.693A3.394,3.394,0,0,0,1894.994,1750.047Z" transform="translate(-1570.637 -1450.984)" fill="#cacaca"/>
      <path id="Path_926" data-name="Path 926" d="M2125.869,1748.843h-3.929v-1.483h6.5l-4.282,8.635h-1.848l3.563-7.152Z" transform="translate(-1763.048 -1451.823)" fill="#cacaca"/>
      <path id="Path_927" data-name="Path 927" d="M2169.065,1750.047a4.485,4.485,0,0,1-.235,1.479,3.639,3.639,0,0,1-.658,1.166,2.953,2.953,0,0,1-1,.767,2.923,2.923,0,0,1-3.492-.767,3.634,3.634,0,0,1-.655-1.166,4.729,4.729,0,0,1,0-2.957,3.645,3.645,0,0,1,.655-1.167,3.076,3.076,0,0,1,.992-.771,2.923,2.923,0,0,1,2.5,0,3.037,3.037,0,0,1,1,.771,3.65,3.65,0,0,1,.658,1.167,4.48,4.48,0,0,1,.235,1.478Zm-1.641,0a3.512,3.512,0,0,0-.109-.895,2.179,2.179,0,0,0-.312-.7,1.48,1.48,0,0,0-.473-.45,1.183,1.183,0,0,0-.6-.157,1.215,1.215,0,0,0-.615.157,1.515,1.515,0,0,0-.476.45,2.273,2.273,0,0,0-.309.7,3.437,3.437,0,0,0-.108.895,3.384,3.384,0,0,0,.108.888,2.29,2.29,0,0,0,.309.693,1.476,1.476,0,0,0,.476.45,1.212,1.212,0,0,0,.615.158,1.183,1.183,0,0,0,.6-.158,1.449,1.449,0,0,0,.473-.45,2.215,2.215,0,0,0,.312-.693A3.384,3.384,0,0,0,2167.424,1750.047Z" transform="translate(-1796.99 -1450.984)" fill="#cacaca"/>
      <path id="Path_928" data-name="Path 928" d="M2403.182,1744.319a2.348,2.348,0,0,1-.25,1.094,2.615,2.615,0,0,1-.677.845,3.094,3.094,0,0,1-1,.541,3.87,3.87,0,0,1-1.216.188,3.659,3.659,0,0,1-1.214-.2,3.066,3.066,0,0,1-1-.569,2.629,2.629,0,0,1-.668-.863,2.438,2.438,0,0,1-.246-1.095,1.854,1.854,0,0,1,.122-.677,2.449,2.449,0,0,1,.316-.567,2.579,2.579,0,0,1,.433-.448,2.441,2.441,0,0,1,.479-.316,2.067,2.067,0,0,1-.766-.656,1.607,1.607,0,0,1-.315-.963,1.99,1.99,0,0,1,.26-1.026,2.425,2.425,0,0,1,.677-.748,3.178,3.178,0,0,1,.926-.464,3.363,3.363,0,0,1,1-.159,3.5,3.5,0,0,1,1,.154,2.935,2.935,0,0,1,.931.457,2.542,2.542,0,0,1,.677.746,1.978,1.978,0,0,1,.266,1.028,1.569,1.569,0,0,1-.085.507,1.769,1.769,0,0,1-.238.462,2.067,2.067,0,0,1-.8.663,2.729,2.729,0,0,1,.948.795,2.354,2.354,0,0,1,.311.581,2,2,0,0,1,.115.691Zm-1.653-.1a1.155,1.155,0,0,0-.127-.548,1.253,1.253,0,0,0-.338-.408,1.649,1.649,0,0,0-.481-.25,1.812,1.812,0,0,0-.548-.084,1.707,1.707,0,0,0-.558.091,1.445,1.445,0,0,0-.468.262,1.322,1.322,0,0,0-.324.407,1.137,1.137,0,0,0-.121.53,1.1,1.1,0,0,0,.127.53,1.4,1.4,0,0,0,.337.406,1.481,1.481,0,0,0,.475.262,1.7,1.7,0,0,0,.547.091,1.6,1.6,0,0,0,.559-.1,1.542,1.542,0,0,0,.476-.268,1.284,1.284,0,0,0,.328-.407,1.111,1.111,0,0,0,.122-.516Zm-2.706-3.54a.872.872,0,0,0,.107.445,1,1,0,0,0,.287.315,1.355,1.355,0,0,0,.388.2,1.426,1.426,0,0,0,.858,0,1.263,1.263,0,0,0,.4-.2,1.022,1.022,0,0,0,.286-.322.856.856,0,0,0,.108-.443.842.842,0,0,0-.358-.717,1.408,1.408,0,0,0-.87-.269,1.343,1.343,0,0,0-.846.274.872.872,0,0,0-.353.724Z" transform="translate(-1991.51 -1444.245)" fill="#cacaca"/>
      <path id="Path_929" data-name="Path 929" d="M2446.966,1750.048a4.375,4.375,0,0,1-.239,1.478,3.577,3.577,0,0,1-.656,1.167,2.917,2.917,0,0,1-1,.766,2.986,2.986,0,0,1-2.5,0,2.935,2.935,0,0,1-.993-.766,3.594,3.594,0,0,1-.656-1.167,4.737,4.737,0,0,1,0-2.957,3.615,3.615,0,0,1,.656-1.167,3.023,3.023,0,0,1,.993-.771,2.917,2.917,0,0,1,2.5,0,3,3,0,0,1,1,.771,3.588,3.588,0,0,1,.656,1.167A4.388,4.388,0,0,1,2446.966,1750.048Zm-1.641,0a3.456,3.456,0,0,0-.111-.895,2.316,2.316,0,0,0-.311-.7,1.488,1.488,0,0,0-.474-.45,1.18,1.18,0,0,0-.6-.157,1.211,1.211,0,0,0-.615.157,1.484,1.484,0,0,0-.475.45,2.312,2.312,0,0,0-.309.7,3.354,3.354,0,0,0-.11.895,3.3,3.3,0,0,0,.11.888,2.3,2.3,0,0,0,.309.694,1.447,1.447,0,0,0,.476.45,1.192,1.192,0,0,0,.614.159,1.176,1.176,0,0,0,.6-.159,1.455,1.455,0,0,0,.474-.45,2.331,2.331,0,0,0,.311-.694A3.4,3.4,0,0,0,2445.326,1750.048Z" transform="translate(-2027.888 -1450.984)" fill="#cacaca"/>
      <path id="Path_930" data-name="Path 930" d="M2671.2,1751.225a2.922,2.922,0,0,1,.242-1.184,2.993,2.993,0,0,1,1.662-1.593,3.32,3.32,0,0,1,1.244-.23,3.17,3.17,0,0,1,1.321.265,2.693,2.693,0,0,1,1,.78,3.657,3.657,0,0,1,.639,1.246,5.791,5.791,0,0,1,.224,1.671,8.433,8.433,0,0,1-.235,2.087,4.736,4.736,0,0,1-.677,1.522,2.891,2.891,0,0,1-1.052.931,3.023,3.023,0,0,1-1.386.314,3.212,3.212,0,0,1-2.676-1.354l.937-1.015a2.064,2.064,0,0,0,1.764.956,1.535,1.535,0,0,0,1.3-.646,3.128,3.128,0,0,0,.507-1.823,1.738,1.738,0,0,1-.717.692,2.264,2.264,0,0,1-1.087.256,3.146,3.146,0,0,1-1.183-.22,2.894,2.894,0,0,1-.95-.607,2.846,2.846,0,0,1-.632-.92,2.809,2.809,0,0,1-.23-1.136Zm3.148-1.628a1.493,1.493,0,0,0-.613.127,1.656,1.656,0,0,0-.508.354,1.7,1.7,0,0,0-.338.522,1.557,1.557,0,0,0-.131.625,1.482,1.482,0,0,0,.131.614,1.758,1.758,0,0,0,.338.507,1.521,1.521,0,0,0,.508.338,1.638,1.638,0,0,0,1.241,0,1.5,1.5,0,0,0,.507-.338,1.758,1.758,0,0,0,.34-.507,1.5,1.5,0,0,0,.126-.614,1.566,1.566,0,0,0-.126-.625,1.627,1.627,0,0,0-.34-.517,1.812,1.812,0,0,0-.507-.354,1.451,1.451,0,0,0-.616-.132Z" transform="translate(-2219.409 -1452.535)" fill="#cacaca"/>
      <path id="Path_931" data-name="Path 931" d="M2721.046,1750.047a4.461,4.461,0,0,1-.235,1.478,3.7,3.7,0,0,1-.657,1.167,2.957,2.957,0,0,1-1,.766,2.992,2.992,0,0,1-2.5,0,2.95,2.95,0,0,1-.991-.766,3.71,3.71,0,0,1-.657-1.167,4.748,4.748,0,0,1,0-2.957,3.713,3.713,0,0,1,.657-1.167,3.046,3.046,0,0,1,.991-.771,2.921,2.921,0,0,1,2.5,0,3.055,3.055,0,0,1,1,.771,3.729,3.729,0,0,1,.657,1.167A4.466,4.466,0,0,1,2721.046,1750.047Zm-1.641,0a3.354,3.354,0,0,0-.11-.895,2.214,2.214,0,0,0-.311-.7,1.457,1.457,0,0,0-.473-.45,1.193,1.193,0,0,0-.6-.158,1.22,1.22,0,0,0-.615.158,1.5,1.5,0,0,0-.474.45,2.264,2.264,0,0,0-.308.7,3.479,3.479,0,0,0-.112.895,3.324,3.324,0,0,0,.112.888,2.3,2.3,0,0,0,.308.693,1.493,1.493,0,0,0,.474.45,1.2,1.2,0,0,0,.615.159,1.189,1.189,0,0,0,.6-.159,1.435,1.435,0,0,0,.473-.45,2.192,2.192,0,0,0,.311-.693A3.305,3.305,0,0,0,2719.4,1750.047Z" transform="translate(-2255.613 -1450.984)" fill="#cacaca"/>
      <path id="Path_932" data-name="Path 932" d="M2938.738,1753.669v1.471H2933.8v-1.471h1.728v-3.686a1.3,1.3,0,0,1-.347.3,4.292,4.292,0,0,1-.517.284,3.692,3.692,0,0,1-.577.22,1.937,1.937,0,0,1-.53.085v-1.522a1.363,1.363,0,0,0,.535-.141,4.592,4.592,0,0,0,.621-.338,4.969,4.969,0,0,0,.529-.383,1.3,1.3,0,0,0,.285-.3h1.657v5.472Z" transform="translate(-2437.396 -1452.513)" fill="#cacaca"/>
      <path id="Path_933" data-name="Path 933" d="M2975.7,1750.047a4.474,4.474,0,0,1-.235,1.478,3.647,3.647,0,0,1-.656,1.167,2.96,2.96,0,0,1-1,.766,2.994,2.994,0,0,1-2.5,0,2.955,2.955,0,0,1-.992-.766,3.7,3.7,0,0,1-.658-1.167,4.776,4.776,0,0,1,0-2.957,3.7,3.7,0,0,1,.658-1.167,3.05,3.05,0,0,1,.992-.771,2.924,2.924,0,0,1,2.5,0,3.063,3.063,0,0,1,1,.771,3.649,3.649,0,0,1,.656,1.167A4.479,4.479,0,0,1,2975.7,1750.047Zm-1.642,0a3.393,3.393,0,0,0-.109-.895,2.22,2.22,0,0,0-.311-.7,1.457,1.457,0,0,0-.473-.45,1.189,1.189,0,0,0-.6-.157,1.212,1.212,0,0,0-.613.157,1.49,1.49,0,0,0-.474.45,2.3,2.3,0,0,0-.31.7,3.52,3.52,0,0,0-.11.895,3.448,3.448,0,0,0,.11.888,2.291,2.291,0,0,0,.31.693,1.485,1.485,0,0,0,.474.45,1.207,1.207,0,0,0,.613.159,1.188,1.188,0,0,0,.6-.159,1.458,1.458,0,0,0,.473-.45,2.237,2.237,0,0,0,.311-.693A3.275,3.275,0,0,0,2974.062,1750.047Z" transform="translate(-2467.2 -1450.984)" fill="#cacaca"/>
      <path id="Path_934" data-name="Path 934" d="M3019.856,1750.047a4.48,4.48,0,0,1-.237,1.479,3.648,3.648,0,0,1-.657,1.166,2.953,2.953,0,0,1-1,.767,2.922,2.922,0,0,1-3.491-.767,3.647,3.647,0,0,1-.656-1.166,4.743,4.743,0,0,1,0-2.957,3.669,3.669,0,0,1,.657-1.167,3.04,3.04,0,0,1,.992-.771,2.921,2.921,0,0,1,2.5,0,3.039,3.039,0,0,1,1,.771,3.668,3.668,0,0,1,.656,1.167,4.475,4.475,0,0,1,.237,1.478Zm-1.643,0a3.439,3.439,0,0,0-.11-.895,2.263,2.263,0,0,0-.308-.7,1.477,1.477,0,0,0-.476-.45,1.177,1.177,0,0,0-.6-.157,1.221,1.221,0,0,0-.615.157,1.52,1.52,0,0,0-.475.45,2.3,2.3,0,0,0-.309.7,3.521,3.521,0,0,0-.11.895,3.448,3.448,0,0,0,.11.888,2.3,2.3,0,0,0,.31.693,1.513,1.513,0,0,0,.474.45,1.209,1.209,0,0,0,.615.158,1.178,1.178,0,0,0,.6-.158,1.466,1.466,0,0,0,.476-.45,2.274,2.274,0,0,0,.308-.693A3.365,3.365,0,0,0,3018.213,1750.047Z" transform="translate(-2503.883 -1450.984)" fill="#cacaca"/>
      <path id="Path_935" data-name="Path 935" d="M5.749,564.428a5.21,5.21,0,0,1,.086-.991,2.66,2.66,0,0,1,.294-.82,2.739,2.739,0,0,1,.584-.705,5.173,5.173,0,0,1,.939-.645l.883-.468a6.815,6.815,0,0,0,.639-.372,1.57,1.57,0,0,0,.389-.338.655.655,0,0,0,.134-.408.813.813,0,0,0-.291-.628,1.218,1.218,0,0,0-.846-.26,1.733,1.733,0,0,0-.536.078,2.077,2.077,0,0,0-.455.213,2.773,2.773,0,0,0-.391.3,3.44,3.44,0,0,0-.321.347l-1.045-1.2a2.569,2.569,0,0,1,.462-.383,4.4,4.4,0,0,1,.687-.377,5.018,5.018,0,0,1,.876-.291,4.307,4.307,0,0,1,1.027-.117,3.708,3.708,0,0,1,1.108.152,2.427,2.427,0,0,1,.82.426,1.832,1.832,0,0,1,.507.656,1.955,1.955,0,0,1,.169.834,1.714,1.714,0,0,1-.157.753,2.324,2.324,0,0,1-.4.585,3.119,3.119,0,0,1-.529.443q-.286.191-.553.338l-.507.279c-.188.107-.372.222-.555.347a6.149,6.149,0,0,0-.507.389,1.845,1.845,0,0,0-.353.4h3.707v1.471Z" transform="translate(-4.776 -463.09)" fill="#cacaca"/>
      <path id="Path_936" data-name="Path 936" d="M53.352,559.927a4.408,4.408,0,0,1-.238,1.478,3.631,3.631,0,0,1-.656,1.167,2.923,2.923,0,0,1-1,.766,2.987,2.987,0,0,1-2.5,0,2.922,2.922,0,0,1-.991-.766,3.635,3.635,0,0,1-.658-1.167,4.736,4.736,0,0,1,0-2.957,3.653,3.653,0,0,1,.658-1.167,3.031,3.031,0,0,1,.991-.771,2.923,2.923,0,0,1,2.5,0,3.028,3.028,0,0,1,1,.771,3.653,3.653,0,0,1,.656,1.167,4.421,4.421,0,0,1,.238,1.478Zm-1.642,0a3.447,3.447,0,0,0-.11-.893,2.253,2.253,0,0,0-.313-.7,1.479,1.479,0,0,0-.472-.451,1.184,1.184,0,0,0-.6-.157,1.213,1.213,0,0,0-.617.157,1.472,1.472,0,0,0-.474.45,2.252,2.252,0,0,0-.311.7,3.444,3.444,0,0,0-.108.893,3.384,3.384,0,0,0,.108.888,2.268,2.268,0,0,0,.311.693,1.46,1.46,0,0,0,.474.452,1.194,1.194,0,0,0,.614.159,1.17,1.17,0,0,0,.6-.159,1.461,1.461,0,0,0,.475-.45,2.263,2.263,0,0,0,.31-.693,3.385,3.385,0,0,0,.11-.888Z" transform="translate(-39.11 -462.153)" fill="#cacaca"/>
      <path id="Path_937" data-name="Path 937" d="M96.056,563.548v1.471H91.117v-1.471h1.727v-3.685a1.307,1.307,0,0,1-.338.3,5.279,5.279,0,0,1-.518.286,3.929,3.929,0,0,1-.589.218,1.984,1.984,0,0,1-.529.085v-1.522a1.374,1.374,0,0,0,.536-.139,4.465,4.465,0,0,0,.619-.338,4.917,4.917,0,0,0,.529-.384,1.27,1.27,0,0,0,.286-.3h1.666v5.473Z" transform="translate(-75.501 -463.681)" fill="#cacaca"/>
      <path id="Path_938" data-name="Path 938" d="M132.686,554.157a2.366,2.366,0,0,1-.249,1.094,2.651,2.651,0,0,1-.677.846,3.128,3.128,0,0,1-1,.539,3.811,3.811,0,0,1-1.216.189,3.642,3.642,0,0,1-1.216-.2,3.069,3.069,0,0,1-1-.565,2.664,2.664,0,0,1-.677-.864,2.453,2.453,0,0,1-.242-1.094,1.827,1.827,0,0,1,.122-.677,2.245,2.245,0,0,1,.316-.565,2.677,2.677,0,0,1,.912-.766,2.054,2.054,0,0,1-.766-.658,1.6,1.6,0,0,1-.316-.961,1.968,1.968,0,0,1,.262-1.027,2.417,2.417,0,0,1,.677-.748,3.137,3.137,0,0,1,.923-.474,3.341,3.341,0,0,1,1-.157,3.6,3.6,0,0,1,1,.151,2.962,2.962,0,0,1,.93.457,2.549,2.549,0,0,1,.676.747,1.961,1.961,0,0,1,.277,1.035,1.585,1.585,0,0,1-.084.507,1.812,1.812,0,0,1-.237.462,1.978,1.978,0,0,1-.36.382,2.077,2.077,0,0,1-.436.28,2.687,2.687,0,0,1,.507.339,2.722,2.722,0,0,1,.438.463,2.332,2.332,0,0,1,.309.577,2.03,2.03,0,0,1,.115.693Zm-1.654-.1a1.167,1.167,0,0,0-.127-.548,1.248,1.248,0,0,0-.338-.408,1.507,1.507,0,0,0-.48-.248,1.761,1.761,0,0,0-.546-.086,1.717,1.717,0,0,0-.56.091,1.445,1.445,0,0,0-.469.262,1.309,1.309,0,0,0-.321.408,1.141,1.141,0,0,0-.122.53,1.1,1.1,0,0,0,.127.528,1.324,1.324,0,0,0,.338.407,1.521,1.521,0,0,0,.474.262,1.7,1.7,0,0,0,.548.091,1.6,1.6,0,0,0,.56-.1,1.579,1.579,0,0,0,.474-.267,1.259,1.259,0,0,0,.328-.408,1.109,1.109,0,0,0,.122-.507Zm-2.706-3.54a.875.875,0,0,0,.11.445.993.993,0,0,0,.286.315,1.331,1.331,0,0,0,.389.2,1.439,1.439,0,0,0,.431.066,1.466,1.466,0,0,0,.425-.066,1.249,1.249,0,0,0,.4-.2,1.069,1.069,0,0,0,.286-.323.867.867,0,0,0,.11-.443.846.846,0,0,0-.359-.717,1.411,1.411,0,0,0-.869-.269,1.351,1.351,0,0,0-.846.274.872.872,0,0,0-.352.724Z" transform="translate(-105.029 -455.373)" fill="#cacaca"/>
      <path id="Path_939" data-name="Path 939" d="M0,282.515a5.362,5.362,0,0,1,.085-.991,2.716,2.716,0,0,1,.3-.822A2.767,2.767,0,0,1,.967,280a5.362,5.362,0,0,1,.942-.644c.338-.169.626-.338.881-.469a7.028,7.028,0,0,0,.639-.37,1.567,1.567,0,0,0,.389-.347.654.654,0,0,0,.134-.408.81.81,0,0,0-.291-.626,1.221,1.221,0,0,0-.846-.262,1.724,1.724,0,0,0-.534.079,2.005,2.005,0,0,0-.457.213,2.511,2.511,0,0,0-.389.3,3.241,3.241,0,0,0-.321.338L.072,276.6a2.8,2.8,0,0,1,.45-.37,4.132,4.132,0,0,1,.688-.377,5.008,5.008,0,0,1,.874-.293,4.453,4.453,0,0,1,1.028-.115,3.721,3.721,0,0,1,1.108.152,2.458,2.458,0,0,1,.82.424,1.838,1.838,0,0,1,.507.658,1.979,1.979,0,0,1,.169.832,1.723,1.723,0,0,1-.157.754,2.286,2.286,0,0,1-.4.584,3.046,3.046,0,0,1-.528.445c-.191.125-.375.237-.555.338l-.5.279c-.186.1-.37.222-.553.347a5.541,5.541,0,0,0-.507.389,1.806,1.806,0,0,0-.353.4h3.7v1.471Z" transform="translate(0.001 -228.86)" fill="#cacaca"/>
      <path id="Path_940" data-name="Path 940" d="M47.626,278.038a4.413,4.413,0,0,1-.237,1.478,3.648,3.648,0,0,1-.656,1.167,2.94,2.94,0,0,1-3.5.766,3.006,3.006,0,0,1-.991-.766,3.648,3.648,0,0,1-.656-1.167,4.735,4.735,0,0,1,0-2.956,3.629,3.629,0,0,1,.656-1.167,3.069,3.069,0,0,1,.991-.765,2.938,2.938,0,0,1,2.5,0,3.024,3.024,0,0,1,1,.773,3.63,3.63,0,0,1,.656,1.167,4.406,4.406,0,0,1,.237,1.478Zm-1.642,0a3.458,3.458,0,0,0-.108-.895,2.223,2.223,0,0,0-.311-.7,1.458,1.458,0,0,0-.474-.45,1.184,1.184,0,0,0-.6-.159,1.213,1.213,0,0,0-.614.159,1.458,1.458,0,0,0-.474.45,2.223,2.223,0,0,0-.311.7,3.457,3.457,0,0,0-.11.895,3.382,3.382,0,0,0,.11.888,2.247,2.247,0,0,0,.311.693,1.474,1.474,0,0,0,.474.45,1.211,1.211,0,0,0,.614.157,1.185,1.185,0,0,0,.6-.157,1.474,1.474,0,0,0,.474-.45,2.246,2.246,0,0,0,.311-.693A3.382,3.382,0,0,0,45.983,278.038Z" transform="translate(-34.357 -227.948)" fill="#cacaca"/>
      <path id="Path_941" data-name="Path 941" d="M84.709,282.514a5.362,5.362,0,0,1,.085-.991,2.673,2.673,0,0,1,.3-.822A2.732,2.732,0,0,1,85.68,280a5.351,5.351,0,0,1,.939-.644c.338-.169.626-.338.881-.468a7.358,7.358,0,0,0,.639-.37,1.568,1.568,0,0,0,.389-.347.654.654,0,0,0,.134-.408.812.812,0,0,0-.293-.626,1.212,1.212,0,0,0-.846-.262,1.73,1.73,0,0,0-.534.079,2.008,2.008,0,0,0-.457.213,2.517,2.517,0,0,0-.389.3,3.258,3.258,0,0,0-.321.338l-1.047-1.2a2.726,2.726,0,0,1,.45-.37,4.149,4.149,0,0,1,.688-.377,5.013,5.013,0,0,1,.874-.284,4.448,4.448,0,0,1,1.028-.115,3.7,3.7,0,0,1,1.106.152,2.452,2.452,0,0,1,.822.425,1.859,1.859,0,0,1,.507.658,1.979,1.979,0,0,1,.169.832,1.723,1.723,0,0,1-.157.754,2.283,2.283,0,0,1-.4.584,2.99,2.99,0,0,1-.529.445q-.284.188-.553.338l-.507.279c-.186.1-.37.222-.553.347a5.566,5.566,0,0,0-.507.389,1.761,1.761,0,0,0-.354.4h3.685v1.471Z" transform="translate(-70.382 -228.86)" fill="#cacaca"/>
      <path id="Path_942" data-name="Path 942" d="M132.336,278.035a4.413,4.413,0,0,1-.237,1.478,3.651,3.651,0,0,1-.656,1.167,2.927,2.927,0,0,1-4.489,0,3.651,3.651,0,0,1-.656-1.167,4.736,4.736,0,0,1,0-2.957,3.632,3.632,0,0,1,.656-1.167,3.069,3.069,0,0,1,.991-.764,2.936,2.936,0,0,1,2.5,0,3.043,3.043,0,0,1,1,.773,3.631,3.631,0,0,1,.656,1.167,4.407,4.407,0,0,1,.237,1.478Zm-1.642,0a3.462,3.462,0,0,0-.108-.895,2.225,2.225,0,0,0-.311-.7,1.458,1.458,0,0,0-.474-.45,1.184,1.184,0,0,0-.6-.159,1.212,1.212,0,0,0-.614.159,1.461,1.461,0,0,0-.475.45,2.264,2.264,0,0,0-.31.7,3.46,3.46,0,0,0-.11.895,3.386,3.386,0,0,0,.11.888,2.285,2.285,0,0,0,.31.693,1.479,1.479,0,0,0,.475.45,1.211,1.211,0,0,0,.614.157,1.184,1.184,0,0,0,.6-.157,1.475,1.475,0,0,0,.474-.45,2.246,2.246,0,0,0,.311-.693A3.383,3.383,0,0,0,130.693,278.035Z" transform="translate(-104.74 -227.944)" fill="#cacaca"/>
    </g>
  </g>
</svg>
