<svg xmlns="http://www.w3.org/2000/svg" xmlns:xlink="http://www.w3.org/1999/xlink" width="25.373" height="25.373" viewBox="0 0 25.373 25.373">
  <defs>
    <clipPath id="clip-path">
      <path id="Path_25349" data-name="Path 25349" d="M154.623,12.687A12.687,12.687,0,1,1,141.937,0a12.687,12.687,0,0,1,12.687,12.687Z" transform="translate(-129.25)" fill="#72bcc6"/>
    </clipPath>
  </defs>
  <g id="Group_212" data-name="Group 212" transform="translate(-713.25 -531.293)">
    <path id="Path_25336" data-name="Path 25336" d="M154.623,12.687A12.687,12.687,0,1,1,141.937,0a12.687,12.687,0,0,1,12.687,12.687Z" transform="translate(584 531.293)" fill="#72bcc6"/>
    <g id="Group_207" data-name="Group 207" transform="translate(713.25 531.293)" clip-path="url(#clip-path)">
      <path id="Path_25337" data-name="Path 25337" d="M163,81.628c-.8-.995-7.107-3.178-7.107-3.178s-6.177,2.414-7.109,3.178-1.277,5.582-1.277,5.582H164.1S163.8,82.621,163,81.628Z" transform="translate(-143.57 -61.524)" fill="#003662"/>
      <path id="Path_25338" data-name="Path 25338" d="M181.1,73.026a1.51,1.51,0,0,1-.882.969c-.27.121-.619,1.659-1.079,1.659s-.844-1.547-1.12-1.679a1.493,1.493,0,0,1-.835-.949,2.589,2.589,0,0,0,0-2.058c-.477-1.111,4.492-1.336,3.91,0A2.012,2.012,0,0,0,181.1,73.026Z" transform="translate(-166.815 -54.935)" fill="#dda778"/>
      <path id="Path_25339" data-name="Path 25339" d="M170.88,19.637c.362-1.633.8-4.037.8-4.037,1.51-3.366-.056-8.44-2.975-6.881-3.612-3.3-9.325,1.314-7.392,6.835a38.8,38.8,0,0,0,.608,4.136c.432,1.808,3.543,3.154,4.494,3.206S170.494,21.368,170.88,19.637Z" transform="translate(-154.092 -5.971)" fill="#281511"/>
      <path id="Path_25340" data-name="Path 25340" d="M205.422,44.673c0,.88-.624,2.093-1.046,2.093s-.762-.716-.762-1.6a1.89,1.89,0,0,1,.762-1.6C204.775,43.253,205.422,43.573,205.422,44.673Z" transform="translate(-187.568 -34.079)" fill="#f9bb8d"/>
      <path id="Path_25341" data-name="Path 25341" d="M161.36,44.673c0,.88.626,2.093,1.046,2.093s.764-.716.764-1.6a1.89,1.89,0,0,0-.764-1.6C162,43.253,161.36,43.573,161.36,44.673Z" transform="translate(-154.432 -34.079)" fill="#f9bb8d"/>
      <path id="Path_25342" data-name="Path 25342" d="M171.222,16.69c-2.962,0-4.272,2.076-4.272,5.178v3.884c0,2.7,3.116,5,4.1,5s4.445-2.695,4.445-5.252V21.862C175.5,18.766,174.187,16.69,171.222,16.69Z" transform="translate(-158.816 -13.089)" fill="#f9bb8d"/>
      <path id="Path_25343" data-name="Path 25343" d="M174.979,23.085l.265-2.261c0-3.1-1.575-5.394-4.531-5.394s-4.423,2.306-4.423,5.394l.151,2.757a2.891,2.891,0,0,0,.319-1.465c-.071-1.987,1.32-2.158,2.941-2.475a4.39,4.39,0,0,0,3.273-2.02,2.652,2.652,0,0,1,1.374,1.532,6.79,6.79,0,0,1,.4,2.55,5.474,5.474,0,0,0,.231,1.381Z" transform="translate(-158.298 -12.101)" fill="#281511"/>
      <path id="Path_25344" data-name="Path 25344" d="M168.324,40.43c-1.148,0-1.864.432-1.864.88,0,.718.263,1.884,1.4,2.022a2.039,2.039,0,0,0,2.539-2.1C170.4,40.8,169.47,40.43,168.324,40.43Zm-.382,2.695c-.975-.117-1.2-1.115-1.2-1.726,0-.388.613-.753,1.594-.753s1.778.319,1.778.684A1.746,1.746,0,0,1,167.942,43.125Z" transform="translate(-158.432 -31.707)" fill="#ac0f09"/>
      <path id="Path_25345" data-name="Path 25345" d="M184.8,43.451a.4.4,0,0,0-.432-.278c-.261,0-.326.306-.326.306l-.138-.809a.7.7,0,0,0,.317.164,1.294,1.294,0,0,0,.345,0,.513.513,0,0,0,.233-.164Z" transform="translate(-172.109 -33.464)" fill="#ac0f09"/>
      <path id="Path_25346" data-name="Path 25346" d="M165.7,44.243s-.412-.03-.412-.242v-.647c0-.332.412-.216.412-.216Z" transform="translate(-157.514 -33.815)" fill="#ac0f09"/>
      <path id="Path_25347" data-name="Path 25347" d="M187.19,41.23a2.039,2.039,0,0,0,2.539,2.1c1.137-.138,1.4-1.295,1.4-2.022,0-.453-.716-.88-1.864-.88S187.19,40.8,187.19,41.23Zm.285.095c0-.365.794-.684,1.776-.684s1.594.365,1.594.753c0,.615-.216,1.614-1.2,1.726S187.475,42.9,187.475,41.325Z" transform="translate(-174.689 -31.707)" fill="#ac0f09"/>
      <path id="Path_25348" data-name="Path 25348" d="M204.71,44.243s.412-.03.412-.242v-.647c0-.332-.412-.216-.412-.216Z" transform="translate(-188.429 -33.815)" fill="#ac0f09"/>
    </g>
  </g>
</svg>
