<svg xmlns="http://www.w3.org/2000/svg" width="13.516" height="13.502" viewBox="0 0 13.516 13.502">
  <g id="_2075801_deal_discount_percent_promo_promotion_icon" data-name="2075801_deal_discount_percent_promo_promotion_icon" transform="translate(0.28 0.277)">
    <path id="Path_25478" data-name="Path 25478" d="M12.049,4.659V2.781L10.16,1.837,8.323,0,6.478.461,4.633,0,2.8,1.837.908,2.781V4.659L0,6.474.908,8.289v1.878l1.889.944,1.837,1.837,1.845-.461,1.845.461,1.837-1.837,1.889-.944V8.289l.908-1.815Zm-.857,3.428v1.55l-1.478.739L8.061,12l-1.583-.4L4.9,12,3.353,10.456,1.764,9.636V8.087L.958,6.474l.806-1.613V3.311l1.478-.739L4.9.949l1.583.4,1.583-.4L9.6,2.491l1.589.819v1.55L12,6.474Z" fill="#fff" stroke="#fff" stroke-width="0.5"/>
    <rect id="Rectangle_5069" data-name="Rectangle 5069" width="7.272" height="0.857" transform="translate(3.604 8.742) rotate(-45)" fill="#fff"/>
    <path id="Path_25479" data-name="Path 25479" d="M5.345,6.625A1.286,1.286,0,1,0,4.059,5.34,1.287,1.287,0,0,0,5.345,6.625Zm0-1.714a.429.429,0,1,1-.429.429A.429.429,0,0,1,5.345,4.911Z" transform="translate(-0.58 -0.58)" fill="#fff"/>
    <path id="Path_25480" data-name="Path 25480" d="M9.345,8.054A1.286,1.286,0,1,0,10.63,9.34,1.287,1.287,0,0,0,9.345,8.054Zm0,1.714a.429.429,0,1,1,.429-.429A.429.429,0,0,1,9.345,9.768Z" transform="translate(-1.152 -1.151)" fill="#fff"/>
  </g>
</svg>
