<svg xmlns="http://www.w3.org/2000/svg" width="10.95" height="12.486" viewBox="0 0 10.95 12.486">
  <g id="_728995_clipboard_analysis_chart_checklist_data_icon" data-name="728995_clipboard_analysis_chart_checklist_data_icon" transform="translate(-7.9 0.1)">
    <g id="Group_194" data-name="Group 194" transform="translate(8)">
      <g id="Group_193" data-name="Group 193" transform="translate(0)">
        <path id="Path_25247" data-name="Path 25247" d="M17.214,2.3h-.981a1.529,1.529,0,0,0-1.323-.768,1.536,1.536,0,1,0-3.071,0,1.529,1.529,0,0,0-1.323.768H9.536A1.536,1.536,0,0,0,8,3.839V10.75a1.536,1.536,0,0,0,1.536,1.536h7.679A1.536,1.536,0,0,0,18.75,10.75V3.839A1.536,1.536,0,0,0,17.214,2.3Zm-6.143.768a.768.768,0,0,1,.768-.768h.768V1.536a.768.768,0,0,1,1.536,0V2.3h.768a.768.768,0,0,1,.768.768v.768H11.071Zm5.375,1.536V9.982H10.3V4.607Zm1.536,6.143a.768.768,0,0,1-.768.768H9.536a.768.768,0,0,1-.768-.768V3.839a.768.768,0,0,1,.768-.768H10.3v.768H9.536V10.75h7.679V3.839h-.768V3.071h.768a.768.768,0,0,1,.768.768ZM14.143,3.071V2.3H12.607v.768Z" transform="translate(-8)" fill="#fff" stroke="#fff" stroke-width="0.2"/>
      </g>
    </g>
    <path id="Path_25248" data-name="Path 25248" d="M44.607,56H40v.768h4.607Z" transform="translate(-28.929 -49.625)" fill="#fff"/>
    <path id="Path_25250" data-name="Path 25250" d="M42.3,88H40v.768h2.3Z" transform="translate(-28.929 -79.554)" fill="#fff"/>
  </g>
</svg>
