<svg xmlns="http://www.w3.org/2000/svg" width="12.459" height="13.294" viewBox="0 0 12.459 13.294">
  <g id="receipt" transform="translate(-0.512 0.255)">
    <path id="Path_25475" data-name="Path 25475" d="M9.379,12.07a.447.447,0,0,1-.447-.447V4.519a.447.447,0,0,1,.893,0v7.105a.447.447,0,0,1-.447.447Zm-8.17-.025a.447.447,0,0,1-.439-.454V2.622A2.246,2.246,0,0,1,2.86.25h7.93a.447.447,0,1,1,0,.893H2.86a1.362,1.362,0,0,0-1.2,1.479v8.97a.447.447,0,0,1-.454.454Z" transform="translate(-0.004 -0.148)" fill="#fff" stroke="#fff" stroke-width="0.5"/>
    <path id="Path_25476" data-name="Path 25476" d="M2.531,12.783a.454.454,0,0,1-.214-.054L1,12.015a.447.447,0,0,1,.425-.786l1.107.6,1.1-.6a.457.457,0,0,1,.429,0l1.1.6,1.107-.6a.45.45,0,0,1,.425,0l1.107.6,1.111-.6a.447.447,0,1,1,.425.786l-1.322.714a.45.45,0,0,1-.425,0l-1.111-.6-1.1.6a.45.45,0,0,1-.425,0l-1.107-.6-1.107.6A.439.439,0,0,1,2.531,12.783Zm9.749-6.944h-2.9a.447.447,0,0,1-.447-.447V2a1.9,1.9,0,1,1,3.79,0V5.392a.447.447,0,0,1-.439.447ZM9.829,4.946h2V2a1,1,0,1,0-2,0ZM5.156,6.36a1.2,1.2,0,0,1-1.275-1.1.357.357,0,0,1,.714,0c0,.207.257.386.561.386s.557-.179.557-.386-.257-.386-.557-.386H5.046A1.179,1.179,0,0,1,3.91,3.781a1.2,1.2,0,0,1,1.275-1.1,1.2,1.2,0,0,1,1.272,1.1.357.357,0,1,1-.714,0c0-.211-.257-.386-.557-.386s-.561.175-.561.386.214.357.482.379h.071a1.186,1.186,0,0,1,1.247,1.1A1.2,1.2,0,0,1,5.156,6.36Z" transform="translate(0 0)" fill="#fff" stroke="#fff" stroke-width="0.5"/>
    <path id="Path_25477" data-name="Path 25477" d="M9.533,10.743a.357.357,0,0,1-.357-.357v-.5a.357.357,0,0,1,.714,0v.5A.357.357,0,0,1,9.533,10.743Zm0-3.469a.357.357,0,0,1-.357-.357v-.5a.357.357,0,1,1,.714,0v.5A.357.357,0,0,1,9.533,7.275Zm1.625,5.576H7.907a.357.357,0,1,1,0-.714h3.251a.357.357,0,0,1,0,.714Z" transform="translate(-4.362 -3.883)" fill="#fff"/>
  </g>
</svg>
