<svg xmlns="http://www.w3.org/2000/svg" width="13.744" height="12.214" viewBox="0 0 13.744 12.214">
  <g id="_6590525_copy_duplicate_email_emails_mails_icon" data-name="6590525_copy_duplicate_email_emails_mails_icon" transform="translate(-0.628 -2)">
    <path id="Path_25244" data-name="Path 25244" d="M2,16l3.929,2.357L9.857,16" transform="translate(0 -7.893)" fill="none" stroke="#fff" stroke-linecap="round" stroke-linejoin="round" stroke-width="2"/>
    <path id="Path_25245" data-name="Path 25245" d="M8.286,11H3.571A1.576,1.576,0,0,0,2,12.571V16.5a1.576,1.576,0,0,0,1.571,1.571H8.286A1.576,1.576,0,0,0,9.857,16.5V12.571A1.576,1.576,0,0,0,8.286,11Z" transform="translate(0 -4.857)" fill="none" stroke="#fff" stroke-linecap="round" stroke-linejoin="round" stroke-width="2"/>
    <line id="Line_205" data-name="Line 205" y1="2.004" x2="3.339" transform="translate(9.661 4.964)" fill="none" stroke="#fff" stroke-linecap="round" stroke-linejoin="round" stroke-width="2"/>
    <path id="Path_25246" data-name="Path 25246" d="M14.714,10.071h1.571A1.576,1.576,0,0,0,17.857,8.5V4.571A1.576,1.576,0,0,0,16.286,3H11.571A1.576,1.576,0,0,0,10,4.571V6.143" transform="translate(-4.857)" fill="none" stroke="#fff" stroke-linecap="round" stroke-linejoin="round" stroke-width="2"/>
  </g>
</svg>
