<svg id="_3994342_alarm_clock_hour_time_watch_icon" data-name="3994342_alarm_clock_hour_time_watch_icon" xmlns="http://www.w3.org/2000/svg" width="21" height="21" viewBox="0 0 21 21">
  <path id="Path_24440" data-name="Path 24440" d="M10.5,0A10.5,10.5,0,1,0,21,10.5,10.5,10.5,0,0,0,10.5,0Zm0,18.375A7.875,7.875,0,1,1,18.375,10.5,7.875,7.875,0,0,1,10.5,18.375Z" fill="#e42222"/>
  <path id="Path_24441" data-name="Path 24441" d="M47.25,27.938H44.625V25.313a1.313,1.313,0,0,0-2.625,0V29.25a1.312,1.312,0,0,0,1.313,1.312H47.25a1.312,1.312,0,0,0,0-2.625Z" transform="translate(-32.813 -18.75)" fill="#e42222"/>
</svg>
