<svg width="28" height="25" viewBox="0 0 28 25" fill="none" xmlns="http://www.w3.org/2000/svg">
<path fill-rule="evenodd" clip-rule="evenodd" d="M19.8235 0.5C23.986 0.5 27.1248 3.89625 27.1248 8.4V16.985C27.1248 19.29 26.3098 21.3725 24.8285 22.85C23.4998 24.1737 21.776 24.875 19.8435 24.875H7.52726C5.59851 24.875 3.87601 24.175 2.54601 22.85C1.06476 21.3725 0.249756 19.29 0.249756 16.985V8.4C0.249756 3.89625 3.38851 0.5 7.55101 0.5H19.8235ZM19.8235 2.375H7.55101C4.40726 2.375 2.12476 4.90875 2.12476 8.4V16.985C2.12476 18.7887 2.74476 20.4 3.86976 21.5212C4.83976 22.49 6.10601 23 7.53101 23H19.8235C19.826 22.9975 19.836 23 19.8435 23C21.2698 23 22.5348 22.49 23.5048 21.5212C24.631 20.4 25.2498 18.7887 25.2498 16.985V8.4C25.2498 4.90875 22.9673 2.375 19.8235 2.375ZM21.7935 8.161C22.1198 8.56225 22.0585 9.15225 21.6573 9.47975L16.1023 13.9948C15.3998 14.5522 14.5598 14.831 13.721 14.831C12.8848 14.831 12.051 14.5547 11.3535 14.0022L5.74726 9.48225C5.34351 9.15725 5.28101 8.566 5.60476 8.1635C5.93101 7.76225 6.52101 7.6985 6.92351 8.02225L12.5248 12.5372C13.2285 13.0947 14.2198 13.0948 14.9285 12.5323L20.4735 8.02475C20.876 7.696 21.466 7.7585 21.7935 8.161Z" fill="white"/>
</svg>
