<svg width="27" height="27" viewBox="0 0 27 27" fill="none" xmlns="http://www.w3.org/2000/svg">
<path fill-rule="evenodd" clip-rule="evenodd" d="M3.44945 4.32565C3.45195 4.32565 3.38945 4.39065 3.3107 4.46815C3.0082 4.7619 2.38195 5.37315 2.37564 6.6519C2.3657 8.44065 3.54195 11.7619 9.2057 17.4244C14.8432 23.0594 18.1595 24.2494 19.952 24.2494H19.9782C21.257 24.2432 21.867 23.6157 22.162 23.3144C22.252 23.2219 22.3244 23.1544 22.3757 23.1119C23.6207 21.8594 24.2582 20.9269 24.252 20.3294C24.2432 19.7194 23.4845 18.9982 22.4357 18.0007C22.1019 17.6832 21.7394 17.3382 21.3569 16.9557C20.3657 15.9669 19.8745 16.1357 18.7945 16.5157C17.3007 17.0394 15.2507 17.7519 12.0657 14.5657C8.8757 11.3782 9.58945 9.33065 10.1119 7.8369C10.4894 6.7569 10.6619 6.2644 9.66945 5.2719C9.2807 4.8844 8.93195 4.5169 8.6107 4.1794C7.61945 3.1369 6.90445 2.38315 6.2982 2.3744H6.2882C5.68945 2.3744 4.75945 3.0144 3.4432 4.33065C3.44695 4.3269 3.4482 4.32565 3.44945 4.32565ZM19.9532 26.1244C16.8382 26.1244 12.7769 23.6444 7.8807 18.7507C2.9657 13.8369 0.481948 9.76315 0.500592 6.6419C0.511948 4.5794 1.5932 3.52315 1.99945 3.1269C2.0207 3.10065 2.0932 3.0294 2.1182 3.0044C3.9107 1.21065 5.11945 0.485652 6.32195 0.49921C7.7182 0.518152 8.71195 1.56315 9.96945 2.8869C10.2807 3.2144 10.6182 3.57065 10.9944 3.94565C12.8194 5.77065 12.2994 7.2594 11.8819 8.4544C11.4269 9.75815 11.0332 10.8832 13.3907 13.2407C15.7507 15.5982 16.8757 15.2044 18.1744 14.7457C19.3707 14.3282 20.8557 13.8057 22.6832 15.6307C23.0532 16.0007 23.4045 16.3344 23.7282 16.6432C25.0582 17.9069 26.1082 18.9057 26.1259 20.3057C26.1407 21.4994 25.4157 22.7157 23.6257 24.5069L22.8332 23.9694L23.5032 24.6244C23.107 25.0307 22.052 26.1132 19.9882 26.1244H19.9532Z" fill="white"/>
</svg>
