<svg width="39" height="40" viewBox="0 0 39 40" fill="none" xmlns="http://www.w3.org/2000/svg">
<path fill-rule="evenodd" clip-rule="evenodd" d="M19.0103 0.75C29.079 0.75 37.269 8.94 37.269 19.0087C37.269 23.7591 35.446 28.0918 32.4627 31.3434L38.3329 37.2013C38.8823 37.7507 38.8841 38.6394 38.3348 39.1888C38.061 39.4663 37.6991 39.6032 37.3391 39.6032C36.981 39.6032 36.621 39.4663 36.3454 39.1926L30.4044 33.2681C27.2791 35.771 23.3165 37.2694 19.0103 37.2694C8.94151 37.2694 0.749634 29.0775 0.749634 19.0087C0.749634 8.94 8.94151 0.75 19.0103 0.75ZM19.0103 3.5625C10.4921 3.5625 3.56213 10.4906 3.56213 19.0087C3.56213 27.5269 10.4921 34.4569 19.0103 34.4569C27.5265 34.4569 34.4565 27.5269 34.4565 19.0087C34.4565 10.4906 27.5265 3.5625 19.0103 3.5625Z" fill="#202020"/>
</svg>
