<svg width="35" height="40" viewBox="0 0 35 40" fill="none" xmlns="http://www.w3.org/2000/svg">
<path fill-rule="evenodd" clip-rule="evenodd" d="M35 32.598C35 39.233 25.0126 40 17.5022 40L16.9648 39.9996C12.1797 39.989 0 39.7138 0 32.5578C0 26.0582 9.58601 25.1896 17.0393 25.1568L18.0396 25.1562C22.8243 25.1668 35 25.442 35 32.598ZM17.5022 28.1754C8.08712 28.1754 3.31439 29.6489 3.31439 32.5578C3.31439 35.4928 8.08712 36.9804 17.5022 36.9804C26.9151 36.9804 31.6856 35.5069 31.6856 32.598C31.6856 29.663 26.9151 28.1754 17.5022 28.1754ZM17.5022 0C23.9719 0 29.233 4.79507 29.233 10.6893C29.233 16.5835 23.9719 21.3765 17.5022 21.3765H17.4315C10.9751 21.3584 5.74495 16.5613 5.76698 10.6832C5.76698 4.79507 11.0303 0 17.5022 0ZM17.5022 2.87463C12.7715 2.87463 8.9223 6.37934 8.9223 10.6893C8.90688 14.9851 12.7273 18.4878 17.4381 18.5039L17.5022 19.9412V18.5039C22.2307 18.5039 26.0777 14.9972 26.0777 10.6893C26.0777 6.37934 22.2307 2.87463 17.5022 2.87463Z" fill="#AAAAAA"/>
</svg>
