<?xml version="1.0" standalone="no"?>
<!DOCTYPE svg PUBLIC "-//W3C//DTD SVG 20010904//EN"
 "http://www.w3.org/TR/2001/REC-SVG-20010904/DTD/svg10.dtd">
<svg version="1.0" xmlns="http://www.w3.org/2000/svg"
 width="640.000000pt" height="1256.000000pt" viewBox="0 0 640.000000 1256.000000"
 preserveAspectRatio="xMidYMid meet">
<metadata>
Created by potrace 1.16, written by Peter Selinger 2001-2019
</metadata>
<g transform="translate(0.000000,1256.000000) scale(0.100000,-0.100000)"
fill="#000000" stroke="none">
<path d="M5691 9538 c-387 -931 -705 -1694 -706 -1696 -2 -2 -812 -68 -1801
-147 -990 -79 -1815 -145 -1834 -147 -34 -3 16 -47 1363 -1201 1327 -1137
1398 -1200 1392 -1225 -41 -159 -845 -3545 -843 -3548 2 -1 709 428 1571 954
l1567 957 0 3873 c0 2129 -1 3872 -3 3872 -1 0 -319 -762 -706 -1692z"/>
</g>
</svg>
