<svg xmlns="http://www.w3.org/2000/svg" width="95.008" height="236.193" viewBox="0 0 95.008 236.193">
  <g id="Asset_1" data-name="Asset 1" transform="translate(0.006 7.709)">
    <g id="Layer_2" data-name="Layer 2" transform="translate(-0.006 -7.709)">
      <g id="OBJECTS" transform="translate(0 0)">
        <path id="Path_24895" data-name="Path 24895" d="M93.384,447.557c0,.458-.639.906-1.827,1.324-3.9,1.369-13.729,2.482-26.42,3.021-2.683.111-5.493.2-8.4.252q-4.058.086-8.332.081c-21.844,0-40.059-1.616-44.121-3.756-.559-.292-.851-.594-.851-.906s.4-.715,1.168-1.057c2.517-1.128,8.976-2.094,17.787-2.744.755-.06,1.535-.111,2.331-.161,3.126-.2,6.5-.362,10.069-.5,4.289-.146,8.866-.217,13.593-.217,10.159,0,19.523.347,27.05.931s13.271,1.43,16.05,2.391C92.725,446.646,93.384,447.1,93.384,447.557Z" transform="translate(-1.7 -216.041)" fill="#323b4a"/>
        <path id="Path_24896" data-name="Path 24896" d="M66.516,106.542a65.536,65.536,0,0,1,27.307,41.247c3.363,17.051-.529,35.825-10.889,49.1-11.7,15-31.364,21.98-48.9,17.369a36.832,36.832,0,0,1-14.2-7.048c-5.8-4.8-9.9-11.685-12.928-18.909A91.359,91.359,0,0,1,1.915,134.79C4.11,124.4,8.3,114.24,15.382,106.915,29.226,92.592,51.423,96.463,66.516,106.542Z" transform="translate(0.006 -44.549)" fill="#323b4a" opacity="0.43"/>
        <path id="Path_24897" data-name="Path 24897" d="M56.357,419.326s-.131,2.487-.282,5.231c-.176,3.192-.388,6.726-.468,7.078-.146.665-17.731,9.032-18.335,7.723s6.016-10.346,6.464-11.5a30.617,30.617,0,0,0,.614-4.652c.171-2.079.292-4.027.292-4.027Z" transform="translate(-18.485 -204.268)" fill="#fee9e8"/>
        <path id="Path_24898" data-name="Path 24898" d="M56.075,428.427c-.176,3.192-.388,6.726-.468,7.078-.146.665-17.731,9.032-18.335,7.723s6.016-10.346,6.464-11.5a30.618,30.618,0,0,0,.614-4.652,1.45,1.45,0,0,1,1.168.04c.926.5.951,1.772,1.4,2.719a46.438,46.438,0,0,0,9.158-1.41Z" transform="translate(-18.485 -208.138)" fill="#324d63"/>
        <path id="Path_24899" data-name="Path 24899" d="M116.81,420.983l.257,4.6.443,7.859s21.144,3.081,21.547,2.24-10.769-9.1-10.769-9.1L128,424.517l-.554-3.957Z" transform="translate(-58 -204.953)" fill="#fee9e8"/>
        <path id="Path_24900" data-name="Path 24900" d="M117.32,429.422l.443,7.859s21.144,3.081,21.547,2.24-10.769-9.1-10.769-9.1l-.292-2.064a1.062,1.062,0,0,0-1.087.232c-.433.473-.221,1.228-.418,1.832a3.664,3.664,0,0,0-1.379-.166Z" transform="translate(-58.253 -208.796)" fill="#324d63"/>
        <path id="Path_24901" data-name="Path 24901" d="M73.465,109.41a6,6,0,0,0-3.021,7.27,10.178,10.178,0,0,0,.921,1.918,36.967,36.967,0,0,0,6.61,8.332,39.494,39.494,0,0,0,.941-7.939,13.759,13.759,0,0,0-1.092-5.714A7.849,7.849,0,0,0,73.465,109.41Z" transform="translate(-34.823 -50.448)" fill="#240a19"/>
        <path id="Path_24902" data-name="Path 24902" d="M76.7,101.907a3.428,3.428,0,0,1,4.028-4.229A4.234,4.234,0,0,1,83.2,94.8a6.781,6.781,0,0,1,7.552,1.42,6.666,6.666,0,0,1,2.915-.282,3.871,3.871,0,0,1,2.432,1.3,3.962,3.962,0,0,1,.373,4.1,6.233,6.233,0,0,1-3.116,2.89,15.481,15.481,0,0,1-4.184,1.087,18.7,18.7,0,0,1-4.883.222C81.481,105.184,78.963,103.573,76.7,101.907Z" transform="translate(-38.025 -42.904)" fill="#240a19"/>
        <path id="Path_24903" data-name="Path 24903" d="M81.99,138.85l1.208,7.793,11.373-.317-.67-2.6-.584-2.276-10.341-2.376Z" transform="translate(-40.71 -65.067)" fill="#ff836d"/>
        <path id="Path_24904" data-name="Path 24904" d="M84,139.3a6.545,6.545,0,0,0,3.4,5.1,7.552,7.552,0,0,0,6.379.262,3.277,3.277,0,0,0,1.143-.715l-.609-2.286Z" transform="translate(-41.708 -65.29)" fill="#ff836d" opacity="0.33"/>
        <path id="Path_24905" data-name="Path 24905" d="M93.789,110.164h0a9.062,9.062,0,0,0-9.807-6.172l-.463.065a8.962,8.962,0,0,0-7.607,9.736,8.558,8.558,0,0,0,2.074,4.632h0c1.193,5.538,5.508,8.906,11.992,7.093C97.852,123.309,93.789,110.164,93.789,110.164Z" transform="translate(-37.663 -47.718)" fill="#ff836d"/>
        <path id="Path_24906" data-name="Path 24906" d="M95.253,124.957a.891.891,0,1,1-1.007-.745A.891.891,0,0,1,95.253,124.957Z" transform="translate(-46.416 -57.794)" fill="#240a19"/>
        <path id="Path_24907" data-name="Path 24907" d="M108.089,122.23a.821.821,0,1,1-.325-.539A.816.816,0,0,1,108.089,122.23Z" transform="translate(-52.864 -56.467)" fill="#240a19"/>
        <path id="Path_24908" data-name="Path 24908" d="M102.47,123.32a5.538,5.538,0,0,1,2.014,2.175,1.39,1.39,0,0,1-.74,1.943" transform="translate(-50.879 -57.355)" fill="none" stroke="#0e1219" stroke-linecap="round" stroke-linejoin="round" stroke-width="0.49"/>
        <path id="Path_24909" data-name="Path 24909" d="M102.46,131.374a.765.765,0,0,1,.176-.227.262.262,0,0,1,.206-.06c.136.03.186.186.222.3" transform="translate(-50.874 -61.211)" fill="none" stroke="#0e1219" stroke-linecap="round" stroke-linejoin="round" stroke-width="0.49"/>
        <path id="Path_24910" data-name="Path 24910" d="M102.973,134.58a1.616,1.616,0,0,0-1.843-.03" transform="translate(-50.214 -62.796)" fill="none" stroke="#0e1219" stroke-linecap="round" stroke-linejoin="round" stroke-width="0.38"/>
        <path id="Path_24911" data-name="Path 24911" d="M90.719,121.168a.569.569,0,0,0,.206.468.785.785,0,0,0,.614.086,3.056,3.056,0,0,0,1.51-.75.649.649,0,0,0,.247-.433c0-.574-.911-.972-1.39-.821A1.978,1.978,0,0,0,90.719,121.168Z" transform="translate(-45.044 -55.551)" fill="#240a19"/>
        <path id="Path_24912" data-name="Path 24912" d="M107.765,117.89a.5.5,0,0,1,0,.458.7.7,0,0,1-.463.307,2.668,2.668,0,0,1-1.51,0,.579.579,0,0,1-.373-.252c-.232-.458.357-1.143.806-1.208A1.777,1.777,0,0,1,107.765,117.89Z" transform="translate(-52.318 -54.312)" fill="#240a19"/>
        <path id="Path_24913" data-name="Path 24913" d="M75.44,127.807a3.456,3.456,0,0,0-2.759,1.354,2.885,2.885,0,0,0,.614,3.524,4.808,4.808,0,0,0,3.615,1.1,1.968,1.968,0,0,0,1.551-.675,1.883,1.883,0,0,0,.237-.639,5.835,5.835,0,0,0-.478-3.595C77.766,127.9,76.412,127.742,75.44,127.807Z" transform="translate(-35.907 -59.577)" fill="#ff836d"/>
        <path id="Path_24914" data-name="Path 24914" d="M77.71,132.48a2.3,2.3,0,0,1,1.48,1.309" transform="translate(-38.584 -61.904)" fill="none" stroke="#0e1219" stroke-linecap="round" stroke-linejoin="round" stroke-width="0.49"/>
        <path id="Path_24915" data-name="Path 24915" d="M74.926,118.205a8.251,8.251,0,0,1,3.569.629,3.972,3.972,0,0,0-.317-3.9A3.679,3.679,0,0,0,79.9,112.38a5.08,5.08,0,0,0,.186-1.188,3.021,3.021,0,0,0-4.964-2.371,5,5,0,0,0-1.51,3.353A11.876,11.876,0,0,0,74.926,118.205Z" transform="translate(-36.531 -49.804)" fill="#240a19"/>
        <path id="Path_24916" data-name="Path 24916" d="M80.11,126.325a6.731,6.731,0,0,1,1.249,2.014,7.214,7.214,0,0,0,.71-2.15,2.366,2.366,0,0,0,0-1.007.9.9,0,0,0-1.661-.327C80.175,125.152,80.206,125.953,80.11,126.325Z" transform="translate(-39.776 -57.909)" fill="#240a19"/>
        <path id="Path_24917" data-name="Path 24917" d="M81.74,104.586a1.6,1.6,0,0,0,.71.423,7.094,7.094,0,0,0,2.693.5,3.9,3.9,0,0,0,2.517-.957,9.2,9.2,0,0,0,5.326,1.163,2.12,2.12,0,0,0,1.853-.977,1.8,1.8,0,0,0-.5-1.873,5.372,5.372,0,0,0-2.109-1.294,9.888,9.888,0,0,0-5.679-.337A10.474,10.474,0,0,0,81.74,104.586Z" transform="translate(-40.586 -46.258)" fill="#240a19"/>
        <path id="Path_24918" data-name="Path 24918" d="M73.539,151.577s5.946,2.044,11-1.007a48.019,48.019,0,0,1,12.641,5.477l1.183,38.181s-25.117,4.466-34.234-.5l-1.46-34.883Z" transform="translate(-31.116 -70.886)" fill="#fee9e8"/>
        <path id="Path_24919" data-name="Path 24919" d="M56.273,233.14s-5.392,51.784-5.563,59.018-1.51,38.231-1.51,38.231l14.162.352,9.772-66.248L81.9,329.332l14.157.176-4.38-94.143Z" transform="translate(-24.428 -111.887)" fill="#bf932d"/>
        <path id="Path_24920" data-name="Path 24920" d="M59.88,238.11A173.186,173.186,0,0,0,99.506,240" transform="translate(-29.731 -114.355)" fill="none" stroke="#0e1219" stroke-linecap="round" stroke-linejoin="round" stroke-width="0.38"/>
        <path id="Path_24921" data-name="Path 24921" d="M105.411,235.82q-.06,1.732-.111,3.454c-.055,1.883.086,3.68.126,5.538a2.945,2.945,0,0,1-.07.916,1.616,1.616,0,0,1-.639.9.881.881,0,0,1-1.4-.443,2.814,2.814,0,0,1-.156-1.007l-.1-3.021" transform="translate(-51.172 -113.218)" fill="none" stroke="#0e1219" stroke-linecap="round" stroke-linejoin="round" stroke-width="0.38"/>
        <path id="Path_24922" data-name="Path 24922" d="M103.363,238.066a.946.946,0,1,1-.946-.946.946.946,0,0,1,.946.946Z" transform="translate(-50.383 -113.864)" fill="none" stroke="#0e1219" stroke-linecap="round" stroke-linejoin="round" stroke-width="0.38"/>
        <path id="Path_24923" data-name="Path 24923" d="M92.318,271.31l-5.226,12.138L77.31,349.7" transform="translate(-38.386 -130.841)" fill="none" stroke="#0e1219" stroke-linecap="round" stroke-linejoin="round" stroke-width="0.52"/>
        <line id="Line_149" data-name="Line 149" x2="9.485" y2="68.271" transform="translate(50.387 149.153)" fill="none" stroke="#0e1219" stroke-linecap="round" stroke-linejoin="round" stroke-width="0.38"/>
        <path id="Path_24924" data-name="Path 24924" d="M67.307,203.766c-.508,10.542-1.354,16.694-1.354,16.694a20.747,20.747,0,0,1-17.283-2.95s7.25-27.563,6.58-33.886-.675-22.247-.675-22.247A51.61,51.61,0,0,1,61,156.267c.06-.045.121-.081.181-.121a23.453,23.453,0,0,1,4.471-2.356S67.811,193.234,67.307,203.766Z" transform="translate(-24.164 -72.485)" fill="#324d63"/>
        <path id="Path_24925" data-name="Path 24925" d="M78,211.155l-14.283.695a.71.71,0,0,1-.383,1.072c-.821.383-4.028.065-3.348-2.014a7.527,7.527,0,0,1,.317-3.6s-.191-1.2.569-1.581,16.614-1.2,16.614-1.2Z" transform="translate(-29.669 -97.676)" fill="#ff836d"/>
        <path id="Path_24926" data-name="Path 24926" d="M125.633,218.7a15.562,15.562,0,0,1-14.1-.086l-1.566-43.145v-.378L109.1,151.1l5.165,2.316.352.156,6.3,2.819Z" transform="translate(-54.172 -71.15)" fill="#324d63"/>
        <path id="Path_24927" data-name="Path 24927" d="M74.828,160.439a15.531,15.531,0,0,0-3.227,4.435l1.541,1.848,1.586,1.9a.1.1,0,0,1,0,.136.091.091,0,0,1-.06,0,.1.1,0,0,1-.076-.035L73,166.817q-.785-.952-1.576-1.888a.091.091,0,0,1,0-.1,15.486,15.486,0,0,1,3.227-4.486,11.7,11.7,0,0,0-2.326-1.8c.06-.045.121-.081.181-.121a12.083,12.083,0,0,1,2.346,1.853.1.1,0,0,1-.025.166Z" transform="translate(-35.456 -74.784)" fill="#0e1219"/>
        <path id="Path_24928" data-name="Path 24928" d="M88.66,221.51s16.327,3.454,24.377.675" transform="translate(-44.022 -106.112)" fill="none" stroke="#0e1219" stroke-linecap="round" stroke-linejoin="round" stroke-width="0.38"/>
        <path id="Path_24929" data-name="Path 24929" d="M54.588,168.85s-9.7,9.359-4.234,20.4c4.848,9.782,15.254,1.6,17.021-.252s6.157-11.886,6.157-11.886l-7.5-5.9-5.82,4.385Z" transform="translate(-24.172 -79.963)" fill="#324d63"/>
        <path id="Path_24930" data-name="Path 24930" d="M83.38,157.8s5.185-6,5.377-6.509.881-7.839,1.51-8.342,4.929-2.276,5.437-1.264c0,0,1.455-.131,1.581.946,0,0,1.581,0,1.51.946a5.08,5.08,0,0,1,.76,2.014c0,.811-1.2,2.215-1.9,2.15a9.042,9.042,0,0,1-1.072,4.3,29.7,29.7,0,0,1-4.239,4.028l-3.6,5.754Z" transform="translate(-41.4 -66.323)" fill="#ff836d"/>
        <path id="Path_24931" data-name="Path 24931" d="M94.06,151.157s.851-7.713,1.51-8.5,5.034-2.91,5.628-1.359c0,0,1.264-.1,1.389,1.042,0,0,1.389-.065,1.51.946a4.1,4.1,0,0,1,.73,2.276c-.186.881-.952,1.9-1.868,1.9" transform="translate(-46.703 -66.006)" fill="none" stroke="#0e1219" stroke-linecap="round" stroke-linejoin="round" stroke-width="0.38"/>
        <path id="Path_24932" data-name="Path 24932" d="M104.949,141.79a12.378,12.378,0,0,0-3.479,1.193" transform="translate(-50.383 -66.527)" fill="none" stroke="#0e1219" stroke-linecap="round" stroke-linejoin="round" stroke-width="0.38"/>
        <path id="Path_24933" data-name="Path 24933" d="M107.65,144a11.378,11.378,0,0,0-3.61.916" transform="translate(-51.659 -67.624)" fill="none" stroke="#0e1219" stroke-linecap="round" stroke-linejoin="round" stroke-width="0.38"/>
        <path id="Path_24934" data-name="Path 24934" d="M110.282,145.92a15.606,15.606,0,0,0-3.882,1.007" transform="translate(-52.831 -68.577)" fill="none" stroke="#0e1219" stroke-linecap="round" stroke-linejoin="round" stroke-width="0.38"/>
        <path id="Path_24935" data-name="Path 24935" d="M108.34,157.58a4.707,4.707,0,0,0,1.228-1.9c.408-1.183.327-2.482.619-3.7a1.772,1.772,0,0,1,.5-1.007" transform="translate(-53.794 -71.085)" fill="none" stroke="#0e1219" stroke-linecap="round" stroke-linejoin="round" stroke-width="0.38"/>
        <path id="Path_24936" data-name="Path 24936" d="M64.55,182.519l9.419-8.6,7.461,5.709" transform="translate(-32.05 -82.481)" fill="none" stroke="#0e1219" stroke-linecap="round" stroke-linejoin="round" stroke-width="0.38"/>
        <path id="Path_24937" data-name="Path 24937" d="M76.54,180c3.524,1.591,6.862,3.65,9,6.877" transform="translate(-38.004 -85.5)" fill="none" stroke="#0e1219" stroke-linecap="round" stroke-linejoin="round" stroke-width="0.38"/>
        <path id="Path_24938" data-name="Path 24938" d="M50.76,206.729a9.525,9.525,0,0,1,5.759,1.108A7.511,7.511,0,0,1,60.1,212.4" transform="translate(-25.202 -98.737)" fill="none" stroke="#0e1219" stroke-linecap="round" stroke-linejoin="round" stroke-width="0.38"/>
        <path id="Path_24939" data-name="Path 24939" d="M110.741,161.61s5.815,2.95,7.672,12.309-.171,16.417-6.409,19.045c-5.392,2.276-23.344-1.2-23.344-1.2l.418-9.062,18.8-3.625Z" transform="translate(-44.022 -76.368)" fill="#324d63"/>
        <line id="Line_150" data-name="Line 150" y1="3.433" x2="18.607" transform="translate(45.056 102.882)" fill="none" stroke="#0e1219" stroke-linecap="round" stroke-linejoin="round" stroke-width="0.38"/>
        <path id="Path_24940" data-name="Path 24940" d="M124.44,188.582q.055-4.179.433-8.342" transform="translate(-61.789 -85.619)" fill="none" stroke="#0e1219" stroke-linecap="round" stroke-linejoin="round" stroke-width="0.38"/>
        <path id="Path_24941" data-name="Path 24941" d="M132.24,216.769a10.769,10.769,0,0,1,7.8-7.179" transform="translate(-65.662 -100.193)" fill="none" stroke="#0e1219" stroke-linecap="round" stroke-linejoin="round" stroke-width="0.38"/>
        <path id="Path_24942" data-name="Path 24942" d="M117.214,163.544l-6.394,14.162a.075.075,0,0,1-.05.045h-.035a.065.065,0,0,1-.04,0,.1.1,0,0,1-.045-.131l.111-.247,6.268-13.85-3.922-4.34a.126.126,0,0,1-.025-.076.156.156,0,0,1,.04-.065l2.789-2.175-.856-1.168.352.156.715.972a.1.1,0,0,1,0,.136l-2.784,2.165,3.887,4.309a.1.1,0,0,1-.01.106Z" transform="translate(-54.936 -73.434)" fill="#0e1219"/>
        <circle id="Ellipse_262" data-name="Ellipse 262" cx="20.565" cy="20.565" r="20.565" transform="translate(25.701 40.202) rotate(-77.8)" fill="#323b4a"/>
        <circle id="Ellipse_263" data-name="Ellipse 263" cx="1.415" cy="1.415" r="1.415" transform="translate(56.187 45.44)" fill="#fee9e8"/>
        <circle id="Ellipse_264" data-name="Ellipse 264" cx="1.415" cy="1.415" r="1.415" transform="translate(55.16 50.066)" fill="#fee9e8"/>
        <circle id="Ellipse_265" data-name="Ellipse 265" cx="1.369" cy="1.369" r="1.369" transform="translate(52.421 53.585)" fill="#fee9e8"/>
        <path id="Path_24943" data-name="Path 24943" d="M96.258,34.489l-.171.045a.5.5,0,0,1-.438-.272,4.254,4.254,0,0,1-.5-1.858c0-1.51,1.007-2.422,2.054-3.373a8.8,8.8,0,0,0,1.047-1.113,1.51,1.51,0,0,0,.292-.831c0-.806-.69-1.2-1.445-1.2a4.028,4.028,0,0,0-2.3.951.594.594,0,0,1-.3.106.378.378,0,0,1-.3-.206l-.73-1.077a.362.362,0,0,1-.086-.267.5.5,0,0,1,.166-.373A5.618,5.618,0,0,1,97.19,23.64c2.135,0,3.766,1.259,3.766,3.408a4.218,4.218,0,0,1-1.591,3.162l-.4.393A8.931,8.931,0,0,0,97.96,31.66a1.385,1.385,0,0,0-.312.846,2.432,2.432,0,0,0,.206.931.8.8,0,0,1,.045.186.368.368,0,0,1-.065.206.589.589,0,0,1-.186.146Zm-1.364,3.187a1.722,1.722,0,1,1,.513,1.216,1.722,1.722,0,0,1-.513-1.216Z" transform="translate(-46.364 -7.858)" fill="#fff"/>
        <path id="Path_24944" data-name="Path 24944" d="M33.628,133.405l-.136.106a.5.5,0,0,1-.5-.055,4.249,4.249,0,0,1-1.228-1.51c-.644-1.384-.111-2.643.443-3.962a8.518,8.518,0,0,0,.5-1.465,1.51,1.51,0,0,0-.081-.881,1.308,1.308,0,0,0-1.838-.5,4.083,4.083,0,0,0-1.732,1.838.549.549,0,0,1-.222.222.378.378,0,0,1-.368-.04l-1.128-.67a.383.383,0,0,1-.191-.211.534.534,0,0,1,0-.413A5.664,5.664,0,0,1,29.9,123.04c1.953-.906,3.987-.448,4.9,1.51a4.25,4.25,0,0,1-.111,3.574l-.2.534a9.063,9.063,0,0,0-.5,1.4,1.385,1.385,0,0,0,.076.911,2.392,2.392,0,0,0,.544.8,1.189,1.189,0,0,1,.116.156.428.428,0,0,1,.03.216.559.559,0,0,1-.111.211Zm.111,3.494a1.757,1.757,0,0,1,3.182-1.48,1.712,1.712,0,0,1-.861,2.311,1.732,1.732,0,0,1-2.321-.836Z" transform="translate(-13.457 -56.994)" fill="#fee9e8"/>
        <path id="Path_24945" data-name="Path 24945" d="M158.372,238.829a1.737,1.737,0,1,1,.006,1.334A1.737,1.737,0,0,1,158.372,238.829Zm2.517-2.442-.171-.03a.473.473,0,0,1-.307-.418,4.285,4.285,0,0,1,.272-1.923c.584-1.41,1.873-1.868,3.217-2.346a8.436,8.436,0,0,0,1.41-.639,1.44,1.44,0,0,0,.594-.654,1.285,1.285,0,0,0-.881-1.681,4.088,4.088,0,0,0-2.517-.03.539.539,0,0,1-.312,0,.363.363,0,0,1-.222-.292l-.267-1.289a.372.372,0,0,1,.025-.282.5.5,0,0,1,.3-.282,5.674,5.674,0,0,1,3.932.121c2.014.826,3.021,2.633,2.195,4.642a4.3,4.3,0,0,1-2.714,2.331l-.5.211a9.292,9.292,0,0,0-1.364.589,1.365,1.365,0,0,0-.619.67,2.417,2.417,0,0,0-.166.946.679.679,0,0,1-.035.191.353.353,0,0,1-.136.166.559.559,0,0,1-.232.065Z" transform="translate(-78.573 -108.454)" fill="#fee9e8"/>
      </g>
    </g>
  </g>
</svg>
