<svg xmlns="http://www.w3.org/2000/svg" xmlns:xlink="http://www.w3.org/1999/xlink" width="267.396" height="169.833" viewBox="0 0 267.396 169.833">
  <defs>
    <linearGradient id="linear-gradient" x1="0.743" y1="0.725" x2="0.081" y2="0.084" gradientUnits="objectBoundingBox">
      <stop offset="0" stop-color="#006838"/>
      <stop offset="1" stop-color="#47e51d"/>
    </linearGradient>
    <linearGradient id="linear-gradient-2" x1="0.185" y1="0.89" x2="0.675" y2="0.345" xlink:href="#linear-gradient"/>
    <linearGradient id="linear-gradient-3" x1="0.374" y1="0.619" x2="0.823" y2="-0.211" xlink:href="#linear-gradient"/>
    <linearGradient id="linear-gradient-4" x1="0.739" y1="0.678" x2="0.251" y2="0.171" xlink:href="#linear-gradient"/>
    <linearGradient id="linear-gradient-5" x1="0.627" y1="0.942" x2="0.706" y2="0.412" xlink:href="#linear-gradient"/>
    <linearGradient id="linear-gradient-6" x1="0.361" y1="0.918" x2="0.46" y2="0.41" xlink:href="#linear-gradient"/>
    <linearGradient id="linear-gradient-7" x1="0.472" y1="0.947" x2="0.504" y2="0.404" xlink:href="#linear-gradient"/>
    <linearGradient id="linear-gradient-8" y1="0.5" x2="1" y2="0.5" gradientUnits="objectBoundingBox">
      <stop offset="0" stop-color="#700d2a"/>
      <stop offset="0.56" stop-color="#dd4536"/>
      <stop offset="1" stop-color="#f7a458"/>
    </linearGradient>
    <linearGradient id="linear-gradient-9" x1="0" y1="0.501" y2="0.501" xlink:href="#linear-gradient-8"/>
    <linearGradient id="linear-gradient-10" x1="0" xlink:href="#linear-gradient-8"/>
    <linearGradient id="linear-gradient-11" x1="0.5" y1="0.028" x2="0.5" y2="0.958" gradientUnits="objectBoundingBox">
      <stop offset="0" stop-color="#27aae1"/>
      <stop offset="1" stop-color="#0d1b5a"/>
    </linearGradient>
    <linearGradient id="linear-gradient-12" y1="0.5" x2="1" y2="0.5" gradientUnits="objectBoundingBox">
      <stop offset="0" stop-color="#e4f2ff"/>
      <stop offset="1" stop-color="#91d0c5"/>
    </linearGradient>
    <linearGradient id="linear-gradient-13" y1="0.027" y2="1.002" xlink:href="#linear-gradient-11"/>
    <linearGradient id="linear-gradient-15" x1="-0.001" y1="0.501" x2="0.999" y2="0.501" gradientUnits="objectBoundingBox">
      <stop offset="0" stop-color="#23538c"/>
      <stop offset="1" stop-color="#230482"/>
    </linearGradient>
    <linearGradient id="linear-gradient-16" x1="0" y1="0.5" x2="0.999" y2="0.5" xlink:href="#linear-gradient-12"/>
    <linearGradient id="linear-gradient-17" x1="0" y1="0.5" x2="1.001" y2="0.5" xlink:href="#linear-gradient-15"/>
    <linearGradient id="linear-gradient-18" x1="0" y1="0.5" x2="1" y2="0.5" xlink:href="#linear-gradient-15"/>
    <linearGradient id="linear-gradient-19" x1="0" y1="0.5" x2="1" y2="0.5" xlink:href="#linear-gradient-15"/>
    <linearGradient id="linear-gradient-20" x1="0" y1="0.501" x2="1.001" y2="0.501" xlink:href="#linear-gradient-15"/>
    <linearGradient id="linear-gradient-21" y1="0.5" x2="1" y2="0.5" gradientUnits="objectBoundingBox">
      <stop offset="0" stop-color="#91d01d"/>
      <stop offset="1" stop-color="#f9ed32"/>
    </linearGradient>
    <linearGradient id="linear-gradient-22" x1="0.5" y1="0.954" x2="0.5" y2="0.031" xlink:href="#linear-gradient-8"/>
  </defs>
  <g id="Asset_1" data-name="Asset 1" transform="translate(-0.031 -56.83)">
    <g id="Layer_2" data-name="Layer 2" transform="translate(0.031 56.83)">
      <g id="OBJECTS">
        <path id="Path_24334" data-name="Path 24334" d="M24.3,136.6c-5-1.962.533,7.475-.364,6.429S12.86,123.21,9.645,126.611s2.327,8.737,1.607,8.41S.366,122.873.039,128.957,9.5,140.73,9.5,140.73s-8.559-1.99-4.822,1.757,12.306,6.251,12.306,6.251-8.924-.934-4.99,2.14S24.3,155.7,24.3,155.7s-8.036.178-3.934,1.607,16.418,4.99,16.418,4.99S29.278,138.563,24.3,136.6Z" transform="translate(-0.031 -36.765)" fill="url(#linear-gradient)"/>
        <path id="Path_24335" data-name="Path 24335" d="M61.107,144.343c-1.785.71.934-1.785,1.42-8.027s-10.522,11.419-11.774,12.306.355-.934-.72-5.887S38.97,163.294,38.97,163.294s18.717-5.233,22.454-6.485-1.785-3.037-1.785-3.037,8.41.542,13.2-1.42-5.177-3.392-6.242-4.289,4.99-1.252,9.1-8.569S62.891,143.605,61.107,144.343Z" transform="translate(-2.584 -37.341)" fill="url(#linear-gradient-2)"/>
        <path id="Path_24336" data-name="Path 24336" d="M61.854,128.727c-1.607.72,4.672-7.317,5.177-12.671s-11.213,11.213-12.316,13.39.888-3.738-.71-9.111-6.784,15.53-7.681,17.493-.178-1.962-2.495-7.475-4.467,30.7-4.28,31.593c0,0,8.41-7.859,10.886-12.493s-1.075-3.738-1.075-3.738a56.49,56.49,0,0,0,9.1-5.532c3.214-2.682-3.037-4.289-2.859-4.822s9.821-3.738,13.213-7.672S63.461,128.016,61.854,128.727Z" transform="translate(-2.622 -36.031)" fill="url(#linear-gradient-3)"/>
        <path id="Path_24337" data-name="Path 24337" d="M35.781,142.119A61.13,61.13,0,0,0,38.1,131.41c.364-4.467-4.1-1.43-4.1-1.43s1.075-8.214-.355-14.278-2.317,5.709-2.859,6.429-1.42-3.037-6.42-8.746,3.57,13.2,4.1,15.885-1.065-1.43-6.784-3.214,7.681,18.025,7.681,18.913-.934-1.43-5.354-2.8S37.388,160.013,38.1,161.434c0,0,1.43-12.671,1.972-17.661S35.781,142.119,35.781,142.119Z" transform="translate(-1.358 -35.855)" fill="url(#linear-gradient-4)"/>
        <path id="Path_24338" data-name="Path 24338" d="M37,135.37C37.159,135.613,37.159,135.548,37,135.37Z" transform="translate(-2.455 -37.367)" fill="url(#linear-gradient-5)"/>
        <path id="Path_24339" data-name="Path 24339" d="M43.469,110.6s-.533-7.139-4.28-10.531-1.252,17.848-1.43,18.913-.934-2.495-5-3.925,3.355,16.82,3.906,17.979c.121.178.121.243,0,0a5.385,5.385,0,0,0-4.439-2.093c-3.925-.178,6.42,29.266,6.42,29.808,0,0,6.962-7.859,7.681-11.428s-4.112-1.252-4.112-1.252,3.738-3.383,6.429-10.7-5.532-1.972-5.709-2.5,6.064-4.822,7.672-13.746c1.224-6.812-3.476-3.523-5.775-1.6a14.016,14.016,0,0,1-1.187,1.065s.486-.467,1.187-1.065a23.968,23.968,0,0,0,7.027-13.746C53.1,96.317,43.469,110.6,43.469,110.6Z" transform="translate(-2.084 -35.028)" fill="url(#linear-gradient-6)"/>
        <path id="Path_24340" data-name="Path 24340" d="M45.7,120.91c-.7.6-1.187,1.065-1.187,1.065A14.016,14.016,0,0,0,45.7,120.91Z" transform="translate(-2.948 -36.419)" fill="url(#linear-gradient-7)"/>
        <path id="Path_24341" data-name="Path 24341" d="M28.469,202.609H50.092l5.149-34.5H23.32Z" transform="translate(-1.558 -39.513)" fill="url(#linear-gradient-8)"/>
        <rect id="Rectangle_4682" data-name="Rectangle 4682" width="40.162" height="7.204" rx="1.48" transform="translate(17.641 122.803)" fill="url(#linear-gradient-9)"/>
        <path id="Path_24342" data-name="Path 24342" d="M273.877,72.657l-11.213-3.513a1.944,1.944,0,0,0-2.43,1.261l-23.5,73.269a1.953,1.953,0,0,0,1.243,2.448l11.587,3.831a1.953,1.953,0,0,0,2.467-1.271l23.1-73.587a1.944,1.944,0,0,0-1.252-2.439Z" transform="translate(-15.545 -33.019)" fill="#84d2e6"/>
        <path id="Path_24343" data-name="Path 24343" d="M260.264,70.405l-23.5,73.269a1.953,1.953,0,0,0,1.243,2.448l6.2,2.046L268.927,71.1l-6.233-1.953A1.944,1.944,0,0,0,260.264,70.405Z" transform="translate(-15.547 -33.019)" fill="#97deef"/>
        <path id="Path_24344" data-name="Path 24344" d="M266.689,78.229l-4.859-1.56a.328.328,0,1,0-.2.626l4.85,1.551a.336.336,0,0,0,.411-.215.318.318,0,0,0-.206-.4Z" transform="translate(-17.169 -33.517)" fill="#fff"/>
        <path id="Path_24345" data-name="Path 24345" d="M263.916,79.19l-2.626-.841a.336.336,0,0,0-.411.215.327.327,0,0,0,.215.411l2.616.841a.318.318,0,0,0,.411-.215A.327.327,0,0,0,263.916,79.19Z" transform="translate(-17.133 -33.627)" fill="#fff"/>
        <path id="Path_24346" data-name="Path 24346" d="M263.376,80.87l-2.616-.832a.33.33,0,1,0-.206.626l2.616.832a.327.327,0,0,0,.411-.206A.336.336,0,0,0,263.376,80.87Z" transform="translate(-17.098 -33.738)" fill="#fff"/>
        <path id="Path_24347" data-name="Path 24347" d="M262.787,82.66l-2.616-.841a.328.328,0,0,0-.2.626l2.616.841a.328.328,0,0,0,.2-.626Z" transform="translate(-17.06 -33.854)" fill="#fff"/>
        <path id="Path_24348" data-name="Path 24348" d="M262.3,84.24,259.68,83.4a.329.329,0,0,0-.206.626l2.616.841a.318.318,0,0,0,.411-.215A.327.327,0,0,0,262.3,84.24Z" transform="translate(-17.027 -33.958)" fill="#fff"/>
        <path id="Path_24349" data-name="Path 24349" d="M263.96,86.71l-4.85-1.551a.328.328,0,1,0-.2.626l4.85,1.551a.328.328,0,1,0,.2-.626Z" transform="translate(-16.99 -34.073)" fill="#fff"/>
        <path id="Path_24350" data-name="Path 24350" d="M261.186,87.68l-2.616-.841a.328.328,0,0,0-.2.626l2.616.841a.328.328,0,1,0,.2-.626Z" transform="translate(-16.955 -34.184)" fill="#fff"/>
        <path id="Path_24351" data-name="Path 24351" d="M260.646,89.36l-2.616-.841a.336.336,0,0,0-.411.215.318.318,0,0,0,.215.411l2.616.841a.328.328,0,1,0,.2-.626Z" transform="translate(-16.919 -34.294)" fill="#fff"/>
        <path id="Path_24352" data-name="Path 24352" d="M260.077,91.15l-2.616-.841a.328.328,0,1,0-.2.626l2.616.841a.336.336,0,0,0,.411-.215.318.318,0,0,0-.215-.411Z" transform="translate(-16.882 -34.411)" fill="#fff"/>
        <path id="Path_24353" data-name="Path 24353" d="M259.576,92.73l-2.626-.841a.328.328,0,1,0-.2.626l2.616.841a.318.318,0,0,0,.411-.215.327.327,0,0,0-.206-.411Z" transform="translate(-16.849 -34.515)" fill="#fff"/>
        <path id="Path_24354" data-name="Path 24354" d="M261.24,95.2l-4.85-1.551a.328.328,0,1,0-.2.626l4.85,1.57a.328.328,0,1,0,.2-.626Z" transform="translate(-16.812 -34.63)" fill="#fff"/>
        <path id="Path_24355" data-name="Path 24355" d="M258.466,96.17l-2.616-.841a.328.328,0,1,0-.2.626l2.616.841a.336.336,0,0,0,.411-.215.318.318,0,0,0-.215-.411Z" transform="translate(-16.777 -34.74)" fill="#fff"/>
        <path id="Path_24356" data-name="Path 24356" d="M257.927,97.85l-2.616-.841a.328.328,0,0,0-.2.626l2.616.841a.328.328,0,0,0,.2-.626Z" transform="translate(-16.741 -34.85)" fill="#fff"/>
        <path id="Path_24357" data-name="Path 24357" d="M257.356,99.63,254.74,98.8a.327.327,0,0,0-.411.206.336.336,0,0,0,.206.42l2.626.832a.328.328,0,1,0,.2-.626Z" transform="translate(-16.704 -34.968)" fill="#fff"/>
        <path id="Path_24358" data-name="Path 24358" d="M256.847,101.22l-2.616-.841a.328.328,0,0,0-.2.626l2.616.841a.336.336,0,0,0,.411-.215.318.318,0,0,0-.215-.411Z" transform="translate(-16.67 -35.071)" fill="#fff"/>
        <path id="Path_24359" data-name="Path 24359" d="M258.52,103.689l-4.85-1.561a.33.33,0,0,0-.206.626l4.859,1.561a.328.328,0,1,0,.2-.626Z" transform="translate(-16.634 -35.186)" fill="#fff"/>
        <path id="Path_24360" data-name="Path 24360" d="M255.786,104.66l-2.616-.841a.327.327,0,0,0-.411.206.336.336,0,0,0,.206.42l2.626.841a.346.346,0,0,0,.411-.215.318.318,0,0,0-.215-.411Z" transform="translate(-16.601 -35.297)" fill="#fff"/>
        <path id="Path_24361" data-name="Path 24361" d="M255.206,106.34l-2.616-.841a.318.318,0,0,0-.411.215.327.327,0,0,0,.206.411l2.626.841a.328.328,0,1,0,.2-.626Z" transform="translate(-16.563 -35.407)" fill="#fff"/>
        <path id="Path_24362" data-name="Path 24362" d="M254.636,108.12l-2.616-.841a.329.329,0,1,0-.206.626l2.616.841a.329.329,0,0,0,.206-.626Z" transform="translate(-16.525 -35.524)" fill="#fff"/>
        <path id="Path_24363" data-name="Path 24363" d="M254.126,109.7l-2.616-.832a.328.328,0,1,0-.2.626l2.616.832a.328.328,0,1,0,.2-.626Z" transform="translate(-16.492 -35.628)" fill="#fff"/>
        <path id="Path_24364" data-name="Path 24364" d="M255.8,112.179l-4.831-1.561a.327.327,0,0,0-.42.215.346.346,0,0,0,.215.411l4.878,1.6a.336.336,0,0,0,.42-.215.327.327,0,0,0-.262-.449Z" transform="translate(-16.456 -35.743)" fill="#fff"/>
        <path id="Path_24365" data-name="Path 24365" d="M253.026,113.14l-2.616-.841a.336.336,0,0,0-.411.215.318.318,0,0,0,.206.411l2.616.841a.33.33,0,1,0,.206-.626Z" transform="translate(-16.42 -35.853)" fill="#fff"/>
        <path id="Path_24366" data-name="Path 24366" d="M252.486,114.83l-2.616-.841a.318.318,0,0,0-.411.215.327.327,0,0,0,.206.411l2.616.841a.336.336,0,0,0,.421-.215.327.327,0,0,0-.215-.411Z" transform="translate(-16.384 -35.964)" fill="#fff"/>
        <path id="Path_24367" data-name="Path 24367" d="M251.916,116.61l-2.616-.841a.329.329,0,1,0-.206.626l2.616.841a.318.318,0,0,0,.411-.215A.327.327,0,0,0,251.916,116.61Z" transform="translate(-16.347 -36.08)" fill="#fff"/>
        <path id="Path_24368" data-name="Path 24368" d="M251.406,118.19l-2.616-.841a.33.33,0,0,0-.206.626l2.626.841a.327.327,0,0,0,.411-.215.336.336,0,0,0-.215-.411Z" transform="translate(-16.314 -36.184)" fill="#fff"/>
        <path id="Path_24369" data-name="Path 24369" d="M253.079,120.66l-4.85-1.551a.329.329,0,1,0-.206.626l4.85,1.551a.327.327,0,0,0,.411-.206A.337.337,0,0,0,253.079,120.66Z" transform="translate(-16.276 -36.299)" fill="#fff"/>
        <path id="Path_24370" data-name="Path 24370" d="M250.306,121.63l-2.616-.841a.33.33,0,1,0-.206.626l2.616.841a.318.318,0,0,0,.411-.215.327.327,0,0,0-.206-.411Z" transform="translate(-16.241 -36.41)" fill="#fff"/>
        <path id="Path_24371" data-name="Path 24371" d="M249.786,123.311l-2.616-.832a.33.33,0,1,0-.206.626l2.616.832a.318.318,0,0,0,.411-.206.336.336,0,0,0-.206-.421Z" transform="translate(-16.207 -36.52)" fill="#fff"/>
        <path id="Path_24372" data-name="Path 24372" d="M249.2,125.1l-2.626-.841a.328.328,0,0,0-.2.626l2.616.841a.33.33,0,0,0,.206-.626Z" transform="translate(-16.168 -36.637)" fill="#fff"/>
        <path id="Path_24373" data-name="Path 24373" d="M248.686,126.68l-2.616-.841a.329.329,0,1,0-.206.626l2.616.841a.327.327,0,0,0,.42-.215.346.346,0,0,0-.215-.411Z" transform="translate(-16.135 -36.741)" fill="#fff"/>
        <path id="Path_24374" data-name="Path 24374" d="M250.35,129.15,245.5,127.6a.328.328,0,1,0-.2.626l4.85,1.551a.328.328,0,1,0,.2-.626Z" transform="translate(-16.098 -36.856)" fill="#fff"/>
        <path id="Path_24375" data-name="Path 24375" d="M247.586,130.12l-2.626-.841a.328.328,0,1,0-.2.626l2.616.841a.318.318,0,0,0,.411-.215A.327.327,0,0,0,247.586,130.12Z" transform="translate(-16.063 -36.966)" fill="#fff"/>
        <path id="Path_24376" data-name="Path 24376" d="M247.046,131.8l-2.626-.841a.336.336,0,0,0-.411.215.318.318,0,0,0,.215.411l2.616.841a.318.318,0,0,0,.411-.215A.327.327,0,0,0,247.046,131.8Z" transform="translate(-16.027 -37.077)" fill="#fff"/>
        <path id="Path_24377" data-name="Path 24377" d="M246.466,133.59l-2.616-.841a.328.328,0,1,0-.2.626l2.616.841a.346.346,0,0,0,.411-.215.318.318,0,0,0-.215-.411Z" transform="translate(-15.99 -37.194)" fill="#fff"/>
        <path id="Path_24378" data-name="Path 24378" d="M245.966,135.17l-2.626-.841a.328.328,0,1,0-.2.626l2.616.841a.33.33,0,0,0,.206-.626Z" transform="translate(-15.956 -37.297)" fill="#fff"/>
        <path id="Path_24379" data-name="Path 24379" d="M247.63,137.64l-4.85-1.551a.327.327,0,0,0-.411.206.318.318,0,0,0,.215.411l4.85,1.561a.328.328,0,1,0,.2-.626Z" transform="translate(-15.919 -37.413)" fill="#fff"/>
        <path id="Path_24380" data-name="Path 24380" d="M244.856,138.61l-2.616-.841a.328.328,0,0,0-.2.626l2.616.841a.336.336,0,0,0,.411-.215.318.318,0,0,0-.215-.411Z" transform="translate(-15.884 -37.523)" fill="#fff"/>
        <path id="Path_24381" data-name="Path 24381" d="M244.317,140.29l-2.616-.841a.328.328,0,1,0-.2.626l2.616.841a.328.328,0,1,0,.2-.626Z" transform="translate(-15.849 -37.633)" fill="#fff"/>
        <path id="Path_24382" data-name="Path 24382" d="M243.786,142.07l-2.616-.841a.346.346,0,0,0-.411.215.318.318,0,0,0,.215.411l2.616.841a.328.328,0,1,0,.2-.626Z" transform="translate(-15.814 -37.75)" fill="#fff"/>
        <path id="Path_24383" data-name="Path 24383" d="M243.236,143.66l-2.616-.841a.328.328,0,1,0-.2.626l2.616.832a.327.327,0,0,0,.411-.206.318.318,0,0,0-.215-.411Z" transform="translate(-15.778 -37.854)" fill="#fff"/>
        <path id="Path_24384" data-name="Path 24384" d="M270.219,89.453l-2.439-.243a1.346,1.346,0,0,0-1.467,1.205l-.663,6.691,5.111.5.663-6.691a1.346,1.346,0,0,0-1.205-1.467Z" transform="translate(-17.447 -34.34)" fill="#f2ec22"/>
        <path id="Path_24385" data-name="Path 24385" d="M262.089,158.952l5.223-12.3-7.952-.785Z" transform="translate(-17.035 -38.055)" fill="#a7a7a7"/>
        <path id="Path_24386" data-name="Path 24386" d="M262.75,157.954l4.784-11.269-3.644-.364Z" transform="translate(-17.257 -38.085)" fill="#dbd8d5"/>
        <path id="Path_24387" data-name="Path 24387" d="M263.32,156.695l4.252-10.008-3.233-.327Z" transform="translate(-17.294 -38.087)" fill="#7c7b79"/>
        <rect id="Rectangle_4683" data-name="Rectangle 4683" width="47.544" height="8.12" rx="1.51" transform="translate(242.15 108.781) rotate(-84.37)" fill="#23538c"/>
        <path id="Path_24388" data-name="Path 24388" d="M263.691,97.691,259.3,142.207a1.411,1.411,0,0,0,1.262,1.542l2.532.243,4.672-47.31-2.542-.252a1.4,1.4,0,0,0-1.532,1.262Z" transform="translate(-17.03 -34.813)" fill="#144270"/>
        <path id="Path_24389" data-name="Path 24389" d="M274.475,101.4l-11.036-1.093a.43.43,0,0,0-.458.374l-.4,4.112a.411.411,0,0,0,.374.458l9.494.934a.411.411,0,0,1,.374.458l-.832,8.41a.411.411,0,0,1-.458.374h-.224a.42.42,0,0,0-.449.533l1.346,4.532a.42.42,0,0,0,.355.3.439.439,0,0,0,.467-.383l1.383-14.017.449-4.523a.42.42,0,0,0-.383-.467Z" transform="translate(-17.246 -35.068)" fill="#f2ec22"/>
        <path id="Path_24390" data-name="Path 24390" d="M262.245,159.7l.962-2.271-1.467-.14Z" transform="translate(-17.191 -38.804)" fill="#0e2142"/>
        <path id="Path_24391" data-name="Path 24391" d="M267.526,144.434l-8.045-.794a.439.439,0,0,0-.486.4l-.224,2.345a.458.458,0,0,0,.411.486l8.036.794a.448.448,0,0,0,.5-.411l.224-2.336a.449.449,0,0,0-.411-.486Z" transform="translate(-16.996 -37.909)" fill="#0e2142"/>
        <path id="Path_24392" data-name="Path 24392" d="M247.7,109.21l-8.644,2.271,9.653,36.891a3.252,3.252,0,0,0,.673,1.28l5.756,6.606a.29.29,0,0,0,.5-.122l1.757-8.587a3.194,3.194,0,0,0,0-1.458Z" transform="translate(-15.704 -35.651)" fill="#fcd7a3"/>
        <path id="Path_24393" data-name="Path 24393" d="M256.117,159.323a.29.29,0,0,0,.5-.121l.663-3.261-3.336.878Z" transform="translate(-16.679 -38.715)" fill="#0f2145"/>
        <path id="Path_24394" data-name="Path 24394" d="M245.028,110l-2.878.757,9.662,36.976a1.5,1.5,0,0,0,2.887-.757Z" transform="translate(-15.906 -35.703)" fill="#fff"/>
        <path id="Path_24395" data-name="Path 24395" d="M248.108,109.21l-2.878.757,9.671,36.976a1.488,1.488,0,1,0,2.878-.757Z" transform="translate(-16.108 -35.651)" fill="#f23436"/>
        <path id="Path_24396" data-name="Path 24396" d="M241.947,110.83l-2.887.757,9.671,36.976a1.488,1.488,0,0,0,2.878-.757Z" transform="translate(-15.704 -35.758)" fill="#f23436"/>
        <path id="Path_24397" data-name="Path 24397" d="M241.522,97.273l-2.878.757a2.981,2.981,0,0,0-2.13,3.644l2.037,7.728,8.644-2.271L245.166,99.4a2.99,2.99,0,0,0-3.644-2.131Z" transform="translate(-15.53 -34.862)" fill="#fe6f71"/>
        <rect id="Rectangle_4684" data-name="Rectangle 4684" width="8.943" height="3.794" transform="matrix(0.967, -0.254, 0.254, 0.967, 222.576, 72.845)" fill="#0f2145"/>
        <path id="Path_24398" data-name="Path 24398" d="M227.69,195.177a5.074,5.074,0,0,0,5.074,5.074h36.845a5.065,5.065,0,0,0,5.065-5.074V132.57H227.69Z" transform="translate(-14.958 -37.183)" fill="url(#linear-gradient-10)"/>
        <path id="Path_24399" data-name="Path 24399" d="M253.27,200.251h18.016a5.065,5.065,0,0,0,5.065-5.074V132.57H253.27Z" transform="translate(-16.635 -37.183)" fill="#d3d3d3"/>
        <path id="Path_24400" data-name="Path 24400" d="M268,200.251h4.289a5.065,5.065,0,0,0,5.065-5.074V132.57H268Z" transform="translate(-17.601 -37.183)" fill="#d3d3d3"/>
        <rect id="Rectangle_4685" data-name="Rectangle 4685" width="48.74" height="5.139" rx="0.93" transform="translate(211.835 94.21)" fill="#fff"/>
        <path id="Path_24401" data-name="Path 24401" d="M121.224,155.11l-8.784,41.741h70.008l-8.784-41.741Z" transform="translate(-7.402 -38.661)" fill="#dbd9dd"/>
        <rect id="Rectangle_4686" data-name="Rectangle 4686" width="167.843" height="127.849" rx="7.37" transform="translate(56.121)" fill="url(#linear-gradient-11)"/>
        <path id="Path_24402" data-name="Path 24402" d="M60.09,159.092a6.887,6.887,0,0,0,6.887,6.887H221.046a6.887,6.887,0,0,0,6.887-6.887V147H60.09Z" transform="translate(-3.969 -38.129)" fill="#fff"/>
        <rect id="Rectangle_4687" data-name="Rectangle 4687" width="159.975" height="93.098" transform="translate(60.055 9.176)" fill="url(#linear-gradient-12)"/>
        <path id="Path_24403" data-name="Path 24403" d="M224.275,133.408V40.31H64.3Z" transform="translate(-4.245 -31.134)" fill="#d7f4f9"/>
        <path id="Path_24404" data-name="Path 24404" d="M189.665,194.5H103.342a5.476,5.476,0,0,0,0,10.942h86.323a5.476,5.476,0,1,0,0-10.942Z" transform="translate(-6.461 -41.243)" fill="#fff"/>
        <rect id="Rectangle_4688" data-name="Rectangle 4688" width="49.235" height="92.63" rx="4.5" transform="translate(50.869 71.634)" fill="url(#linear-gradient-13)"/>
        <rect id="Rectangle_4689" data-name="Rectangle 4689" width="44.124" height="76.091" transform="translate(53.42 77.212)" fill="url(#linear-gradient-12)"/>
        <path id="Path_24405" data-name="Path 24405" d="M101.324,189.22v-76.1H57.2Z" transform="translate(-3.78 -35.908)" fill="#d7f4f9"/>
        <circle id="Ellipse_255" data-name="Ellipse 255" cx="20.324" cy="20.324" r="20.324" transform="translate(55.158 97.63)" fill="#fff"/>
        <path id="Path_24406" data-name="Path 24406" d="M69.69,144.763V167.32l16.68-.131,4.112-2.57V141.38H73.063a3.373,3.373,0,0,0-3.373,3.383Z" transform="translate(-4.599 -37.761)" fill="#27bfe2"/>
        <path id="Path_24407" data-name="Path 24407" d="M69.69,144.763V167.32h3.5V141.38h-.131a3.373,3.373,0,0,0-3.373,3.383Z" transform="translate(-4.599 -37.761)" fill="#0cacc6"/>
        <path id="Path_24408" data-name="Path 24408" d="M69.72,168.949a2.719,2.719,0,0,0,2.729,2.719H90.483v-.355a2.373,2.373,0,0,1,0-4.728v-.364H72.449A2.729,2.729,0,0,0,69.72,168.949Z" transform="translate(-4.601 -39.389)" fill="#028b99"/>
        <path id="Path_24409" data-name="Path 24409" d="M70.1,168.975a2.373,2.373,0,0,0,2.373,2.373H90.508a2.373,2.373,0,0,1,0-4.728H72.473A2.383,2.383,0,0,0,70.1,168.975Z" transform="translate(-4.626 -39.416)" fill="#fcfcd4"/>
        <path id="Path_24410" data-name="Path 24410" d="M106.75,200.4a4.149,4.149,0,0,0,4.149,4.149h27.435V204a3.616,3.616,0,0,1,0-7.2v-.551H110.9A4.149,4.149,0,0,0,106.75,200.4Z" transform="translate(-7.029 -41.358)" fill="#84d2e6"/>
        <path id="Path_24411" data-name="Path 24411" d="M107.32,200.439a3.616,3.616,0,0,0,3.616,3.616h27.435a3.616,3.616,0,0,1,0-7.2H110.936a3.616,3.616,0,0,0-3.616,3.579Z" transform="translate(-7.066 -41.398)" fill="#fcfcd4"/>
        <path id="Path_24412" data-name="Path 24412" d="M109.12,191.629a4.149,4.149,0,0,0,4.149,4.149h27.444v-.551a3.616,3.616,0,0,1,0-7.2v-.551H113.269A4.149,4.149,0,0,0,109.12,191.629Z" transform="translate(-7.184 -40.783)" fill="#dd4536"/>
        <path id="Path_24413" data-name="Path 24413" d="M109.69,191.669a3.616,3.616,0,0,0,3.616,3.616h27.444a3.616,3.616,0,0,1,0-7.2H113.306a3.616,3.616,0,0,0-3.616,3.579Z" transform="translate(-7.221 -40.823)" fill="#fcfcd4"/>
        <path id="Path_24414" data-name="Path 24414" d="M112.85,182.859h0a4.14,4.14,0,0,0,4.14,4.14h27.444v-.542a3.616,3.616,0,0,1,0-7.2v-.542H116.99a4.14,4.14,0,0,0-4.14,4.149Z" transform="translate(-7.429 -40.208)" fill="#2bb673"/>
        <path id="Path_24415" data-name="Path 24415" d="M113.41,182.9a3.626,3.626,0,0,0,3.616,3.616h27.444a3.616,3.616,0,0,1,0-7.2H117.026a3.616,3.616,0,0,0-3.616,3.588Z" transform="translate(-7.465 -40.248)" fill="#fcfcd4"/>
        <path id="Path_24416" data-name="Path 24416" d="M108.9,174.089a4.14,4.14,0,0,0,4.14,4.14h27.444v-.542a3.616,3.616,0,0,1,0-7.2v-.542H113.04a4.14,4.14,0,0,0-4.14,4.149Z" transform="translate(-7.17 -39.633)" fill="#1c75bc"/>
        <path id="Path_24417" data-name="Path 24417" d="M109.46,174.128a3.626,3.626,0,0,0,3.616,3.616h27.444a3.616,3.616,0,0,1,0-7.2H113.076A3.626,3.626,0,0,0,109.46,174.128Z" transform="translate(-7.206 -39.673)" fill="#fcfcd4"/>
        <path id="Path_24418" data-name="Path 24418" d="M191.942,101.864c-.364,1.009-1.822,6.4.308,6.952s3.121.617,6.1-.934,6.915-21.352,6.915-21.352a15.142,15.142,0,0,0-7.008,2.972C195.54,91.9,192.278,100.855,191.942,101.864Z" transform="translate(-12.56 -34.164)" fill="#14035b"/>
        <path id="Path_24419" data-name="Path 24419" d="M207.283,203.742a28.482,28.482,0,0,0-.682-4.672h-4.672s-7.709,3.177-9.12,3.635a2.635,2.635,0,0,0-1.729,2.476c-.093.748,5.672,1.514,6.775,1.29s2.486-1.121,2.747-1.065.561.794.561.794,5.607,0,5.98-.15S207.208,205.022,207.283,203.742Z" transform="translate(-12.558 -41.543)" fill="#0e0e30"/>
        <path id="Path_24420" data-name="Path 24420" d="M220.744,205.132a27.712,27.712,0,0,0-.673-4.672H215.4s-7.709,3.168-9.12,3.635a2.635,2.635,0,0,0-1.729,2.476c-.093.748,5.672,1.514,6.765,1.29s2.495-1.121,2.757-1.065.561.785.561.785,5.607,0,5.98-.14S220.678,206.4,220.744,205.132Z" transform="translate(-13.441 -41.634)" fill="#0e0e30"/>
        <path id="Path_24421" data-name="Path 24421" d="M217.434,160.305c.206-4.317,1.794-28.781,1.486-31.771s-20.885-1.327-20.885-1.327-3.57,28-4.037,35.06,5.607,32.911,6.177,33.126,7.092-.065,7.13-.757-4.906-27.9-4.467-30.836,4.56-24.828,4.56-24.828,1.271,22.529,1.2,24.08,2.738,33.443,3.476,33.64,7.56,0,7.737-.477S217.228,164.613,217.434,160.305Z" transform="translate(-12.747 -36.801)" fill="url(#linear-gradient-15)"/>
        <path id="Path_24422" data-name="Path 24422" d="M207.408,140.922a6.667,6.667,0,0,1,.206-1.112,5.607,5.607,0,0,0-3.579,4.027c-.607,3.093-2.084,16.437-3.065,18.408s-4.055,2.672-3.317,3.794,2.084.42,3.065,4.495,4.177,19.249,3.691,21.641c-.29,1.4-1.635,2.9-2.345,4.093,2.112,0,5.429-.318,5.457-.813,0-.691-4.906-27.9-4.467-30.836C203.436,162.152,206.576,145.426,207.408,140.922Z" transform="translate(-12.981 -37.658)" fill="#14035b"/>
        <path id="Path_24423" data-name="Path 24423" d="M217.666,160.305c.206-4.317,1.794-28.781,1.486-31.771s-20.885-1.327-20.885-1.327-.308,2.439-.757,6.046a9.755,9.755,0,0,0,5.784,2.43c4.551,0,10.568-1.682,11.428,2.953s-1.355,20.09-.617,26.557,3.2,24.865,2.943,27.958c-.168,2.093-2.4,2.8-2.925,3.644,2.271,0,5.765-.206,5.9-.57S217.46,164.613,217.666,160.305Z" transform="translate(-12.979 -36.801)" fill="#d3d3d3"/>
        <path id="Path_24424" data-name="Path 24424" d="M213.264,85.881a14.016,14.016,0,0,0-8.765,1.112,8.158,8.158,0,0,0-4.84,6.457c-.206,1.607-.5,3.738-.934,6.261-1.1,6.616-1.364,26.706-1.364,26.706s-.093,1.972,8.69,2.943,14.334-1.542,14.334-1.542-.178-15.119.7-23.361C222.253,93.394,219.992,87.479,213.264,85.881Z" transform="translate(-12.97 -34.105)" fill="url(#linear-gradient-16)"/>
        <path id="Path_24425" data-name="Path 24425" d="M211.674,85.907a9.783,9.783,0,0,0-5.261.934s-1.785.934-1.934,2.2.869,2.121,2.8,2.168,3.205.14,4.672-.794,2.448-2.8,2.308-3.392S213.646,86.112,211.674,85.907Z" transform="translate(-13.435 -34.12)" fill="#230482"/>
        <path id="Path_24426" data-name="Path 24426" d="M197.149,93.67a2.8,2.8,0,0,0-2.8,1.869c-.411,1.243-1.346,3.906-1.346,3.906a29.9,29.9,0,0,0,3.074.934,10.878,10.878,0,0,0,.645-2.261c.075-.28.355-.3,1.262-.635a1.205,1.205,0,0,0,.794-1.252s1.009.5,1.551.224S198.4,93.688,197.149,93.67Z" transform="translate(-12.684 -34.632)" fill="#ffc2a9"/>
        <path id="Path_24427" data-name="Path 24427" d="M193.011,98.8a11.755,11.755,0,0,0-2.691,5.532c-.691,3.495,1.308,6.307,3.887,5.429s2.859-9.195,2.43-9.578A24.948,24.948,0,0,0,193.011,98.8Z" transform="translate(-12.499 -34.969)" fill="url(#linear-gradient-17)"/>
        <rect id="Rectangle_4690" data-name="Rectangle 4690" width="4.981" height="8.971" rx="0.79" transform="translate(182.188 59.044) rotate(-12.29)" fill="#0e0e30"/>
        <path id="Path_24428" data-name="Path 24428" d="M202.67,100.336c-.663-1.233-.934-4.037-1.523-3.9s0,2.71-.262,2.878a4.729,4.729,0,0,1-2.8-1.056c-1.056-.776-2.121-2.289-2.224-1.589s.934,1.869,1.168,2.168l.056.075-.056-.075c-.224-.262-.991-1.112-1.168-.635s.934,1.813.934,1.813-1.149-.934-1.112-.421a4.672,4.672,0,0,0,.888,1.617s-.682-.645-.654-.15.533,1.346,2.1,1.99,3.177.187,4.149.72a14.214,14.214,0,0,0,1.869,1.112,23.665,23.665,0,0,0,1.121-2.486,6.149,6.149,0,0,1-2.486-2.065Z" transform="translate(-12.859 -34.814)" fill="#ffc2a9"/>
        <path id="Path_24429" data-name="Path 24429" d="M197.14,99l.056.075Z" transform="translate(-12.955 -34.982)" fill="#ffc2a9"/>
        <path id="Path_24430" data-name="Path 24430" d="M213.423,85.84c-1.673.757.822,3.252,1.8,8.251.757,3.869,2.1,9.447.187,9.784s-10.279-3.317-10.279-3.317l-2.074,3.887s13.446,8.3,16.175,7.261,4.074-13.362,3.149-18.39C221.132,86.475,213.423,85.84,213.423,85.84Z" transform="translate(-13.343 -34.119)" fill="url(#linear-gradient-18)"/>
        <path id="Path_24431" data-name="Path 24431" d="M213.426,85.84a.934.934,0,0,0-.514.542c2,.776,5.607,2.43,6.541,4.551,1.252,2.962,1.252,9.653.934,13.708s-2.177,4.513-6.382,3.271a84.451,84.451,0,0,1-10.41-4.392l-.5.934s13.447,8.3,16.175,7.261,4.074-13.362,3.149-18.39C221.135,86.475,213.426,85.84,213.426,85.84Z" transform="translate(-13.346 -34.119)" fill="#d3d3d3"/>
        <path id="Path_24432" data-name="Path 24432" d="M210.618,80.58l-2.8,2.8a4.523,4.523,0,0,1-.3,2.8c-.635.934-2.859,1.869-2.233,2.962s4.672,1.5,6.2.308,2.915-2.373,2.224-3.112a17.913,17.913,0,0,1-3.093-5.765Z" transform="translate(-13.482 -33.774)" fill="#efab92"/>
        <path id="Path_24433" data-name="Path 24433" d="M211.354,80.64l-3.476,2.8a4.523,4.523,0,0,1-.3,2.8A8.41,8.41,0,0,1,206,87.517a4.345,4.345,0,0,0,2.738.336c1.944-.355,2.439.364,2.9,1.448,1.411-1.14,2.7-2.14,2.215-3A32.512,32.512,0,0,1,211.354,80.64Z" transform="translate(-13.536 -33.778)" fill="#ef9d84"/>
        <path id="Path_24434" data-name="Path 24434" d="M203.793,69.879A5.541,5.541,0,0,0,199.41,75.2s.065,2.514.748,3.364a5.971,5.971,0,0,1,1.346,2.448,8.855,8.855,0,0,0,4.336,5.672c2.99,1.43,5.354-3.42,6.046-5.364s.364-6.747-.738-8.943S207.194,68.963,203.793,69.879Z" transform="translate(-13.104 -33.052)" fill="#ffc2a9"/>
        <path id="Path_24435" data-name="Path 24435" d="M203.793,69.879a5.541,5.541,0,0,0-4.383,5.326,13.921,13.921,0,0,0,.2,1.869c1.775-.579,4.672-1.327,5.607-.383,1.364,1.392,1.224,3.037,2.018,3.373a2.887,2.887,0,0,1,2.131,2.252,4.317,4.317,0,0,1-2.981,4.6c2.738.654,4.85-3.738,5.5-5.551s.364-6.747-.738-8.943S207.194,68.963,203.793,69.879Z" transform="translate(-13.104 -33.053)" fill="#efab92"/>
        <path id="Path_24436" data-name="Path 24436" d="M211.059,69.559s-1.411-3.4-4.85-3.13-7.56,3.541-9.064,3.448-2.859-.486-2.551.477,1.037,1.233.934,1.523-1.532-.168-.8.832a3.457,3.457,0,0,0,1.467,1.252,1.159,1.159,0,0,0-.318,1.084c.2.6.383,1.2,2.261.934A18.688,18.688,0,0,0,204.677,74a4.56,4.56,0,0,0,2.439,1.981c1.476.271,1.448,2.243,1.869,1.71s.252-3.112,1.4-2.327.738,3.121.318,3.588c0,0,.934,1.42,1.738.841s1.037-4.756.617-6.84a6.541,6.541,0,0,0-2-3.392Z" transform="translate(-12.783 -32.845)" fill="#0e0e30"/>
        <path id="Path_24437" data-name="Path 24437" d="M176.48,199.239c-3.308-.5-3.8-.149-4.289-1.448s-6.382-.4-6.382-.4a22.035,22.035,0,0,0-.682,3.981,5.242,5.242,0,0,0,.215,2.4,41.116,41.116,0,0,0,9.671.308c4.822-.514,6.018-.43,6.149-.869a1.766,1.766,0,0,0-.075-1.5C180.787,201.36,179.788,199.725,176.48,199.239Z" transform="translate(-10.853 -41.413)" fill="#0e0e30"/>
        <path id="Path_24438" data-name="Path 24438" d="M142.708,130.55c-3.252.131-4.037,1.691-4.168,5.2a70.388,70.388,0,0,0,.757,9.587l7.046-.748a87.954,87.954,0,0,0-.514-9.232C145.3,131.326,142.708,130.55,142.708,130.55Z" transform="translate(-9.113 -37.051)" fill="#191f54"/>
        <path id="Path_24439" data-name="Path 24439" d="M141.5,158.678c-4.055-.981-11.036-.841-13.418,5.167s4.055,6.541,7.13,7.41,19.287.832,20.679.934,2.037,5.607,3.289,8.793,3.691,15.343,3.691,15.343l7.13-.794c.561-2.523-2.8-31.3-5.027-33.256S141.5,158.678,141.5,158.678Z" transform="translate(-8.393 -38.865)" fill="url(#linear-gradient-19)"/>
        <path id="Path_24440" data-name="Path 24440" d="M141.945,158.677a15.6,15.6,0,0,0-7.625,0c1.2.5,3.233.822,7.2.654,0,0,16.764,1.112,19.006,2.8s4.037,5.037,4.457,9.344c.336,3.476,2.85,20.072,3.224,24.239l2.233-.215c.561-2.523-1.112-29.622-5.027-33.256C160.923,158.135,141.945,158.677,141.945,158.677Z" transform="translate(-8.836 -38.864)" fill="#d3d3d3"/>
        <path id="Path_24441" data-name="Path 24441" d="M154.72,203.847c-3.233-.85-4.046-.99-4.382-2.345s-6.3-1.093-6.3-1.093a21.18,21.18,0,0,0-1.121,3.869,5.327,5.327,0,0,0-.047,2.42,40.658,40.658,0,0,0,9.578,1.364c4.85,0,6.027-.224,6.2-.645s.374-.766.112-1.159S157.935,204.7,154.72,203.847Z" transform="translate(-9.389 -41.63)" fill="#0e0e30"/>
        <path id="Path_24442" data-name="Path 24442" d="M126.565,159.83a4,4,0,0,0-3.3,1.738c-1.448,2.1-3.112,5.607,0,7.709,4.728,3.149,23.613,2.252,23.837,3.373s-5.214,26.164-5.214,26.164,5.663,1,7.008.551,10.344-29.229,9-34.63C156.784,160.185,133.47,159.83,126.565,159.83Z" transform="translate(-7.996 -38.97)" fill="url(#linear-gradient-20)"/>
        <path id="Path_24443" data-name="Path 24443" d="M157.892,164.4a.663.663,0,0,0-.093-.131,2.73,2.73,0,0,0-.2-.262l-.178-.159a1.815,1.815,0,0,0-.243-.215,2.057,2.057,0,0,0-.234-.159l-.29-.2-.29-.15-.336-.178-.29-.121-.392-.168-.374-.131-.439-.15-.421-.131-.467-.14-.477-.112c-.159-.047-.318-.093-.5-.131l-.514-.112-.514-.112-.542-.1-.561-.112-.551-.093-.589-.093-.6-.093-.589-.084-.607-.084-.626-.075-.617-.075-.645-.075-.626-.065-.663-.065-.635-.056-.654-.056-.663-.056-.645-.047h-.654l-.654-.047H126.654a4,4,0,0,0-3.084,1.476c.374,1.336.86,1.719,5.037,2.8,6.457,1.617,17.343,2.551,19.978,2.644s4.766,1.5,5.28,4.906-1.785,13.176-2.635,16.325-2.8,8.475-5.859,9.41a10.2,10.2,0,0,1-3.13.514c-.131.635-.215,1-.215,1s.589.1,1.43.224l.934.131h.149l1.037.131h.131a10.707,10.707,0,0,0,3.345,0c.934-.308,5.476-14.017,7.784-24.3.1-.467.206-.934.3-1.383a54.041,54.041,0,0,0,.934-5.934,9.9,9.9,0,0,0-.056-3.018,1.617,1.617,0,0,0-.121-.9Z" transform="translate(-8.131 -39.005)" fill="#d3d3d3"/>
        <path id="Path_24444" data-name="Path 24444" d="M142.9,132.535c-1.663-3.981-4.429-4.756-8.952-5.2a12.282,12.282,0,0,0-8.3,3.869c-3.205,3.756-5.962,22.109-5.962,25.753s-.28,8.8,3.028,10.017-1.149-5.494,19.287-10.344c0,0-2.962-6.139-1.5-11.811C141.7,140.217,144.555,136.516,142.9,132.535Z" transform="translate(-7.877 -36.84)" fill="url(#linear-gradient-21)"/>
        <path id="Path_24445" data-name="Path 24445" d="M139.9,124.256c-.308-.252-3.925-1.476-3.925-1.476a15.476,15.476,0,0,1-1.542,4.2c-.794,1.065-1.8,2.056-.533,3.271s5.037,2.551,5.607,1.439-.757-2.13-.8-3.85S140.2,124.509,139.9,124.256Z" transform="translate(-8.769 -36.541)" fill="#e29d88"/>
        <path id="Path_24446" data-name="Path 24446" d="M145.617,115.27c-2.971-1.5-5.84-.934-7.289.934s-2.682,6.214-2.411,8.148,1.523,6.868,4.569,6.121a8.41,8.41,0,0,0,5.111-4.42,5.606,5.606,0,0,1,1.719-2c.794-.663,1.336-2.981,1.336-2.981a5.223,5.223,0,0,0-3.037-5.8Z" transform="translate(-8.939 -35.992)" fill="#ffc2a9"/>
        <path id="Path_24447" data-name="Path 24447" d="M145.617,115.27c-2.971-1.5-5.84-.934-7.289.934s-2.682,6.214-2.411,8.148,1.374,6.27,4.037,6.2a4.083,4.083,0,0,1-1.869-4.831,2.738,2.738,0,0,1,2.411-1.682c.794-.15.981-1.71,2.514-2.738,1.028-.691,3.588.561,5.121,1.439a12.522,12.522,0,0,0,.533-1.663A5.223,5.223,0,0,0,145.617,115.27Z" transform="translate(-8.939 -35.992)" fill="#efab92"/>
        <path id="Path_24448" data-name="Path 24448" d="M147.862,114.069c-1.364-1.1-2.953-2.271-4.672-2.065v-1.28a1.971,1.971,0,0,0-1.262.748,3.009,3.009,0,0,0-1.42-.981l.5,1.205c-1.336-.355-2.074.458-2.906,1.3a8.1,8.1,0,0,0-1.99,2.467c-.822,1.953-1.439,6.064-.776,6.793s1.869-.467,1.869-.467c-.327-.533-.243-2.906,1.037-3.429s.6,1.944.888,2.551.654-1.327,2.149-1.29a4.5,4.5,0,0,0,2.859-1.439,24.5,24.5,0,0,1,2.131,1.7,4.28,4.28,0,0,0,2.747.934,5.85,5.85,0,0,0,2.345-.86,7.794,7.794,0,0,1-1.131-1.626,2.523,2.523,0,0,0,2.345-2.2C150.805,116.34,149.235,115.172,147.862,114.069Z" transform="translate(-8.885 -35.735)" fill="#0e0e30"/>
        <path id="Path_24449" data-name="Path 24449" d="M129.32,161.557l14.633,2.215,16.156-5,.149-.962-30.939,2.981Z" transform="translate(-8.508 -38.838)" fill="#617375"/>
        <path id="Path_24450" data-name="Path 24450" d="M129.32,160.708l14.587,1.981s15.885-4.672,16.24-4.672-13.923-1.467-13.923-1.467Z" transform="translate(-8.508 -38.755)" fill="#889ca0"/>
        <path id="Path_24451" data-name="Path 24451" d="M134.62,160.51l9.559,1.3c5.41-1.607,9.008-2.663,11.409-3.355l-8.952-.934Z" transform="translate(-8.856 -38.819)" fill="#617375"/>
        <path id="Path_24452" data-name="Path 24452" d="M150.941,153.142c-1.084-.206-4.14-3.513-4.448-4.186a14.232,14.232,0,0,1-.252-3.336l-4.27.4a35.826,35.826,0,0,0,.392,5.317c.364,1.346,6.2,3.046,6.821,3.252s0,1.14.57,1.551.673-.673.934-1.028.776.981,1.3,1.551,1.869.364,2.476,0,.318-1.757-.1-2.486S152.025,153.357,150.941,153.142Z" transform="translate(-9.338 -38.039)" fill="#ffc2a9"/>
        <path id="Path_24453" data-name="Path 24453" d="M145.521,150.859a4.971,4.971,0,0,1-1.6-5.009l-1.953.187a35.825,35.825,0,0,0,.392,5.317c.364,1.346,6.2,3.046,6.821,3.252s0,1.14.57,1.551.673-.673.934-1.028.776.981,1.3,1.551,1.869.364,2.476,0c.421-.271.392-1.093.178-1.8C151.894,153.933,147.6,152.475,145.521,150.859Z" transform="translate(-9.338 -38.054)" fill="#efab92"/>
        <path id="Path_24454" data-name="Path 24454" d="M137.434,152.63c-1.551-.336-13.6-3.981-13.923-4.971s1.654-3.542,1.654-3.542l-5.28-1.327s-2.317,4.868-1.43,7.3,8.615,3.317,14.689,3.981l2.99.766a3.429,3.429,0,0,0,2.093,1.663c1.439.327,2.486.178,3.093.663s1.327,1.654,1.663,1.327a7.186,7.186,0,0,0,.776-4.2C143.4,152.854,138.976,152.957,137.434,152.63Z" transform="translate(-7.783 -37.853)" fill="#ffc2a9"/>
        <path id="Path_24455" data-name="Path 24455" d="M138.253,154.471c-.523-1.047-13.848-3.467-16.82-4.672-2.233-.934-.934-4.822-.243-6.653l-1.364-.346s-2.317,4.868-1.43,7.3,8.615,3.317,14.689,3.981l2.99.766a3.429,3.429,0,0,0,2.093,1.663c1.439.327,2.486.178,3.093.663s1.327,1.654,1.663,1.327a6.252,6.252,0,0,0,.757-2.317C142.121,155.574,138.664,155.293,138.253,154.471Z" transform="translate(-7.779 -37.854)" fill="#efab92"/>
        <path id="Path_24456" data-name="Path 24456" d="M128.069,129.43c-5.41.336-9.279,12.708-9.279,12.708l6.737,2.8s5.747-7.625,5.747-11.494S128.069,129.43,128.069,129.43Z" transform="translate(-7.818 -36.977)" fill="#191f54"/>
        <path id="Path_24457" data-name="Path 24457" d="M166.786,142.629l-15.549,3.794a1.579,1.579,0,0,0-1.112,1l-5.2,14.362,16.353-4.971,6.139-13.316C167.665,142.918,167.272,142.507,166.786,142.629Z" transform="translate(-9.532 -37.841)" fill="#617375"/>
        <path id="Path_24458" data-name="Path 24458" d="M167.124,143l-15.568,3.8a1.588,1.588,0,0,0-1.112,1.009l-5.2,14.362,16.362-4.981,5.84-13.8a.28.28,0,0,0-.318-.392Z" transform="translate(-9.552 -37.866)" fill="#889ca0"/>
        <rect id="Rectangle_4691" data-name="Rectangle 4691" width="259.417" height="8.064" rx="2.51" transform="translate(7.979 161.769)" fill="url(#linear-gradient-22)"/>
      </g>
    </g>
  </g>
</svg>
