<svg xmlns="http://www.w3.org/2000/svg" xmlns:xlink="http://www.w3.org/1999/xlink" width="37" height="37" viewBox="0 0 37 37">
  <defs>
    <clipPath id="clip-path">
      <path id="Path_25391" data-name="Path 25391" d="M166.25,148.31a18.5,18.5,0,1,1-18.5-18.5,18.5,18.5,0,0,1,18.5,18.5Z" transform="translate(-129.25 -129.81)" fill="#f9b233"/>
    </clipPath>
  </defs>
  <g id="Group_215" data-name="Group 215" transform="translate(-1040.25 -719.844)">
    <path id="Path_25382" data-name="Path 25382" d="M166.25,148.31a18.5,18.5,0,1,1-18.5-18.5,18.5,18.5,0,0,1,18.5,18.5Z" transform="translate(911 590.034)" fill="#f9b233"/>
    <g id="Group_211" data-name="Group 211" transform="translate(1040.25 719.844)" clip-path="url(#clip-path)">
      <path id="Path_25383" data-name="Path 25383" d="M170.132,214.5c-1.243-1.45-11.075-4.631-11.075-4.631s-9.624,3.521-11.075,4.631S146,222.644,146,222.644h25.85S171.375,215.952,170.132,214.5Z" transform="translate(-140.73 -184.681)" fill="#004b74"/>
      <path id="Path_25384" data-name="Path 25384" d="M182.224,209.8l-4.477,1.708L173.27,209.8v-2.284a15.359,15.359,0,0,1,4.587-.717,13.066,13.066,0,0,1,4.367.717Z" transform="translate(-159.42 -182.576)" fill="#013958"/>
      <path id="Path_25385" data-name="Path 25385" d="M183.018,203.142l-3.8,1.708-3.8-1.708v-3h7.608Z" transform="translate(-160.887 -178.012)" fill="#dda778"/>
      <path id="Path_25386" data-name="Path 25386" d="M178.972,151.37v-4.128c0-5.783-2.319-9.662-7.551-9.662s-7.551,3.879-7.551,9.662v4.128a22.279,22.279,0,0,0,2.2-2.146c.475-.538-1.145-3.5-.651-4.748a6.748,6.748,0,0,1,2.133-2.586s.629.736,3.461.994c2.888.267,3.892-1.325,3.892-1.325s.245,6.607.89,7.469A6.475,6.475,0,0,0,178.972,151.37Z" transform="translate(-152.978 -135.135)"/>
      <path id="Path_25387" data-name="Path 25387" d="M207.325,172.041c0,1.284-.912,3.052-1.529,3.052s-1.111-1.041-1.111-2.328a2.766,2.766,0,0,1,1.111-2.328C206.394,169.971,207.325,170.436,207.325,172.041Z" transform="translate(-180.95 -157.537)" fill="#f9bb8d"/>
      <path id="Path_25388" data-name="Path 25388" d="M162.45,172.041c0,1.284.912,3.052,1.526,3.052s1.114-1.041,1.114-2.328a2.756,2.756,0,0,0-1.114-2.328C163.381,169.971,162.45,170.436,162.45,172.041Z" transform="translate(-152.004 -157.537)" fill="#f9bb8d"/>
      <path id="Path_25389" data-name="Path 25389" d="M174.28,143.5c-4.32,0-6.23,3.027-6.23,7.551v5.663a13.359,13.359,0,0,0,.629,3.621c1.023,2.108,4.052,4.449,5.487,4.449s4.845-2.312,5.663-4.32a16.994,16.994,0,0,0,.7-4.115v-5.308C180.509,146.527,178.6,143.5,174.28,143.5Z" transform="translate(-155.843 -139.193)" fill="#f9bb8d"/>
      <path id="Path_25390" data-name="Path 25390" d="M179.909,152.423l.387-2.347c.274-5.33-2.3-9.266-6.607-9.266s-6.67,4.505-6.506,9.266l.277,2.347a4.562,4.562,0,0,1,.878-2.693c.393-.422,0-1.718.4-2.69a5.33,5.33,0,0,1,1.759-2.017s.529.573,2.832.774c2.382.208,3.209-1.035,3.209-1.035a2.88,2.88,0,0,1,2.2,1.929,3.853,3.853,0,0,1,.079,2.457A14.537,14.537,0,0,0,179.909,152.423Z" transform="translate(-155.243 -137.349)"/>
    </g>
  </g>
</svg>
