<svg xmlns="http://www.w3.org/2000/svg" xmlns:xlink="http://www.w3.org/1999/xlink" width="37" height="37" viewBox="0 0 37 37">
  <defs>
    <clipPath id="clip-path">
      <path id="Path_25349" data-name="Path 25349" d="M166.25,18.5A18.5,18.5,0,1,1,147.75,0a18.5,18.5,0,0,1,18.5,18.5Z" transform="translate(-129.25)" fill="#72bcc6"/>
    </clipPath>
  </defs>
  <g id="Group_212" data-name="Group 212" transform="translate(-713.25 -531.293)">
    <path id="Path_25336" data-name="Path 25336" d="M166.25,18.5A18.5,18.5,0,1,1,147.75,0a18.5,18.5,0,0,1,18.5,18.5Z" transform="translate(584 531.293)" fill="#72bcc6"/>
    <g id="Group_207" data-name="Group 207" transform="translate(713.25 531.293)" clip-path="url(#clip-path)">
      <path id="Path_25337" data-name="Path 25337" d="M170.1,83.084c-1.161-1.45-10.364-4.634-10.364-4.634s-9.008,3.521-10.367,4.634-1.863,8.139-1.863,8.139H171.7S171.261,84.532,170.1,83.084Z" transform="translate(-141.765 -53.768)" fill="#003662"/>
      <path id="Path_25338" data-name="Path 25338" d="M182.908,74.391a2.2,2.2,0,0,1-1.287,1.413c-.393.176-.9,2.419-1.573,2.419s-1.23-2.256-1.633-2.448a2.177,2.177,0,0,1-1.218-1.384,3.775,3.775,0,0,0,0-3c-.7-1.62,6.551-1.948,5.7,0S182.908,74.391,182.908,74.391Z" transform="translate(-162.08 -48.009)" fill="#dda778"/>
      <path id="Path_25339" data-name="Path 25339" d="M175.441,25.147c.529-2.382,1.17-5.887,1.17-5.887,2.2-4.908-.082-12.308-4.339-10.033-5.267-4.811-13.6,1.916-10.779,9.967a56.571,56.571,0,0,0,.887,6.031c.629,2.637,5.166,4.6,6.554,4.675S174.878,27.67,175.441,25.147Z" transform="translate(-150.96 -5.218)" fill="#281511"/>
      <path id="Path_25340" data-name="Path 25340" d="M206.251,45.231c0,1.284-.909,3.052-1.526,3.052s-1.111-1.045-1.111-2.328a2.756,2.756,0,0,1,1.111-2.328C205.307,43.161,206.251,43.626,206.251,45.231Z" transform="translate(-180.216 -29.783)" fill="#f9bb8d"/>
      <path id="Path_25341" data-name="Path 25341" d="M161.36,45.231c0,1.284.912,3.052,1.526,3.052S164,47.238,164,45.955a2.756,2.756,0,0,0-1.114-2.328C162.291,43.161,161.36,43.626,161.36,45.231Z" transform="translate(-151.257 -29.783)" fill="#f9bb8d"/>
      <path id="Path_25342" data-name="Path 25342" d="M173.18,16.69c-4.32,0-6.23,3.027-6.23,7.551V29.9c0,3.936,4.543,7.3,5.978,7.3s6.481-3.93,6.481-7.658V24.232C179.412,19.717,177.5,16.69,173.18,16.69Z" transform="translate(-155.089 -11.439)" fill="#f9bb8d"/>
      <path id="Path_25343" data-name="Path 25343" d="M178.96,26.593l.387-3.3c0-4.515-2.3-7.866-6.607-7.866s-6.45,3.363-6.45,7.866l.22,4.021a4.216,4.216,0,0,0,.466-2.136c-.1-2.9,1.926-3.146,4.288-3.609,3.728-.711,4.773-2.945,4.773-2.945a3.867,3.867,0,0,1,2,2.234,9.9,9.9,0,0,1,.582,3.719,7.982,7.982,0,0,0,.337,2.014Z" transform="translate(-154.636 -10.575)" fill="#281511"/>
      <path id="Path_25344" data-name="Path 25344" d="M169.178,40.43c-1.674,0-2.718.629-2.718,1.284,0,1.048.384,2.747,2.042,2.948,1.608.2,3.7-.387,3.7-3.064C172.205,40.974,170.849,40.43,169.178,40.43Zm-.557,3.93c-1.422-.17-1.746-1.627-1.746-2.517,0-.566.894-1.1,2.325-1.1s2.593.466,2.593,1C171.793,44.029,170,44.526,168.621,44.36Z" transform="translate(-154.753 -27.71)" fill="#ac0f09"/>
      <path id="Path_25345" data-name="Path 25345" d="M185.206,43.809a.576.576,0,0,0-.629-.406c-.381,0-.475.447-.475.447l-.2-1.18a1.019,1.019,0,0,0,.462.239,1.888,1.888,0,0,0,.5,0,.749.749,0,0,0,.34-.239Z" transform="translate(-166.706 -29.245)" fill="#ac0f09"/>
      <path id="Path_25346" data-name="Path 25346" d="M165.891,44.758s-.6-.044-.6-.352v-.944c0-.485.6-.315.6-.315Z" transform="translate(-153.951 -29.552)" fill="#ac0f09"/>
      <path id="Path_25347" data-name="Path 25347" d="M187.19,41.6c0,2.677,2.1,3.26,3.7,3.064,1.658-.2,2.042-1.888,2.042-2.948,0-.661-1.045-1.284-2.718-1.284S187.19,40.974,187.19,41.6Zm.415.138c0-.532,1.158-1,2.589-1s2.325.532,2.325,1.1c0,.9-.315,2.353-1.746,2.517s-3.168-.324-3.168-2.618Z" transform="translate(-168.961 -27.71)" fill="#ac0f09"/>
      <path id="Path_25348" data-name="Path 25348" d="M204.71,44.758s.6-.044.6-.352v-.944c0-.485-.6-.315-.6-.315Z" transform="translate(-180.968 -29.552)" fill="#ac0f09"/>
    </g>
  </g>
</svg>
