<svg xmlns="http://www.w3.org/2000/svg" xmlns:xlink="http://www.w3.org/1999/xlink" width="134.8" height="134.8" viewBox="0 0 134.8 134.8">
  <defs>
    <clipPath id="clip-path">
      <path id="Path_25335" data-name="Path 25335" d="M134.8,67.4a67.394,67.394,0,1,1,0-.011Z" fill="#ae9dcc"/>
    </clipPath>
  </defs>
  <g id="Group_206" data-name="Group 206" clip-path="url(#clip-path)">
    <path id="Path_25328" data-name="Path 25328" d="M88.877,72.681c.653-8.861,1.742-22.65,1.742-22.65,8.024-17.882-4.849-44.016-15.807-36.554C63.075-2.181,23.666,15.345,35.542,49.79a109.618,109.618,0,0,1-1.57,22.249c-2.969,15.3-8.333,31.82-3.439,35.614C37.513,113,88.82,113.58,91.938,109.6,97.061,103.183,88.212,81.542,88.877,72.681Z" transform="translate(4.176 1.126)" fill="#e6332a"/>
    <path id="Path_25329" data-name="Path 25329" d="M101.743,95.333C97.513,90.049,63.985,78.46,63.985,78.46S31.156,91.275,26.216,95.333s-6.786,29.654-6.786,29.654h88.136S105.973,100.606,101.743,95.333Z" transform="translate(2.842 11.475)" fill="#153c37"/>
    <path id="Path_25330" data-name="Path 25330" d="M70.023,85.869s-1.272,6.224-10.385,6.224-10.316-6.224-10.316-6.224a13.755,13.755,0,0,0,0-10.935c-2.533-5.9,23.865-7.1,20.759,0S70.023,85.869,70.023,85.869Z" transform="translate(7.189 10.245)" fill="#dda778"/>
    <path id="Path_25331" data-name="Path 25331" d="M85.128,49.926c0,4.677-3.324,11.119-5.559,11.119s-4.058-3.794-4.058-8.482a10.041,10.041,0,0,1,4.058-8.482C81.735,42.383,85.128,44.08,85.128,49.926Z" transform="translate(11.043 6.356)" fill="#f9bb8d"/>
    <path id="Path_25332" data-name="Path 25332" d="M33.28,49.926c0,4.677,3.324,11.119,5.559,11.119S42.9,57.25,42.9,52.562a10.041,10.041,0,0,0-4.058-8.482C36.673,42.383,33.28,44.08,33.28,49.926Z" transform="translate(4.867 6.356)" fill="#f9bb8d"/>
    <path id="Path_25333" data-name="Path 25333" d="M61.566,16.69c-15.738,0-22.7,11.027-22.7,27.51V64.833c0,14.328,16.552,26.582,21.779,26.582S84.25,77.086,84.25,63.5V44.166C84.262,27.717,77.3,16.69,61.566,16.69Z" transform="translate(5.685 2.441)" fill="#f9bb8d"/>
    <path id="Path_25334" data-name="Path 25334" d="M84.482,56.175l.665-8.551C88.586,30.992,77.673,14.91,61.935,14.91S33.989,32.459,38.207,49.091l.883,9.72a11.612,11.612,0,0,0,3.588-7.118c.413-3.53,1.765-17.79,1.765-17.79l1.674,8.368L65.1,43.521l3.255-6.66,1.3,6.958,6.041.4,3.886-11.657s.539,10.121,1.754,17.744C82.1,55.132,84.482,56.175,84.482,56.175Z" transform="translate(5.465 2.181)" fill="#e6332a"/>
  </g>
</svg>
