<svg xmlns="http://www.w3.org/2000/svg" xmlns:xlink="http://www.w3.org/1999/xlink" width="37" height="37" viewBox="0 0 37 37">
  <defs>
    <clipPath id="clip-path">
      <path id="Path_25371" data-name="Path 25371" d="M294.15,18.5A18.5,18.5,0,1,1,275.666,0,18.5,18.5,0,0,1,294.15,18.5Z" transform="translate(-257.15 0)" fill="#95a63a"/>
    </clipPath>
  </defs>
  <g id="Group_213" data-name="Group 213" transform="translate(-767.15 -647.544)">
    <path id="Path_25361" data-name="Path 25361" d="M294.15,18.5A18.5,18.5,0,1,1,275.666,0,18.5,18.5,0,0,1,294.15,18.5Z" transform="translate(510 647.544)" fill="#95a63a"/>
    <g id="Group_209" data-name="Group 209" transform="translate(767.15 647.544)" clip-path="url(#clip-path)">
      <path id="Path_25362" data-name="Path 25362" d="M320.168,36.58c-.982.315.116,4.235,1.258,2.665.072.579-.2,1.18-.846,1.152-.154.658.824.535.843,1.306s-.7.7-.7,1.4a.988.988,0,0,0,1.3.875c.721-.258.777-.881.944-1.428a1.944,1.944,0,0,1,.088,1.938c.456.057.689-.352.7-.755a1.258,1.258,0,0,1-.085,1.3c.176-.038.422.053.6.025a2.2,2.2,0,0,1-.994,1.831c-.579.428-1.737.334-.78,1.126.7.585,1.3.249,1.321,1.378.016.809-.371,1.573-1.23,1.539a.255.255,0,0,0-.057-.135,1.9,1.9,0,0,1-.2,2.517c.132-.422.2-1.023-.211-1.284a.647.647,0,0,1-.315.783c.132,1.516-2.721,1.6-3.738,1.693-.774.076-1.488.393-2.253.469a14.822,14.822,0,0,1-2.237-.094c-.069-3.146-1.743-5.978-2.866-8.857-.507-1.3.239-2.077,1.164-3.086,1.331-1.457,2.778-2.715,3.939-4.266Z" transform="translate(-293.755 -25.071)" fill="#331b19"/>
      <path id="Path_25363" data-name="Path 25363" d="M280.515,36.58c.982.315-.116,4.235-1.259,2.665-.076.579.2,1.18.843,1.152.154.658-.821.535-.84,1.306s.7.7.7,1.4a.991.991,0,0,1-1.321.875c-.72-.258-.774-.881-.944-1.428a1.944,1.944,0,0,0-.085,1.938c-.456.057-.692-.352-.708-.755a1.258,1.258,0,0,0,.085,1.3c-.176-.038-.418.053-.6.025a2.181,2.181,0,0,0,.994,1.831c.535.4,1.737.334.78,1.126-.7.585-1.3.249-1.321,1.378-.016.809.368,1.573,1.227,1.539a.258.258,0,0,1,.06-.135,1.9,1.9,0,0,0,.2,2.517c-.132-.422-.2-1.023.211-1.284a.647.647,0,0,0,.315.783c-.132,1.516,2.722,1.6,3.741,1.693.774.076,1.485.393,2.25.469a14.863,14.863,0,0,0,2.24-.094c.069-3.146,1.743-5.978,2.866-8.857.507-1.3-.242-2.077-1.164-3.086-1.331-1.457-2.781-2.715-3.942-4.266Z" transform="translate(-270.324 -25.071)" fill="#331b19"/>
      <path id="Path_25364" data-name="Path 25364" d="M298.606,83.091c-1.164-1.45-10.364-4.631-10.364-4.631s-9.011,3.518-10.383,4.631S276,91.231,276,91.231h24.192S299.767,84.539,298.606,83.091Z" transform="translate(-270.069 -53.774)" fill="#d84b58"/>
      <path id="Path_25365" data-name="Path 25365" d="M311.485,74.391s-.352,1.708-2.85,1.708-2.847-1.708-2.847-1.708a3.8,3.8,0,0,0,0-3c-.7-1.62,6.547-1.948,5.7,0S311.485,74.391,311.485,74.391Z" transform="translate(-290.453 -48.009)" fill="#dda778"/>
      <path id="Path_25366" data-name="Path 25366" d="M303.332,25.257a23.316,23.316,0,0,1,1.724-5.937c2.2-4.908-1.328-12.082-4.336-10.033-3.222-4.3-14.039.513-10.779,9.967a21.809,21.809,0,0,1,1.466,5.663c.129,2.4,4.452,4.719,5.839,4.795S303.153,27.689,303.332,25.257Z" transform="translate(-279.21 -5.278)" fill="#331b19"/>
      <path id="Path_25367" data-name="Path 25367" d="M334.755,45.231c0,1.284-.912,3.052-1.526,3.052s-1.114-1.041-1.114-2.328a2.756,2.756,0,0,1,1.114-2.328C333.823,43.161,334.755,43.626,334.755,45.231Z" transform="translate(-308.527 -29.783)" fill="#f9bb8d"/>
      <path id="Path_25368" data-name="Path 25368" d="M289.89,45.231c0,1.284.912,3.052,1.526,3.052s1.111-1.041,1.111-2.328a2.756,2.756,0,0,0-1.111-2.328C290.821,43.161,289.89,43.626,289.89,45.231Z" transform="translate(-279.589 -29.783)" fill="#f9bb8d"/>
      <path id="Path_25369" data-name="Path 25369" d="M301.71,16.69c-4.32,0-6.23,3.027-6.23,7.551V29.9c0,3.93,4.543,7.3,5.978,7.3s6.481-3.933,6.481-7.661V24.232C307.939,19.717,306.026,16.69,301.71,16.69Z" transform="translate(-283.42 -11.439)" fill="#f9bb8d"/>
      <path id="Path_25370" data-name="Path 25370" d="M306.9,26.237l.182-2.347c.944-4.565-2.051-8.979-6.371-8.979s-7.68,4.817-6.516,9.382l.245,2.668a3.206,3.206,0,0,0,.975-1.966,4.375,4.375,0,0,1,3.776-3.776c3.725-.711,4.773-2.945,4.773-2.945a17.9,17.9,0,0,1,1.573,2.945c.5,1.177,0,1.888.434,3.074a10.348,10.348,0,0,0,.928,1.944Z" transform="translate(-282.379 -10.219)" fill="#331b19"/>
    </g>
  </g>
</svg>
