<svg xmlns="http://www.w3.org/2000/svg" width="11.842" height="13.667" viewBox="0 0 11.842 13.667">
  <g id="layer1" transform="translate(-0.793 -288.795)">
    <path id="path893" d="M6.706.261a1.359,1.359,0,0,0-.9,2.386A4.1,4.1,0,0,0,2.616,6.641a10.552,10.552,0,0,1-.77,4.595,1.364,1.364,0,0,0,.316,2.692h9.1a1.364,1.364,0,0,0,.316-2.692,10.552,10.552,0,0,1-.77-4.595,4.1,4.1,0,0,0-3.207-4,1.359,1.359,0,0,0-.9-2.382Zm0,.911a.456.456,0,1,1-.454.454A.449.449,0,0,1,6.706,1.172Zm.008,2.282A3.17,3.17,0,0,1,9.9,6.641a12.082,12.082,0,0,0,.7,4.553H2.823a12.081,12.081,0,0,0,.7-4.553A3.17,3.17,0,0,1,6.714,3.454ZM2.161,12.106h9.1a.456.456,0,1,1,0,.912h-9.1a.456.456,0,1,1,0-.912Z" transform="translate(0 288.533)"/>
  </g>
</svg>
