<svg xmlns="http://www.w3.org/2000/svg" width="134" height="133.717" viewBox="0 0 134 133.717">
  <g id="donut-chart" transform="translate(0 -0.54)">
    <g id="Group_189" data-name="Group 189" transform="translate(0 0.54)">
      <g id="Group_188" data-name="Group 188">
        <path id="Path_810" data-name="Path 810" d="M39.972,86.989A33.414,33.414,0,0,1,61.842,34.2a2.791,2.791,0,0,0,2.366-2.759V3.332A2.789,2.789,0,0,0,63.3,1.274,2.741,2.741,0,0,0,61.177.552C26.87,3.51,0,32.811,0,67.257a67.072,67.072,0,0,0,15.7,43.064,2.787,2.787,0,0,0,2.018.992c.038,0,.082,0,.12,0a2.79,2.79,0,0,0,1.974-.818l19.88-19.885A2.791,2.791,0,0,0,39.972,86.989Z" transform="translate(0 -0.54)" fill="#f3dc53"/>
        <path id="Path_811" data-name="Path 811" d="M137.539.554a2.79,2.79,0,0,0-3.032,2.781V31.442a2.791,2.791,0,0,0,2.366,2.759,33.475,33.475,0,1,1-24.9,60.083,2.794,2.794,0,0,0-3.62.278l-19.88,19.885a2.784,2.784,0,0,0,.18,4.111,66.971,66.971,0,0,0,110.058-51.3C198.716,32.813,171.846,3.512,137.539.554Z" transform="translate(-64.716 -0.542)" fill="#3d066d"/>
      </g>
    </g>
  </g>
</svg>
