<svg xmlns="http://www.w3.org/2000/svg" width="19.833" height="19.833" viewBox="0 0 19.833 19.833">
  <g id="edit" transform="translate(0 0)">
    <g id="edit-2" data-name="edit" transform="translate(0 0)" opacity="0.85">
      <g id="Group_77" data-name="Group 77" transform="translate(0 1.417)">
        <g id="Group_76" data-name="Group 76">
          <path id="Path_82" data-name="Path 82" d="M16.292,42.637a.708.708,0,0,0-.708.708v7.083a.708.708,0,0,1-.708.708H2.125a.708.708,0,0,1-.708-.708V36.262a.708.708,0,0,1,.708-.708h8.5a.708.708,0,1,0,0-1.417h-8.5A2.125,2.125,0,0,0,0,36.262V50.429a2.125,2.125,0,0,0,2.125,2.125h12.75A2.125,2.125,0,0,0,17,50.429V43.345A.708.708,0,0,0,16.292,42.637Z" transform="translate(0 -34.137)"/>
        </g>
      </g>
      <g id="Group_79" data-name="Group 79" transform="translate(4.25 0)">
        <g id="Group_78" data-name="Group 78">
          <path id="Path_83" data-name="Path 83" d="M117.2.8a2.711,2.711,0,0,0-3.835,0l-9.33,9.329a.716.716,0,0,0-.171.277l-1.417,4.25a.708.708,0,0,0,.671.932.719.719,0,0,0,.224-.036l4.25-1.417a.708.708,0,0,0,.277-.171l9.33-9.33A2.712,2.712,0,0,0,117.2.8Zm-1,2.834-9.208,9.208-2.751.919.916-2.748L114.364,1.8A1.294,1.294,0,1,1,116.2,3.632Z" transform="translate(-102.409 -0.004)"/>
        </g>
      </g>
    </g>
  </g>
</svg>
