<svg xmlns="http://www.w3.org/2000/svg" xmlns:xlink="http://www.w3.org/1999/xlink" width="18.647" height="18.647" viewBox="0 0 18.647 18.647">
  <defs>
    <clipPath id="clip-path">
      <path id="Path_25371" data-name="Path 25371" d="M275.8,9.324A9.324,9.324,0,1,1,266.482,0,9.324,9.324,0,0,1,275.8,9.324Z" transform="translate(-257.15 0)" fill="#95a63a"/>
    </clipPath>
  </defs>
  <g id="Group_213" data-name="Group 213" transform="translate(-767.15 -647.544)">
    <path id="Path_25361" data-name="Path 25361" d="M275.8,9.324A9.324,9.324,0,1,1,266.482,0,9.324,9.324,0,0,1,275.8,9.324Z" transform="translate(510 647.544)" fill="#95a63a"/>
    <g id="Group_209" data-name="Group 209" transform="translate(767.15 647.544)" clip-path="url(#clip-path)">
      <path id="Path_25362" data-name="Path 25362" d="M315.4,36.58c-.495.159.059,2.134.634,1.343.036.292-.1.595-.427.58-.078.331.415.27.425.658s-.35.35-.352.7a.5.5,0,0,0,.655.441c.363-.13.392-.444.476-.72a.98.98,0,0,1,.044.977c.23.029.347-.178.355-.381a.634.634,0,0,1-.043.655c.089-.019.212.027.3.013a1.107,1.107,0,0,1-.5.923c-.292.216-.875.168-.393.568.354.295.653.125.666.695.008.408-.187.793-.62.775a.129.129,0,0,0-.029-.068.957.957,0,0,1-.1,1.269c.067-.212.1-.515-.106-.647a.326.326,0,0,1-.159.395c.067.764-1.372.8-1.884.853-.39.038-.75.2-1.135.236a7.47,7.47,0,0,1-1.127-.048c-.035-1.586-.878-3.013-1.445-4.464-.255-.655.121-1.047.587-1.556.671-.734,1.4-1.368,1.985-2.15Z" transform="translate(-302.09 -30.78)" fill="#331b19"/>
      <path id="Path_25363" data-name="Path 25363" d="M278.46,36.58c.495.159-.059,2.134-.634,1.343-.038.292.1.595.425.58.078.331-.414.27-.423.658s.35.35.352.7a.5.5,0,0,1-.666.441c-.363-.13-.39-.444-.476-.72a.98.98,0,0,0-.043.977c-.23.029-.349-.178-.357-.381a.634.634,0,0,0,.043.655c-.089-.019-.211.027-.3.013a1.1,1.1,0,0,0,.5.923c.27.2.875.168.393.568-.355.295-.655.125-.666.695-.008.408.186.793.618.775a.13.13,0,0,1,.03-.068.957.957,0,0,0,.1,1.269c-.067-.212-.1-.515.106-.647a.326.326,0,0,0,.159.395c-.067.764,1.372.8,1.885.853.39.038.748.2,1.134.236a7.492,7.492,0,0,0,1.129-.048c.035-1.586.878-3.013,1.445-4.464.255-.655-.122-1.047-.587-1.556-.671-.734-1.4-1.368-1.987-2.15Z" transform="translate(-273.324 -30.78)" fill="#331b19"/>
      <path id="Path_25364" data-name="Path 25364" d="M287.393,80.794c-.587-.731-5.223-2.334-5.223-2.334a46.816,46.816,0,0,0-5.233,2.334c-.691.561-.937,4.1-.937,4.1h12.192S287.978,81.523,287.393,80.794Z" transform="translate(-273.011 -66.019)" fill="#d84b58"/>
      <path id="Path_25365" data-name="Path 25365" d="M308.636,72.237s-.178.861-1.437.861-1.435-.861-1.435-.861a1.917,1.917,0,0,0,0-1.513c-.35-.817,3.3-.982,2.872,0A1.486,1.486,0,0,0,308.636,72.237Z" transform="translate(-298.036 -58.941)" fill="#dda778"/>
      <path id="Path_25366" data-name="Path 25366" d="M296.39,16.549a11.751,11.751,0,0,1,.869-2.992c1.11-2.474-.669-6.089-2.185-5.057-1.624-2.166-7.075.258-5.432,5.023a10.991,10.991,0,0,1,.739,2.854c.065,1.211,2.244,2.378,2.943,2.417S296.3,17.775,296.39,16.549Z" transform="translate(-284.233 -6.48)" fill="#331b19"/>
      <path id="Path_25367" data-name="Path 25367" d="M333.444,44.35c0,.647-.46,1.538-.769,1.538s-.561-.525-.561-1.173a1.389,1.389,0,0,1,.561-1.173C332.975,43.307,333.444,43.541,333.444,44.35Z" transform="translate(-320.226 -36.564)" fill="#f9bb8d"/>
      <path id="Path_25368" data-name="Path 25368" d="M289.89,44.35c0,.647.46,1.538.769,1.538s.56-.525.56-1.173a1.389,1.389,0,0,0-.56-1.173C290.359,43.307,289.89,43.541,289.89,44.35Z" transform="translate(-284.699 -36.564)" fill="#f9bb8d"/>
      <path id="Path_25369" data-name="Path 25369" d="M298.62,16.69c-2.177,0-3.14,1.525-3.14,3.806V23.35a4.391,4.391,0,0,0,3.013,3.677c.723,0,3.266-1.982,3.266-3.861V20.491C301.759,18.215,300.8,16.69,298.62,16.69Z" transform="translate(-289.402 -14.044)" fill="#f9bb8d"/>
      <path id="Path_25370" data-name="Path 25370" d="M300.48,20.618l.092-1.183a3.588,3.588,0,0,0-3.211-4.525c-2.177,0-3.871,2.428-3.284,4.728l.124,1.345a1.616,1.616,0,0,0,.492-.991,2.205,2.205,0,0,1,1.9-1.9A3.231,3.231,0,0,0,299,16.605a9.022,9.022,0,0,1,.793,1.484c.254.593,0,.951.219,1.549a5.215,5.215,0,0,0,.468.98Z" transform="translate(-288.123 -12.546)" fill="#331b19"/>
    </g>
  </g>
</svg>
