<svg id="_383122_info_icon" data-name="383122_info_icon" xmlns="http://www.w3.org/2000/svg" width="15" height="15" viewBox="0 0 15 15">
  <path id="_383122_info_icon-2" data-name="383122_info_icon" d="M7.5,0A7.5,7.5,0,1,0,15,7.5,7.5,7.5,0,0,0,7.5,0ZM7.463,11.7a1.416,1.416,0,0,1-.586.23l-.034.015v-.015a.762.762,0,0,1-.151-.022l-.075-.019a.746.746,0,0,1-.532-.93l.578-2.331.261-1.053c.243-.978-.77.208-.978-.242-.137-.3.788-.922,1.463-1.393A1.417,1.417,0,0,1,8,5.706l.034-.015v.015a.774.774,0,0,1,.151.022l.075.019a.775.775,0,0,1,.565.938L8.243,9.017,7.982,10.07c-.242.978.754-.212.961.238C9.08,10.606,8.138,11.226,7.463,11.7ZM8.928,4.41A1.085,1.085,0,1,1,8.136,3.1,1.085,1.085,0,0,1,8.928,4.41Z" transform="translate(0 -0.003)" fill="#bf932d"/>
</svg>
