<svg xmlns="http://www.w3.org/2000/svg" width="12" height="16.26" viewBox="0 0 12 16.26">
  <g id="lock" transform="translate(0 -0.242)">
    <g id="Group_119" data-name="Group 119" transform="translate(0 0.242)">
      <path id="Path_24330" data-name="Path 24330" d="M11.377,7.022H10.365V4.61a4.365,4.365,0,1,0-8.729,0V7.022h-1A.628.628,0,0,0,0,7.644v7.288A1.577,1.577,0,0,0,1.576,16.5h8.858A1.567,1.567,0,0,0,12,14.932V7.644A.619.619,0,0,0,11.377,7.022ZM2.891,4.613a3.109,3.109,0,1,1,6.219,0V7.022H2.891Zm7.854,10.319a.312.312,0,0,1-.31.315H1.576a.321.321,0,0,1-.321-.315V8.277h9.49Z" transform="translate(0 -0.242)" fill="#656565"/>
      <path id="Path_24331" data-name="Path 24331" d="M565.628,1043.233a.628.628,0,0,0,.628-.628v-2.262a.628.628,0,1,0-1.255,0v2.262A.628.628,0,0,0,565.628,1043.233Z" transform="translate(-559.628 -1029.831)" fill="#656565"/>
    </g>
  </g>
</svg>
