<svg xmlns="http://www.w3.org/2000/svg" width="147.312" height="50" viewBox="0 0 147.312 50">
  <g id="Layer_2" data-name="Layer 2" transform="translate(0 0)">
    <g id="Layer_1" data-name="Layer 1" transform="translate(0 0)">
      <path id="Path_24946" data-name="Path 24946" d="M260.9.306a5.037,5.037,0,0,1,2.074-.272c1.839.3,3.665.662,5.509.962-.136.3-.274.584-.408.88-.185-.155-.367-.31-.55-.461l-.96.576c-.116-.144-.229-.287-.341-.431-.259.138-.494.395-.813.341-1.5-.075-3.133-.589-4.509.257l-.375-.606a3.523,3.523,0,0,1-1.481-.181c-.155.216-.31.431-.464.647a10.748,10.748,0,0,0-2.307-.507C257.8,1.033,259.363.714,260.9.306Z" transform="translate(-201.021 0)" fill="#bbb9ba"/>
      <path id="Path_24947" data-name="Path 24947" d="M256.393,166.808a2.871,2.871,0,0,1,2.355.2c.412-.134.822-.274,1.22-.444a10.1,10.1,0,0,1-.925,1.671,3.866,3.866,0,0,0-1.473-.477,2.359,2.359,0,0,1-1.99.28c.244-.405.492-.809.737-1.214Z" transform="translate(-200.472 -130.647)" fill="#bbb9ba"/>
      <path id="Path_24948" data-name="Path 24948" d="M313.57,168.26a24.005,24.005,0,0,1,2.861.293c0,.168-.015.507-.022.677q-1.417-.162-2.833-.291C313.574,168.769,313.572,168.432,313.57,168.26Z" transform="translate(-245.959 -131.98)" fill="#bbb9ba"/>
      <path id="Path_24949" data-name="Path 24949" d="M230.342,4.62c5.4.923,10.781,2.035,16.158,3.055,1.708.358,3.45.61,5.125,1.078-.323.231-.606.63-1.048.591a3.865,3.865,0,0,1-1.207-.455l-.537.216c-.155-.166-.308-.33-.457-.494-.093.112-.274.339-.364.453a6.4,6.4,0,0,1-.593-.367c-.5.112-1,.233-1.5.351-.121.116-.239.235-.356.354-.817-.539-1.831-.373-2.751-.5a10.738,10.738,0,0,0-2.8.231c-.735.136-1.425-.315-2.156-.216s-1.46.259-2.191.382c.06.127.181.382.244.5-3.666-.666-7.29-1.455-10.917-2.26a7.421,7.421,0,0,0-2.868.328c-1.376.25-2.734.6-4.12.789a3.129,3.129,0,0,0-1.352-.515c-.563-.1-.957.395-1.378.677l-.416-.632c-.306.075-.647.334-.947.132a3.31,3.31,0,0,1-.548-.781c-.166.265-.334.526-.5.791-.157-.241-.315-.481-.47-.724q-.151.431-.3.886c-1.328.1-2.643-.233-3.97-.129l-.477-.576,8.485-2.221a10.417,10.417,0,0,1,1.994-.431,10.749,10.749,0,0,1,2.318.5c.153-.216.308-.431.464-.647a3.523,3.523,0,0,0,1.481.181l.38.61c1.376-.845,3.019-.332,4.509-.257.319.054.554-.2.813-.341.112.144.216.287.341.431l.951-.576c.183.151.364.306.55.461C230.068,5.2,230.206,4.918,230.342,4.62Z" transform="translate(-162.877 -3.624)" fill="#cbcbcb"/>
      <path id="Path_24950" data-name="Path 24950" d="M313.544,161.328c.964.082,1.9-.246,2.857-.216v1.837a24,24,0,0,0-2.861-.293Q313.544,161.99,313.544,161.328Z" transform="translate(-245.935 -126.372)" fill="#cbcbcb"/>
      <path id="Path_24951" data-name="Path 24951" d="M162.78,206.7h.9l-.164.351c-.229.17-.466.323-.7.485,0,.3.017.6.028.9l.753.464c0,.379,0,.761.011,1.143-.287.151-.565.319-.862.461l-.075-.129C162.808,209.149,162.713,207.923,162.78,206.7Z" transform="translate(-127.595 -162.132)" fill="#cbcbcb"/>
      <path id="Path_24952" data-name="Path 24952" d="M465.225,213.1c.108.114.216.216.341.334.2.125.408.25.619.367a4.193,4.193,0,0,1-.431,1.078l-.565.226a9.662,9.662,0,0,0-.058,1.941h-.157a8.043,8.043,0,0,0-.282-3.2l.037-.05C464.884,213.548,465.054,213.324,465.225,213.1Z" transform="translate(-364.494 -167.152)" fill="#cbcbcb"/>
      <path id="Path_24953" data-name="Path 24953" d="M413.782,215.236l.815-.526.164.054c.216.075.431.147.658.216q.138.647.31,1.294c-.229.024-.457.043-.686.06l-.388-.022c-.3-.047-.606-.108-.906-.164C413.759,215.851,413.769,215.54,413.782,215.236Z" transform="translate(-324.538 -168.415)" fill="#cbcbcb"/>
      <path id="Path_24954" data-name="Path 24954" d="M190.087,18.931c.166-.265.334-.526.5-.791a3.1,3.1,0,0,0,.548.781c.31.2.647-.056.947-.132l.42.632c.431-.282.815-.774,1.378-.677a3.109,3.109,0,0,1,1.352.515c-1.49.349-3,.589-4.5.9a17.47,17.47,0,0,1-2.514.416A8.193,8.193,0,0,1,186,19.964a8.647,8.647,0,0,0-2.943-.31c-.99-.116-1.867.468-2.846.477l-.492.468-1.1-.52c2.074-.608,4.172-1.126,6.253-1.69l.477.584c1.326-.1,2.641.226,3.97.129q.144-.446.3-.886C189.772,18.45,189.929,18.69,190.087,18.931Z" transform="translate(-140.106 -14.229)" fill="#c2c1c1"/>
      <path id="Path_24955" data-name="Path 24955" d="M347.829,23.558c.5-.119,1-.239,1.5-.351.192.125.384.257.593.367.091-.114.272-.341.364-.453.149.164.3.328.457.494.177-.075.356-.147.537-.216a3.872,3.872,0,0,0,1.207.455c.436.037.724-.36,1.048-.591,3.366.632,6.742,1.251,10.065,2.083a8.642,8.642,0,0,1-2.186.388,5.4,5.4,0,0,1-1.57-.781c-.345.285-.686.571-1.028.862l-.576-1.028a2.64,2.64,0,0,0-.957,1.231q-.459-.379-.914-.761a13.869,13.869,0,0,0-3.465.513c-.964.244-1.768-.431-2.609-.759-.5-.2-.694.431-.983.7l-.528.034c-.132-.2-.261-.4-.388-.6l-1.044.61-.862-.448-.414.556-.032.045c-2.743-.526-5.481-1.078-8.226-1.6-.063-.123-.183-.377-.244-.5.731-.123,1.453-.293,2.191-.382s1.423.351,2.156.216a10.968,10.968,0,0,1,2.8-.231,6.137,6.137,0,0,1,2.751.5C347.581,23.793,347.708,23.674,347.829,23.558Z" transform="translate(-264.784 -18.135)" fill="#b6b4b6"/>
      <path id="Path_24956" data-name="Path 24956" d="M162.782,25.581c.979,0,1.856-.593,2.846-.477a8.646,8.646,0,0,1,2.943.31,8.194,8.194,0,0,0,2.221.612c-3.187.647-6.389,1.261-9.608,1.725.2-.142.405-.291.606-.444a6.048,6.048,0,0,0-.975-.4c-.582-.05-1.13.274-1.714.19-.9-.088-1.811-.028-2.7-.2,1.57-.55,3.2-.908,4.793-1.373l1.1.52Z" transform="translate(-122.677 -19.68)" fill="#b4b2b3"/>
      <path id="Path_24957" data-name="Path 24957" d="M113.837,82.992q.5-.8.983-1.6l.6.9.528-.4,1.108,1.078q.216-.509.431-1.011l1.057.418.893-.862a1.493,1.493,0,0,0,1.68.032c.509.3,1.119.563,1.574.024a8.353,8.353,0,0,0,3.165,1.149,8.009,8.009,0,0,0,3.185-1.009l.477.74c.194-.112.392-.216.591-.323l.431.77a3.713,3.713,0,0,1,1.533-1.054,5.936,5.936,0,0,0,1.164.582,4.869,4.869,0,0,0,1.182-.216c.5-.181.947.25,1.386.431l1.078-.617.339.8A7.433,7.433,0,0,1,139,82.5a7.583,7.583,0,0,0,.448-.7,4.389,4.389,0,0,0,1.725.686,21.5,21.5,0,0,0,2.954-.144c.2.242.4.483.6.724a17.587,17.587,0,0,0,1.022-1.725q.533.781,1.018,1.591.526-.6,1.061-1.186l.42.938c.31-.157.623-.319.938-.477v2.372a11.55,11.55,0,0,0-2.066.367l-.3-.824-.768.216-.334-.647c-.336.38-.673.755-1.013,1.13-.347-.241-.662-.668-1.136-.558a33.4,33.4,0,0,1-5.649-.056c-.216.188-.412.379-.617.571l-.431-.768-.875.431a7.461,7.461,0,0,0-1.343-.371c-.487.03-.94.244-1.423.3-.448-.114-.847-.362-1.294-.5a5.579,5.579,0,0,0-.908.681l-.459-.233c-.742.144-1.212-.431-1.641-.938-.149.235-.3.468-.442.705a12.7,12.7,0,0,0-2.225.3,6.465,6.465,0,0,1-2.542-.285,7.894,7.894,0,0,0-2.393.091,6.069,6.069,0,0,0-.88-.377,5.865,5.865,0,0,0-.9.323l-.431-.632c-.216.321-.42.647-.63.964q-.509-.2-1.016-.386a7.327,7.327,0,0,1-.765.451c-.664-.1-1.274-.586-1.966-.414a3.163,3.163,0,0,1-1.757.017c-.729-.278-1.455.134-2.195.032a29.5,29.5,0,0,0-3.325.039q.019-.759.037-1.509.526-.317,1.059-.627l.7.647.908-.623.647.472q.763-.347,1.533-.679l.5.822.483-.354Z" transform="translate(-84.298 -63.802)" fill="#b4b2b3"/>
      <path id="Path_24958" data-name="Path 24958" d="M637.3,155.43a3.609,3.609,0,0,0,1.639-.14l.448.3.724-.19a7.243,7.243,0,0,1-.263,1.335,15.048,15.048,0,0,1-2.531-.095C637.311,156.237,637.3,155.833,637.3,155.43Z" transform="translate(-499.887 -121.807)" fill="#b4b2b3"/>
      <path id="Path_24959" data-name="Path 24959" d="M359.544,168.392c.938-.054,1.878-.108,2.82-.132,0,.405.022.809.037,1.216-.908.593-1.951-.254-2.861.317C359.529,169.323,359.535,168.851,359.544,168.392Z" transform="translate(-282.012 -131.98)" fill="#b4b2b3"/>
      <path id="Path_24960" data-name="Path 24960" d="M283.592,169.23c1.065-.091,2.137-.06,3.206-.05l.511.9a23.356,23.356,0,0,0-3.45.142l-.088.013c-.1-.188-.2-.373-.291-.561Z" transform="translate(-222.357 -132.692)" fill="#b4b2b3"/>
      <path id="Path_24961" data-name="Path 24961" d="M439.285,229q1.126.015,2.255,0c0,.129-.011.395-.015.528-.759,0-1.509,0-2.275.03Z" transform="translate(-344.54 -179.624)" fill="#b4b2b3"/>
      <path id="Path_24962" data-name="Path 24962" d="M380.219,31.731c.289-.27.485-.895.983-.7.841.328,1.645,1,2.609.759a13.869,13.869,0,0,1,3.465-.513q.455.382.914.761a2.574,2.574,0,0,1,.957-1.231l.576,1.028,1.029-.862a5.4,5.4,0,0,0,1.57.781,8.549,8.549,0,0,0,2.186-.388c1.7.254,3.366.7,5.052,1.035l-.091.019c-.692.127-1.354.4-2.059.464-.724.013-1.436-.175-2.156-.149a9.728,9.728,0,0,1-2.413.052c-.66-.138-1.246-.5-1.9-.647-.41.067-.791.257-1.2.291a6.349,6.349,0,0,1-.972-.571,3.719,3.719,0,0,1-.69,1.145c-.375-.27-.72-.679-1.22-.668a10.235,10.235,0,0,0-3.834.668l-.067.026c-2-.332-3.991-.718-5.975-1.132l.416-.565.862.448,1.044-.61c.127.2.257.4.388.6Z" transform="translate(-295.696 -24.167)" fill="#a5a3a4"/>
      <path id="Path_24963" data-name="Path 24963" d="M213.753,34.449a7.225,7.225,0,0,1,2.572-.155c6.848,1.078,13.692,2.186,20.544,3.234-.088.63.1,1.451-.539,1.839q-.155-.7-.272-1.4a2.588,2.588,0,0,1-1.138.8l-.552-1.033a7.49,7.49,0,0,0-.936,1.251,4.7,4.7,0,0,0-.712-.957,32.839,32.839,0,0,0-3.666-.013c-.625,0-.847.724-1.195,1.128l-.418-.054A3.956,3.956,0,0,1,226,37.289c-.351.541-.6,1.244-1.259,1.492-1.322-.032-2.779-.746-4.008,0-.862-.136-1.654-.5-2.5-.63-1.041.216-2.01.862-3.107.737-.776-.134-1.544-.31-2.329-.386-.119-.188-.237-.373-.351-.556l-1.054,1.32a5.591,5.591,0,0,0-1.013-.584c-.2.084-.4.175-.591.274q-.5-.466-.99-.936c-.168.416-.334.834-.5,1.251-.216-.824-.216-1.8-.916-2.4a4.166,4.166,0,0,0-1.613,2.372c-.367-.729-.748-1.453-1.136-2.171-.091.489-.177.979-.263,1.466l-.466.1c-.067-.356-.132-.705-.2-1.059-1.52.058-2.879.83-4.381.97l-.684-1.078Q206.208,35.978,213.753,34.449Z" transform="translate(-155.81 -26.86)" fill="#a5a3a4"/>
      <path id="Path_24964" data-name="Path 24964" d="M151.5,170.67q1.414.14,2.825.3c0,.3,0,.61.011.916q-1.425-.019-2.855,0C151.484,171.472,151.491,171.073,151.5,170.67Z" transform="translate(-118.818 -133.871)" fill="#a5a3a4"/>
      <path id="Path_24965" data-name="Path 24965" d="M142.67,33.7c.584.084,1.132-.239,1.714-.19a6.047,6.047,0,0,1,.975.4c-.2.153-.4.3-.606.444a27.3,27.3,0,0,1-3.922.608,3.047,3.047,0,0,0-1.233-.17,20.269,20.269,0,0,1-4.138.03c1.468-.543,2.993-.925,4.509-1.32C140.859,33.67,141.769,33.608,142.67,33.7Z" transform="translate(-106.252 -26.277)" fill="#a09e9f"/>
      <path id="Path_24966" data-name="Path 24966" d="M410.742,35.72a6.35,6.35,0,0,0,.972.571c.412-.035.793-.216,1.2-.291.647.144,1.24.507,1.9.647a9.728,9.728,0,0,0,2.413-.052c.724-.026,1.436.162,2.156.149.705-.06,1.367-.336,2.059-.464,1.9.386,3.816.746,5.682,1.283-.474.1-.953.185-1.432.257l-.757-.619-1.24.647a4.378,4.378,0,0,0-2.587-.593,8.6,8.6,0,0,1-2.529.339,13.556,13.556,0,0,0-2.678-.015,7.62,7.62,0,0,1-2.628-.5,3.443,3.443,0,0,0-1.725.27c-.14-.216-.276-.451-.414-.675a1.635,1.635,0,0,0-.925,1.166c-1.742-.317-3.487-.586-5.211-.981a10.236,10.236,0,0,1,3.834-.647c.5,0,.845.4,1.22.668a3.72,3.72,0,0,0,.688-1.16Z" transform="translate(-317.675 -28.018)" fill="#9a9899"/>
      <path id="Path_24967" data-name="Path 24967" d="M58.05,172.41c.847-.765,1.966-.349,2.922-.073.142.261.3.517.466.765a9.632,9.632,0,0,0-3.176.013h-.026C58.188,172.949,58.1,172.6,58.05,172.41Z" transform="translate(-45.533 -134.892)" fill="#9a9899"/>
      <path id="Path_24968" data-name="Path 24968" d="M184.679,172.839a23.34,23.34,0,0,0,2.85-.179v1q-1.43-.035-2.859,0C184.67,173.38,184.674,173.111,184.679,172.839Z" transform="translate(-144.852 -135.431)" fill="#9a9899"/>
      <path id="Path_24969" data-name="Path 24969" d="M624.348,221.177l.763-.037c.013.727,0,1.455-.017,2.184l-.774.078C624.342,222.66,624.346,221.918,624.348,221.177Z" transform="translate(-489.705 -173.458)" fill="#9a9899"/>
      <path id="Path_24970" data-name="Path 24970" d="M507.88,230.359c.272-.183.444-.138.515.136C508.122,230.674,507.947,230.626,507.88,230.359Z" transform="translate(-398.372 -180.603)" fill="#9a9899"/>
      <path id="Path_24971" data-name="Path 24971" d="M116.953,39.454a3.047,3.047,0,0,1,1.233.17c-1.682.4-3.411.571-5.11.884-2.156.282-4.312.727-6.486.85,2.048-.7,4.129-1.339,6.225-1.874A20.268,20.268,0,0,0,116.953,39.454Z" transform="translate(-83.607 -30.941)" fill="#848384"/>
      <path id="Path_24972" data-name="Path 24972" d="M575.87,225.876c.257-.075.515-.153.776-.216.086.144.261.431.349.576A.863.863,0,0,1,575.87,225.876Z" transform="translate(-451.702 -177.004)" fill="#848384"/>
      <path id="Path_24973" data-name="Path 24973" d="M429.16,41.3a1.635,1.635,0,0,1,.925-1.166c.138.216.274.451.414.675a3.465,3.465,0,0,1,1.725-.27,7.62,7.62,0,0,0,2.628.5,13.556,13.556,0,0,1,2.682.015,8.591,8.591,0,0,0,2.529-.339,4.41,4.41,0,0,1,2.587.593l-.078.634a9.259,9.259,0,0,0-2.063-.41,6.12,6.12,0,0,0-1.893.509l-.705-.386a3.881,3.881,0,0,1-1.013.254,7.9,7.9,0,0,1-.748-.591q-.395.326-.785.66l.129.431C433.384,42.043,431.282,41.678,429.16,41.3Z" transform="translate(-336.625 -31.477)" fill="#908e8f"/>
      <path id="Path_24974" data-name="Path 24974" d="M533.27,61.131a13.373,13.373,0,0,1,3.849-.216,44.423,44.423,0,0,0,5.41-.125,12.368,12.368,0,0,1,2.439.571c-1.134.632-2.411,0-3.62.177-1.2.144-2.415-.015-3.6.231A39.9,39.9,0,0,1,533.27,61.131Z" transform="translate(-418.287 -47.683)" fill="#908e8f"/>
      <path id="Path_24975" data-name="Path 24975" d="M376.83,222.08c.4.035.8.041,1.2.05a3.2,3.2,0,0,1-.032,1.93l-.789-.3C377.1,223.193,376.946,222.641,376.83,222.08Z" transform="translate(-295.579 -174.196)" fill="#908e8f"/>
      <path id="Path_24976" data-name="Path 24976" d="M465.228,43.227l1.24-.647.757.619c.479-.071.957-.155,1.432-.257l.063-.013c3.549.761,7.079,1.615,10.6,2.482a4.588,4.588,0,0,0-1.606.453c-.955-.446-2-.073-3-.265-1.509-.274-3.019.1-4.528-.045-1.261.056-2.521-.058-3.78,0a12.642,12.642,0,0,1-2.277-.246c-2.023-.315-4.041-.662-6.061-.992l-.129-.431q.392-.334.785-.66a7.9,7.9,0,0,0,.748.591,3.881,3.881,0,0,0,1.013-.254l.7.4a6.12,6.12,0,0,1,1.893-.509,9.259,9.259,0,0,1,2.063.41Z" transform="translate(-359.2 -33.399)" fill="#858585"/>
      <path id="Path_24977" data-name="Path 24977" d="M389.768,104.85a11.788,11.788,0,0,1,.964,1.078c.459-.216.919-.431,1.376-.66l.664.431c0,.772.015,1.54.019,2.311a6.488,6.488,0,0,0-2.954.155c-.015-.067-.041-.2-.056-.265C389.725,106.885,389.785,105.866,389.768,104.85Z" transform="translate(-305.718 -82.242)" fill="#858585"/>
      <path id="Path_24978" data-name="Path 24978" d="M172.409,46.43c.7.6.69,1.576.916,2.4.168-.416.334-.834.5-1.251q.492.47.99.936c.194-.1.39-.19.591-.274a5.592,5.592,0,0,1,1.013.584l1.054-1.32c.114.183.233.369.351.556.785.075,1.552.252,2.329.386,1.1.121,2.066-.526,3.107-.737.85.132,1.649.494,2.5.63-.028.7-.071,1.393-.073,2.094a3.482,3.482,0,0,1-1.44-.634c-.17.237-.339.477-.5.716L183.226,50l-1.048.692-.468-.535c-.153.151-.308.3-.459.453-1.186-.1-2.372-.328-3.553-.351a3.408,3.408,0,0,0-1.749.666l-.431-.888a2,2,0,0,1-1.777-.1c-.11.194-.216.384-.328.576a4.466,4.466,0,0,0-1.96-.41,18.9,18.9,0,0,1-2.57.343,3.153,3.153,0,0,0-1.928-.679,3.851,3.851,0,0,1-1.348,1.175c-.589-.446-.962-1.134-1.6-1.509a4.922,4.922,0,0,0-1.63-.576c-.2.319-.216.895-.647.981-.157-.315-.282-.647-.412-.964-.151.351-.3.7-.457,1.048-.231-.39-.457-.785-.679-1.179-.274.379-.55.755-.834,1.126-.185-.3-.371-.593-.554-.893a1.45,1.45,0,0,1-1.7-.024c-.058.274-.114.548-.17.822a17.479,17.479,0,0,0-2.878-.515c.03-.1.091-.315.123-.418,3.174-.571,6.328-1.248,9.5-1.816l.684,1.078c1.509-.14,2.861-.912,4.381-.97.065.354.129.7.2,1.059l.466-.1c.086-.487.173-.977.263-1.466.388.718.77,1.442,1.136,2.171a4.166,4.166,0,0,1,1.615-2.374Z" transform="translate(-120.826 -36.419)" fill="#b7b5b6"/>
      <path id="Path_24979" data-name="Path 24979" d="M430.57,155.584c.041-.431.084-.862.121-1.294a7.558,7.558,0,0,0,.787.768,11.275,11.275,0,0,1,2.333-.157c0,.2.015.6.022.8a11.036,11.036,0,0,0-2.352.252C431.174,155.829,430.878,155.709,430.57,155.584Z" transform="translate(-337.731 -121.022)" fill="#b7b5b6"/>
      <path id="Path_24980" data-name="Path 24980" d="M360.361,155.849a15.214,15.214,0,0,0,2.005-.1c0,.386,0,.768.019,1.154-.8.216-1.641.19-2.434.431l-.431-.306v-1.11l.474.479C360.113,156.211,360.236,156.02,360.361,155.849Z" transform="translate(-282.001 -122.168)" fill="#b7b5b6"/>
      <path id="Path_24981" data-name="Path 24981" d="M591.272,157.089c.959-.093,1.923-.095,2.885-.1l-.03.112c-.084.293-.166.582-.246.878l-2.611-.181C591.27,157.622,591.272,157.266,591.272,157.089Z" transform="translate(-463.781 -123.14)" fill="#b7b5b6"/>
      <path id="Path_24982" data-name="Path 24982" d="M641.27,213.752l.817-.022c0,.321.019.647.026.968h-.785Z" transform="translate(-503.001 -167.646)" fill="#b7b5b6"/>
      <path id="Path_24983" data-name="Path 24983" d="M319.77,49.862c.647-.248.908-.951,1.259-1.492a3.957,3.957,0,0,0,1.438,1.807C321.568,50.069,320.669,49.961,319.77,49.862Z" transform="translate(-250.822 -37.941)" fill="#b3b1b2"/>
      <path id="Path_24984" data-name="Path 24984" d="M343.216,49.51c3.353.526,6.714,1.022,10.061,1.587-.3.239-.55.634-.964.671a4.577,4.577,0,0,1-.852-.492c-.069.27-.138.541-.2.811a3.391,3.391,0,0,1-1.246-.567c-.132.332-.261.668-.39,1-.546-.412-1.078-.839-1.609-1.274-.134.39-.263.785-.416,1.169l-.418.179c-.278.1-.556.2-.832.3-.123-.216-.244-.448-.364-.673l-.252.5c-3.821-.647-7.674-1.048-11.508-1.6.347-.4.569-1.119,1.195-1.128a32.84,32.84,0,0,1,3.665.013,4.7,4.7,0,0,1,.712.957,7.488,7.488,0,0,1,.931-1.244l.552,1.033a2.587,2.587,0,0,0,1.138-.8q.116.7.272,1.4C343.317,50.961,343.127,50.14,343.216,49.51Z" transform="translate(-262.156 -38.835)" fill="#b3b1b2"/>
      <path id="Path_24985" data-name="Path 24985" d="M486.3,82.625a2.333,2.333,0,0,1,1.6-.136c.017.584.017,1.171.024,1.757-.453.677-.8,1.486-1.626,1.785C486.277,84.906,486.329,83.759,486.3,82.625Z" transform="translate(-381.441 -64.638)" fill="#b3b1b2"/>
      <path id="Path_24986" data-name="Path 24986" d="M440.7,168.163c1.151.037,2.29-.291,3.45-.175.617.05,1.233.1,1.852.129a4.922,4.922,0,0,1,.571,1.673,9.48,9.48,0,0,0-2.348-.2c-.153.188-.282.4-.416.6a.862.862,0,0,0-.815-.862c-1.9-.127-3.806.067-5.7-.091a3.665,3.665,0,0,1-2.1-.96C437.026,168.155,438.865,168.109,440.7,168.163Z" transform="translate(-341.363 -131.747)" fill="#b3b1b2"/>
      <path id="Path_24987" data-name="Path 24987" d="M510.131,55.71a27.09,27.09,0,0,1,4.12,1.1,44.423,44.423,0,0,1-5.41.125,13.356,13.356,0,0,0-3.849.216c-1.846-.1-3.666-.61-5.509-.809a7.127,7.127,0,0,1-2.264-.481c1.259-.063,2.518.052,3.78,0,1.509.144,3.019-.229,4.528.045,1,.192,2.044-.181,3,.265A4.589,4.589,0,0,1,510.131,55.71Z" transform="translate(-390.01 -43.698)" fill="#bcbabb"/>
      <path id="Path_24988" data-name="Path 24988" d="M263.15,156.08h.065a29.83,29.83,0,0,0,5.606.431h.054l.431.845a15.966,15.966,0,0,1-3.381.035,31.054,31.054,0,0,0-3.525.147C262.624,157.046,262.879,156.557,263.15,156.08Z" transform="translate(-205.822 -122.426)" fill="#bcbabb"/>
      <path id="Path_24989" data-name="Path 24989" d="M151.46,156.589a9.624,9.624,0,0,0,2.587.384l.267-.392v1.27a10.3,10.3,0,0,0-2.842.164C151.471,157.533,151.466,157.065,151.46,156.589Z" transform="translate(-118.803 -122.819)" fill="#bcbabb"/>
      <path id="Path_24990" data-name="Path 24990" d="M108.47,165.65a5.49,5.49,0,0,0,2.866.448c-.022.526-.039,1.054-.045,1.58l-.078-.039a6.494,6.494,0,0,0-2.738-.574,10.709,10.709,0,0,0,0-1.417Z" transform="translate(-85.082 -129.933)" fill="#bcbabb"/>
      <path id="Path_24991" data-name="Path 24991" d="M57.74,167.131a28.1,28.1,0,0,1,2.827.073,9.313,9.313,0,0,0,.162,1.337c-.955-.276-2.074-.692-2.922.073C57.779,168.121,57.757,167.625,57.74,167.131Z" transform="translate(-45.29 -131.088)" fill="#bcbabb"/>
      <path id="Path_24992" data-name="Path 24992" d="M123.568,57.13c.216.395.448.789.679,1.179.153-.349.306-.7.457-1.048.129.323.254.647.412.964.444-.086.451-.662.647-.981a4.922,4.922,0,0,1,1.63.576c.647.386,1.013,1.078,1.6,1.509a3.873,3.873,0,0,0,1.348-1.175,3.153,3.153,0,0,1,1.928.679,19.087,19.087,0,0,0,2.57-.343,4.623,4.623,0,0,1,1.96.41c.108-.192.216-.382.328-.576a2,2,0,0,0,1.777.1l.431.888a3.38,3.38,0,0,1,1.749-.666c1.19.024,2.372.252,3.553.351.151-.153.306-.3.459-.453l.468.535,1.046-.681.522.513c.166-.239.334-.479.5-.716a3.482,3.482,0,0,0,1.44.634c0,.332,0,.664.013,1l-1-.136c-.1-.265-.2-.535-.3-.8l-.593.834a6.854,6.854,0,0,0-.733-.3c-.431.19-.761.66-1.274.561a17.448,17.448,0,0,0-4.912-.319c-.565.405-.188,1.235-.216,1.82,1.576.138,3.159.054,4.744.177l-.418-.552,1.779.063.453,1.274a8.674,8.674,0,0,1,.972-1.128c.444.063.431.647.621.975l.446-.265c.112.032.334.091.446.119v1.063c-.315.157-.627.319-.938.477l-.42-.938q-.533.591-1.061,1.186-.5-.8-1.024-1.587a17.585,17.585,0,0,1-1.022,1.725c-.2-.241-.405-.483-.6-.724a21.5,21.5,0,0,1-2.954.144,4.586,4.586,0,0,1-1.725-.686c-.14.241-.289.474-.448.7a7.434,7.434,0,0,0-1.781.326l-.339-.8-1.078.617c-.431-.185-.882-.617-1.386-.431a4.164,4.164,0,0,1-1.182.216,5.936,5.936,0,0,1-1.164-.582,3.713,3.713,0,0,0-1.533,1.054l-.431-.77c-.2.108-.4.216-.591.323l-.477-.74a7.976,7.976,0,0,1-3.185,1.009,8.352,8.352,0,0,1-3.165-1.149c-.455.539-1.065.272-1.574-.024a1.493,1.493,0,0,1-1.68-.032l-.893.862-1.057-.418-.431,1.011-1.108-1.078-.528.4-.6-.9q-.479.789-.977,1.6l-.526-.623-.483.354-.5-.832q-.77.334-1.533.679l-.647-.472-.895.621-.7-.647q-.53.311-1.059.627c-.022-.552-.037-1.1-.05-1.652a15.7,15.7,0,0,0,4.405-.06c.862-.267,1.354.765,1.954,1.205a7.094,7.094,0,0,1,1.039-1.725l.513.673c1.425,0,3.042.188,4.258-.709l.392.714c.395-.291.8-.578,1.212-.847.134.364.27.731.405,1.1a3.665,3.665,0,0,0,1.134-1.024l.392.746a32.15,32.15,0,0,1,3.782.241c.464.073.744-.373,1.078-.61l.485.589c.16-.289.321-.576.481-.862a6.829,6.829,0,0,0,.688.768,14.115,14.115,0,0,0,1.473-.14c.179-.308.356-.615.533-.925.783.015,1.751-.261,2.335.431a3.079,3.079,0,0,0,2.156-.054c.6-.293,1.175.164,1.762.263a4.167,4.167,0,0,0,1.389-.673,11.23,11.23,0,0,0-.248-1.867,1.856,1.856,0,0,1-1.844-.063c-.1.188-.2.377-.3.569a3.545,3.545,0,0,0-1.792-.431,21.042,21.042,0,0,1-2.587.412c-.584-.058-1.078-.47-1.649-.541a10.272,10.272,0,0,1-1.354.574,11.913,11.913,0,0,0-1.74.356c-.216-.177-.31-.625-.647-.586-1.583.108-3.163.274-4.744.4-1.147.037-2.294-.015-3.439.026-1.367.069-2.734-.341-4.1-.035a3.618,3.618,0,0,0-1.093-.988,6.028,6.028,0,0,0-1.434,1.078q-.524-.586-1.078-1.136a3.706,3.706,0,0,1-1.113.9,9.165,9.165,0,0,1-.936-.565c-.2.194-.4.386-.6.582l-.824-.431a4.929,4.929,0,0,1,2.247-.765c2.534-.453,5.058-.951,7.592-1.41-.032.1-.093.315-.123.418a17.48,17.48,0,0,1,2.879.515c.056-.274.112-.548.17-.822a1.45,1.45,0,0,0,1.7.024c.183.3.369.6.554.893C123.022,57.885,123.294,57.509,123.568,57.13Z" transform="translate(-84.211 -44.812)" fill="#c4c3c3"/>
      <path id="Path_24993" data-name="Path 24993" d="M400.441,56.87c2.445.306,4.869.757,7.307,1.115,1.2.216,2.419.313,3.6.63a19.464,19.464,0,0,1-4.8.037,5.736,5.736,0,0,0-1.451-.019,7.12,7.12,0,0,0-.558.772l-.431-1.1c-.19.36-.38.722-.565,1.078q-.494-.552-1.018-1.078c-.2.248-.405.5-.6.746a9.018,9.018,0,0,0-1.229-.7,6.268,6.268,0,0,0-1.2.787q-.33-.39-.647-.783c-.183.216-.362.416-.541.625l-1.136-.647c-.052.259-.1.517-.153.778l-.241-.045c-.55-.116-1.078-.287-1.619-.448-.19.3-.382.6-.569.895q-.121-.582-.233-1.16l.418-.179c.153-.384.282-.778.416-1.169.526.431,1.063.862,1.609,1.274.129-.336.259-.673.39-1a3.392,3.392,0,0,0,1.246.567c.067-.27.136-.541.2-.811a4.576,4.576,0,0,0,.843.511C399.891,57.5,400.142,57.114,400.441,56.87Z" transform="translate(-309.321 -44.608)" fill="#bfbdbe"/>
      <path id="Path_24994" data-name="Path 24994" d="M387.59,62.6l.252-.5c.121.216.241.448.364.673.276-.1.554-.2.832-.3q.114.58.233,1.16c.188-.3.379-.6.569-.895.535.162,1.078.332,1.619.448a5.518,5.518,0,0,0-.392,2.844c-.28.252-.5.617-.862.746-.408.108-.584-.319-.822-.552q-.216.216-.431.453-.446-.229-.888-.451C388.073,65.007,388.325,63.678,387.59,62.6Z" transform="translate(-304.019 -48.71)" fill="#cdcccc"/>
      <path id="Path_24995" data-name="Path 24995" d="M257.552,206.619c.753,0,1.509-.013,2.26,0v.862h-1.378l-.052,1.294c.367,0,.733.022,1.1.034q.017.384.032.776c-.373.015-.746.028-1.117.045-.011.5-.019,1-.017,1.5-.017-.116-.056-.354-.073-.472a1,1,0,0,0-.744-.968c0-.293-.015-.589-.019-.882l.632-.14q.082-.647.164-1.283l.987-.254q-.906.022-1.807.086C257.529,207.061,257.544,206.768,257.552,206.619Z" transform="translate(-201.994 -162.064)" fill="#cdcccc"/>
      <path id="Path_24996" data-name="Path 24996" d="M29.306,208.41a12.243,12.243,0,0,1,.114,1.82q.446-.054.9-.1c.192-.024.386-.043.582-.063.056-.192.112-.382.166-.576.054.8.039,1.6.065,2.4a2.249,2.249,0,0,0-.761-.759c-.323-.054-.647-.075-.981-.1v.6c-.28-.157-.561-.323-.839-.481-.017-.377-.032-.75-.052-1.123.216.03.431.067.647.1C29.216,209.546,29.272,208.981,29.306,208.41Z" transform="translate(-22.355 -163.473)" fill="#cdcccc"/>
      <path id="Path_24997" data-name="Path 24997" d="M406.66,64.416c.05-.261.1-.52.153-.778l1.136.647c.179-.216.358-.418.541-.625l.647.783a6.268,6.268,0,0,1,1.2-.787,9.017,9.017,0,0,1,1.229.7c.2-.25.4-.5.6-.746q.524.52,1.018,1.078c.185-.364.375-.727.565-1.078l.431,1.1a7.118,7.118,0,0,1,.567-.8,5.735,5.735,0,0,1,1.451.019,19.463,19.463,0,0,0,4.8-.019h.55c7.115,1.078,14.25,2.035,21.346,3.174a5.844,5.844,0,0,1,.748.216c-.834.058-1.656.216-2.488.293-1.156.1-2.288-.257-3.45-.216a7.684,7.684,0,0,0-1.841.367c-.828.267-1.6-.345-2.428-.317-.112.136-.336.408-.448.548-2.176-.2-4.325-.6-6.5-.785-.466-.095-.787.254-1.078.561a2.333,2.333,0,0,0-1.6.136,1.308,1.308,0,0,0-1.184-1.43C417.324,65.773,412,65.022,406.66,64.416Z" transform="translate(-318.977 -49.895)" fill="#cbcacb"/>
      <path id="Path_24998" data-name="Path 24998" d="M557.639,63.57c1.21-.177,2.486.455,3.62-.177l.032-.013c2.984.729,5.94,1.563,8.9,2.372-1.971-.039-3.92-.356-5.878-.563-3.428-.431-6.865-.832-10.274-1.4C555.224,63.555,556.442,63.714,557.639,63.57Z" transform="translate(-434.579 -49.714)" fill="#626260"/>
      <path id="Path_24999" data-name="Path 24999" d="M109.96,66.353a3.788,3.788,0,0,0,1.113-.9q.561.55,1.078,1.136a5.915,5.915,0,0,1,1.434-1.078,3.617,3.617,0,0,1,1.093.988c1.356-.306,2.723.1,4.1.034,1.145-.041,2.292,0,3.439-.026,1.583-.127,3.163-.293,4.744-.4.332-.039.431.41.647.586a11.914,11.914,0,0,1,1.74-.356,10.15,10.15,0,0,0,1.354-.574c.58.071,1.065.483,1.649.541a21.327,21.327,0,0,0,2.587-.412,3.5,3.5,0,0,1,1.792.431c.1-.192.2-.382.3-.569a1.856,1.856,0,0,0,1.844.063,11.231,11.231,0,0,1,.267,1.856,4.128,4.128,0,0,1-1.389.673c-.586-.1-1.164-.556-1.762-.263a3.079,3.079,0,0,1-2.156.054c-.584-.686-1.552-.41-2.335-.431-.177.311-.354.617-.533.925a14.111,14.111,0,0,1-1.473.14A6.829,6.829,0,0,1,128.8,68c-.16.287-.321.574-.481.862l-.485-.589c-.334.237-.615.684-1.078.61a32.15,32.15,0,0,0-3.782-.241l-.392-.746a3.665,3.665,0,0,1-1.134,1.024c-.136-.364-.272-.731-.405-1.1-.414.27-.817.556-1.212.847l-.392-.714c-1.216.9-2.833.709-4.258.709L114.664,68a7.094,7.094,0,0,0-1.039,1.725c-.6-.431-1.078-1.473-1.953-1.205a15.7,15.7,0,0,1-4.405.06,5.624,5.624,0,0,1,.263-2.687l.075.041.824.431c.2-.2.4-.388.6-.582A9.165,9.165,0,0,0,109.96,66.353Z" transform="translate(-84.103 -51.338)" fill="#cececf"/>
      <path id="Path_25000" data-name="Path 25000" d="M265.786,66.144l.593-.834c.1.265.2.535.3.8l1,.132c.011.776.011,1.557,0,2.331-.112-.028-.334-.086-.446-.119l-.446.265c-.2-.319-.177-.912-.621-.975a8.672,8.672,0,0,0-.972,1.128L264.74,67.6l-1.779-.063.427.552c-1.578-.123-3.161-.039-4.744-.177.028-.584-.349-1.414.216-1.82a17.448,17.448,0,0,1,4.912.319c.513.1.852-.371,1.274-.561A6.856,6.856,0,0,1,265.786,66.144Z" transform="translate(-202.8 -51.228)" fill="#cfcfd1"/>
      <path id="Path_25001" data-name="Path 25001" d="M390.569,80.977q.216-.229.431-.453c.237.233.414.66.822.552.364-.129.58-.494.862-.746,0,1.029.028,2.057.028,3.085a6.454,6.454,0,0,1-3.062-.265q0-1.313.03-2.624Q390.124,80.746,390.569,80.977Z" transform="translate(-305.634 -63.009)" fill="#b8b6b8"/>
      <path id="Path_25002" data-name="Path 25002" d="M539.5,80.7a30.136,30.136,0,0,1,3.795.552,13.925,13.925,0,0,0-1.908.33,2.726,2.726,0,0,0-1.294,0c-.793.188-1.619-.017-2.406.2a18.7,18.7,0,0,1-3.267.289c-1.876-.043-3.706-.543-5.572-.705.112-.14.336-.412.448-.548.828-.028,1.6.584,2.428.317a7.9,7.9,0,0,1,1.841-.367c1.154-.041,2.286.319,3.45.216C537.846,80.92,538.667,80.765,539.5,80.7Z" transform="translate(-414.82 -63.3)" fill="#afaeaf"/>
      <path id="Path_25003" data-name="Path 25003" d="M413.734,221.39c.3.056.6.116.906.164-.03.668-.045,1.337-.082,2.007-.278,0-.554.013-.828.022v-.448l.591-.244c.2-.4-.392-.548-.576-.8C413.743,221.854,413.736,221.621,413.734,221.39Z" transform="translate(-324.522 -173.654)" fill="#afaeaf"/>
      <path id="Path_25004" data-name="Path 25004" d="M560.386,83.63a2.725,2.725,0,0,1,1.294,0,13.925,13.925,0,0,1,1.906-.33c.94.091,1.872.27,2.8.446a36.6,36.6,0,0,1-5.968.323q-.168.347-.33.692a22.431,22.431,0,0,0-2.984-.265c-.414,0-.647.431-.7.783a11.288,11.288,0,0,0-.106,1.941c-.326-.084-.647-.166-.977-.246a11.249,11.249,0,0,0-.123-2.122c-.142-.254-.317-.492-.481-.731a17.725,17.725,0,0,0,3.267-.289C558.771,83.613,559.6,83.817,560.386,83.63Z" transform="translate(-435.112 -65.339)" fill="#a2a0a1"/>
      <path id="Path_25005" data-name="Path 25005" d="M.231,170.92H2.684c.041.354.084.707.114,1.063l-.114.257c-.895.013-1.79,0-2.684.013l.045-.291C.1,171.616.166,171.269.231,170.92Z" transform="translate(0 -134.067)" fill="#a2a0a1"/>
      <path id="Path_25006" data-name="Path 25006" d="M320.834,206.77l.729.03a9.547,9.547,0,0,1,.039,1.4l-.188.591-.612.19C320.776,208.247,320.789,207.507,320.834,206.77Z" transform="translate(-251.621 -162.187)" fill="#a2a0a1"/>
      <path id="Path_25007" data-name="Path 25007" d="M3.41,208.734c.755-.574,1.813-.149,2.7-.244.313.47-.589.265-.841.4,0,.392,0,.787-.017,1.182l-.632-.166c-.069-.347-.14-.692-.216-1.037C4.078,208.824,3.753,208.779,3.41,208.734Z" transform="translate(-2.675 -163.486)" fill="#a2a0a1"/>
      <path id="Path_25008" data-name="Path 25008" d="M579.95,85.653a36.6,36.6,0,0,0,5.968-.323c1.365.157,2.717.405,4.08.593.431.08,1.061.216,1.121.763a38.582,38.582,0,0,1,.063,3.864,3.881,3.881,0,0,1-2.32-.517,3.2,3.2,0,0,0-.451,1.613c.015.276.168.63.5.6a9.435,9.435,0,0,0,2.264-.31c0,.157-.022.472-.028.632-.75.058-1.5.119-2.245.168l-.632-.418c-.043-1.371.093-2.751-.03-4.12a1.007,1.007,0,0,0-1.041-.862c-2.529-.323-5.054-.666-7.583-.979Q579.782,86,579.95,85.653Z" transform="translate(-454.643 -66.931)" fill="#989697"/>
      <path id="Path_25009" data-name="Path 25009" d="M343.64,120.438c2.436-.043,4.873.019,7.309.078.037.244.076.489.116.731,1.13-.539,2.339,0,3.517-.06,1.58.134,3.163-.125,4.744.045,1.423-.028,2.846.088,4.267-.024.772-.05,1.522.2,2.292.192.817,0,1.63-.095,2.447-.108,2.587-.069,5.175-.121,7.762-.084,2.715.078,5.429-.041,8.144.05,1.757,0,3.515-.177,5.272-.054a6.547,6.547,0,0,0,1.535-.086,17.715,17.715,0,0,1,3.081,0c2.059.088,4.12.041,6.177.177a17.945,17.945,0,0,1-5.315.291,53.727,53.727,0,0,0-5.47.192l-.239-.013c-1.4.177-2.8,0-4.22.149q-7.859-.063-15.723-.013c-1.913-.078-3.827.054-5.729-.2-2.281-.095-4.567-.2-6.85-.116-2.49-.116-4.992.106-7.471-.233-1.255-.216-2.523.129-3.771-.091l-.539.2c-.151-.1-.3-.19-.451-.282-.261.03-.522.063-.778.1C343.7,120.992,343.672,120.714,343.64,120.438Z" transform="translate(-269.545 -94.458)" fill="#989697"/>
      <path id="Path_25010" data-name="Path 25010" d="M583.058,221.12c.166.028.494.091.66.121l.06,1.624c-.276-.041-.546-.086-.813-.14l-.125-.039A5.361,5.361,0,0,0,583.058,221.12Z" transform="translate(-457.169 -173.443)" fill="#989697"/>
      <path id="Path_25011" data-name="Path 25011" d="M129.075,90.79c.431.5.9,1.078,1.641.938l.459.233a5.578,5.578,0,0,1,.908-.681c.431.138.839.386,1.294.5.483-.056.936-.27,1.423-.3a7.463,7.463,0,0,1,1.356.382l.875-.431.431.768c.216-.192.41-.384.617-.571a33.4,33.4,0,0,0,5.649.056c.474-.11.789.317,1.136.558.341-.375.677-.75,1.013-1.13l.334.647.768-.216.287.828A11.549,11.549,0,0,1,149.332,92c0,.287,0,.574,0,.862a11.867,11.867,0,0,0-1.4.461,2.306,2.306,0,0,1-2.1-.742c-.2.194-.39.392-.584.593-1.509-.237-3.038.278-4.528-.088a6.428,6.428,0,0,0-3.165-.108c-.172-.041-.345-.082-.513-.119a13.781,13.781,0,0,1-3.463.1,24.238,24.238,0,0,1-3.86-.093A15.867,15.867,0,0,0,127.1,93a31.127,31.127,0,0,0-3.234-.035c-1.233.142-2.471-.341-3.691,0-1.919-.364-3.87.032-5.8-.091-2.242-.138-4.485-.075-6.727,0V91.612a30.549,30.549,0,0,1,3.325-.039c.74.1,1.466-.31,2.195-.032a3.124,3.124,0,0,0,1.757-.017c.692-.172,1.294.317,1.966.414a7.331,7.331,0,0,0,.765-.451q.507.188,1.016.386c.216-.319.418-.647.63-.964l.431.632a5.863,5.863,0,0,1,.9-.323,6.069,6.069,0,0,1,.88.377A7.894,7.894,0,0,1,123.9,91.5a6.671,6.671,0,0,0,2.542.285,12.7,12.7,0,0,1,2.195-.293C128.779,91.267,128.926,91.025,129.075,90.79Z" transform="translate(-84.431 -71.214)" fill="#a19fa0"/>
      <path id="Path_25012" data-name="Path 25012" d="M313.53,148.486c.955-.091,1.915-.153,2.872-.216v1.891c-.97-.071-1.921.623-2.85.132C313.547,149.7,313.541,149.092,313.53,148.486Z" transform="translate(-245.927 -116.3)" fill="#a19fa0"/>
      <path id="Path_25013" data-name="Path 25013" d="M163.35,208.8c.233-.162.47-.315.7-.485a10.349,10.349,0,0,1,.082,1.846l-.753-.464C163.367,209.392,163.356,209.091,163.35,208.8Z" transform="translate(-128.129 -163.395)" fill="#a19fa0"/>
      <path id="Path_25014" data-name="Path 25014" d="M466.7,221.561l.565-.231a9.378,9.378,0,0,1,.065,2.171h-.688a9.662,9.662,0,0,1,.058-1.941Z" transform="translate(-366.007 -173.607)" fill="#a19fa0"/>
      <path id="Path_25015" data-name="Path 25015" d="M463.167,90.49a11.252,11.252,0,0,1,.123,2.122,22.949,22.949,0,0,0,.1,4.073h.791a21.838,21.838,0,0,0,.088-3.829,11.3,11.3,0,0,1,.106-1.941c0,1.524.073,3.049.03,4.571a8.723,8.723,0,0,0,.17,2.156,6.546,6.546,0,0,1-1.535.086c-1.757-.123-3.515.063-5.272.054-2.715-.091-5.429.028-8.144-.05-2.587-.037-5.175.015-7.762.084l-.28-.392a8.313,8.313,0,0,1-4.189-.235c3.487-.024,6.975.071,10.462.078.015-.144.043-.431.058-.578.565-.015,1.132-.026,1.7-.039.026.153.075.459.1.612,4.036.168,8.079.11,12.118.216a7.3,7.3,0,0,0,1.352-.194C463.079,95.016,463.2,92.756,463.167,90.49Z" transform="translate(-343.081 -70.979)" fill="#bebcbd"/>
      <path id="Path_25016" data-name="Path 25016" d="M41.353,167.608a8.523,8.523,0,0,1,2.622-.373c0,.185-.017.558-.022.742a10.217,10.217,0,0,1-2.8.19C41.2,168.022,41.3,167.744,41.353,167.608Z" transform="translate(-32.277 -131.169)" fill="#bebcbd"/>
      <path id="Path_25017" data-name="Path 25017" d="M486.313,92.725c.822-.3,1.173-1.108,1.626-1.785q.039,1.509.019,3.019c-.416.522-.893,1.093-1.645.862C486.3,94.123,486.313,93.424,486.313,92.725Z" transform="translate(-381.451 -71.332)" fill="#9c9a9b"/>
      <path id="Path_25018" data-name="Path 25018" d="M389.648,93.41a6.509,6.509,0,0,0,3.062.265v1.58a8.006,8.006,0,0,1-3.038-.112C389.648,94.566,389.645,93.99,389.648,93.41Z" transform="translate(-305.632 -73.269)" fill="#a3a1a2"/>
      <path id="Path_25019" data-name="Path 25019" d="M61.36,149.922a6.518,6.518,0,0,1,1.279-1.311c.886.073,1.772-.071,2.656.015a12.1,12.1,0,0,0,1.678.088c1.846-.116,3.694.086,5.541.05a4.142,4.142,0,0,1,1.294,1.585c-1.473.037-2.945.024-4.418.05a19.589,19.589,0,0,0-4.478.2,3.111,3.111,0,0,1-1.555-.358c-.147.1-.293.2-.431.3l-.608-.311c-.263.024-.524.045-.785.063Z" transform="translate(-48.13 -116.558)" fill="#a3a1a2"/>
      <path id="Path_25020" data-name="Path 25020" d="M144.938,99.673c.194-.2.388-.4.584-.593a2.306,2.306,0,0,0,2.1.742,11.872,11.872,0,0,1,1.4-.461,22.04,22.04,0,0,0,.088,3.581c.116.52.763.431,1.166.517,2.648.194,5.306.28,7.958.237.032.276.065.554.1.832.257-.034.517-.067.778-.1.149.093.3.185.451.282l.539-.2c1.248.216,2.516-.121,3.771.091,2.48.339,4.981.116,7.471.233,2.283-.084,4.569.022,6.85.116-.9.571-1.941.185-2.93.216-2.145.032-4.291-.065-6.432.084a21.444,21.444,0,0,1-2.833-.114c-.752-.039-1.5.114-2.249.091-1.777-.2-3.568-.037-5.352-.091l-.339-.431c-.962.923-2.275.136-3.415.354a6.919,6.919,0,0,1-2.232-.024,4.474,4.474,0,0,0-1.736.259c-.444-.112-.832-.377-1.268-.507a6.9,6.9,0,0,0-1.231.4c-.192-.175-.382-.345-.571-.513a1.934,1.934,0,0,1-1.522.52l-.487-.6a14.447,14.447,0,0,1-1.673.625c-.153-.341-.308-.679-.461-1.022-.785.431-1.637,0-2.456.216-.875.179-1.757-.136-2.637,0a12.037,12.037,0,0,0,.037-3.34,9.115,9.115,0,0,0-.931.216c-.418,1.037.2,2.156-.1,3.234a12.568,12.568,0,0,1-3.413-.464c.2-.395.408-.787.61-1.177q.216.509.448,1.02a3.719,3.719,0,0,0,.477-2.04c.216-.024.416-.047.627-.067-.116.323-.442.664-.216,1.02a4.575,4.575,0,0,0,.845.69,4.877,4.877,0,0,0,.091-2.568c-1.145.772-2.372-.239-3.586-.045a15.837,15.837,0,0,1-3.6-.065,2.248,2.248,0,0,1-1.029-.5c-.011.084-.035.257-.045.339-2.781-.056-5.559-.293-8.342-.28-2.637-.142-5.276.108-7.909-.086-1.688,0-3.372.151-5.058.16.032-.356.047-.716.058-1.078a65.434,65.434,0,0,1,6.727,0c1.941.123,3.881-.274,5.8.091,1.22-.349,2.458.134,3.691,0a31.123,31.123,0,0,1,3.234.034,15.867,15.867,0,0,1,2.615-.127,24.264,24.264,0,0,0,3.86.093,13.582,13.582,0,0,0,3.463-.1c.168.037.341.078.513.119a6.428,6.428,0,0,1,3.165.108C141.9,99.951,143.426,99.436,144.938,99.673Zm.489.9a3.969,3.969,0,0,0,.132,3.12,5.471,5.471,0,0,0,.127-3.154Zm-6.253,3.032.722.056a3.842,3.842,0,0,1,.5-1.473c.129.345.257.688.382,1.037l.556-.983q.276.662.561,1.324a1.561,1.561,0,0,0,1.031-1.369c.16.336.313.673.466,1.011a10.437,10.437,0,0,1,.8-1.41c-1.2-.052-2.391-.289-3.6-.285a2.62,2.62,0,0,1-1.4-.584c-.627.778-.252,1.8-.019,2.663Z" transform="translate(-84.148 -77.717)" fill="#868585"/>
      <path id="Path_25021" data-name="Path 25021" d="M486.236,105.862c.753.231,1.229-.341,1.645-.862,0,1.011-.052,2.027.028,3.038-.567.013-1.134.024-1.7.039C486.27,107.331,486.245,106.589,486.236,105.862Z" transform="translate(-381.374 -82.36)" fill="#868585"/>
      <path id="Path_25022" data-name="Path 25022" d="M557.36,100.33c.323.08.647.162.977.246a21.844,21.844,0,0,1-.088,3.829h-.783A22.177,22.177,0,0,1,557.36,100.33Z" transform="translate(-437.15 -78.697)" fill="#8f8e8e"/>
      <path id="Path_25023" data-name="Path 25023" d="M389.72,101.45a8.006,8.006,0,0,0,3.038.112c0,.489-.015.981-.015,1.471l-.664-.431c-.457.216-.916.446-1.376.66a11.792,11.792,0,0,0-.964-1.078C389.731,101.937,389.726,101.694,389.72,101.45Z" transform="translate(-305.689 -79.576)" fill="#969495"/>
      <path id="Path_25024" data-name="Path 25024" d="M107.26,104.9c1.686,0,3.37-.166,5.058-.16,2.633.194,5.272-.056,7.909.086,2.784-.013,5.561.216,8.342.28,0-.082.035-.254.045-.339a2.248,2.248,0,0,0,1.029.5,15.837,15.837,0,0,0,3.6.065c1.22-.194,2.441.817,3.586.045a4.877,4.877,0,0,1-.086,2.568,4.575,4.575,0,0,1-.85-.714c-.216-.356.108-.7.216-1.02-.216.019-.431.043-.627.067a3.593,3.593,0,0,1-.477,2.04q-.231-.511-.448-1.02c-.2.39-.408.783-.61,1.177a12.241,12.241,0,0,0,3.413.464c.3-1.078-.315-2.189.1-3.234a9.115,9.115,0,0,1,.931-.216,12.036,12.036,0,0,1-.037,3.34l-.714.054-.408.662a8.624,8.624,0,0,0-2.124.289l-.095-.293-.985-.181q-.351-.408-.7-.819c-.043.558-.086,1.123-.125,1.684q-10.309-.086-20.615-.291a5.554,5.554,0,0,1-.035-2.825c.142-.4.621-.444.953-.621q.3.444.615.89c1.5,0,2.988-.14,4.478-.278.39-.088.578.293.813.524.574-.477,1.164-1.121,1.979-1.078a4.491,4.491,0,0,1,2.29,1.225,11.381,11.381,0,0,0,.216-1.509,38.121,38.121,0,0,0,4.849-.373c-1.207-.132-2.426-.045-3.631-.2-1.537-.216-3.1,0-4.634-.246a41.3,41.3,0,0,0-4.927-.263,15.829,15.829,0,0,0-1.925.246,6.074,6.074,0,0,0-1.818-.129c-.77.2-1.544-.257-2.3.039a2.48,2.48,0,0,1-2.156-.188Z" transform="translate(-84.133 -82.156)" fill="#737172"/>
      <path id="Path_25025" data-name="Path 25025" d="M184.66,177.215q1.43-.03,2.859,0v2.529a13.762,13.762,0,0,1-2.842-.06C184.654,178.862,184.662,178.041,184.66,177.215Z" transform="translate(-144.844 -138.993)" fill="#737172"/>
      <path id="Path_25026" data-name="Path 25026" d="M119.5,225.144l.8-.024c0,.132-.026.4-.037.53h1.427c.015.192.043.576.058.768-.748-.03-1.49-.03-2.245-.03Z" transform="translate(-93.734 -176.58)" fill="#737172"/>
      <path id="Path_25027" data-name="Path 25027" d="M283.277,105.875l.259-.035a5.474,5.474,0,0,1-.127,3.154A3.971,3.971,0,0,1,283.277,105.875Z" transform="translate(-221.998 -83.019)" fill="#747373"/>
      <path id="Path_25028" data-name="Path 25028" d="M45.342,106.62a2.48,2.48,0,0,0,2.156.188c.759-.3,1.533.157,2.3-.039a6.074,6.074,0,0,1,1.818.129,15.669,15.669,0,0,1,1.925-.246,40.422,40.422,0,0,1,4.927.263c1.535.244,3.1.024,4.634.246,1.205.151,2.424.065,3.631.2a38.182,38.182,0,0,1-4.849.373,11.381,11.381,0,0,1-.216,1.509,4.491,4.491,0,0,0-2.29-1.225c-.815-.039-1.406.606-1.979,1.078-.235-.231-.431-.612-.813-.524-1.49.138-2.98.285-4.478.278q-.31-.446-.615-.89c-.332.177-.811.216-.953.621a5.553,5.553,0,0,0,.035,2.825c-7.463-.123-14.923-.431-22.388-.382v-.274c5.229-.589,10.453-1.192,15.682-1.779.477-.06,1.065-.144,1.294-.647A9.872,9.872,0,0,0,45.342,106.62Z" transform="translate(-22.112 -83.631)" fill="#6d6b6c"/>
      <path id="Path_25029" data-name="Path 25029" d="M620.848,107.14a3.881,3.881,0,0,0,2.32.517v1.38a9.464,9.464,0,0,1-2.264.311c-.336.035-.489-.319-.5-.6A3.2,3.2,0,0,1,620.848,107.14Z" transform="translate(-486.63 -84.039)" fill="#828282"/>
      <path id="Path_25030" data-name="Path 25030" d="M253.992,110.266c-.233-.862-.608-1.887.015-2.676a2.6,2.6,0,0,0,1.4.584c1.205,0,2.393.233,3.6.285a10.435,10.435,0,0,0-.8,1.41c-.153-.339-.306-.675-.466-1.011a1.568,1.568,0,0,1-1.031,1.369q-.285-.66-.561-1.324l-.556.983c-.125-.349-.252-.692-.382-1.037a3.842,3.842,0,0,0-.5,1.473Z" transform="translate(-198.971 -84.392)" fill="#757575"/>
      <path id="Path_25031" data-name="Path 25031" d="M619.242,117.71l.632.418c.748-.05,1.494-.11,2.245-.168a1.6,1.6,0,0,0,.759,1.244c-1.257-.134-2.521-.032-3.778-.058C619.163,118.67,619.219,118.191,619.242,117.71Z" transform="translate(-485.611 -92.33)" fill="#a6a4a5"/>
      <path id="Path_25032" data-name="Path 25032" d="M267.175,147.517c1.136,0,2.372-.552,3.43.058.431.66.817,1.356,1.2,2.048a29.775,29.775,0,0,1-5.606-.431C266.515,148.63,266.849,148.076,267.175,147.517Z" transform="translate(-208.802 -115.53)" fill="#a6a4a5"/>
      <path id="Path_25033" data-name="Path 25033" d="M506.126,167.29a16.615,16.615,0,0,0,2.493.233v2.156c-.9-.058-1.794-.116-2.691-.194-.05.431-.1.845-.144,1.272a14.757,14.757,0,0,1,0-2.708C505.891,167.788,506.008,167.538,506.126,167.29Z" transform="translate(-396.679 -131.219)" fill="#a6a4a5"/>
      <path id="Path_25034" data-name="Path 25034" d="M313.576,171.41q1.417.129,2.833.291l.06.632c-.968-.086-1.941-.175-2.9-.272C313.572,171.9,313.574,171.572,313.576,171.41Z" transform="translate(-245.959 -134.451)" fill="#a6a4a5"/>
      <path id="Path_25035" data-name="Path 25035" d="M180.7,208.81c.412.078.83.125,1.248.181.106.524.2,1.048.3,1.574a5.556,5.556,0,0,0-1.589-.16C180.669,209.873,180.669,209.34,180.7,208.81Z" transform="translate(-141.706 -163.787)" fill="#a6a4a5"/>
      <path id="Path_25036" data-name="Path 25036" d="M377.54,119.4a4.509,4.509,0,0,0,2.659-.4c.015.067.041.2.056.265a6.488,6.488,0,0,1,2.954-.155,1.7,1.7,0,0,0,1.05.371c2.063.034,4.129,0,6.193.067a8.313,8.313,0,0,0,4.189.235l.28.392c-.817.013-1.63.1-2.447.108-.77,0-1.52-.242-2.292-.192-1.421.112-2.844,0-4.267.024-1.578-.17-3.161.088-4.744-.045-1.177.058-2.387-.479-3.517.06C377.615,119.888,377.577,119.647,377.54,119.4Z" transform="translate(-296.136 -93.341)" fill="#acaaab"/>
      <path id="Path_25037" data-name="Path 25037" d="M227.675,122.33l.7.819,1,.188.11.308a8.625,8.625,0,0,1,2.124-.289l.4-.666.714-.054c.88-.142,1.762.172,2.637,0,.819-.216,1.671.216,2.456-.216.153.343.308.681.461,1.022a14.449,14.449,0,0,0,1.673-.625l.487.6a2.006,2.006,0,0,0,1.522-.52c.19.168.379.339.571.513a6.9,6.9,0,0,1,1.231-.4c.431.129.824.395,1.268.507a4.474,4.474,0,0,1,1.736-.259,6.919,6.919,0,0,0,2.232.024c1.141-.216,2.454.569,3.415-.354l.339.431c1.783.054,3.575-.112,5.352.091.75.024,1.5-.129,2.249-.091a21.44,21.44,0,0,0,2.833.114c2.141-.149,4.286-.052,6.432-.084.981-.019,2.031.367,2.93-.216,1.9.252,3.816.121,5.729.2q7.859-.05,15.723.013c1.406-.149,2.818.028,4.22-.149l.239.013a8.513,8.513,0,0,0,2.13.388c-24.339.561-48.689.561-73.032.375C227.589,123.453,227.632,122.888,227.675,122.33Z" transform="translate(-178.486 -95.953)" fill="#6e6d6b"/>
      <path id="Path_25038" data-name="Path 25038" d="M184.38,192.413a14.632,14.632,0,0,1,2.976-.153c-.039.1-.119.3-.157.4a19.534,19.534,0,0,1-2.635-.017Z" transform="translate(-144.624 -150.782)" fill="#6e6d6b"/>
      <path id="Path_25039" data-name="Path 25039" d="M569.9,124.324c1.257.026,2.521-.075,3.778.058,1.393.216,2.8.116,4.211.289a4.98,4.98,0,0,1-2.038.242c-5.783-.054-11.564.265-17.344.293a8.512,8.512,0,0,1-2.13-.388,53.817,53.817,0,0,1,5.47-.192,17.945,17.945,0,0,0,5.315-.291C568.077,124.315,568.989,124.335,569.9,124.324Z" transform="translate(-436.414 -97.507)" fill="#848283"/>
      <path id="Path_25040" data-name="Path 25040" d="M6.918,143.515c1.488-.06,2.976-.026,4.463-.043a6.389,6.389,0,0,1,3.019.834,20.985,20.985,0,0,0-3.644.045c-1.38.216-2.751-.216-4.136-.116C6.721,144,6.821,143.754,6.918,143.515Z" transform="translate(-5.193 -112.535)" fill="#dddbdc"/>
      <path id="Path_25041" data-name="Path 25041" d="M75.29,143.945a3.794,3.794,0,0,1,2.48-.444,19.839,19.839,0,0,1,2.775.078c.086.084.259.246.345.326a10.575,10.575,0,0,0-2.055.1c-.684.121-1.352-.216-2.038-.1A4.593,4.593,0,0,1,75.29,143.945Z" transform="translate(-59.056 -112.551)" fill="#d7d6d7"/>
      <path id="Path_25042" data-name="Path 25042" d="M151.51,143.565q1.436-.019,2.874,0c-.015.175-.05.526-.067.7a13.6,13.6,0,0,1-2.715.024C151.579,144.11,151.534,143.746,151.51,143.565Z" transform="translate(-118.842 -112.602)" fill="#d5d3d4"/>
      <path id="Path_25043" data-name="Path 25043" d="M174.032,143.523c3.122,0,6.253-.05,9.369.028a4.233,4.233,0,0,1-.492.692c-3.116-.019-6.234-.032-9.349,0Z" transform="translate(-136.137 -112.565)" fill="#d8d6d7"/>
      <path id="Path_25044" data-name="Path 25044" d="M270.72,144.638a2.8,2.8,0,0,1,1.49-1,2.094,2.094,0,0,1,1.941,1.061C273.087,144.086,271.858,144.645,270.72,144.638Z" transform="translate(-212.348 -112.651)" fill="#c8c6c7"/>
      <path id="Path_25045" data-name="Path 25045" d="M313.563,143.723c.936,0,1.869,0,2.8-.013l.026.992c-.957.054-1.917.116-2.872.216C313.535,144.512,313.548,144.118,313.563,143.723Z" transform="translate(-245.919 -112.724)" fill="#b9b7b9"/>
      <path id="Path_25046" data-name="Path 25046" d="M359.511,143.71c.949,0,1.9.017,2.85,0v.875a12.467,12.467,0,0,1-2.863.043C359.5,144.325,359.5,144.016,359.511,143.71Z" transform="translate(-281.984 -112.724)" fill="#b8b6b7"/>
      <path id="Path_25047" data-name="Path 25047" d="M58.61,156.4a4.921,4.921,0,0,1,.593-1.662l.155.373c.261-.017.522-.039.785-.063l.608.31c.144-.1.291-.216.431-.3a3.111,3.111,0,0,0,1.555.358,7.018,7.018,0,0,0-1.156,1.02A13.164,13.164,0,0,0,58.61,156.4Z" transform="translate(-45.973 -121.375)" fill="#b8b6b7"/>
      <path id="Path_25048" data-name="Path 25048" d="M30.32,156.333a3.738,3.738,0,0,1,2,.3c.8-.4,1.714-.164,2.557-.371.134.315.267.63.405.944l-.175.526a8.372,8.372,0,0,0-2.779-.157A5.128,5.128,0,0,0,30.32,156.333Z" transform="translate(-23.782 -122.568)" fill="#b8b6b7"/>
      <path id="Path_25049" data-name="Path 25049" d="M98.55,156.82c1.473-.026,2.945-.013,4.418-.05h.116c.1.414.185.828.272,1.242-.99-.086-1.971.119-2.958.088A3.155,3.155,0,0,0,98.55,156.82Z" transform="translate(-77.301 -122.968)" fill="#b8b6b7"/>
      <path id="Path_25050" data-name="Path 25050" d="M313.576,157.193c.929.492,1.88-.2,2.85-.132v.862c-.962-.026-1.893.3-2.857.216C313.57,157.827,313.572,157.51,313.576,157.193Z" transform="translate(-245.959 -123.192)" fill="#b8b6b7"/>
      <path id="Path_25051" data-name="Path 25051" d="M541.28,157.39a4.492,4.492,0,0,1,2.8.179c-.063.257-.125.518-.185.774-.862.013-1.725.024-2.6.041C541.282,158.06,541.28,157.72,541.28,157.39Z" transform="translate(-424.57 -123.346)" fill="#b8b6b7"/>
      <path id="Path_25052" data-name="Path 25052" d="M553,211.918c.024-1.794.028-3.586.024-5.378.065.679.142,1.361.231,2.038l.5.144c0,.235-.013.472-.015.712-.759.369-.632,1.261-.69,1.962q1.13.022,2.264,0c0,.134-.013.4-.017.535Q554.147,211.943,553,211.918Z" transform="translate(-433.763 -162.006)" fill="#b8b6b7"/>
      <path id="Path_25053" data-name="Path 25053" d="M119.219,219.487l.526-.267q.067.63.119,1.272l-.8.024v1.244c.748,0,1.5,0,2.245.039a19.954,19.954,0,0,1-2.355.05,10.669,10.669,0,0,1,.037-1.414C119.057,220.115,119.139,219.8,119.219,219.487Z" transform="translate(-93.302 -171.952)" fill="#b8b6b7"/>
      <path id="Path_25054" data-name="Path 25054" d="M431.13,146.023a3.718,3.718,0,0,1,3.571-2.255c2.779-.013,5.559,0,8.338-.017-.567.979-1.19,1.915-1.828,2.844-2.32,0-4.64-.047-6.96.039a11.275,11.275,0,0,0-2.333.157A7.563,7.563,0,0,1,431.13,146.023Z" transform="translate(-338.171 -112.755)" fill="#9d9c9c"/>
      <path id="Path_25055" data-name="Path 25055" d="M491.87,143.769c3.118-.013,6.236,0,9.354,0a28.93,28.93,0,0,1-1.85,2.779,6.117,6.117,0,0,1-2.079-.024,4.071,4.071,0,0,0-2.947.162,5.994,5.994,0,0,0-1.1-.634,7.481,7.481,0,0,1-2.654.116l-.129-.229C490.9,145.194,491.4,144.5,491.87,143.769Z" transform="translate(-384.708 -112.765)" fill="#979695"/>
      <path id="Path_25056" data-name="Path 25056" d="M541.274,143.75c3.3.022,6.6,0,9.908,0-.528.921-1.123,1.8-1.738,2.667-.155-.3-.31-.6-.461-.893-.888-.069-1.766-.216-2.65-.328-.815-.095-1.462.576-2.253.634a4.408,4.408,0,0,1-1.4-.563c-.216.216-.431.408-.647.615l-.781-.705C541.25,144.7,541.259,144.235,541.274,143.75Z" transform="translate(-424.547 -112.755)" fill="#8e8d8c"/>
      <path id="Path_25057" data-name="Path 25057" d="M591.308,143.746c4.25.019,8.5-.015,12.756,0-.022.822,0,1.643-.032,2.467v.125c-.056-.265-.112-.53-.164-.8a6.365,6.365,0,0,1-2.646-.341v-1.324a19.817,19.817,0,0,0-1.192,1.768l-.647-.369c-.371.114-.742.229-1.108.345l-.862-.535c-.071-.323-.14-.647-.2-.964-.14.41-.123.925-.431,1.257a16.3,16.3,0,0,0-2.5.431c-.164-.265-.323-.526-.481-.785-.155.3-.308.6-.479.893-.239-.166-.459-.356-.681-.539l-1.326.339C591.278,145.059,591.285,144.4,591.308,143.746Z" transform="translate(-463.796 -112.748)" fill="#8a8988"/>
      <path id="Path_25058" data-name="Path 25058" d="M597.1,145.54c.065.319.134.647.2.964l.862.535c.367-.116.737-.231,1.108-.345l.647.369-.634.931c-1.74,0-3.478-.015-5.216.015a28.019,28.019,0,0,0-2.885.1v-.981l1.326-.339c.216.183.442.373.681.539.17-.291.323-.593.479-.893.157.259.317.52.481.785a18.7,18.7,0,0,1,2.5-.431C596.971,146.465,596.971,145.95,597.1,145.54Z" transform="translate(-463.719 -114.159)" fill="#9f9d9e"/>
      <path id="Path_25059" data-name="Path 25059" d="M544.008,151.023c.791-.058,1.438-.729,2.253-.634.884.106,1.762.259,2.65.328.151.3.306.593.461.893l.076.144c-1.792.05-3.584.026-5.373.017l-.032.129c-.015.069-.047.2-.065.27a4.482,4.482,0,0,0-2.8-.179c0-.541,0-1.078-.015-1.621l.781.705c.216-.216.431-.41.647-.615A4.77,4.77,0,0,0,544.008,151.023Z" transform="translate(-424.476 -117.948)" fill="#9f9d9e"/>
      <path id="Path_25060" data-name="Path 25060" d="M591.16,177.316c.847,0,1.695-.026,2.54-.106.121.265.241.535.375.8,2.156.1,4.327,0,6.49.037.1.037.3.112.4.153.035.584-.921-.05-.783.515l.388.073c-.056.179-.112.36-.166.543l-.082-.024a3.918,3.918,0,0,0-1.048-.2c-2.693-.026-5.39,0-8.079.032C591.177,178.53,591.16,177.922,591.16,177.316Z" transform="translate(-463.695 -139)" fill="#9f9d9e"/>
      <path id="Path_25061" data-name="Path 25061" d="M67.29,146.8c1.158-.921,2.656-.3,3.985-.382,1.509-.08,3.019-.039,4.515-.116a2.673,2.673,0,0,1,1.376.647c-1.848.037-3.7-.166-5.541-.05a12.1,12.1,0,0,1-1.677-.088C69.062,146.727,68.176,146.871,67.29,146.8Z" transform="translate(-52.781 -114.744)" fill="#b9b7b8"/>
      <path id="Path_25062" data-name="Path 25062" d="M151.573,146.914a13.6,13.6,0,0,0,2.715-.024c.032.7.047,1.393.045,2.094l-.267.392a9.623,9.623,0,0,1-2.587-.384A13.94,13.94,0,0,1,151.573,146.914Z" transform="translate(-118.812 -115.218)" fill="#a4a2a3"/>
      <path id="Path_25063" data-name="Path 25063" d="M119.62,208.65c.235.093.834-.05.733.4.024.392.028.785.047,1.179-.185-.037-.556-.114-.744-.149Q119.637,209.372,119.62,208.65Z" transform="translate(-93.828 -163.661)" fill="#a4a2a3"/>
      <path id="Path_25064" data-name="Path 25064" d="M171.944,146.911c3.116-.039,6.234-.026,9.349,0-.091.2-.181.395-.267.593h-.088a4.248,4.248,0,0,1-1.826-.142c-.155.078-.31.162-.464.241l-.58-.237a7.245,7.245,0,0,1-1.716.192c-1.339-.537-2.8.052-4.174-.276-.229.123-.457.25-.677.386C171.649,147.4,171.8,147.152,171.944,146.911Z" transform="translate(-134.521 -115.215)" fill="#bcbbba"/>
      <path id="Path_25065" data-name="Path 25065" d="M.4,149.065a15.814,15.814,0,0,1,1.341-2.124c1.384-.1,2.756.328,4.136.116a20.985,20.985,0,0,1,3.644-.045,5.682,5.682,0,0,1,1.887,1.921c-.843.216-1.755-.028-2.557.371a3.745,3.745,0,0,0-2-.3C4.708,149.159,2.55,149.056.4,149.065Z" transform="translate(-0.314 -115.245)" fill="#a2a0a0"/>
      <path id="Path_25066" data-name="Path 25066" d="M418.44,208.348a6.875,6.875,0,0,1,.919-1.744l.793-.084a11.6,11.6,0,0,1-1.054,2.053C418.878,208.486,418.658,208.415,418.44,208.348Z" transform="translate(-328.217 -161.991)" fill="#a2a0a0"/>
      <path id="Path_25067" data-name="Path 25067" d="M359.47,147.843a12.469,12.469,0,0,0,2.863-.043v1.725a15.216,15.216,0,0,1-2.005.1c-.125.179-.248.362-.369.543l-.474-.479Q359.477,148.76,359.47,147.843Z" transform="translate(-281.962 -115.932)" fill="#a09f9e"/>
      <path id="Path_25068" data-name="Path 25068" d="M168.385,149.056c.216-.136.448-.263.677-.386,1.38.328,2.835-.261,4.174.276a7.245,7.245,0,0,0,1.71-.192l.58.237c.153-.08.308-.164.464-.241a4.248,4.248,0,0,0,1.826.142c-.326.517-.647,1.031-.981,1.546a24.972,24.972,0,0,1-2.7-.037,26.641,26.641,0,0,0-2.874.082c-1.248-.037-2.5-.024-3.745-.054A7.875,7.875,0,0,1,168.385,149.056Z" transform="translate(-131.4 -116.614)" fill="#a4a2a2"/>
      <path id="Path_25069" data-name="Path 25069" d="M637.3,150.54a6.436,6.436,0,0,0,2.646.341c.052.265.108.53.164.8l-.724.19-.448-.3a3.61,3.61,0,0,1-1.639.14C637.3,151.314,637.3,150.926,637.3,150.54Z" transform="translate(-499.887 -118.081)" fill="#9b999a"/>
      <path id="Path_25070" data-name="Path 25070" d="M591.179,168c2.876.063,5.753-.041,8.625.045a5.677,5.677,0,0,1-1.065,1.509c-1.568.086-3.142-.013-4.709.032,0,.4.011.8.026,1.207-.134-.263-.254-.533-.375-.8-.845.08-1.693.108-2.54.106C591.164,169.391,591.172,168.692,591.179,168Z" transform="translate(-463.679 -131.776)" fill="#9b999a"/>
      <path id="Path_25071" data-name="Path 25071" d="M603.856,221.13c.278,0,.556,0,.839.011,0,.724,0,1.445-.015,2.169-.192,0-.574.024-.765.028C603.858,222.611,603.852,221.865,603.856,221.13Z" transform="translate(-473.653 -173.45)" fill="#9b999a"/>
      <path id="Path_25072" data-name="Path 25072" d="M488.46,154.494c.138-.216.28-.444.431-.664l.129.229a7.481,7.481,0,0,0,2.654-.116,6,6,0,0,1,1.1.634,4.071,4.071,0,0,1,2.947-.162l-.647.153c0,.274,0,.552.022.826a8.886,8.886,0,0,0-2.544.274c-.121-.354-.239-.7-.356-1.052l-.037-.112C490.925,154.514,489.691,154.526,488.46,154.494Z" transform="translate(-383.139 -120.661)" fill="#b5b3b4"/>
      <path id="Path_25073" data-name="Path 25073" d="M640.112,155.355v-.125a22.649,22.649,0,0,1,.028,2.786c-.947-.028-1.893-.041-2.84-.052v-1.369a15.05,15.05,0,0,0,2.531.095A7.235,7.235,0,0,0,640.112,155.355Z" transform="translate(-499.887 -121.76)" fill="#cecece"/>
      <path id="Path_25074" data-name="Path 25074" d="M42.545,160.64c.071.477.136.953.2,1.427a8.15,8.15,0,0,0-2.622.373c-.052.138-.153.416-.216.558l-.024.058a7.909,7.909,0,0,0-.3-2.048,8.372,8.372,0,0,1,2.779.157Z" transform="translate(-31.046 -126.003)" fill="#cecece"/>
      <path id="Path_25075" data-name="Path 25075" d="M57.928,162.181a13.226,13.226,0,0,1,2.978.032,8.864,8.864,0,0,0-.339,1.057c-.94-.067-1.885-.095-2.827-.073.026-.336.054-.668.08-1Z" transform="translate(-45.29 -127.154)" fill="#cecece"/>
      <path id="Path_25076" data-name="Path 25076" d="M184.686,156.7a26.641,26.641,0,0,1,2.874-.082c-.03.343-.056.686-.078,1.031a8.027,8.027,0,0,0-2.853-.013C184.647,157.331,184.667,157.01,184.686,156.7Z" transform="translate(-144.82 -122.832)" fill="#b7b6b6"/>
      <path id="Path_25077" data-name="Path 25077" d="M505.78,157.47c.116.351.235.7.356,1.052a8.885,8.885,0,0,1,2.544-.274l-.149.839c.043.244.088.485.134.733a16.613,16.613,0,0,1-2.493-.233c-.119.248-.235.5-.336.75C505.78,159.38,505.8,158.425,505.78,157.47Z" transform="translate(-396.725 -123.517)" fill="#cbcbcc"/>
      <path id="Path_25078" data-name="Path 25078" d="M544.112,157.74c.017-.067.05-.2.065-.27.03.343.065.684.1,1.026,2.156-.015,4.334-.024,6.5,0q-.369.647-.74,1.276h0a9.752,9.752,0,0,0-1.941-.162c-2.255.06-4.511-.056-6.766.028v-1.078c.862-.017,1.725-.028,2.6-.041C543.986,158.257,544.049,158,544.112,157.74Z" transform="translate(-424.609 -123.517)" fill="#cfcfcf"/>
      <path id="Path_25079" data-name="Path 25079" d="M260,162.221a31.05,31.05,0,0,1,3.525-.147,15.966,15.966,0,0,0,3.381-.035h.067q.449.774.895,1.557c-1.078,0-2.141-.041-3.206.05l-.11.444c-.379-.556-.714-1.141-1.048-1.725-.19.216-.371.448-.582.647-.4.17-.809.31-1.22.444a2.871,2.871,0,0,0-2.355-.2c.172-.347.347-.694.53-1.037Z" transform="translate(-203.429 -127.101)" fill="#cfcfcf"/>
      <path id="Path_25080" data-name="Path 25080" d="M107.12,162.471c.988.03,1.969-.175,2.958-.088h.132c.022.375.043.75.067,1.13a5.49,5.49,0,0,1-2.866-.448C107.323,162.863,107.226,162.663,107.12,162.471Z" transform="translate(-84.023 -127.353)" fill="#cfcfcf"/>
      <path id="Path_25081" data-name="Path 25081" d="M575.827,214.69c.069.08.216.231.278.308l.487-.024c.026.36.05.72.078,1.078l-.891.013C575.789,215.619,575.8,215.151,575.827,214.69Z" transform="translate(-451.631 -168.399)" fill="#cfcfcf"/>
      <path id="Path_25082" data-name="Path 25082" d="M593.9,158.388c.08-.3.162-.584.246-.878.028.339.06.681.093,1.022,2.156-.026,4.325-.045,6.488.026-.244.431-.489.839-.74,1.257h-.058c-2.876-.086-5.753.017-8.625-.045,0-.522-.011-1.041-.011-1.561Z" transform="translate(-463.797 -123.548)" fill="#cdcdcd"/>
      <path id="Path_25083" data-name="Path 25083" d="M211.92,216.352l.707-.073c-.039.392-.069.783-.1,1.173h.53c.013-.41.026-.822.041-1.231.151.026.451.067.6.088.063.375.129.75.194,1.13a4.207,4.207,0,0,1-2.145-.047C211.8,217.048,211.866,216.7,211.92,216.352Z" transform="translate(-166.093 -169.599)" fill="#cdcdcd"/>
      <path id="Path_25084" data-name="Path 25084" d="M184.63,160.979a8.028,8.028,0,0,1,2.853.013q0,.731.013,1.468c-.938.181-1.941.617-2.853.075C184.643,162.016,184.636,161.5,184.63,160.979Z" transform="translate(-144.82 -126.174)" fill="#cccbcb"/>
      <path id="Path_25085" data-name="Path 25085" d="M53.991,211.921c0-1.19-.093-2.385.022-3.571.045.584.086,1.166.125,1.753.168,0,.5.03.671.037l1.195.052c0,.248,0,.5.013.753l-1.248.1-.556.037C54.133,211.36,54.056,211.638,53.991,211.921Z" transform="translate(-42.322 -163.426)" fill="#cccbcb"/>
      <path id="Path_25086" data-name="Path 25086" d="M359.943,161.511c.793-.237,1.634-.216,2.434-.431-.013.513-.022,1.028-.032,1.544-.942.024-1.882.078-2.82.132q-.013-.781-.015-1.555Z" transform="translate(-281.993 -126.348)" fill="#ccc"/>
      <path id="Path_25087" data-name="Path 25087" d="M430.57,160.29c.3.125.6.246.91.369a11.037,11.037,0,0,1,2.352-.252c1.8-.028,3.609-.015,5.412,0a3.993,3.993,0,0,1,3.122,1.684c-.619-.026-1.236-.08-1.852-.129-1.154-.116-2.292.216-3.45.175-1.837-.054-3.676,0-5.509.106h-.1A4.185,4.185,0,0,1,430.57,160.29Z" transform="translate(-337.731 -125.729)" fill="#cccccd"/>
      <path id="Path_25088" data-name="Path 25088" d="M.053,162.707c.951-.041,1.9-.035,2.855,0a15.8,15.8,0,0,1-.024,2.654l-.069.157c-.03-.356-.073-.709-.114-1.063H.247c-.065.349-.129.7-.185,1.05a26.928,26.928,0,0,1-.009-2.8Z" transform="translate(-0.016 -127.602)" fill="#cacaca"/>
      <path id="Path_25089" data-name="Path 25089" d="M624.087,212.02c-.119-1.794-.037-3.6-.034-5.39q.084,1,.216,2l.474.216.162.08c-.013.274-.022.552-.03.83l-.763.037C624.113,210.537,624.108,211.279,624.087,212.02Z" transform="translate(-489.472 -162.077)" fill="#cacaca"/>
      <path id="Path_25090" data-name="Path 25090" d="M151.481,162.511a10.3,10.3,0,0,1,2.842-.164c0,.364.011.733.017,1.1q-1.434-.022-2.87,0C151.472,163.125,151.476,162.817,151.481,162.511Z" transform="translate(-118.81 -127.316)" fill="#ceced0"/>
      <path id="Path_25091" data-name="Path 25091" d="M151.47,167.5q1.436-.013,2.87,0c0,.323-.015.647-.024.966q-1.41-.155-2.825-.3C151.485,168.007,151.476,167.667,151.47,167.5Z" transform="translate(-118.81 -131.376)" fill="#c1bfc0"/>
      <path id="Path_25092" data-name="Path 25092" d="M296.49,206.64q1.294,0,2.587.037v.759q-.431.032-.841.071c-.062,1.052-.073,2.1-.047,3.154-.282-.019-.567-.037-.847-.05q0-.988.017-1.966l.608-.216c.022-.382.047-.761.073-1.141l-.709.108-.837.119C296.5,207.229,296.492,206.933,296.49,206.64Z" transform="translate(-232.561 -162.085)" fill="#c1bfc0"/>
      <path id="Path_25093" data-name="Path 25093" d="M541.269,167.4c2.255-.084,4.511.032,6.766-.028a9.754,9.754,0,0,1,1.941.162c-.071.067-.216.2-.287.267a30.619,30.619,0,0,1-5.93.185,11.463,11.463,0,0,0-2.5.272C541.26,167.976,541.264,167.691,541.269,167.4Z" transform="translate(-424.555 -131.284)" fill="#b0afaf"/>
      <path id="Path_25094" data-name="Path 25094" d="M637.326,167.91c.947.011,1.893.024,2.84.052,0,.9,0,1.8.022,2.706-.1-.2-.2-.4-.293-.608q-1.294-.028-2.574-.028C637.324,169.324,637.322,168.617,637.326,167.91Z" transform="translate(-499.902 -131.706)" fill="#999798"/>
      <path id="Path_25095" data-name="Path 25095" d="M328.615,181.115c2.176-.071,4.355-.037,6.533-.015q-.291.528-.589,1.052h-.045a48.8,48.8,0,0,0-6.024-.175C328.52,181.759,328.585,181.33,328.615,181.115Z" transform="translate(-257.662 -142.03)" fill="#999798"/>
      <path id="Path_25096" data-name="Path 25096" d="M553.11,206.54l.832.022c0,.72-.034,1.442-.1,2.156l-.5-.144C553.252,207.9,553.175,207.219,553.11,206.54Z" transform="translate(-433.849 -162.006)" fill="#999798"/>
      <path id="Path_25097" data-name="Path 25097" d="M624.16,206.6H625a11.446,11.446,0,0,1-.145,2.221l-.474-.216Q624.244,207.6,624.16,206.6Z" transform="translate(-489.58 -162.053)" fill="#999798"/>
      <path id="Path_25098" data-name="Path 25098" d="M184.69,168.365c.9.541,1.915.106,2.853-.075v.942a23.334,23.334,0,0,1-2.85.179C184.692,169.062,184.692,168.713,184.69,168.365Z" transform="translate(-144.867 -132.004)" fill="#b6b4b5"/>
      <path id="Path_25099" data-name="Path 25099" d="M541.187,169.837a11.461,11.461,0,0,1,2.5-.272,30.622,30.622,0,0,0,5.93-.185,8.152,8.152,0,0,1-.783,1.294c-1.589-.052-3.178,0-4.767,0v1.195c-.1-.229-.2-.461-.289-.694a6.6,6.6,0,0,0-2.607.157C541.181,170.829,541.185,170.335,541.187,169.837Z" transform="translate(-424.484 -132.859)" fill="#a09f9f"/>
      <path id="Path_25100" data-name="Path 25100" d="M40.152,170.89a10.206,10.206,0,0,0,2.8-.19c-.052.4-.1.8-.138,1.21-.841-.617-1.971-.216-2.937-.323l.246-.647Z" transform="translate(-31.281 -133.894)" fill="#a8a6a7"/>
      <path id="Path_25101" data-name="Path 25101" d="M94.473,209.633c-.11-.673-.183-1.41.513-1.783a4.633,4.633,0,0,1,.134,1.917C94.962,209.737,94.635,209.666,94.473,209.633Z" transform="translate(-74.048 -163.034)" fill="#a8a6a7"/>
      <path id="Path_25102" data-name="Path 25102" d="M254,172.38a2.359,2.359,0,0,0,1.99-.28,3.866,3.866,0,0,1,1.473.477c-.155.27-.319.539-.483.809-.988-.781-2.281-.093-3.413-.27C253.712,172.868,253.857,172.626,254,172.38Z" transform="translate(-198.896 -134.992)" fill="#9e9c9d"/>
      <path id="Path_25103" data-name="Path 25103" d="M285.25,173.536a23.336,23.336,0,0,1,3.45-.142c.185.3.373.6.558.9a11.147,11.147,0,0,0-3.609-.088h-.065C285.47,173.989,285.36,173.765,285.25,173.536Z" transform="translate(-223.745 -136.006)" fill="#9e9c9d"/>
      <path id="Path_25104" data-name="Path 25104" d="M553.24,221.922c.058-.7-.069-1.593.69-1.962.069.546.106,1.1.129,1.647h1.458l-.013.313Q554.37,221.946,553.24,221.922Z" transform="translate(-433.951 -172.533)" fill="#9e9c9d"/>
      <path id="Path_25105" data-name="Path 25105" d="M106.73,173.1c.14-.289.267-.58.379-.878a6.494,6.494,0,0,1,2.738.574c-.052.231-.1.466-.153.7C108.834,172.878,107.7,173.367,106.73,173.1Z" transform="translate(-83.717 -135.086)" fill="#9d9b9c"/>
      <path id="Path_25106" data-name="Path 25106" d="M300.43,209.8l.709-.108c-.026.379-.052.759-.073,1.141l-.608.216C300.447,210.619,300.439,210.21,300.43,209.8Z" transform="translate(-235.652 -164.477)" fill="#9d9b9c"/>
      <path id="Path_25107" data-name="Path 25107" d="M359.435,174.217c.91-.571,1.953.276,2.861-.317-.013.313-.019.623-.028.938-.4.032-.8.067-1.2.091-.55-.127-1.106-.216-1.665-.3C359.409,174.523,359.426,174.316,359.435,174.217Z" transform="translate(-281.907 -136.404)" fill="#959394"/>
      <path id="Path_25108" data-name="Path 25108" d="M313.562,174.43c.966.1,1.941.185,2.9.272-.026.129-.075.388-.1.515a16.29,16.29,0,0,1-2.8-.142C313.566,174.913,313.564,174.592,313.562,174.43Z" transform="translate(-245.951 -136.82)" fill="#959394"/>
      <path id="Path_25109" data-name="Path 25109" d="M38.408,174.706c.966.112,2.1-.293,2.937.323A17.709,17.709,0,0,1,38,175.3C38.134,175.1,38.272,174.9,38.408,174.706Z" transform="translate(-29.807 -137.014)" fill="#8e8c8d"/>
      <path id="Path_25110" data-name="Path 25110" d="M2.819,175.317l.069-.157q.013.647.013,1.294c1.242,0,2.486.067,3.726-.028a3.02,3.02,0,0,0,1.587-.744,17.359,17.359,0,0,0,3.344-.27,6.557,6.557,0,0,1-1.8,2.665,12.876,12.876,0,0,0-2.672.093,27.23,27.23,0,0,0-2.749-.063c-1.121.166-2.258-.073-3.377.093l-.267.554a14.955,14.955,0,0,0,2.747.086,32.955,32.955,0,0,1,4.23.25,7.471,7.471,0,0,1-1.9.216c-1.908,0-3.814.013-5.72-.015.017-1.229.037-2.46-.034-3.691.895-.022,1.79,0,2.684-.013Z" transform="translate(-0.016 -137.392)" fill="#706e6f"/>
      <path id="Path_25111" data-name="Path 25111" d="M151.48,176.236q1.43-.013,2.855,0,.013,1.363,0,2.73l-2.846-.022C151.478,178.046,151.486,177.14,151.48,176.236Z" transform="translate(-118.818 -138.232)" fill="#706e6f"/>
      <path id="Path_25112" data-name="Path 25112" d="M142.77,225l.841.024c-.015.431-.026.862-.037,1.309l-.783.011C142.785,225.9,142.779,225.457,142.77,225Z" transform="translate(-111.986 -176.486)" fill="#706e6f"/>
      <path id="Path_25113" data-name="Path 25113" d="M249.8,176.4c1.132.177,2.426-.511,3.413.27q-.472.72-.91,1.468a3.4,3.4,0,0,1-2.331-.17c-.405.035-.809.08-1.21.125C249.1,177.521,249.443,176.96,249.8,176.4Z" transform="translate(-195.123 -138.278)" fill="#7e7e7e"/>
      <path id="Path_25114" data-name="Path 25114" d="M446.064,176.006c.134-.2.263-.408.416-.6a9.479,9.479,0,0,1,2.348.2c-.052.431-.1.862-.151,1.3-3.532-.1-7.068.043-10.6-.084a2.08,2.08,0,0,1,1.009-.2c1.876,0,3.75.015,5.625,0A1.376,1.376,0,0,0,446.064,176.006Z" transform="translate(-343.622 -137.568)" fill="#878686"/>
      <path id="Path_25115" data-name="Path 25115" d="M59,176.526a9.631,9.631,0,0,1,3.176-.013c1.128,1.179,2.859.8,4.312.862a3.213,3.213,0,0,0,2.8-1.065c.972.27,2.1-.216,2.965.395a6.71,6.71,0,0,1-1.915,2.48h-.093c-.753-.078-1.509-.216-2.255-.261-.455-.125-.619.373-.586.727.466.123.944.19,1.421.27a6.862,6.862,0,0,1-1.9.285,23.112,23.112,0,0,1-4.23-.185,13.208,13.208,0,0,1,2.68-.259,3.229,3.229,0,0,0,1.69-.067c-.026-.14-.075-.42-.1-.558a5.473,5.473,0,0,0-1.708.067c-.862.132-1.706-.481-2.546-.108a2.473,2.473,0,0,1-1.889-.039A5.028,5.028,0,0,1,59,176.526Z" transform="translate(-46.279 -138.294)" fill="#6f6d6d"/>
      <path id="Path_25116" data-name="Path 25116" d="M272.885,176.744a11.147,11.147,0,0,1,3.609.088c.339.584.675,1.166,1.024,1.744-.923-.024-1.846-.06-2.769-.054a54.786,54.786,0,0,0-5.77.019c.192-.313.382-.623.569-.938,1.257-.032,2.514,0,3.771-.022Z" transform="translate(-210.983 -138.543)" fill="#868485"/>
      <path id="Path_25117" data-name="Path 25117" d="M313.582,177.42a16.224,16.224,0,0,0,2.8.142c.041.358.037.8.541.688-.03.216-.095.647-.125.862a16.513,16.513,0,0,1-3.215.026v-.349a22.492,22.492,0,0,1,2.8.1c.05-.317-.354-.317-.556-.431-.317-.2-.608.121-.88.233a9.917,9.917,0,0,1-1.363.041C313.575,178.293,313.58,177.858,313.582,177.42Z" transform="translate(-245.966 -139.165)" fill="#7f7f7f"/>
      <path id="Path_25118" data-name="Path 25118" d="M359.4,177.27c.558.075,1.115.175,1.665.3.4-.024.8-.058,1.2-.091l.043.647c2.372.013,4.744-.06,7.1.039l-.257.177c-1.712.071-3.428-.1-5.14.039-1.533.149-3.075-.088-4.61.095C359.4,178.074,359.406,177.671,359.4,177.27Z" transform="translate(-281.907 -139.047)" fill="#818080"/>
      <path id="Path_25119" data-name="Path 25119" d="M506.194,177.43c.9.078,1.794.136,2.691.194,0,.347-.015.7-.019,1.046-.94,0-1.878,0-2.816.032C506.1,178.275,506.145,177.853,506.194,177.43Z" transform="translate(-396.936 -139.173)" fill="#838383"/>
      <path id="Path_25120" data-name="Path 25120" d="M541.22,177.6a6.6,6.6,0,0,1,2.607-.157c.091.233.188.466.289.694,2.316.2,4.679,0,7.014.095l-.321.382c-3.185.075-6.378,0-9.567.03C541.233,178.291,541.224,177.941,541.22,177.6Z" transform="translate(-424.523 -139.13)" fill="#807f7f"/>
      <path id="Path_25121" data-name="Path 25121" d="M637.32,177.75q1.294,0,2.574.028c.095.216.194.4.293.608l.054.11c2.324,0,4.649-.024,6.973,0-.259.431-.513.847-.768,1.272H646.4a8.364,8.364,0,0,0-3.553-.058c-1.841.177-3.691-.2-5.526.084v-.718c2.107-.093,4.23.134,6.328-.134-2.107.075-4.218.052-6.324,0C637.344,178.543,637.339,178.149,637.32,177.75Z" transform="translate(-499.902 -139.424)" fill="#878687"/>
      <path id="Path_25122" data-name="Path 25122" d="M359.4,182.322c1.535-.183,3.077.054,4.61-.095,1.712-.138,3.428.032,5.14-.039-.14.272-.291.537-.444.8-1.421-.183-2.855.019-4.28-.08-1.667-.116-3.336-.05-5-.078C359.417,182.706,359.406,182.451,359.4,182.322Z" transform="translate(-281.907 -142.892)" fill="#a4a2a4"/>
      <path id="Path_25123" data-name="Path 25123" d="M437.06,182.707c.071-.216.144-.431.216-.647,3.53.127,7.066-.019,10.6.084l-.179.569h0Q442.379,182.649,437.06,182.707Z" transform="translate(-342.822 -142.805)" fill="#b7b5b7"/>
      <path id="Path_25124" data-name="Path 25124" d="M244.14,184.205c.4-.045.8-.091,1.21-.125a3.372,3.372,0,0,0,2.331.17c-.431.675-.862,1.352-1.257,2.044-1.186.019-2.372,0-3.553,0C243.3,185.6,243.715,184.9,244.14,184.205Z" transform="translate(-190.503 -144.389)" fill="#747472"/>
      <path id="Path_25125" data-name="Path 25125" d="M265.517,185.159a56.59,56.59,0,0,1,5.77-.019c.923,0,1.846.03,2.769.054q.5.8.957,1.626c-3.484-.015-6.971.08-10.453,0C264.847,186.248,265.183,185.7,265.517,185.159Z" transform="translate(-207.516 -145.159)" fill="#70706e"/>
      <path id="Path_25126" data-name="Path 25126" d="M151.26,192.51c.97.015,1.941.024,2.913,0,0,.1-.015.306-.019.412-.912-.039-1.824.03-2.734-.028C151.381,192.79,151.3,192.6,151.26,192.51Z" transform="translate(-118.646 -151.001)" fill="#70706e"/>
      <path id="Path_25127" data-name="Path 25127" d="M274.188,185.246a16.513,16.513,0,0,0,3.215-.026,48.8,48.8,0,0,1,6.024.175c-.367.6-.752,1.182-1.121,1.779-6.315,0-12.633.035-18.946-.028l.254-.216c3.482.082,6.969-.013,10.453,0h.129Q274.184,186.087,274.188,185.246Z" transform="translate(-206.575 -145.277)" fill="#686765"/>
      <path id="Path_25128" data-name="Path 25128" d="M435.876,184.962q5.315-.06,10.632.015l-.216.254c-3.581-.039-7.165.112-10.742-.011A3.653,3.653,0,0,0,435.876,184.962Z" transform="translate(-341.638 -145.06)" fill="#8b898a"/>
      <path id="Path_25129" data-name="Path 25129" d="M359.492,185.24c1.667.028,3.336-.039,5,.078,1.425.1,2.859-.1,4.28.08q-.6.886-1.173,1.794c-2.7.032-5.39,0-8.1.019C359.486,186.553,359.483,185.9,359.492,185.24Z" transform="translate(-281.975 -145.299)" fill="#636361"/>
      <path id="Path_25130" data-name="Path 25130" d="M431.66,186.26c3.577.123,7.161-.028,10.742.011A3.931,3.931,0,0,1,439.047,188c-2.822.017-5.645,0-8.467,0C430.944,187.422,431.33,186.851,431.66,186.26Z" transform="translate(-337.739 -146.099)" fill="#5b5b59"/>
      <path id="Path_25131" data-name="Path 25131" d="M505.87,186.941q0-1.018.058-2.031c.934.028,1.867.032,2.8.028v2.007C507.772,186.937,506.821,186.941,505.87,186.941Z" transform="translate(-396.795 -145.04)" fill="#5c5c5a"/>
      <path id="Path_25132" data-name="Path 25132" d="M541.255,185c3.129,0,6.253.015,9.386,0-.431.664-.845,1.328-1.255,2-2.712.041-5.425,0-8.137.03C541.234,186.348,541.24,185.673,541.255,185Z" transform="translate(-424.539 -145.111)" fill="#5a5a58"/>
      <path id="Path_25133" data-name="Path 25133" d="M591.2,186c2.693-.024,5.39-.058,8.079-.032a3.918,3.918,0,0,1,1.048.2c-.33.528-.668,1.052-1,1.578q-4.077.039-8.157,0C591.181,187.161,591.192,186.581,591.2,186Z" transform="translate(-463.703 -145.862)" fill="#5a5a58"/>
      <path id="Path_25134" data-name="Path 25134" d="M637.262,186.288c1.835-.282,3.685.093,5.526-.084a8.363,8.363,0,0,1,3.553.058,7.459,7.459,0,0,1-1.078,1.542c-2.672.039-5.349.022-8.023,0Q637.253,187.045,637.262,186.288Z" transform="translate(-499.84 -145.924)" fill="#585856"/>
      <path id="Path_25135" data-name="Path 25135" d="M6.76,188.588a27.225,27.225,0,0,1,2.749.063,12.876,12.876,0,0,1,2.672-.093,4.836,4.836,0,0,1-2.087,1.013,32.891,32.891,0,0,0-4.226-.25,15.346,15.346,0,0,1-2.747-.086l.267-.554C4.506,188.514,5.643,188.754,6.76,188.588Z" transform="translate(-2.447 -147.877)" fill="#91908e"/>
      <path id="Path_25136" data-name="Path 25136" d="M67.45,188.7a2.473,2.473,0,0,0,1.889.039c.841-.373,1.688.239,2.546.108a5.224,5.224,0,0,1,1.708-.067c.026.138.075.418.1.558A3.229,3.229,0,0,1,72,189.4a13.207,13.207,0,0,0-2.68.259A4.363,4.363,0,0,1,67.45,188.7Z" transform="translate(-52.907 -147.945)" fill="#9d9c99"/>
      <path id="Path_25137" data-name="Path 25137" d="M97.986,189.015c-.032-.354.132-.862.586-.727.755.054,1.509.183,2.255.261a4.684,4.684,0,0,1-1.345.75l-.075-.015C98.928,189.2,98.449,189.138,97.986,189.015Z" transform="translate(-76.855 -147.672)" fill="#999896"/>
      <path id="Path_25138" data-name="Path 25138" d="M503.629,207a1.266,1.266,0,0,1,2.156-.235,2.116,2.116,0,0,1,.216,1.016h-.716c-.088-.233-.183-.464-.285-.684a5.364,5.364,0,0,0-.619.024c-.065.3-.132.6-.194.9l-.612.168A4.743,4.743,0,0,1,503.629,207Z" transform="translate(-394.983 -161.794)" fill="#999896"/>
      <path id="Path_25139" data-name="Path 25139" d="M151.3,188.85l2.846.022v.757c-.97.034-1.941.026-2.913,0C151.26,189.376,151.28,189.111,151.3,188.85Z" transform="translate(-118.622 -148.131)" fill="#908f8d"/>
      <path id="Path_25140" data-name="Path 25140" d="M184.451,188.74a13.764,13.764,0,0,0,2.842.06c.017.239.039.481.063.722a14.634,14.634,0,0,0-2.976.153C184.41,189.363,184.432,189.05,184.451,188.74Z" transform="translate(-144.624 -148.044)" fill="#8b8b89"/>
      <path id="Path_25141" data-name="Path 25141" d="M4.214,206.62c.888.013,1.779-.013,2.665.028-.718.606-1.8.17-2.669.261Z" transform="translate(-3.302 -162.069)" fill="#c0bebf"/>
      <path id="Path_25142" data-name="Path 25142" d="M138.867,206.77q1.233.052,2.467.013c.013.254.028.511.043.77l-.819.047c-.011.291-.022.589-.03.882l-.4.2-.431-.216c0-.291-.015-.589-.019-.88l-.843-.03Z" transform="translate(-108.896 -162.187)" fill="#c0bebf"/>
      <path id="Path_25143" data-name="Path 25143" d="M28.682,206.83l.647.015c0,.084-.015.246-.019.326-.035.571-.091,1.136-.153,1.708-.216-.037-.431-.073-.647-.1a13.931,13.931,0,0,1,.172-1.945Z" transform="translate(-22.363 -162.234)" fill="#a4a3a1"/>
      <path id="Path_25144" data-name="Path 25144" d="M233.8,208.937l1.854-.017c-.05.075-.149.216-.2.3l-.084.125c-.026.479-.056.957-.095,1.434l-.548-.108c-.065-.513-.132-1.029-.2-1.542Z" transform="translate(-183.388 -163.873)" fill="#a4a3a1"/>
      <path id="Path_25145" data-name="Path 25145" d="M93.952,206.71h.921l-.265.244c-.7.373-.623,1.11-.513,1.783.162.032.485.1.647.134.019.274.039.55.06.828l-.1.08a1.826,1.826,0,0,0-.716.9c0,.2.024.6.032.8A44.968,44.968,0,0,1,93.952,206.71Z" transform="translate(-73.669 -162.14)" fill="#cfcecf"/>
      <path id="Path_25146" data-name="Path 25146" d="M180.42,206.6c.386,0,.772.013,1.16.024q.086.315.181.634c-.418-.056-.837-.1-1.248-.181C180.489,206.958,180.444,206.719,180.42,206.6Z" transform="translate(-141.518 -162.053)" fill="#d0cfcf"/>
      <path id="Path_25147" data-name="Path 25147" d="M191.009,206.94l1.059-.05c.041.634.063,1.268.047,1.9-.5.075-.988.162-1.477.267,0-.047-.013-.138-.019-.188A7.09,7.09,0,0,1,191.009,206.94Z" transform="translate(-149.518 -162.281)" fill="#aaa8a9"/>
      <path id="Path_25148" data-name="Path 25148" d="M233.017,206.637a19.266,19.266,0,0,1,2.544,0c0,.278.019.554.03.832l-.757-.078c.047-.075.147-.216.2-.3l-1.854.017.735.192c.065.513.132,1.029.2,1.542l.548.108c.041.373.084.746.129,1.121l-.179.11c-.248.151-.492.3-.735.455,0-1.059.024-2.113-.05-3.17-.272-.022-.543-.043-.815-.06C233,207.155,233,206.9,233.017,206.637Z" transform="translate(-182.765 -162.049)" fill="#c7c7c7"/>
      <path id="Path_25149" data-name="Path 25149" d="M8.07,210.46c.069.345.14.69.216,1.037l.623.166c.015.509.03,1.02.05,1.531l-.16.071-.448.2-.25.287C8.085,212.651,8.07,211.555,8.07,210.46Z" transform="translate(-6.33 -165.081)" fill="#c7c7c7"/>
      <path id="Path_25150" data-name="Path 25150" d="M328.6,206.79h.666c.028.668.022,1.339-.013,2.01l-.647.138A20.467,20.467,0,0,1,328.6,206.79Z" transform="translate(-257.727 -162.202)" fill="#aba9aa"/>
      <path id="Path_25151" data-name="Path 25151" d="M212.54,209.951a9.415,9.415,0,0,1,.39-1.891h1.02a12.111,12.111,0,0,1,.371,1.846c-.151-.022-.451-.063-.6-.088q-.2-.285-.408-.563c-.015.153-.047.464-.065.619Z" transform="translate(-166.713 -163.199)" fill="#aba9aa"/>
      <path id="Path_25152" data-name="Path 25152" d="M257.573,220.94a1,1,0,0,1,.744.968h-.787C257.541,221.58,257.556,221.259,257.573,220.94Z" transform="translate(-202.002 -173.301)" fill="#aba9aa"/>
      <path id="Path_25153" data-name="Path 25153" d="M329.113,206.81h.144c-.019,1.509,0,3.019-.039,4.515-.032-.177-.1-.528-.134-.7l-.548-.108-.157-.03c.026-.507.052-1.011.073-1.509l.647-.138C329.135,208.145,329.141,207.478,329.113,206.81Z" transform="translate(-257.575 -162.218)" fill="#cac9ca"/>
      <path id="Path_25154" data-name="Path 25154" d="M345.875,206.762a11.445,11.445,0,0,1,1.464.024,1.186,1.186,0,0,1,1.037,1.158c-.069.282-.149.565-.216.847l-.571.127c-.032-.431-.06-.862-.091-1.294l-.811-.116v.947c-.175.114-.347.231-.517.347l-.33-.345C345.844,207.894,345.859,207.327,345.875,206.762Z" transform="translate(-271.271 -162.17)" fill="#aba9a9"/>
      <path id="Path_25155" data-name="Path 25155" d="M370.757,206.71l.88.084c.164.558.319,1.119.459,1.684l-1.406.065Q370.722,207.635,370.757,206.71Z" transform="translate(-290.763 -162.14)" fill="#a5a4a4"/>
      <path id="Path_25156" data-name="Path 25156" d="M379.608,206.627l.772-.067c-.035.688-.078,1.376-.138,2.061-.157.041-.468.114-.623.153A17.406,17.406,0,0,1,379.608,206.627Z" transform="translate(-297.736 -162.022)" fill="#a9a7a8"/>
      <path id="Path_25157" data-name="Path 25157" d="M94.23,221.888a1.826,1.826,0,0,1,.716-.888c.019.336.035.675.045,1.013C94.8,221.972,94.42,221.914,94.23,221.888Z" transform="translate(-73.912 -173.348)" fill="#a9a7a8"/>
      <path id="Path_25158" data-name="Path 25158" d="M373.4,206.56c.11,1.8,0,3.612.06,5.418-.386-.069-1,.157-1.078-.392l.789.3a3.236,3.236,0,0,0,.032-1.93c-.4,0-.8-.015-1.2-.05-.145-.265-.28-.535-.4-.8-.037.36-.078.722-.112,1.089-.244-.151-.492-.3-.735-.446-.026-.431-.05-.882-.073-1.32l1.406-.065h.054a13.331,13.331,0,0,0,.392,1.283q.054-.431.1-.862c.155-.039.466-.112.623-.153C373.321,207.936,373.364,207.248,373.4,206.56Z" transform="translate(-290.755 -162.022)" fill="#cbcaca"/>
      <path id="Path_25159" data-name="Path 25159" d="M413.76,206.67l.8.039.045,1.695-.815.526C413.758,208.175,413.747,207.423,413.76,206.67Z" transform="translate(-324.542 -162.108)" fill="#a5a3a3"/>
      <path id="Path_25160" data-name="Path 25160" d="M439.21,206.64q1.148.023,2.3,0l-.026.787q-.727.013-1.453.032c0,.466,0,.934-.011,1.4l-.647.047C439.285,208.16,439.229,207.4,439.21,206.64Z" transform="translate(-344.508 -162.085)" fill="#a5a3a3"/>
      <path id="Path_25161" data-name="Path 25161" d="M439.07,212.02c-.088-1.794-.039-3.592,0-5.39.019.761.075,1.52.162,2.275l.647-.047c.392-.026.787-.026,1.184-.03v.742a11.609,11.609,0,0,0-1.223.185l-.619.151-.043.543c-.028.33-.052.664-.071,1Z" transform="translate(-344.36 -162.077)" fill="#cecdcd"/>
      <path id="Path_25162" data-name="Path 25162" d="M461.53,206.72h.83c.138.457.27.91.386,1.373-.17.216-.341.448-.507.677A11.383,11.383,0,0,1,461.53,206.72Z" transform="translate(-362.016 -162.147)" fill="#9f9d9d"/>
      <path id="Path_25163" data-name="Path 25163" d="M469.22,206.72h.862c-.231.694-.479,1.382-.714,2.076-.216-.116-.416-.241-.619-.367C468.879,207.858,469.048,207.287,469.22,206.72Z" transform="translate(-367.679 -162.147)" fill="#9e9e9d"/>
      <path id="Path_25164" data-name="Path 25164" d="M527.909,207.082a1.335,1.335,0,0,1,2.424,0,9.413,9.413,0,0,1,.06,1.417c-.263-.052-.524-.1-.783-.147a6.679,6.679,0,0,0-.08-1.1.6.6,0,0,0-.8,0,5.588,5.588,0,0,0-.095,1.078c-.119.1-.237.216-.354.313l-.4-.054A7.314,7.314,0,0,1,527.909,207.082Z" transform="translate(-414.039 -161.824)" fill="#999797"/>
      <path id="Path_25165" data-name="Path 25165" d="M575.88,206.641l.826-.011c-.011.673-.03,1.348-.041,2.022l-.487.024c-.071-.078-.216-.229-.278-.308C575.906,207.788,575.886,207.216,575.88,206.641Z" transform="translate(-451.71 -162.077)" fill="#939191"/>
      <path id="Path_25166" data-name="Path 25166" d="M583.72,206.68h.763c0,.718.078,1.572-.686,1.941C583.737,207.982,583.72,207.331,583.72,206.68Z" transform="translate(-457.859 -162.116)" fill="#888887"/>
      <path id="Path_25167" data-name="Path 25167" d="M584.464,206.69h.1c-.075,1.619.043,3.245-.114,4.86q-.032-.813-.06-1.624c-.166-.03-.494-.093-.66-.121a2.993,2.993,0,0,1,.05-1.162C584.542,208.266,584.458,207.4,584.464,206.69Z" transform="translate(-457.84 -162.124)" fill="#c5c5c5"/>
      <path id="Path_25168" data-name="Path 25168" d="M599.79,206.71h2.587c0,.265-.017.533-.022.8l-.878-.026c0,.408-.017.819-.017,1.229l-.5.03-.265-.321v-.94h-.882C599.8,207.23,599.794,206.969,599.79,206.71Z" transform="translate(-470.464 -162.14)" fill="#8f8d8d"/>
      <path id="Path_25169" data-name="Path 25169" d="M675.515,206.6l.832-.015a3.312,3.312,0,0,1-.681,2.29A11.321,11.321,0,0,1,675.515,206.6Z" transform="translate(-529.857 -162.038)" fill="#8f8d8d"/>
      <path id="Path_25170" data-name="Path 25170" d="M641.764,206.531a1.476,1.476,0,0,1,2.089.453c-.045.481-.112.957-.172,1.438l-.537-.164c-.05-.412.06-1.117-.5-1.2-.483-.067-.52.485-.556.824l-.817.022C641.346,207.423,641.32,206.841,641.764,206.531Z" transform="translate(-503.001 -161.794)" fill="#8c8c8a"/>
      <path id="Path_25171" data-name="Path 25171" d="M666.794,206.54c.289,0,.578.019.862.043a12.583,12.583,0,0,1,.461,1.466c-.446-.05-.888-.091-1.328-.138C666.794,207.452,666.794,206.995,666.794,206.54Z" transform="translate(-523.018 -162.006)" fill="#8a8a88"/>
      <path id="Path_25172" data-name="Path 25172" d="M675.588,206.58c.05,1.8-.034,3.6.056,5.39-.395-.037-.9.121-1.1-.321.323.071.647.151.966.231a10.761,10.761,0,0,0-.026-2.042,2.772,2.772,0,0,0-.662-.194,1.294,1.294,0,0,1,.088-.783A3.309,3.309,0,0,0,675.588,206.58Z" transform="translate(-529.097 -162.038)" fill="#c2c2c2"/>
      <path id="Path_25173" data-name="Path 25173" d="M36.749,208.18l.811.1a8.624,8.624,0,0,1-.026,1.029c-.054.194-.11.384-.166.576-.2.019-.39.039-.582.063Q36.727,209.062,36.749,208.18Z" transform="translate(-28.821 -163.293)" fill="#a5a3a2"/>
      <path id="Path_25174" data-name="Path 25174" d="M54.22,208.287a13.823,13.823,0,0,1,2.156.05c.035.091.108.27.144.36-.5.017-.994.028-1.49.047q0,.664-.022,1.333c-.168,0-.5-.028-.671-.037C54.306,209.453,54.265,208.871,54.22,208.287Z" transform="translate(-42.529 -163.363)" fill="#aaa8a8"/>
      <path id="Path_25175" data-name="Path 25175" d="M101.927,208.87h.787c0,.509.013,1.02.022,1.527-.2.032-.392.06-.589.095-.067-.216-.129-.42-.19-.63A8.363,8.363,0,0,1,101.927,208.87Z" transform="translate(-79.947 -163.834)" fill="#a7a5a6"/>
      <path id="Path_25176" data-name="Path 25176" d="M257.52,209.056q.9-.065,1.807-.086l-.985.276q-.084.647-.164,1.283l-.632.14C257.537,210.134,257.529,209.6,257.52,209.056Z" transform="translate(-201.994 -163.912)" fill="#a7a5a6"/>
      <path id="Path_25177" data-name="Path 25177" d="M211.06,221.66a4.207,4.207,0,0,0,2.145.047c.056.3.116.606.175.91-.274-.019-.548-.039-.819-.05s-.528-.022-.791-.026c-.067.216-.132.431-.2.647,0-.166-.017-.494-.024-.66-.216.043-.453.08-.677.123C210.93,222.318,211,221.988,211.06,221.66Z" transform="translate(-165.403 -173.866)" fill="#a7a5a6"/>
      <path id="Path_25178" data-name="Path 25178" d="M119,208.7l.134-.05q.015.718.037,1.432c.188.035.558.112.744.149a2.548,2.548,0,0,1-.129.7l-.526.267c-.08.313-.162.627-.216.947C119.043,211,119.011,209.847,119,208.7Z" transform="translate(-93.341 -163.661)" fill="#cccacb"/>
      <path id="Path_25179" data-name="Path 25179" d="M650.411,209.58a37.3,37.3,0,0,1,.084,3.864h-.129c.03-.431.037-.862.052-1.294-.265-.071-.526-.147-.787-.216a9.706,9.706,0,0,1,.071-1.065l.537.164C650.3,210.533,650.357,210.061,650.411,209.58Z" transform="translate(-509.558 -164.391)" fill="#cecdce"/>
      <path id="Path_25180" data-name="Path 25180" d="M603.909,214.65l.276.313.5-.03q.024.558.045,1.126c-.283,0-.561,0-.839-.011C603.879,215.588,603.884,215.116,603.909,214.65Z" transform="translate(-473.676 -168.368)" fill="#cecdce"/>
      <path id="Path_25181" data-name="Path 25181" d="M504.182,211.127c.063-.3.129-.6.194-.9-.039,1.078.938,1.725,1.55,2.467a1.855,1.855,0,0,0-.6.619c-.589-.671-1.192-1.328-1.755-2.02Z" transform="translate(-394.991 -164.901)" fill="#c8c8c8"/>
      <path id="Path_25182" data-name="Path 25182" d="M347.991,213.137c.075-.282.155-.565.216-.847a2.335,2.335,0,0,1-.5,1.779c.045.179.138.539.183.72h-.05l-.761.1h-.041a1.763,1.763,0,0,0-.334-.742q-.142.278-.259.576c-.274.185-.546.377-.817.567.032-.83.05-1.658.037-2.488l.33.345c.17-.116.343-.233.517-.347v.647c.3-.069.593-.132.893-.2Z" transform="translate(-271.106 -166.516)" fill="#c8c7c7"/>
      <path id="Path_25183" data-name="Path 25183" d="M666.736,212.9c.431.047.882.088,1.328.138-.013.237-.022.477-.028.72-.442-.056-.884-.093-1.326-.119C666.714,213.392,666.723,213.137,666.736,212.9Z" transform="translate(-522.955 -166.995)" fill="#b2b1b2"/>
      <path id="Path_25184" data-name="Path 25184" d="M101.887,213.43c.06.216.123.418.19.63.2-.034.392-.063.589-.095,0,.53,0,1.061-.026,1.6-.17,0-.341-.013-.509-.015-.047.1-.142.3-.188.405A10.167,10.167,0,0,1,101.887,213.43Z" transform="translate(-79.877 -167.411)" fill="#cac8c9"/>
      <path id="Path_25185" data-name="Path 25185" d="M535.78,215.79c.259.045.52.095.783.147v1.078a1.662,1.662,0,0,0-.843.953C535.748,217.241,535.759,216.514,535.78,215.79Z" transform="translate(-420.209 -169.262)" fill="#cac8c9"/>
      <path id="Path_25186" data-name="Path 25186" d="M215.524,213.62q.2.278.408.563c-.015.41-.028.822-.041,1.231h-.53c.03-.39.06-.781.1-1.173C215.476,214.084,215.509,213.773,215.524,213.62Z" transform="translate(-168.924 -167.56)" fill="#ededed"/>
      <path id="Path_25187" data-name="Path 25187" d="M321.422,214.011l.188-.591a14.014,14.014,0,0,1-.026,2.169l-.774-.175V214.2Z" transform="translate(-251.638 -167.403)" fill="#c6c5c6"/>
      <path id="Path_25188" data-name="Path 25188" d="M668.074,213.54c.129.431.257.862.377,1.294l-.164.2c-.114.134-.216.267-.334.408-.1-.282-.2-.563-.3-.841-.03.155-.088.468-.119.625l-.783-.183c-.015-.3-.028-.6-.037-.9.431.026.884.063,1.326.119C668.05,214.017,668.059,213.777,668.074,213.54Z" transform="translate(-522.963 -167.497)" fill="#d0cecf"/>
      <path id="Path_25189" data-name="Path 25189" d="M142.756,214.68l.431.216.4-.2c-.03.75-.015,1.509,0,2.251l-.841-.024C142.763,216.168,142.774,215.424,142.756,214.68Z" transform="translate(-111.971 -168.391)" fill="#c4c2c3"/>
      <path id="Path_25190" data-name="Path 25190" d="M180.651,215.724a5.557,5.557,0,0,1,1.583.17h.019c.088.28.181.563.274.847.078-.388.155-.77.252-1.151l.013.112c0,.05.015.14.019.188.489-.106.981-.192,1.477-.267,0,.677.019,1.354.024,2.031l-.824-.015a13.3,13.3,0,0,0-.14-1.662c-.075.446-.14.9-.2,1.352l-.138.015c-.317.039-.632.071-.947.123l-.149.289c-.112-.466-.226-.929-.367-1.382-.026.308-.05.619-.069.931-.263-.235-.526-.47-.776-.72A4.7,4.7,0,0,1,180.651,215.724Z" transform="translate(-141.698 -169.105)" fill="#cbc9ca"/>
      <path id="Path_25191" data-name="Path 25191" d="M528.128,215.983c.116-.106.235-.216.354-.313q.022,1.11.039,2.223c-.132-.252-.252-.507-.373-.759-.164.149-.326.3-.487.453.022-.554.043-1.106.069-1.658Z" transform="translate(-413.887 -169.168)" fill="#c6c6c6"/>
      <path id="Path_25192" data-name="Path 25192" d="M641.383,220.324c-.054-.468.53-.259.8-.3a4.036,4.036,0,0,0,.157,1.6.621.621,0,0,0,.718-.086,6.4,6.4,0,0,0,.084-1.434c.261.069.522.144.787.216-.015.431-.021.862-.052,1.294a1.258,1.258,0,0,1-1.984.647C641.23,221.868,641.364,220.988,641.383,220.324Z" transform="translate(-503.071 -172.573)" fill="#979596"/>
      <path id="Path_25193" data-name="Path 25193" d="M54.126,220.867l.556-.037c.024.276.045.558.067.841l-.694.229a10.794,10.794,0,0,0-.121,1.093c.765,0,1.533.024,2.3.067-.787.058-1.576.058-2.372.043a8.409,8.409,0,0,1,.037-1.4C53.97,221.427,54.048,221.149,54.126,220.867Z" transform="translate(-42.236 -173.215)" fill="#aeacad"/>
      <path id="Path_25194" data-name="Path 25194" d="M180.561,220.17c.25.25.513.485.776.72.026.571.028,1.143.022,1.725-.3-.011-.6-.017-.9-.026l.082-.013.731-.142c-.035-.4-.067-.8-.1-1.2l-.664-.067C180.525,220.83,180.544,220.5,180.561,220.17Z" transform="translate(-141.55 -172.697)" fill="#afafaf"/>
      <path id="Path_25195" data-name="Path 25195" d="M575.723,221.053l.89-.013c-.03.328-.06.647-.088.988-.261.071-.52.149-.776.216a.862.862,0,0,0,1.126.351c.093,0,.282.017.377.019l.125.039c.267.054.537.1.813.14a2.2,2.2,0,0,1-1.628.561,5.406,5.406,0,0,1-.748-.759A5.643,5.643,0,0,1,575.723,221.053Z" transform="translate(-451.581 -173.38)" fill="#b0b0b0"/>
      <path id="Path_25196" data-name="Path 25196" d="M666.84,220.5l.783.183v2.156l-.781.013C666.823,222.059,666.827,221.281,666.84,220.5Z" transform="translate(-523.048 -172.956)" fill="#939091"/>
      <path id="Path_25197" data-name="Path 25197" d="M672.43,220.868c.11-.14.216-.274.334-.408l.4.08a2.771,2.771,0,0,1,.662.194,10.761,10.761,0,0,1,.026,2.042c-.323-.08-.647-.16-.966-.231A7.784,7.784,0,0,0,672.43,220.868Z" transform="translate(-527.442 -172.925)" fill="#929091"/>
      <path id="Path_25198" data-name="Path 25198" d="M352.4,224l.761-.1a11.112,11.112,0,0,1,.431,1.606h-.8C352.652,225,352.529,224.5,352.4,224Z" transform="translate(-276.416 -175.623)" fill="#929091"/>
      <path id="Path_25199" data-name="Path 25199" d="M28.583,221.06c.278.157.558.323.839.481v1.779l-.882-.063.832-.108c-.028-.593-.043-1.261-.759-1.393C28.6,221.582,28.59,221.235,28.583,221.06Z" transform="translate(-22.386 -173.396)" fill="#aeaeae"/>
      <path id="Path_25200" data-name="Path 25200" d="M36.725,221a2.249,2.249,0,0,1,.761.765c.03.507,0,1.011,0,1.509L36.6,223.2l.729-.149.065-.9-.781-.3C36.647,221.571,36.686,221.282,36.725,221Z" transform="translate(-28.708 -173.348)" fill="#a5a4a5"/>
      <path id="Path_25201" data-name="Path 25201" d="M370.871,221.33c.244.147.492.3.735.446q.037.862.015,1.71h-.776C370.823,222.768,370.841,222.048,370.871,221.33Z" transform="translate(-290.877 -173.607)" fill="#989898"/>
      <path id="Path_25202" data-name="Path 25202" d="M419.75,222.03c.229-.017.457-.037.686-.06a12.352,12.352,0,0,1,.817,2.014h-.837A9.457,9.457,0,0,1,419.75,222.03Z" transform="translate(-329.244 -174.109)" fill="#939393"/>
      <path id="Path_25203" data-name="Path 25203" d="M439.752,221.281l.619-.151c0,.332.011.666,0,1-.216-.108-.446-.216-.671-.306Z" transform="translate(-344.893 -173.45)" fill="#b1b0b1"/>
      <path id="Path_25204" data-name="Path 25204" d="M96.166,223.24c.168,0,.339,0,.509.015,0,.528.086,1.195-.431,1.54a1.518,1.518,0,0,1-1.982-.354c0-.2-.024-.6-.032-.8.19.026.571.084.761.114.112.25.274.636.632.466a1.473,1.473,0,0,0,.356-.58C96.024,223.544,96.121,223.341,96.166,223.24Z" transform="translate(-73.912 -175.105)" fill="#6e6c6d"/>
      <path id="Path_25205" data-name="Path 25205" d="M162.773,222.631c.293-.142.571-.31.862-.461,0,.138-.013.408-.019.541-.673.136-.843.679-.8,1.294.2.035.61.1.815.127-.285.019-.567.032-.847.052q-.032-.763-.078-1.52Z" transform="translate(-127.627 -174.266)" fill="#acacac"/>
      <path id="Path_25206" data-name="Path 25206" d="M320.809,222.67l.774.175c.091.356-.067,1.016.507.938.442.063.313-.608.509-.837l.548.108c.032.175.1.526.134.7a1.318,1.318,0,0,1-2.01.589C320.686,223.99,320.832,223.244,320.809,222.67Z" transform="translate(-251.636 -174.658)" fill="#8c8c8c"/>
      <path id="Path_25207" data-name="Path 25207" d="M505.174,222.289a1.854,1.854,0,0,1,.6-.619c.127.565.345,1.32-.188,1.755a7.509,7.509,0,0,1-1.706.078l-.455-.347c-.078-.468-.153-.992.494-.983.226.3.319.925.826.834C505.115,222.994,505.049,222.522,505.174,222.289Z" transform="translate(-394.84 -173.874)" fill="#8d8c8d"/>
      <path id="Path_25208" data-name="Path 25208" d="M527.66,222.136c.162-.153.323-.3.487-.453.121.252.242.507.373.759a.444.444,0,0,0,.886-.019,1.662,1.662,0,0,1,.843-.953c-.065.612.188,1.425-.416,1.841a6.643,6.643,0,0,1-1.725,0C527.705,223.053,527.733,222.544,527.66,222.136Z" transform="translate(-413.887 -173.717)" fill="#888"/>
      <path id="Path_25209" data-name="Path 25209" d="M8.454,223.666l.448-.2a14.447,14.447,0,0,1,.16,1.645l-.852.035v-1.2Z" transform="translate(-6.44 -175.286)" fill="#737373"/>
      <path id="Path_25210" data-name="Path 25210" d="M186.7,223.813c.315-.052.63-.084.947-.123a12.565,12.565,0,0,1-.25,1.652h-.563a10.4,10.4,0,0,1-.282-1.24Z" transform="translate(-146.326 -175.458)" fill="#817f80"/>
      <path id="Path_25211" data-name="Path 25211" d="M237,223.725c.244-.153.487-.3.735-.455a9.322,9.322,0,0,1,.114,1.725c-.272-.011-.539-.015-.806-.019C237.032,224.564,237.019,224.145,237,223.725Z" transform="translate(-185.899 -175.129)" fill="#787878"/>
      <path id="Path_25212" data-name="Path 25212" d="M28.583,224.29c.716.132.731.8.759,1.393l-.832.108C28.523,225.288,28.544,224.788,28.583,224.29Z" transform="translate(-22.363 -175.929)" fill="#747273"/>
      <path id="Path_25213" data-name="Path 25213" d="M180.68,224.77l.664.067c.035.4.067.8.1,1.2l-.731.142C180.7,225.7,180.686,225.238,180.68,224.77Z" transform="translate(-141.722 -176.306)" fill="#777576"/>
      <path id="Path_25214" data-name="Path 25214" d="M193.845,225.06l.824.015c-.015.431-.024.88-.032,1.322h-.787C193.843,225.953,193.843,225.5,193.845,225.06Z" transform="translate(-152.048 -176.533)" fill="#787677"/>
      <path id="Path_25215" data-name="Path 25215" d="M345.67,224.167c.272-.19.543-.382.817-.567a12.759,12.759,0,0,1,.032,1.675c-.254,0-.507-.013-.759-.017C345.741,224.894,345.7,224.529,345.67,224.167Z" transform="translate(-271.137 -175.388)" fill="#8b8a8b"/>
      <path id="Path_25216" data-name="Path 25216" d="M439.481,224.35c.216.095.446.2.671.306.024.1.069.291.093.39h1.41l.011.3H439.41C439.429,225.014,439.453,224.68,439.481,224.35Z" transform="translate(-344.665 -175.976)" fill="#8b8a8a"/>
      <path id="Path_25217" data-name="Path 25217" d="M36.6,225l.776.3-.065.9-.729.149C36.589,225.895,36.593,225.448,36.6,225Z" transform="translate(-28.693 -176.486)" fill="#727071"/>
      <path id="Path_25218" data-name="Path 25218" d="M54.363,224.979l.688-.229v.619H56.5c.011.192.032.58.043.77-.765-.043-1.533-.058-2.3-.067a10.8,10.8,0,0,1,.123-1.093Z" transform="translate(-42.545 -176.29)" fill="#727071"/>
      <path id="Path_25219" data-name="Path 25219" d="M163.213,225.964c-.047-.612.123-1.156.8-1.294,0,.472.015.944.019,1.419C163.823,226.061,163.416,226,163.213,225.964Z" transform="translate(-128.016 -176.227)" fill="#716f70"/>
      <path id="Path_25220" data-name="Path 25220" d="M210.274,225.793c.216-.043.451-.08.677-.123,0,.166.017.494.024.66s0,.395.015.524l-.88.028C210.164,226.517,210.218,226.153,210.274,225.793Z" transform="translate(-164.806 -177.012)" fill="#797778"/>
      <path id="Path_25221" data-name="Path 25221" d="M218.71,225.87c.272,0,.546.03.819.05.052.369.106.737.162,1.11h-.83C218.809,226.642,218.76,226.254,218.71,225.87Z" transform="translate(-171.552 -177.168)" fill="#7c7c7c"/>
      <path id="Path_25222" data-name="Path 25222" d="M257.53,225.4h.787c.017.119.056.356.073.472h1.425c0,.188.022.571.028.761-.763.024-1.527.035-2.288.043C257.545,226.256,257.539,225.827,257.53,225.4Z" transform="translate(-202.002 -176.8)" fill="#848484"/>
      <path id="Path_25223" data-name="Path 25223" d="M300.464,225.06c.28.013.565.03.847.05,0,.431-.013.862-.017,1.307-.28-.019-.558-.035-.834-.05C300.462,225.931,300.462,225.5,300.464,225.06Z" transform="translate(-235.675 -176.533)" fill="#848484"/>
      <path id="Path_25224" data-name="Path 25224" d="M413.775,224.62c.183.257.776.405.576.8l-.591.244C413.762,225.4,413.771,224.881,413.775,224.62Z" transform="translate(-324.546 -176.188)" fill="#898888"/>
      <path id="Path_25225" data-name="Path 25225" d="M532.82,230.393c.274-.188.446-.144.522.125C533.074,230.7,532.891,230.649,532.82,230.393Z" transform="translate(-417.934 -180.626)" fill="#989798"/>
    </g>
  </g>
</svg>
