<svg xmlns="http://www.w3.org/2000/svg" width="12.4" height="12.4" viewBox="0 0 12.4 12.4">
  <g id="Page-1" transform="translate(-7.998 -5.999)">
    <g id="Artboard-Copy" transform="translate(7.998 5.999)">
      <path id="grid" d="M355.774,255a.776.776,0,0,0-.776.775v3.875a.776.776,0,0,0,.776.775h3.875a.775.775,0,0,0,.775-.775v-3.875a.775.775,0,0,0-.775-.775Zm0,6.975a.775.775,0,0,0-.776.775v3.875a.776.776,0,0,0,.776.775h3.875a.776.776,0,0,0,.775-.775v-3.875a.775.775,0,0,0-.775-.775ZM362.749,255a.775.775,0,0,0-.775.775v3.875a.775.775,0,0,0,.775.775h3.875a.775.775,0,0,0,.775-.775v-3.875a.775.775,0,0,0-.775-.775Zm0,6.975a.775.775,0,0,0-.775.775v3.875a.775.775,0,0,0,.775.775h3.875a.775.775,0,0,0,.775-.775v-3.875a.775.775,0,0,0-.775-.775Z" transform="translate(-354.998 -254.999)" fill="#fff"/>
    </g>
  </g>
</svg>
