<svg xmlns="http://www.w3.org/2000/svg" width="13.754" height="13.753" viewBox="0 0 13.754 13.753">
  <g id="bill_alternatif" data-name="bill alternatif" transform="translate(-0.5 -0.5)">
    <path id="Path_25242" data-name="Path 25242" d="M12.593,1H2.159A1.159,1.159,0,0,0,1,2.159V13.173a.58.58,0,0,0,.58.58c.267,0,.278-.058,1.449-1,1.658,1.327,1.223,1.339,2.9,0,1.652,1.322,1.223,1.345,2.9,0,1.658,1.327,1.223,1.339,2.9,0,1.159.956,1.3,1.13,1.693.939s.336.33.336-11.535A1.159,1.159,0,0,0,12.593,1Zm0,10.967c-.968-.783-.736-.8-2.319.464-1.652-1.322-1.223-1.345-2.9,0-1.652-1.322-1.217-1.345-2.9,0-1.5-1.194-1.287-1.293-2.319-.458V2.159H12.593Z" transform="translate(0)" fill="#fff" stroke="#fff" stroke-width="1"/>
    <path id="Path_25243" data-name="Path 25243" d="M11.028,10.637H9.579a.58.58,0,0,0,0,1.159h.58v.58a.58.58,0,1,0,1.159,0V11.8a1.456,1.456,0,0,0-.29-2.9c-.383,0-.869.093-.869-.29a.29.29,0,0,1,.29-.29H11.9a.58.58,0,1,0,0-1.159h-.58V6.58a.58.58,0,0,0-1.159,0v.609a1.449,1.449,0,0,0,.29,2.869h.58a.29.29,0,0,1,0,.58Z" transform="translate(-3.362 -2.102)" fill="#fff"/>
  </g>
</svg>
