<svg xmlns="http://www.w3.org/2000/svg" width="13.357" height="13.357" viewBox="0 0 13.357 13.357">
  <g id="Layer_10" data-name="Layer 10" transform="translate(-0.75 -0.75)">
    <path id="Path_25251" data-name="Path 25251" d="M7.857,13.857H7a1.286,1.286,0,0,1-1.286-1.131,5.434,5.434,0,0,1-.836-.343,1.286,1.286,0,0,1-1.714-.107l-.583-.6a1.286,1.286,0,0,1-.107-1.714,5.434,5.434,0,0,1-.343-.814A1.286,1.286,0,0,1,1,7.857V7A1.286,1.286,0,0,1,2.131,5.714a5.434,5.434,0,0,1,.343-.836,1.286,1.286,0,0,1,.107-1.714l.6-.583A1.286,1.286,0,0,1,4.9,2.474a5.434,5.434,0,0,1,.814-.343A1.286,1.286,0,0,1,7,1h.857A1.286,1.286,0,0,1,9.143,2.131a5.434,5.434,0,0,1,.836.343,1.286,1.286,0,0,1,1.714.107l.583.6A1.286,1.286,0,0,1,12.383,4.9a5.434,5.434,0,0,1,.343.836A1.286,1.286,0,0,1,13.857,7v.857a1.286,1.286,0,0,1-1.131,1.286,5.434,5.434,0,0,1-.343.836,1.286,1.286,0,0,1-.107,1.714l-.6.583a1.286,1.286,0,0,1-1.714.107,5.434,5.434,0,0,1-.836.343A1.286,1.286,0,0,1,7.857,13.857Zm-3.038-2.43a.4.4,0,0,1,.219.06,4.714,4.714,0,0,0,1.213.5.429.429,0,0,1,.321.429v.154A.429.429,0,0,0,7,13h.857a.429.429,0,0,0,.429-.429V12.4a.429.429,0,0,1,.321-.429,4.714,4.714,0,0,0,1.213-.5.429.429,0,0,1,.519.064l.12.12a.429.429,0,0,0,.609,0l.6-.6a.429.429,0,0,0,0-.609l-.12-.12a.429.429,0,0,1-.064-.519,4.714,4.714,0,0,0,.5-1.213.429.429,0,0,1,.429-.321h.154A.429.429,0,0,0,13,7.844V7a.429.429,0,0,0-.429-.429H12.4a.429.429,0,0,1-.429-.321,4.714,4.714,0,0,0-.5-1.213.429.429,0,0,1,.064-.519l.12-.12a.429.429,0,0,0,0-.609l-.591-.6a.429.429,0,0,0-.609,0l-.12.12a.429.429,0,0,1-.519.064,4.714,4.714,0,0,0-1.213-.5.429.429,0,0,1-.321-.429V2.286a.429.429,0,0,0-.429-.429H7a.429.429,0,0,0-.429.429v.167a.429.429,0,0,1-.321.429,4.714,4.714,0,0,0-1.213.5.429.429,0,0,1-.519-.064L4.4,3.186a.429.429,0,0,0-.609,0l-.6.6a.429.429,0,0,0,0,.609l.12.12a.429.429,0,0,1,.064.519,4.714,4.714,0,0,0-.5,1.213.429.429,0,0,1-.429.321H2.286A.429.429,0,0,0,1.857,7v.857a.429.429,0,0,0,.429.429h.167a.429.429,0,0,1,.429.321,4.714,4.714,0,0,0,.5,1.213.429.429,0,0,1-.064.519l-.12.12a.429.429,0,0,0,0,.609l.591.6a.429.429,0,0,0,.609,0l.12-.12A.429.429,0,0,1,4.818,11.427Z" transform="translate(0 0)" fill="#fff" stroke="#fff" stroke-width="0.5"/>
    <path id="Path_25252" data-name="Path 25252" d="M12,15a3,3,0,1,1,3-3A3,3,0,0,1,12,15Zm0-5.143A2.143,2.143,0,1,0,14.143,12,2.143,2.143,0,0,0,12,9.857Z" transform="translate(-4.572 -4.572)" fill="#fff" stroke="#fff" stroke-width="0.5"/>
  </g>
</svg>
