<svg xmlns="http://www.w3.org/2000/svg" width="12.773" height="12.773" viewBox="0 0 12.773 12.773">
  <path id="_1608790_phone_icon" data-name="1608790_phone_icon" d="M204.773,138.088a2.994,2.994,0,0,1-.091.64,3.6,3.6,0,0,1-.191.621,2.432,2.432,0,0,1-1.107.962,3.363,3.363,0,0,1-2.164.431,3.92,3.92,0,0,1-.522-.113q-.29-.082-.431-.132t-.5-.186q-.363-.136-.445-.163a8.215,8.215,0,0,1-1.588-.753,15.238,15.238,0,0,1-4.355-4.355,8.216,8.216,0,0,1-.753-1.588q-.027-.082-.163-.445t-.186-.5q-.05-.141-.132-.431a3.922,3.922,0,0,1-.113-.522,3.363,3.363,0,0,1,.431-2.164,2.432,2.432,0,0,1,.962-1.107,3.6,3.6,0,0,1,.621-.191,2.994,2.994,0,0,1,.64-.091.508.508,0,0,1,.191.027q.163.054.481.689.1.172.272.49t.318.576q.145.259.281.485.027.036.159.227a2.531,2.531,0,0,1,.2.322.592.592,0,0,1,.064.259.753.753,0,0,1-.259.454,4.422,4.422,0,0,1-.562.5,5.465,5.465,0,0,0-.562.481.691.691,0,0,0-.259.417.613.613,0,0,0,.045.2,1.983,1.983,0,0,0,.077.186q.032.063.127.218t.1.172a8.992,8.992,0,0,0,3.71,3.71q.018.009.172.1t.218.127a1.979,1.979,0,0,0,.186.077.613.613,0,0,0,.2.045.691.691,0,0,0,.417-.259,5.46,5.46,0,0,0,.481-.562,4.424,4.424,0,0,1,.5-.562.753.753,0,0,1,.454-.259.592.592,0,0,1,.259.064,2.532,2.532,0,0,1,.322.2q.19.132.227.159.227.136.485.281t.576.318q.318.172.49.272.635.318.689.481A.509.509,0,0,1,204.773,138.088Z" transform="translate(-192 -128)" fill="#bf932d"/>
</svg>
