<svg xmlns="http://www.w3.org/2000/svg" width="17.522" height="16.667" viewBox="0 0 17.522 16.667">
  <g id="_4096584_favorite_star_icon" data-name="4096584_favorite_star_icon" transform="translate(-6.6 -10.2)">
    <g id="Group_216" data-name="Group 216" transform="translate(6.6 10.2)">
      <path id="Path_25392" data-name="Path 25392" d="M16.194,10.2l2.291,4.659,5.133.749c.229.718.275.84.5,1.558L20.41,20.787l-5.041,3.666-4.6,2.414L9.441,25.9l.886-5.118L6.6,17.166c.229-.718.275-.84.5-1.558l5.133-.749L14.528,10.2Z" transform="translate(-6.6 -10.2)" fill="#ffd952"/>
    </g>
    <g id="Group_217" data-name="Group 217" transform="translate(15.369 20.863)">
      <path id="Path_25393" data-name="Path 25393" d="M69.041,80H64v3.666l4.583,2.291,1.375-.917Z" transform="translate(-64 -80)" fill="#ff9d00"/>
    </g>
    <g id="Group_218" data-name="Group 218" transform="translate(13.841 19.335)">
      <rect id="Rectangle_4841" data-name="Rectangle 4841" width="1" height="2" transform="translate(0.259 -0.135)" fill="#fff"/>
    </g>
  </g>
</svg>
